<svg width="187" height="415" viewBox="0 0 187 415" fill="none" xmlns="http://www.w3.org/2000/svg">
<path d="M59.8711 401.855C60.4093 395.383 54.0915 389.575 45.7599 388.882C37.4283 388.189 30.2378 392.874 29.6996 399.345C29.1614 405.817 35.4792 411.625 43.8109 412.318C52.1425 413.011 59.3329 408.326 59.8711 401.855Z" fill="#9F692D" stroke="#5D3C28" stroke-width="3.16768" stroke-linecap="round" stroke-linejoin="round"/>
<path d="M103.79 401.271C103.766 394.669 96.5645 389.343 87.7043 389.375C78.8441 389.407 71.6808 394.785 71.7047 401.387C71.7287 407.989 78.9307 413.315 87.7909 413.282C96.6511 413.25 103.814 407.873 103.79 401.271Z" fill="#9F692D" stroke="#5D3C28" stroke-width="3.17074" stroke-linecap="round" stroke-linejoin="round"/>
<path d="M114.247 289.324C127.26 289.324 137.809 278.775 137.809 265.761C137.809 252.748 127.26 242.199 114.247 242.199C101.234 242.199 90.6846 252.748 90.6846 265.761C90.6846 278.775 101.234 289.324 114.247 289.324Z" fill="#F8B62D" stroke="#5D3C28" stroke-width="3.4732" stroke-linecap="round" stroke-linejoin="round"/>
<path fill-rule="evenodd" clip-rule="evenodd" d="M99.8562 344.475C99.8562 344.475 106.452 364.156 106.452 382.101C106.452 386.809 106.445 392.74 103.178 400.273C103.178 400.273 93.8039 403.107 87.5409 403.608C81.1207 404.121 71.2077 401.724 71.2077 401.724C71.2077 401.724 67.9411 395.604 67.9411 393.25C65.9811 393.25 63.3678 393.25 61.4078 393.25C61.4078 395.133 61.4078 399.37 59.4479 401.254C59.4479 401.254 50.7695 403.384 45.0747 403.137C39.195 402.882 30.7016 399.841 30.7016 399.841C30.7016 399.841 13.0618 375.36 41.8081 336.755L94.7274 334.401L99.8562 344.475Z" fill="#F8B62D" stroke="#5D3C28" stroke-width="3.4732" stroke-linecap="round" stroke-linejoin="round"/>
<path fill-rule="evenodd" clip-rule="evenodd" d="M13.1086 352.127C11.978 355.733 13.227 360.304 14.8047 362.343C16.3287 364.318 18.235 365.59 20.4581 366.549C23.6435 367.921 26.1335 367.267 29.5041 366.549C34.5923 364.145 36.2907 362.339 35.723 358.737C35.5198 357.461 35.2739 357.044 34.8078 355.85C33.6006 352.744 43.5268 338.63 43.0726 335.302C35.723 322.082 26.6773 333.499 18.1969 343.715C18.1969 343.715 14.2393 348.522 13.1086 352.127Z" fill="#F8B62D" stroke="#5D3C28" stroke-width="3.4732" stroke-linecap="round" stroke-linejoin="round"/>
<path d="M29.0236 277.904C40.6977 277.904 50.1615 268.44 50.1615 256.766C50.1615 245.092 40.6977 235.628 29.0236 235.628C17.3495 235.628 7.88574 245.092 7.88574 256.766C7.88574 268.44 17.3495 277.904 29.0236 277.904Z" fill="#F8B62D" stroke="#5D3C28" stroke-width="3.4732" stroke-linecap="round" stroke-linejoin="round"/>
<path fill-rule="evenodd" clip-rule="evenodd" d="M129.225 295.34C129.761 264.615 103.141 242.928 69.7032 241.073C36.2658 239.217 7.9399 260.696 5.82005 291.355C3.77426 320.839 29.5521 338.232 64.6884 340.18C114.904 342.963 128.868 315.712 129.224 295.334L129.225 295.34Z" fill="#F8B62D" stroke="#5D3C28" stroke-width="3.4732" stroke-linecap="round" stroke-linejoin="round"/>
<path fill-rule="evenodd" clip-rule="evenodd" d="M112.926 299.427C111.878 321.446 91.2395 333.134 64.6997 331.871C38.16 330.608 18.9358 317.026 19.9753 295.218C21.041 272.776 41.5831 258.685 68.1238 259.955C94.6635 261.218 114.017 276.57 112.927 299.434L112.926 299.427Z" fill="#9F692D" stroke="#5D3C28" stroke-width="3.4732" stroke-linecap="round" stroke-linejoin="round"/>
<path d="M86.9072 298.693C89.171 298.372 90.7461 296.276 90.4252 294.013C90.1043 291.749 88.0089 290.174 85.7451 290.495C83.4812 290.816 81.9061 292.911 82.227 295.175C82.548 297.439 84.6433 299.014 86.9072 298.693Z" fill="#5D3C28"/>
<path d="M46.0038 297.441C48.2677 297.12 49.8428 295.025 49.5219 292.761C49.201 290.497 47.1056 288.922 44.8417 289.243C42.5779 289.564 41.0028 291.659 41.3237 293.923C41.6446 296.187 43.74 297.762 46.0038 297.441Z" fill="#5D3C28"/>
<path fill-rule="evenodd" clip-rule="evenodd" d="M82.9956 306.814C83.1293 316.218 75.1364 321.19 65.1974 321.332C55.2517 321.476 47.1185 316.331 46.9897 307.33C46.8639 298.533 54.8489 292.955 64.7878 292.812C74.7336 292.669 82.8698 298.017 82.9956 306.814Z" fill="#F2D6A1"/>
<path fill-rule="evenodd" clip-rule="evenodd" d="M70.3167 302.66C70.2531 305.274 67.0547 306.82 65.4689 306.78C64.0522 306.744 60.7671 305.038 60.8377 302.422C60.9013 299.808 63.0281 299.564 65.6493 299.627C68.2706 299.689 70.3794 300.038 70.3157 302.653L70.3167 302.66Z" fill="#5D3C28"/>
<path d="M61.6899 311.318L65.6779 309.079L69.0258 311.211" stroke="#5D3C28" stroke-width="2.08392" stroke-linecap="round" stroke-linejoin="round"/>
<path d="M65.5021 305.475L65.4148 308.929" stroke="#5D3C28" stroke-width="2.08392" stroke-linecap="round" stroke-linejoin="round"/>
<path fill-rule="evenodd" clip-rule="evenodd" d="M95.4369 360.484C95.4369 360.484 104.637 380.198 122.38 365.084C122.38 365.084 136.179 350.627 119.094 341.427C119.094 341.427 107.923 347.341 93.4655 347.998" fill="#F8B62D"/>
<path d="M95.4369 360.484C95.4369 360.484 104.637 380.198 122.38 365.084C122.38 365.084 136.179 350.627 119.094 341.427C119.094 341.427 107.923 347.341 93.4655 347.998" stroke="#5D3C28" stroke-width="3.4732" stroke-linecap="round" stroke-linejoin="round"/>
<path d="M55.3516 391.664C55.4593 391.54 55.6354 391.678 55.7838 391.733C55.9407 391.806 56.0847 391.887 56.2365 391.971C58.9272 393.536 61.713 394.977 65.2707 394.949C65.2771 394.949 65.2834 394.948 65.2897 394.948C68.6848 394.776 71.5564 393.48 74.2042 391.651C74.4978 391.444 74.7881 391.23 75.0657 391.007C74.7113 390.978 74.3539 390.952 73.9995 390.93C70.8391 390.704 67.8025 390.885 65.1608 391.007C65.156 391.008 65.1512 391.008 65.1465 391.008C62.6525 391.064 59.5774 390.759 56.3543 391.231C56.1716 391.262 55.9966 391.299 55.808 391.349C55.7162 391.375 55.6306 391.403 55.5331 391.445C55.4561 391.483 55.3151 391.557 55.3516 391.664Z" fill="#5D3C28"/>
<path d="M25.6928 347.295C25.7553 341.875 30.2903 337.532 35.822 337.596C41.3537 337.66 45.7874 342.106 45.7249 347.526C45.6624 352.947 41.1275 357.289 35.5958 357.225C30.0641 357.162 25.6304 352.716 25.6928 347.295Z" fill="white" stroke="#5D3C28" stroke-width="3.4732" stroke-linecap="round" stroke-linejoin="round"/>
<path fill-rule="evenodd" clip-rule="evenodd" d="M53.1567 325.641C61.8834 325.744 68.9117 329.364 68.8607 333.724L68.5487 360.625C68.4977 364.985 61.3838 368.442 52.6571 368.339C43.9304 368.236 36.9021 364.616 36.9532 360.256L37.2651 333.356C37.3162 328.996 44.43 325.538 53.1567 325.641Z" fill="white" stroke="#5D3C28" stroke-width="3.4732" stroke-linecap="round" stroke-linejoin="round"/>
<path d="M43.0112 334.296C43.0316 332.528 47.4422 331.145 52.8627 331.207C58.2832 331.27 62.6608 332.754 62.6404 334.523C62.62 336.291 58.2094 337.674 52.7889 337.612C47.3685 337.549 42.9908 336.065 43.0112 334.296Z" fill="#5D3C28"/>
<path d="M39.8913 357.656C42.4124 352.359 40.4068 346.138 35.4117 343.761C30.4166 341.383 24.3236 343.749 21.8026 349.046C19.2815 354.342 21.2871 360.563 26.2822 362.941C31.2773 365.318 37.3703 362.952 39.8913 357.656Z" fill="#9F692D" stroke="#5D3C28" stroke-width="3.4732" stroke-linecap="round" stroke-linejoin="round"/>
<path d="M88.307 357.644L95.7482 346.821C95.7482 346.821 77.4327 334.876 83.0069 315.765C88.581 296.653 114.082 286.942 136.4 289.067C160.486 291.36 184.179 304.994 184.179 325.698C184.179 344.841 167.954 355.67 149.937 358.347C134.31 360.669 109.325 352.773 109.325 352.773L88.6494 358.133C88.3641 358.207 88.14 357.887 88.307 357.644Z" fill="white" stroke="#5D3C28" stroke-width="4.77794"/>
<path d="M130.42 354.225C131.661 348.01 127.251 341.89 120.57 340.556C113.889 339.223 107.467 343.18 106.226 349.395C104.985 355.61 109.396 361.729 116.077 363.063C122.757 364.397 129.179 360.44 130.42 354.225Z" fill="#9F692D" stroke="#5D3C28" stroke-width="3.4732" stroke-linecap="round" stroke-linejoin="round"/>
<path d="M39.2141 91.2192C39.2141 90.7805 39.3121 90.3932 39.5081 90.0572C39.7041 89.7212 39.9841 89.4412 40.3481 89.2172C40.7121 88.9932 41.1507 88.8252 41.6641 88.7132C42.1774 88.6012 42.7467 88.5452 43.3721 88.5452C43.9974 88.5452 44.5667 88.6012 45.0801 88.7132C45.5934 88.8252 46.0321 88.9932 46.3961 89.2172C46.7601 89.4412 47.0401 89.7212 47.2361 90.0572C47.4321 90.3932 47.5301 90.7805 47.5301 91.2192C47.5301 91.6578 47.4321 92.0452 47.2361 92.3812C47.0401 92.7172 46.7601 92.9972 46.3961 93.2212C46.0321 93.4452 45.5934 93.6132 45.0801 93.7252C44.5667 93.8372 43.9974 93.8932 43.3721 93.8932C42.7467 93.8932 42.1774 93.8372 41.6641 93.7252C41.1507 93.6132 40.7121 93.4452 40.3481 93.2212C39.9841 92.9972 39.7041 92.7172 39.5081 92.3812C39.3121 92.0452 39.2141 91.6578 39.2141 91.2192ZM39.0041 83.3652H42.8401V81.8672C42.8401 81.6805 42.8961 81.5358 43.0081 81.4332C43.1201 81.3212 43.2694 81.2652 43.4561 81.2652C43.6427 81.2652 43.7921 81.3212 43.9041 81.4332C44.0161 81.5358 44.0721 81.6805 44.0721 81.8672V86.0952C44.0721 86.5525 43.9787 86.8745 43.7921 87.0612C43.6147 87.2385 43.2974 87.3272 42.8401 87.3272H39.0041C38.5467 87.3272 38.2247 87.2385 38.0381 87.0612C37.8607 86.8745 37.7721 86.5525 37.7721 86.0952V81.8672C37.7721 81.6805 37.8281 81.5358 37.9401 81.4332C38.0521 81.3212 38.2014 81.2652 38.3881 81.2652C38.5747 81.2652 38.7241 81.3212 38.8361 81.4332C38.9481 81.5358 39.0041 81.6805 39.0041 81.8672V83.3652ZM40.4321 91.2192C40.4321 91.4992 40.5021 91.7465 40.6421 91.9612C40.7821 92.1758 40.9827 92.3532 41.2441 92.4932C41.5054 92.6332 41.8134 92.7358 42.1681 92.8012C42.5321 92.8758 42.9334 92.9132 43.3721 92.9132C43.8107 92.9132 44.2074 92.8758 44.5621 92.8012C44.9261 92.7358 45.2387 92.6332 45.5001 92.4932C45.7614 92.3532 45.9621 92.1758 46.1021 91.9612C46.2421 91.7465 46.3121 91.4992 46.3121 91.2192C46.3121 90.9392 46.2421 90.6918 46.1021 90.4772C45.9621 90.2625 45.7614 90.0852 45.5001 89.9452C45.2387 89.8052 44.9261 89.7025 44.5621 89.6372C44.2074 89.5625 43.8107 89.5252 43.3721 89.5252C42.9334 89.5252 42.5321 89.5625 42.1681 89.6372C41.8134 89.7025 41.5054 89.8052 41.2441 89.9452C40.9827 90.0852 40.7821 90.2625 40.6421 90.4772C40.5021 90.6918 40.4321 90.9392 40.4321 91.2192ZM47.5721 87.6772C47.5721 87.8638 47.5161 88.0132 47.4041 88.1252C47.2921 88.2278 47.1427 88.2792 46.9561 88.2792C46.7694 88.2792 46.6201 88.2278 46.5081 88.1252C46.3961 88.0132 46.3401 87.8638 46.3401 87.6772V81.6432C46.3401 81.4565 46.3961 81.3118 46.5081 81.2092C46.6201 81.0972 46.7694 81.0412 46.9561 81.0412C47.1427 81.0412 47.2921 81.0972 47.4041 81.2092C47.5161 81.3118 47.5721 81.4565 47.5721 81.6432V83.8972H49.2381C49.4154 83.8972 49.5554 83.9392 49.6581 84.0232C49.7701 84.1072 49.8261 84.2378 49.8261 84.4152C49.8261 84.5925 49.7701 84.7232 49.6581 84.8072C49.5554 84.8912 49.4154 84.9332 49.2381 84.9332H47.5721V87.6772ZM42.4621 86.3472C42.6114 86.3472 42.7094 86.3238 42.7561 86.2772C42.8121 86.2212 42.8401 86.1185 42.8401 85.9692V84.3452H39.0041V85.9692C39.0041 86.1185 39.0274 86.2212 39.0741 86.2772C39.1301 86.3238 39.2327 86.3472 39.3821 86.3472H42.4621ZM65.8855 89.4272C65.8855 89.6138 65.8295 89.7632 65.7175 89.8752C65.6055 89.9778 65.4562 90.0292 65.2695 90.0292C65.0829 90.0292 64.9335 89.9778 64.8215 89.8752C64.7095 89.7632 64.6535 89.6138 64.6535 89.4272V81.6432C64.6535 81.4565 64.7095 81.3118 64.8215 81.2092C64.9335 81.0972 65.0829 81.0412 65.2695 81.0412C65.4562 81.0412 65.6055 81.0972 65.7175 81.2092C65.8295 81.3118 65.8855 81.4565 65.8855 81.6432V89.4272ZM58.7455 92.2552C58.7455 92.4605 58.8482 92.5632 59.0535 92.5632H65.6475C65.8249 92.5632 65.9649 92.6052 66.0675 92.6892C66.1795 92.7732 66.2355 92.9038 66.2355 93.0812C66.2355 93.2585 66.1795 93.3892 66.0675 93.4732C65.9649 93.5572 65.8249 93.5992 65.6475 93.5992H58.8155C58.3395 93.5992 58.0035 93.5012 57.8075 93.3052C57.6115 93.1092 57.5135 92.7732 57.5135 92.2972V89.6232C57.5135 89.4365 57.5695 89.2918 57.6815 89.1892C57.7935 89.0772 57.9429 89.0212 58.1295 89.0212C58.3162 89.0212 58.4655 89.0772 58.5775 89.1892C58.6895 89.2918 58.7455 89.4365 58.7455 89.6232V92.2552ZM62.3155 84.5832C62.3155 85.0778 62.2315 85.5305 62.0635 85.9412C61.8955 86.3425 61.6575 86.6878 61.3495 86.9772C61.0509 87.2665 60.6962 87.4905 60.2855 87.6492C59.8749 87.8078 59.4269 87.8872 58.9415 87.8872C58.4562 87.8872 58.0082 87.8078 57.5975 87.6492C57.1869 87.4905 56.8275 87.2665 56.5195 86.9772C56.2209 86.6878 55.9875 86.3425 55.8195 85.9412C55.6515 85.5305 55.5675 85.0778 55.5675 84.5832C55.5675 84.0885 55.6515 83.6405 55.8195 83.2392C55.9875 82.8285 56.2209 82.4785 56.5195 82.1892C56.8275 81.8998 57.1869 81.6758 57.5975 81.5172C58.0082 81.3585 58.4562 81.2792 58.9415 81.2792C59.4269 81.2792 59.8749 81.3585 60.2855 81.5172C60.6962 81.6758 61.0509 81.8998 61.3495 82.1892C61.6575 82.4785 61.8955 82.8285 62.0635 83.2392C62.2315 83.6405 62.3155 84.0885 62.3155 84.5832ZM61.1115 84.5832C61.1115 84.2472 61.0602 83.9392 60.9575 83.6592C60.8642 83.3698 60.7195 83.1225 60.5235 82.9172C60.3369 82.7118 60.1082 82.5532 59.8375 82.4412C59.5762 82.3198 59.2775 82.2592 58.9415 82.2592C58.6055 82.2592 58.3022 82.3198 58.0315 82.4412C57.7702 82.5532 57.5415 82.7118 57.3455 82.9172C57.1589 83.1225 57.0142 83.3698 56.9115 83.6592C56.8182 83.9392 56.7715 84.2472 56.7715 84.5832C56.7715 84.9192 56.8182 85.2318 56.9115 85.5212C57.0142 85.8012 57.1589 86.0438 57.3455 86.2492C57.5415 86.4545 57.7702 86.6178 58.0315 86.7392C58.3022 86.8512 58.6055 86.9072 58.9415 86.9072C59.2775 86.9072 59.5762 86.8512 59.8375 86.7392C60.1082 86.6178 60.3369 86.4545 60.5235 86.2492C60.7195 86.0438 60.8642 85.8012 60.9575 85.5212C61.0602 85.2318 61.1115 84.9192 61.1115 84.5832ZM70.5723 89.2872C70.5723 89.4365 70.5956 89.5392 70.6423 89.5952C70.6983 89.6418 70.8009 89.6652 70.9503 89.6652H71.7203C72.1683 89.6652 72.6023 89.6558 73.0223 89.6372C73.4423 89.6092 73.8763 89.5578 74.3243 89.4832C74.4923 89.4552 74.6369 89.4738 74.7583 89.5392C74.8796 89.6045 74.9496 89.7258 74.9683 89.9032C74.9869 90.0898 74.9496 90.2298 74.8563 90.3232C74.7629 90.4165 74.6276 90.4772 74.4503 90.5052C74.0396 90.5798 73.5963 90.6312 73.1203 90.6592C72.6443 90.6872 72.1776 90.7012 71.7203 90.7012H70.6143C70.1383 90.7012 69.8069 90.6125 69.6203 90.4352C69.4429 90.2485 69.3543 89.9172 69.3543 89.4412V82.9172C69.3543 82.4505 69.4429 82.1238 69.6203 81.9372C69.8069 81.7505 70.1383 81.6572 70.6143 81.6572H73.7643C73.9416 81.6572 74.0816 81.6992 74.1843 81.7832C74.2963 81.8578 74.3523 81.9885 74.3523 82.1752C74.3523 82.3618 74.2963 82.4972 74.1843 82.5812C74.0816 82.6558 73.9416 82.6932 73.7643 82.6932H70.9503C70.8009 82.6932 70.6983 82.7212 70.6423 82.7772C70.5956 82.8238 70.5723 82.9218 70.5723 83.0712V85.4792H73.3443C73.5216 85.4792 73.6616 85.5212 73.7643 85.6052C73.8763 85.6798 73.9323 85.8105 73.9323 85.9972C73.9323 86.1838 73.8763 86.3192 73.7643 86.4032C73.6616 86.4778 73.5216 86.5152 73.3443 86.5152H70.5723V89.2872ZM77.5443 92.7452C77.5443 93.1465 77.3436 93.3472 76.9423 93.3472C76.5409 93.3472 76.3403 93.1465 76.3403 92.7452V86.4732H74.9403C74.7629 86.4732 74.6183 86.4312 74.5063 86.3472C74.4036 86.2632 74.3523 86.1325 74.3523 85.9552C74.3523 85.7778 74.4036 85.6472 74.5063 85.5632C74.6183 85.4792 74.7629 85.4372 74.9403 85.4372H76.3403V81.7832C76.3403 81.3818 76.5409 81.1812 76.9423 81.1812C77.3436 81.1812 77.5443 81.3818 77.5443 81.7832V92.7452ZM80.0923 93.1512C80.0923 93.5525 79.8916 93.7532 79.4903 93.7532C79.0889 93.7532 78.8883 93.5525 78.8883 93.1512V81.6432C78.8883 81.2418 79.0889 81.0412 79.4903 81.0412C79.8916 81.0412 80.0923 81.2418 80.0923 81.6432V93.1512ZM90.015 90.3652C89.3897 90.4958 88.7363 90.5845 88.055 90.6312C87.383 90.6778 86.683 90.7012 85.955 90.7012H84.667C84.2097 90.7012 83.883 90.6078 83.687 90.4212C83.5003 90.2252 83.407 89.8985 83.407 89.4412V86.7252C83.407 86.2678 83.5003 85.9458 83.687 85.7592C83.883 85.5632 84.2097 85.4652 84.667 85.4652H87.761C87.9197 85.4652 88.0223 85.4418 88.069 85.3952C88.125 85.3485 88.153 85.2458 88.153 85.0872V83.0432C88.153 82.8845 88.125 82.7818 88.069 82.7352C88.0223 82.6885 87.9197 82.6652 87.761 82.6652H84.065C83.8877 82.6652 83.743 82.6278 83.631 82.5532C83.5283 82.4692 83.477 82.3385 83.477 82.1612C83.477 81.9838 83.5283 81.8578 83.631 81.7832C83.743 81.6992 83.8877 81.6572 84.065 81.6572H88.125C88.5823 81.6572 88.9043 81.7552 89.091 81.9512C89.287 82.1378 89.385 82.4598 89.385 82.9172V85.1992C89.385 85.6565 89.287 85.9832 89.091 86.1792C88.9043 86.3658 88.5823 86.4592 88.125 86.4592H85.017C84.8583 86.4592 84.751 86.4825 84.695 86.5292C84.6483 86.5758 84.625 86.6785 84.625 86.8372V89.3012C84.625 89.4598 84.6483 89.5625 84.695 89.6092C84.751 89.6558 84.8583 89.6792 85.017 89.6792H85.955C86.627 89.6698 87.271 89.6418 87.887 89.5952C88.5123 89.5485 89.161 89.4738 89.833 89.3712C90.0103 89.3432 90.1597 89.3572 90.281 89.4132C90.4023 89.4692 90.477 89.5858 90.505 89.7632C90.533 89.9405 90.5003 90.0758 90.407 90.1692C90.323 90.2625 90.1923 90.3278 90.015 90.3652ZM93.445 93.1512C93.445 93.3378 93.389 93.4825 93.277 93.5852C93.165 93.6972 93.0157 93.7532 92.829 93.7532C92.6423 93.7532 92.493 93.6972 92.381 93.5852C92.269 93.4825 92.213 93.3378 92.213 93.1512V81.6432C92.213 81.4565 92.269 81.3118 92.381 81.2092C92.493 81.0972 92.6423 81.0412 92.829 81.0412C93.0157 81.0412 93.165 81.0972 93.277 81.2092C93.389 81.3118 93.445 81.4565 93.445 81.6432V93.1512ZM103.326 86.0252C103.326 86.6972 103.256 87.3085 103.116 87.8592C102.985 88.4005 102.78 88.8672 102.5 89.2592C102.229 89.6512 101.884 89.9545 101.464 90.1692C101.044 90.3838 100.554 90.4912 99.9937 90.4912C99.4337 90.4912 98.9437 90.3838 98.5237 90.1692C98.1037 89.9545 97.7537 89.6512 97.4737 89.2592C97.2031 88.8672 96.9977 88.4005 96.8577 87.8592C96.7271 87.3085 96.6617 86.6972 96.6617 86.0252C96.6617 85.3532 96.7271 84.7465 96.8577 84.2052C96.9977 83.6545 97.2031 83.1832 97.4737 82.7912C97.7537 82.3992 98.1037 82.0958 98.5237 81.8812C98.9437 81.6665 99.4337 81.5592 99.9937 81.5592C100.554 81.5592 101.044 81.6665 101.464 81.8812C101.884 82.0958 102.229 82.3992 102.5 82.7912C102.78 83.1832 102.985 83.6545 103.116 84.2052C103.256 84.7465 103.326 85.3532 103.326 86.0252ZM102.122 86.0252C102.122 85.5118 102.08 85.0405 101.996 84.6112C101.912 84.1818 101.781 83.8178 101.604 83.5192C101.436 83.2205 101.216 82.9872 100.946 82.8192C100.675 82.6512 100.358 82.5672 99.9937 82.5672C99.6297 82.5672 99.3124 82.6512 99.0417 82.8192C98.7711 82.9872 98.5471 83.2205 98.3697 83.5192C98.2017 83.8178 98.0757 84.1818 97.9917 84.6112C97.9077 85.0405 97.8657 85.5118 97.8657 86.0252C97.8657 86.5478 97.9077 87.0238 97.9917 87.4532C98.0757 87.8732 98.2017 88.2325 98.3697 88.5312C98.5471 88.8298 98.7711 89.0632 99.0417 89.2312C99.3124 89.3992 99.6297 89.4832 99.9937 89.4832C100.358 89.4832 100.675 89.3992 100.946 89.2312C101.216 89.0632 101.436 88.8298 101.604 88.5312C101.781 88.2325 101.912 87.8732 101.996 87.4532C102.08 87.0238 102.122 86.5478 102.122 86.0252ZM104.264 86.3472C104.086 86.3472 103.942 86.3052 103.83 86.2212C103.727 86.1372 103.676 86.0065 103.676 85.8292C103.676 85.6518 103.727 85.5212 103.83 85.4372C103.942 85.3532 104.086 85.3112 104.264 85.3112H105.916V81.6432C105.916 81.4565 105.972 81.3118 106.084 81.2092C106.196 81.0972 106.345 81.0412 106.532 81.0412C106.718 81.0412 106.868 81.0972 106.98 81.2092C107.092 81.3118 107.148 81.4565 107.148 81.6432V93.1512C107.148 93.3378 107.092 93.4825 106.98 93.5852C106.868 93.6972 106.718 93.7532 106.532 93.7532C106.345 93.7532 106.196 93.6972 106.084 93.5852C105.972 93.4825 105.916 93.3378 105.916 93.1512V86.3472H104.264ZM120.29 85.7452C120.29 86.2025 120.192 86.5292 119.996 86.7252C119.81 86.9118 119.488 87.0052 119.03 87.0052H112.814C112.357 87.0052 112.03 86.9118 111.834 86.7252C111.648 86.5292 111.554 86.2025 111.554 85.7452V81.8112C111.554 81.6245 111.61 81.4798 111.722 81.3772C111.834 81.2652 111.984 81.2092 112.17 81.2092C112.357 81.2092 112.506 81.2652 112.618 81.3772C112.73 81.4798 112.786 81.6245 112.786 81.8112V83.1552H119.058V81.8112C119.058 81.6245 119.114 81.4798 119.226 81.3772C119.338 81.2652 119.488 81.2092 119.674 81.2092C119.861 81.2092 120.01 81.2652 120.122 81.3772C120.234 81.4798 120.29 81.6245 120.29 81.8112V85.7452ZM110.532 89.5952C110.355 89.5952 110.21 89.5532 110.098 89.4692C109.996 89.3852 109.944 89.2545 109.944 89.0772C109.944 88.8998 109.996 88.7692 110.098 88.6852C110.21 88.6012 110.355 88.5592 110.532 88.5592H121.312C121.49 88.5592 121.63 88.6012 121.732 88.6852C121.844 88.7692 121.9 88.8998 121.9 89.0772C121.9 89.2545 121.844 89.3852 121.732 89.4692C121.63 89.5532 121.49 89.5952 121.312 89.5952H116.552V93.1792C116.552 93.3565 116.492 93.4965 116.37 93.5992C116.258 93.7018 116.109 93.7532 115.922 93.7532C115.736 93.7532 115.582 93.7018 115.46 93.5992C115.348 93.4965 115.292 93.3565 115.292 93.1792V89.5952H110.532ZM113.164 86.0112H118.68C118.83 86.0112 118.928 85.9878 118.974 85.9412C119.03 85.8852 119.058 85.7825 119.058 85.6332V84.1492H112.786V85.6332C112.786 85.7825 112.81 85.8852 112.856 85.9412C112.912 85.9878 113.015 86.0112 113.164 86.0112ZM125.733 89.2872C125.733 89.4365 125.757 89.5392 125.803 89.5952C125.859 89.6418 125.962 89.6652 126.111 89.6652H126.881C127.497 89.6652 128.113 89.6418 128.729 89.5952C129.355 89.5485 129.961 89.4738 130.549 89.3712C130.717 89.3432 130.857 89.3618 130.969 89.4272C131.091 89.4925 131.165 89.6138 131.193 89.7912C131.221 89.9778 131.184 90.1178 131.081 90.2112C130.988 90.2952 130.853 90.3558 130.675 90.3932C130.05 90.5052 129.429 90.5845 128.813 90.6312C128.197 90.6778 127.553 90.7012 126.881 90.7012H125.775C125.318 90.7012 124.991 90.6078 124.795 90.4212C124.609 90.2252 124.515 89.8985 124.515 89.4412V82.9172C124.515 82.4692 124.609 82.1472 124.795 81.9512C124.991 81.7552 125.318 81.6572 125.775 81.6572H129.485C129.663 81.6572 129.803 81.6992 129.905 81.7832C130.017 81.8578 130.073 81.9885 130.073 82.1752C130.073 82.3618 130.017 82.4972 129.905 82.5812C129.803 82.6558 129.663 82.6932 129.485 82.6932H126.111C125.962 82.6932 125.859 82.7212 125.803 82.7772C125.757 82.8238 125.733 82.9218 125.733 83.0712V85.4792H129.345C129.523 85.4792 129.663 85.5212 129.765 85.6052C129.877 85.6798 129.933 85.8105 129.933 85.9972C129.933 86.1838 129.877 86.3192 129.765 86.4032C129.663 86.4778 129.523 86.5152 129.345 86.5152H125.733V89.2872ZM134.553 93.1512C134.553 93.3378 134.497 93.4825 134.385 93.5852C134.273 93.6972 134.124 93.7532 133.937 93.7532C133.751 93.7532 133.601 93.6972 133.489 93.5852C133.377 93.4825 133.321 93.3378 133.321 93.1512V86.3612H131.081C130.904 86.3612 130.759 86.3192 130.647 86.2352C130.545 86.1418 130.493 86.0065 130.493 85.8292C130.493 85.6518 130.545 85.5212 130.647 85.4372C130.759 85.3438 130.904 85.2972 131.081 85.2972H133.321V81.6432C133.321 81.4565 133.377 81.3118 133.489 81.2092C133.601 81.0972 133.751 81.0412 133.937 81.0412C134.124 81.0412 134.273 81.0972 134.385 81.2092C134.497 81.3118 134.553 81.4565 134.553 81.6432V93.1512ZM12.5179 114.063C12.5179 114.539 12.4199 114.875 12.2239 115.071C12.0372 115.258 11.7059 115.351 11.2299 115.351H7.68788C7.21188 115.351 6.87588 115.258 6.67988 115.071C6.49322 114.875 6.39988 114.539 6.39988 114.063V107.987C6.39988 107.53 6.49788 107.203 6.69388 107.007C6.89922 106.802 7.23055 106.699 7.68788 106.699H11.2299C11.7059 106.699 12.0372 106.797 12.2239 106.993C12.4199 107.18 12.5179 107.511 12.5179 107.987V114.063ZM7.58988 113.993C7.58988 114.142 7.61322 114.245 7.65988 114.301C7.71588 114.348 7.81855 114.371 7.96788 114.371H10.9499C11.0992 114.371 11.1972 114.348 11.2439 114.301C11.2999 114.245 11.3279 114.142 11.3279 113.993V108.057C11.3279 107.908 11.2999 107.81 11.2439 107.763C11.1972 107.707 11.0992 107.679 10.9499 107.679H7.96788C7.81855 107.679 7.71588 107.707 7.65988 107.763C7.61322 107.81 7.58988 107.908 7.58988 108.057V113.993ZM16.1579 118.151C16.1579 118.328 16.1019 118.473 15.9899 118.585C15.8872 118.697 15.7379 118.753 15.5419 118.753C15.3459 118.753 15.1919 118.697 15.0799 118.585C14.9772 118.473 14.9259 118.328 14.9259 118.151V106.657C14.9259 106.47 14.9819 106.326 15.0939 106.223C15.2059 106.111 15.3552 106.055 15.5419 106.055C15.7286 106.055 15.8779 106.111 15.9899 106.223C16.1019 106.326 16.1579 106.47 16.1579 106.657V110.451H17.8379C18.0152 110.451 18.1552 110.498 18.2579 110.591C18.3699 110.675 18.4259 110.806 18.4259 110.983C18.4259 111.16 18.3699 111.296 18.2579 111.389C18.1552 111.473 18.0152 111.515 17.8379 111.515H16.1579V118.151ZM20.2426 112.929C20.0653 112.929 19.9206 112.887 19.8086 112.803C19.706 112.719 19.6546 112.588 19.6546 112.411C19.6546 112.234 19.706 112.103 19.8086 112.019C19.9206 111.935 20.0653 111.893 20.2426 111.893H31.0226C31.2 111.893 31.34 111.935 31.4426 112.019C31.5546 112.103 31.6106 112.234 31.6106 112.411C31.6106 112.588 31.5546 112.719 31.4426 112.803C31.34 112.887 31.2 112.929 31.0226 112.929H20.2426ZM21.2226 108.379C21.2226 107.959 21.3253 107.604 21.5306 107.315C21.7453 107.026 22.044 106.788 22.4266 106.601C22.8093 106.414 23.2713 106.279 23.8126 106.195C24.3633 106.111 24.97 106.069 25.6326 106.069C26.2953 106.069 26.8973 106.111 27.4386 106.195C27.98 106.279 28.442 106.414 28.8246 106.601C29.2166 106.788 29.5153 107.026 29.7206 107.315C29.9353 107.604 30.0426 107.959 30.0426 108.379C30.0426 108.799 29.9353 109.154 29.7206 109.443C29.5153 109.732 29.2166 109.97 28.8246 110.157C28.442 110.344 27.98 110.479 27.4386 110.563C26.8973 110.647 26.2953 110.689 25.6326 110.689C24.97 110.689 24.3633 110.647 23.8126 110.563C23.2713 110.479 22.8093 110.344 22.4266 110.157C22.044 109.97 21.7453 109.732 21.5306 109.443C21.3253 109.154 21.2226 108.799 21.2226 108.379ZM22.4686 108.379C22.4686 108.855 22.7486 109.191 23.3086 109.387C23.878 109.583 24.6526 109.681 25.6326 109.681C26.6126 109.681 27.3826 109.583 27.9426 109.387C28.512 109.191 28.7966 108.855 28.7966 108.379C28.7966 107.903 28.512 107.567 27.9426 107.371C27.3826 107.175 26.6126 107.077 25.6326 107.077C24.6526 107.077 23.878 107.175 23.3086 107.371C22.7486 107.567 22.4686 107.903 22.4686 108.379ZM28.4326 117.675C28.582 117.675 28.6753 117.652 28.7126 117.605C28.7593 117.568 28.7826 117.474 28.7826 117.325V115.631C28.7826 115.482 28.7593 115.388 28.7126 115.351C28.6753 115.304 28.582 115.281 28.4326 115.281H22.8326C22.6833 115.281 22.5853 115.304 22.5386 115.351C22.5013 115.388 22.4826 115.482 22.4826 115.631V117.325C22.4826 117.474 22.5013 117.568 22.5386 117.605C22.5853 117.652 22.6833 117.675 22.8326 117.675H28.4326ZM22.4826 118.669C22.2586 118.669 22.0673 118.655 21.9086 118.627C21.75 118.599 21.624 118.543 21.5306 118.459C21.4373 118.375 21.3673 118.258 21.3206 118.109C21.2833 117.969 21.2646 117.787 21.2646 117.563V115.393C21.2646 115.169 21.2833 114.987 21.3206 114.847C21.3673 114.698 21.4373 114.581 21.5306 114.497C21.624 114.413 21.75 114.357 21.9086 114.329C22.0673 114.301 22.2586 114.287 22.4826 114.287H28.7826C29.0066 114.287 29.198 114.301 29.3566 114.329C29.5153 114.357 29.6413 114.413 29.7346 114.497C29.828 114.581 29.8933 114.698 29.9306 114.847C29.9773 114.987 30.0006 115.169 30.0006 115.393V117.563C30.0006 117.787 29.9773 117.969 29.9306 118.109C29.8933 118.258 29.828 118.375 29.7346 118.459C29.6413 118.543 29.5153 118.599 29.3566 118.627C29.198 118.655 29.0066 118.669 28.7826 118.669H22.4826ZM42.0654 117.745C42.0654 118.146 41.8647 118.347 41.4634 118.347C41.062 118.347 40.8614 118.146 40.8614 117.745V111.417H39.2514C39.2327 112.014 39.1674 112.565 39.0554 113.069C38.9527 113.564 38.7894 113.993 38.5654 114.357C38.3414 114.721 38.052 115.006 37.6974 115.211C37.3427 115.407 36.9134 115.505 36.4094 115.505C35.8587 115.505 35.4014 115.393 35.0374 115.169C34.6734 114.945 34.3794 114.632 34.1554 114.231C33.9407 113.83 33.7867 113.354 33.6934 112.803C33.6 112.252 33.5534 111.65 33.5534 110.997C33.5534 110.344 33.6 109.742 33.6934 109.191C33.7867 108.64 33.9454 108.164 34.1694 107.763C34.3934 107.362 34.6874 107.049 35.0514 106.825C35.4154 106.601 35.868 106.489 36.4094 106.489C36.904 106.489 37.324 106.587 37.6694 106.783C38.024 106.979 38.3134 107.25 38.5374 107.595C38.7614 107.94 38.9294 108.356 39.0414 108.841C39.1534 109.326 39.2234 109.854 39.2514 110.423H40.8614V106.783C40.8614 106.382 41.062 106.181 41.4634 106.181C41.8647 106.181 42.0654 106.382 42.0654 106.783V117.745ZM34.7574 110.997C34.7574 111.501 34.7807 111.968 34.8274 112.397C34.8834 112.817 34.972 113.186 35.0934 113.503C35.224 113.811 35.392 114.054 35.5974 114.231C35.812 114.408 36.0827 114.497 36.4094 114.497C36.7267 114.497 36.9927 114.408 37.2074 114.231C37.422 114.054 37.59 113.811 37.7114 113.503C37.842 113.186 37.9307 112.817 37.9774 112.397C38.0334 111.968 38.0614 111.501 38.0614 110.997C38.0614 110.493 38.0334 110.031 37.9774 109.611C37.9307 109.182 37.842 108.813 37.7114 108.505C37.59 108.188 37.422 107.94 37.2074 107.763C36.9927 107.586 36.7267 107.497 36.4094 107.497C36.0827 107.497 35.812 107.586 35.5974 107.763C35.392 107.94 35.224 108.188 35.0934 108.505C34.972 108.813 34.8834 109.182 34.8274 109.611C34.7807 110.031 34.7574 110.493 34.7574 110.997ZM44.6134 118.151C44.6134 118.552 44.4127 118.753 44.0114 118.753C43.61 118.753 43.4094 118.552 43.4094 118.151V106.643C43.4094 106.242 43.61 106.041 44.0114 106.041C44.4127 106.041 44.6134 106.242 44.6134 106.643V118.151ZM54.3308 107.735C54.1815 107.735 54.0788 107.763 54.0228 107.819C53.9668 107.866 53.9388 107.964 53.9388 108.113V111.753C53.9388 111.902 53.9668 112.005 54.0228 112.061C54.0788 112.108 54.1815 112.131 54.3308 112.131H60.9948C61.1721 112.131 61.3121 112.173 61.4148 112.257C61.5268 112.341 61.5828 112.472 61.5828 112.649C61.5828 112.826 61.5268 112.957 61.4148 113.041C61.3121 113.125 61.1721 113.167 60.9948 113.167H53.9668C53.5095 113.167 53.1828 113.074 52.9868 112.887C52.8001 112.691 52.7068 112.364 52.7068 111.907V107.959C52.7068 107.502 52.8001 107.18 52.9868 106.993C53.1828 106.797 53.5095 106.699 53.9668 106.699H60.8548C61.0321 106.699 61.1721 106.741 61.2748 106.825C61.3868 106.909 61.4428 107.04 61.4428 107.217C61.4428 107.394 61.3868 107.525 61.2748 107.609C61.1721 107.693 61.0321 107.735 60.8548 107.735H54.3308ZM51.6848 117.143C51.5075 117.143 51.3628 117.101 51.2508 117.017C51.1481 116.933 51.0968 116.802 51.0968 116.625C51.0968 116.448 51.1481 116.317 51.2508 116.233C51.3628 116.149 51.5075 116.107 51.6848 116.107H62.4648C62.6421 116.107 62.7821 116.149 62.8848 116.233C62.9968 116.317 63.0528 116.448 63.0528 116.625C63.0528 116.802 62.9968 116.933 62.8848 117.017C62.7821 117.101 62.6421 117.143 62.4648 117.143H51.6848ZM65.3875 113.531C65.2102 113.531 65.0655 113.489 64.9535 113.405C64.8509 113.321 64.7995 113.19 64.7995 113.013C64.7995 112.836 64.8509 112.705 64.9535 112.621C65.0655 112.537 65.2102 112.495 65.3875 112.495H76.1675C76.3449 112.495 76.4849 112.537 76.5875 112.621C76.6995 112.705 76.7555 112.836 76.7555 113.013C76.7555 113.19 76.6995 113.321 76.5875 113.405C76.4849 113.489 76.3449 113.531 76.1675 113.531H65.3875ZM74.9075 117.563C75.0849 117.563 75.2249 117.605 75.3275 117.689C75.4395 117.773 75.4955 117.904 75.4955 118.081C75.4955 118.258 75.4395 118.389 75.3275 118.473C75.2249 118.557 75.0849 118.599 74.9075 118.599H67.7115C67.2355 118.599 66.8995 118.501 66.7035 118.305C66.5075 118.109 66.4095 117.773 66.4095 117.297V115.281C66.4095 115.094 66.4655 114.95 66.5775 114.847C66.6895 114.744 66.8389 114.693 67.0255 114.693C67.2122 114.693 67.3615 114.744 67.4735 114.847C67.5855 114.95 67.6415 115.094 67.6415 115.281V117.199C67.6415 117.348 67.6649 117.446 67.7115 117.493C67.7582 117.54 67.8562 117.563 68.0055 117.563H74.9075ZM67.7675 110.899C67.2915 110.899 66.9555 110.806 66.7595 110.619C66.5729 110.432 66.4795 110.101 66.4795 109.625V106.769C66.4795 106.582 66.5355 106.438 66.6475 106.335C66.7595 106.223 66.9135 106.167 67.1095 106.167C67.3055 106.167 67.4595 106.223 67.5715 106.335C67.6835 106.438 67.7395 106.582 67.7395 106.769V109.485C67.7395 109.634 67.7675 109.737 67.8235 109.793C67.8795 109.84 67.9822 109.863 68.1315 109.863H74.6975C74.8749 109.863 75.0149 109.905 75.1175 109.989C75.2295 110.073 75.2855 110.204 75.2855 110.381C75.2855 110.558 75.2295 110.689 75.1175 110.773C75.0149 110.857 74.8749 110.899 74.6975 110.899H67.7675ZM83.225 107.679C82.8237 107.679 82.623 107.502 82.623 107.147C82.623 106.792 82.8237 106.615 83.225 106.615H87.845C88.2463 106.615 88.447 106.792 88.447 107.147C88.447 107.502 88.2463 107.679 87.845 107.679H86.207V109.597C86.207 110.232 86.2817 110.792 86.431 111.277C86.5803 111.753 86.7717 112.182 87.005 112.565C87.2383 112.938 87.4997 113.279 87.789 113.587C88.0783 113.886 88.363 114.175 88.643 114.455C88.727 114.548 88.769 114.66 88.769 114.791C88.7783 114.922 88.7317 115.038 88.629 115.141C88.5077 115.253 88.3817 115.309 88.251 115.309C88.1203 115.3 88.0037 115.253 87.901 115.169C87.649 114.973 87.4017 114.744 87.159 114.483C86.9257 114.222 86.7063 113.951 86.501 113.671C86.2957 113.391 86.1137 113.111 85.955 112.831C85.7963 112.551 85.6797 112.299 85.605 112.075C85.521 112.299 85.3997 112.56 85.241 112.859C85.0917 113.158 84.9143 113.461 84.709 113.769C84.5037 114.077 84.2797 114.376 84.037 114.665C83.8037 114.945 83.561 115.183 83.309 115.379C83.2063 115.463 83.0897 115.51 82.959 115.519C82.8283 115.519 82.7023 115.463 82.581 115.351C82.4783 115.248 82.427 115.132 82.427 115.001C82.4363 114.87 82.483 114.758 82.567 114.665C82.847 114.366 83.1317 114.054 83.421 113.727C83.7103 113.391 83.9717 113.027 84.205 112.635C84.4383 112.234 84.6297 111.786 84.779 111.291C84.9283 110.796 85.003 110.232 85.003 109.597V107.679H83.225ZM88.083 110.969C87.9057 110.969 87.761 110.927 87.649 110.843C87.5463 110.759 87.495 110.628 87.495 110.451C87.495 110.274 87.5463 110.143 87.649 110.059C87.761 109.975 87.9057 109.933 88.083 109.933H90.043V106.783C90.043 106.382 90.2437 106.181 90.645 106.181C91.0463 106.181 91.247 106.382 91.247 106.783V117.745C91.247 118.146 91.0463 118.347 90.645 118.347C90.2437 118.347 90.043 118.146 90.043 117.745V110.969H88.083ZM93.795 118.151C93.795 118.552 93.5943 118.753 93.193 118.753C92.7917 118.753 92.591 118.552 92.591 118.151V106.643C92.591 106.242 92.7917 106.041 93.193 106.041C93.5943 106.041 93.795 106.242 93.795 106.643V118.151ZM99.0697 118.669C98.8457 118.669 98.6544 118.655 98.4957 118.627C98.3371 118.599 98.2111 118.543 98.1177 118.459C98.0244 118.375 97.9544 118.258 97.9077 118.109C97.8704 117.969 97.8517 117.787 97.8517 117.563V115.673C97.8517 115.449 97.8704 115.267 97.9077 115.127C97.9544 114.978 98.0244 114.861 98.1177 114.777C98.2111 114.693 98.3371 114.637 98.4957 114.609C98.6544 114.581 98.8457 114.567 99.0697 114.567H101.59V113.307H96.8297C96.6524 113.307 96.5077 113.265 96.3957 113.181C96.2931 113.097 96.2417 112.966 96.2417 112.789C96.2417 112.612 96.2931 112.481 96.3957 112.397C96.5077 112.313 96.6524 112.271 96.8297 112.271H107.61C107.787 112.271 107.927 112.313 108.03 112.397C108.142 112.481 108.198 112.612 108.198 112.789C108.198 112.966 108.142 113.097 108.03 113.181C107.927 113.265 107.787 113.307 107.61 113.307H102.85V114.567H105.37C105.594 114.567 105.785 114.581 105.944 114.609C106.102 114.637 106.228 114.693 106.322 114.777C106.415 114.861 106.48 114.978 106.518 115.127C106.564 115.267 106.588 115.449 106.588 115.673V117.563C106.588 117.787 106.564 117.969 106.518 118.109C106.48 118.258 106.415 118.375 106.322 118.459C106.228 118.543 106.102 118.599 105.944 118.627C105.785 118.655 105.594 118.669 105.37 118.669H99.0697ZM100.54 108.897C100.54 109.14 100.544 109.368 100.554 109.583C100.563 109.798 100.586 110.008 100.624 110.213H103.942C104.007 109.83 104.04 109.392 104.04 108.897V108.435C104.04 108.034 104.24 107.833 104.642 107.833C105.043 107.833 105.244 108.034 105.244 108.435V108.897C105.244 109.14 105.234 109.373 105.216 109.597C105.206 109.812 105.183 110.017 105.146 110.213H106.28C106.457 110.213 106.597 110.255 106.7 110.339C106.812 110.423 106.868 110.554 106.868 110.731C106.868 110.908 106.812 111.039 106.7 111.123C106.597 111.207 106.457 111.249 106.28 111.249H98.2997C98.1224 111.249 97.9777 111.207 97.8657 111.123C97.7631 111.039 97.7117 110.908 97.7117 110.731C97.7117 110.554 97.7631 110.423 97.8657 110.339C97.9777 110.255 98.1224 110.213 98.2997 110.213H99.4337C99.3964 110.017 99.3684 109.812 99.3497 109.597C99.3404 109.373 99.3357 109.14 99.3357 108.897V108.435C99.3357 108.034 99.5364 107.833 99.9377 107.833C100.339 107.833 100.54 108.034 100.54 108.435V108.897ZM105.02 117.675C105.169 117.675 105.262 117.652 105.3 117.605C105.346 117.568 105.37 117.474 105.37 117.325V115.911C105.37 115.762 105.346 115.668 105.3 115.631C105.262 115.584 105.169 115.561 105.02 115.561H99.4197C99.2704 115.561 99.1724 115.584 99.1257 115.631C99.0884 115.668 99.0697 115.762 99.0697 115.911V117.325C99.0697 117.474 99.0884 117.568 99.1257 117.605C99.1724 117.652 99.2704 117.675 99.4197 117.675H105.02ZM98.2297 107.245C98.0524 107.245 97.9077 107.203 97.7957 107.119C97.6931 107.035 97.6417 106.904 97.6417 106.727C97.6417 106.55 97.6931 106.419 97.7957 106.335C97.9077 106.251 98.0524 106.209 98.2297 106.209H106.35C106.527 106.209 106.667 106.251 106.77 106.335C106.882 106.419 106.938 106.55 106.938 106.727C106.938 106.904 106.882 107.035 106.77 107.119C106.667 107.203 106.527 107.245 106.35 107.245H98.2297ZM114.485 112.943C114.485 112.458 114.565 112.024 114.723 111.641C114.882 111.249 115.101 110.918 115.381 110.647C115.661 110.376 115.993 110.171 116.375 110.031C116.758 109.891 117.178 109.821 117.635 109.821C118.093 109.821 118.513 109.891 118.895 110.031C119.278 110.171 119.609 110.376 119.889 110.647C120.169 110.918 120.389 111.249 120.547 111.641C120.706 112.024 120.785 112.458 120.785 112.943C120.785 113.438 120.706 113.876 120.547 114.259C120.389 114.642 120.169 114.968 119.889 115.239C119.609 115.51 119.278 115.715 118.895 115.855C118.513 115.995 118.093 116.065 117.635 116.065C117.178 116.065 116.758 115.995 116.375 115.855C115.993 115.715 115.661 115.51 115.381 115.239C115.101 114.968 114.882 114.642 114.723 114.259C114.565 113.876 114.485 113.438 114.485 112.943ZM124.187 118.151C124.187 118.328 124.131 118.473 124.019 118.585C123.917 118.697 123.767 118.753 123.571 118.753C123.375 118.753 123.221 118.697 123.109 118.585C123.007 118.473 122.955 118.328 122.955 118.151V106.657C122.955 106.47 123.011 106.326 123.123 106.223C123.235 106.111 123.385 106.055 123.571 106.055C123.758 106.055 123.907 106.111 124.019 106.223C124.131 106.326 124.187 106.47 124.187 106.657V111.151H125.867C126.045 111.151 126.185 111.198 126.287 111.291C126.399 111.375 126.455 111.506 126.455 111.683C126.455 111.86 126.399 111.996 126.287 112.089C126.185 112.173 126.045 112.215 125.867 112.215H124.187V118.151ZM119.567 112.943C119.567 112.299 119.395 111.786 119.049 111.403C118.713 111.02 118.242 110.829 117.635 110.829C117.029 110.829 116.553 111.02 116.207 111.403C115.871 111.786 115.703 112.299 115.703 112.943C115.703 113.587 115.871 114.1 116.207 114.483C116.553 114.866 117.029 115.057 117.635 115.057C118.242 115.057 118.713 114.866 119.049 114.483C119.395 114.1 119.567 113.587 119.567 112.943ZM114.429 108.869C114.252 108.869 114.107 108.827 113.995 108.743C113.893 108.659 113.841 108.528 113.841 108.351C113.841 108.174 113.893 108.043 113.995 107.959C114.107 107.875 114.252 107.833 114.429 107.833H117.019V106.363C117.019 106.176 117.075 106.032 117.187 105.929C117.299 105.817 117.449 105.761 117.635 105.761C117.822 105.761 117.971 105.817 118.083 105.929C118.195 106.032 118.251 106.176 118.251 106.363V107.833H120.715C120.893 107.833 121.033 107.875 121.135 107.959C121.247 108.043 121.303 108.174 121.303 108.351C121.303 108.528 121.247 108.659 121.135 108.743C121.033 108.827 120.893 108.869 120.715 108.869H114.429ZM137.89 118.151C137.89 118.328 137.834 118.473 137.722 118.585C137.619 118.697 137.47 118.753 137.274 118.753C137.078 118.753 136.924 118.697 136.812 118.585C136.709 118.473 136.658 118.328 136.658 118.151V106.657C136.658 106.47 136.714 106.326 136.826 106.223C136.938 106.111 137.087 106.055 137.274 106.055C137.461 106.055 137.61 106.111 137.722 106.223C137.834 106.326 137.89 106.47 137.89 106.657V110.199H139.57C139.747 110.199 139.887 110.246 139.99 110.339C140.102 110.423 140.158 110.554 140.158 110.731C140.158 110.908 140.102 111.044 139.99 111.137C139.887 111.221 139.747 111.263 139.57 111.263H137.89V118.151ZM134.866 114.833C134.194 114.945 133.513 115.024 132.822 115.071C132.131 115.118 131.422 115.141 130.694 115.141H129.672C129.215 115.141 128.888 115.048 128.692 114.861C128.505 114.665 128.412 114.338 128.412 113.881V107.259C128.412 107.072 128.468 106.928 128.58 106.825C128.692 106.713 128.841 106.657 129.028 106.657C129.215 106.657 129.364 106.713 129.476 106.825C129.588 106.928 129.644 107.072 129.644 107.259V113.727C129.644 113.867 129.672 113.965 129.728 114.021C129.793 114.077 129.896 114.105 130.036 114.105H130.694C131.357 114.105 132.029 114.086 132.71 114.049C133.401 114.002 134.068 113.928 134.712 113.825C134.88 113.797 135.02 113.816 135.132 113.881C135.253 113.937 135.328 114.054 135.356 114.231C135.384 114.408 135.351 114.548 135.258 114.651C135.174 114.744 135.043 114.805 134.866 114.833ZM151.677 118.151C151.677 118.328 151.621 118.473 151.509 118.585C151.406 118.697 151.257 118.753 151.061 118.753C150.865 118.753 150.711 118.697 150.599 118.585C150.496 118.473 150.445 118.328 150.445 118.151V106.657C150.445 106.47 150.501 106.326 150.613 106.223C150.725 106.111 150.874 106.055 151.061 106.055C151.247 106.055 151.397 106.111 151.509 106.223C151.621 106.326 151.677 106.47 151.677 106.657V110.479H153.357C153.534 110.479 153.674 110.526 153.777 110.619C153.889 110.703 153.945 110.834 153.945 111.011C153.945 111.188 153.889 111.324 153.777 111.417C153.674 111.501 153.534 111.543 153.357 111.543H151.677V118.151ZM147.701 106.699C147.925 106.699 148.111 106.718 148.261 106.755C148.41 106.792 148.527 106.858 148.611 106.951C148.704 107.035 148.765 107.152 148.793 107.301C148.83 107.45 148.849 107.637 148.849 107.861V108.855C148.849 109.518 148.793 110.171 148.681 110.815C148.578 111.459 148.415 112.084 148.191 112.691C147.976 113.288 147.696 113.862 147.351 114.413C147.015 114.964 146.609 115.472 146.133 115.939C146.002 116.06 145.857 116.126 145.699 116.135C145.54 116.144 145.4 116.088 145.279 115.967C145.157 115.836 145.106 115.696 145.125 115.547C145.153 115.398 145.227 115.258 145.349 115.127C145.806 114.614 146.179 114.11 146.469 113.615C146.767 113.111 147.001 112.598 147.169 112.075C147.346 111.552 147.467 111.011 147.533 110.451C147.607 109.891 147.645 109.298 147.645 108.673V108.071C147.645 107.94 147.621 107.852 147.575 107.805C147.528 107.758 147.439 107.735 147.309 107.735H146.133C145.955 107.735 145.811 107.693 145.699 107.609C145.596 107.525 145.545 107.394 145.545 107.217C145.545 107.04 145.596 106.909 145.699 106.825C145.811 106.741 145.955 106.699 146.133 106.699H147.701ZM142.073 107.735C141.895 107.735 141.751 107.693 141.639 107.609C141.536 107.525 141.485 107.394 141.485 107.217C141.485 107.04 141.536 106.909 141.639 106.825C141.751 106.741 141.895 106.699 142.073 106.699H143.851C144.075 106.699 144.261 106.718 144.411 106.755C144.56 106.792 144.677 106.858 144.761 106.951C144.854 107.035 144.915 107.152 144.943 107.301C144.98 107.45 144.999 107.637 144.999 107.861V108.505C144.999 109.028 144.957 109.569 144.873 110.129C144.798 110.689 144.658 111.254 144.453 111.823C144.247 112.383 143.963 112.938 143.599 113.489C143.235 114.03 142.768 114.539 142.199 115.015C142.077 115.118 141.942 115.178 141.793 115.197C141.643 115.206 141.508 115.155 141.387 115.043C141.247 114.912 141.191 114.763 141.219 114.595C141.247 114.427 141.326 114.282 141.457 114.161C141.905 113.76 142.278 113.354 142.577 112.943C142.875 112.523 143.113 112.089 143.291 111.641C143.477 111.193 143.608 110.722 143.683 110.227C143.757 109.723 143.795 109.182 143.795 108.603V108.071C143.795 107.94 143.771 107.852 143.725 107.805C143.678 107.758 143.589 107.735 143.459 107.735H142.073ZM156.321 107.735C156.144 107.735 155.999 107.693 155.887 107.609C155.785 107.525 155.733 107.394 155.733 107.217C155.733 107.04 155.785 106.909 155.887 106.825C155.999 106.741 156.144 106.699 156.321 106.699H161.823C162.001 106.699 162.141 106.741 162.243 106.825C162.355 106.909 162.411 107.04 162.411 107.217C162.411 107.394 162.355 107.525 162.243 107.609C162.141 107.693 162.001 107.735 161.823 107.735H159.737V109.583C159.737 110.106 159.812 110.591 159.961 111.039C160.111 111.478 160.316 111.888 160.577 112.271C160.848 112.654 161.161 113.018 161.515 113.363C161.879 113.699 162.271 114.026 162.691 114.343C162.813 114.436 162.892 114.558 162.929 114.707C162.967 114.856 162.939 114.992 162.845 115.113C162.743 115.244 162.617 115.323 162.467 115.351C162.318 115.37 162.169 115.328 162.019 115.225C161.721 115.029 161.431 114.81 161.151 114.567C160.871 114.324 160.605 114.068 160.353 113.797C160.111 113.517 159.882 113.228 159.667 112.929C159.462 112.63 159.285 112.327 159.135 112.019C158.846 112.691 158.445 113.316 157.931 113.895C157.427 114.474 156.867 114.973 156.251 115.393C156.102 115.496 155.948 115.538 155.789 115.519C155.64 115.491 155.519 115.412 155.425 115.281C155.332 115.141 155.309 114.996 155.355 114.847C155.411 114.688 155.509 114.558 155.649 114.455C156.088 114.128 156.485 113.788 156.839 113.433C157.194 113.078 157.497 112.705 157.749 112.313C158.001 111.921 158.193 111.501 158.323 111.053C158.463 110.596 158.533 110.106 158.533 109.583V107.735H156.321ZM165.995 118.151C165.995 118.338 165.939 118.482 165.827 118.585C165.715 118.697 165.566 118.753 165.379 118.753C165.193 118.753 165.043 118.697 164.931 118.585C164.819 118.482 164.763 118.338 164.763 118.151V106.643C164.763 106.456 164.819 106.312 164.931 106.209C165.043 106.097 165.193 106.041 165.379 106.041C165.566 106.041 165.715 106.097 165.827 106.209C165.939 106.312 165.995 106.456 165.995 106.643V118.151Z" fill="#5D3C28"/>
<path d="M130.092 200.806C133.642 195.465 140.147 193.01 145.805 196.031C151.463 199.051 153.043 205.822 150.58 211.744C148.675 216.327 142.878 217.871 140.558 219.558C139.143 220.587 137.58 222.681 137.122 223.316C137.046 223.423 136.902 223.457 136.787 223.395L129.021 219.25L128.089 218.752C127.972 218.689 127.921 218.549 127.968 218.426C128.252 217.689 129.15 215.229 129.176 213.481C129.219 210.579 127.345 204.939 130.092 200.806Z" fill="#F8B62D" stroke="#5D3C28" stroke-width="2.58065"/>
<path d="M124.353 225.172L127.849 218.624L136.955 223.485L133.459 230.033C133.367 230.206 133.186 230.311 132.99 230.306L130.608 230.242C130.488 230.239 130.37 230.208 130.264 230.152L126.033 227.893C125.927 227.836 125.836 227.756 125.766 227.658L124.388 225.714C124.275 225.554 124.261 225.344 124.353 225.172Z" fill="white" stroke="#5D3C28" stroke-width="2.58065"/>
<path d="M132.415 226.181C132.73 226.349 133.121 226.23 133.288 225.915C133.456 225.601 133.337 225.21 133.023 225.042L132.719 225.612L132.415 226.181ZM125.89 221.966L125.586 222.535L132.415 226.181L132.719 225.612L133.023 225.042L126.193 221.396L125.89 221.966Z" fill="#5D3C28"/>
<path d="M128.347 225.911L134.039 228.949" stroke="#5D3C28" stroke-width="1.29032" stroke-linecap="round"/>
<path d="M125.702 230.384L125.264 228.945L129.817 231.376L128.378 231.813C128.182 231.873 127.97 231.852 127.788 231.756L126.078 230.842C125.897 230.746 125.761 230.581 125.702 230.384Z" fill="#5D3C28" stroke="#5D3C28" stroke-width="1.03226"/>
<path d="M145.894 202.402C147.759 205.384 147.242 209.27 144.662 211.66L143.682 212.567" stroke="white" stroke-width="2.58065" stroke-linecap="round"/>
<path d="M139.239 188.446L138.458 181.842" stroke="#F8B62D" stroke-width="3" stroke-linecap="round"/>
<path d="M129.356 192.822L125.079 187.181" stroke="#F8B62D" stroke-width="3" stroke-linecap="round"/>
<path d="M150.092 191.245L153.486 185.761" stroke="#F8B62D" stroke-width="3" stroke-linecap="round"/>
<path d="M156.953 200.659L163.846 197.79" stroke="#F8B62D" stroke-width="3" stroke-linecap="round"/>
<path d="M157.167 211.696L164.461 211.701" stroke="#F8B62D" stroke-width="3" stroke-linecap="round"/>
<mask id="path-36-inside-1_2023_6274" fill="white">
<rect x="67.3872" y="1.86316" width="8.51554" height="13.8378" rx="1.26346"/>
</mask>
<rect x="67.3872" y="1.86316" width="8.51554" height="13.8378" rx="1.26346" fill="#CBBFB3" stroke="#5D3C28" stroke-width="8.19621" mask="url(#path-36-inside-1_2023_6274)"/>
<path d="M104.341 46.8891H67.6875C66.7572 46.8891 66.0029 46.1349 66.0029 45.2045V17.7141C66.0029 17.1839 66.2526 16.6846 66.6768 16.3664L85.0037 2.62123C85.6027 2.172 86.4262 2.172 87.0252 2.62123L105.352 16.3664C105.776 16.6846 106.026 17.1839 106.026 17.7141V45.2045C106.026 46.1349 105.272 46.8891 104.341 46.8891Z" fill="#FFD100" stroke="#5D3C28" stroke-width="4.0981"/>
<path d="M72.7085 29.7375V44.7206C72.7085 45.4184 73.2742 45.9841 73.972 45.9841H82.504C83.2018 45.9841 83.7675 45.4184 83.7675 44.7206V29.7375C83.7675 29.0397 83.2018 28.474 82.504 28.474H73.972C73.2742 28.474 72.7085 29.0397 72.7085 29.7375Z" fill="#5D3C28"/>
<path d="M74.5518 35.5344V30.6255C74.5518 30.4541 74.6907 30.3152 74.8621 30.3152H81.6141C81.7855 30.3152 81.9244 30.4541 81.9244 30.6255V35.5344C81.9244 35.7057 81.7855 35.8447 81.6141 35.8447H74.8621C74.6907 35.8447 74.5518 35.7057 74.5518 35.5344Z" fill="#9F692D"/>
<path d="M74.5518 39.2219V37.9994C74.5518 37.828 74.6907 37.6891 74.8621 37.6891H81.6141C81.7855 37.6891 81.9244 37.828 81.9244 37.9994V39.2219C81.9244 39.3933 81.7855 39.5323 81.6141 39.5323H74.8621C74.6907 39.5323 74.5518 39.3933 74.5518 39.2219Z" fill="#9F692D"/>
<path d="M74.5518 42.9072V41.6847C74.5518 41.5133 74.6907 41.3744 74.8621 41.3744H81.6141C81.7855 41.3744 81.9244 41.5133 81.9244 41.6847V42.9072C81.9244 43.0786 81.7855 43.2176 81.6141 43.2176H74.8621C74.6907 43.2176 74.5518 43.0786 74.5518 42.9072Z" fill="#9F692D"/>
<circle cx="82.6621" cy="36.5833" r="0.737267" fill="#FFD100"/>
<mask id="path-43-inside-2_2023_6274" fill="white">
<rect x="89.7393" y="23.152" width="11.7089" height="11.7089" rx="0.842305"/>
</mask>
<rect x="89.7393" y="23.152" width="11.7089" height="11.7089" rx="0.842305" fill="#9F692D" stroke="#5D3C28" stroke-width="8.19621" mask="url(#path-43-inside-2_2023_6274)"/>
<path d="M68.5043 19.3732H63.5014C62.7305 19.3732 62.4177 18.3809 63.0493 17.9388L85.5314 2.20128C85.8214 1.99826 86.2074 1.99827 86.4974 2.20128L108.84 17.8409C109.514 18.3132 109.18 19.3732 108.357 19.3732H103.524H86.0144H68.5043Z" fill="#9F692D" stroke="#5D3C28" stroke-width="4.0981"/>
</svg>
