<svg width="279" height="479" viewBox="0 0 279 479" fill="none" xmlns="http://www.w3.org/2000/svg">
<path d="M28.4858 98.9748C27.7018 98.9748 27.1578 98.8308 26.8538 98.5428C26.5498 98.2548 26.3978 97.7188 26.3978 96.9348V94.0068C26.3978 93.2228 26.5498 92.6948 26.8538 92.4228C27.1578 92.1348 27.7018 91.9908 28.4858 91.9908H38.4938C38.6218 91.9908 38.6858 91.9348 38.6858 91.8228V91.1268C38.6858 91.0148 38.6218 90.9588 38.4938 90.9588H28.0538C27.5418 90.9588 27.1338 90.8308 26.8298 90.5748C26.5418 90.3188 26.3978 89.9508 26.3978 89.4708C26.3978 88.9908 26.5418 88.6228 26.8298 88.3668C27.1338 88.1108 27.5418 87.9828 28.0538 87.9828H40.2698C41.0538 87.9828 41.5898 88.1268 41.8778 88.4148C42.1818 88.7028 42.3338 89.2388 42.3338 90.0228V92.8308C42.3338 93.5988 42.1818 94.1268 41.8778 94.4148C41.5898 94.7028 41.0538 94.8468 40.2698 94.8468H30.2618C30.1338 94.8468 30.0698 94.9188 30.0698 95.0628V95.8548C30.0698 95.9508 30.1338 95.9988 30.2618 95.9988H41.1818C41.6938 95.9988 42.0938 96.1268 42.3818 96.3828C42.6698 96.6228 42.8138 96.9908 42.8138 97.4868C42.8138 97.9828 42.6698 98.3588 42.3818 98.6148C42.0938 98.8548 41.6938 98.9748 41.1818 98.9748H28.4858ZM25.3658 103.511C24.8218 103.511 24.3978 103.383 24.0938 103.127C23.7898 102.871 23.6378 102.471 23.6378 101.927C23.6378 101.383 23.7898 100.983 24.0938 100.727C24.3978 100.471 24.8218 100.343 25.3658 100.343H43.3658C43.9098 100.343 44.3338 100.471 44.6378 100.727C44.9418 100.983 45.0938 101.383 45.0938 101.927C45.0938 102.471 44.9418 102.871 44.6378 103.127C44.3338 103.383 43.9098 103.511 43.3658 103.511H36.2858V107.999C36.2858 108.591 36.1098 109.031 35.7578 109.319C35.4218 109.607 34.9578 109.751 34.3658 109.751C33.7738 109.751 33.3018 109.607 32.9498 109.319C32.6138 109.031 32.4458 108.591 32.4458 107.999V103.511H25.3658ZM63.2472 89.2308C63.2472 88.6708 63.4232 88.2388 63.7752 87.9348C64.1432 87.6308 64.6072 87.4788 65.1672 87.4788C65.7272 87.4788 66.1832 87.6308 66.5352 87.9348C66.9032 88.2388 67.0872 88.6708 67.0872 89.2308V107.999C67.0872 108.559 66.9032 108.991 66.5352 109.295C66.1832 109.599 65.7272 109.751 65.1672 109.751C64.6072 109.751 64.1432 109.599 63.7752 109.295C63.4232 108.991 63.2472 108.559 63.2472 107.999V89.2308ZM51.9432 100.343C51.9432 100.519 51.9672 100.631 52.0152 100.679C52.0632 100.727 52.1752 100.751 52.3512 100.751H55.4952C55.6712 100.751 55.7832 100.727 55.8312 100.679C55.8792 100.631 55.9032 100.519 55.9032 100.343V92.1828C55.9032 92.0068 55.8792 91.8948 55.8312 91.8468C55.7832 91.7988 55.6712 91.7748 55.4952 91.7748H52.3512C52.1752 91.7748 52.0632 91.7988 52.0152 91.8468C51.9672 91.8948 51.9432 92.0068 51.9432 92.1828V100.343ZM59.6472 101.567C59.6472 103.135 58.8472 103.919 57.2472 103.919H50.5992C48.9992 103.919 48.1992 103.135 48.1992 101.567V90.9828C48.1992 89.3988 48.9992 88.6068 50.5992 88.6068H57.2472C58.8472 88.6068 59.6472 89.3988 59.6472 90.9828V101.567ZM71.9503 93.7188C71.9503 92.8868 72.1023 92.1268 72.4063 91.4388C72.7263 90.7508 73.1583 90.1668 73.7023 89.6868C74.2623 89.1908 74.9183 88.8068 75.6703 88.5348C76.4223 88.2628 77.2303 88.1268 78.0943 88.1268C78.9583 88.1268 79.7583 88.2628 80.4943 88.5348C81.2463 88.8068 81.8943 89.1908 82.4383 89.6868C82.9983 90.1668 83.4383 90.7508 83.7583 91.4388C84.0783 92.1268 84.2383 92.8868 84.2383 93.7188C84.2383 94.4228 84.1263 95.0708 83.9023 95.6628C83.6943 96.2388 83.3983 96.7588 83.0143 97.2228C82.6303 97.6708 82.1743 98.0548 81.6463 98.3748C81.1183 98.6948 80.5423 98.9348 79.9183 99.0948V102.743C80.5263 102.711 81.1263 102.671 81.7183 102.623C82.3263 102.559 82.9663 102.487 83.6383 102.407C84.1023 102.343 84.4863 102.423 84.7903 102.647C85.0943 102.855 85.2863 103.167 85.3663 103.583C85.4463 103.967 85.3983 104.351 85.2223 104.735C85.0623 105.103 84.7743 105.343 84.3583 105.455C83.8783 105.583 83.3583 105.679 82.7983 105.743C82.2383 105.807 81.6623 105.863 81.0703 105.911C80.4943 105.943 79.9183 105.967 79.3423 105.983C78.7663 105.983 78.2223 105.983 77.7103 105.983H72.3823C71.8703 105.983 71.4623 105.847 71.1583 105.575C70.8543 105.287 70.7023 104.887 70.7023 104.375C70.7023 103.863 70.8543 103.471 71.1583 103.199C71.4623 102.911 71.8703 102.767 72.3823 102.767H76.2703V99.0948C74.9743 98.7748 73.9263 98.1508 73.1263 97.2228C72.3423 96.2948 71.9503 95.1268 71.9503 93.7188ZM86.2063 89.2308C86.2063 88.6708 86.3823 88.2388 86.7343 87.9348C87.1023 87.6308 87.5663 87.4788 88.1263 87.4788C88.6863 87.4788 89.1423 87.6308 89.4943 87.9348C89.8623 88.2388 90.0463 88.6708 90.0463 89.2308V95.1348H91.6543C92.1663 95.1348 92.5743 95.2708 92.8783 95.5428C93.1983 95.7988 93.3583 96.2068 93.3583 96.7668C93.3583 97.3268 93.1983 97.7428 92.8783 98.0148C92.5743 98.2708 92.1663 98.3988 91.6543 98.3988H90.0463V107.999C90.0463 108.559 89.8623 108.991 89.4943 109.295C89.1423 109.599 88.6863 109.751 88.1263 109.751C87.5663 109.751 87.1023 109.599 86.7343 109.295C86.3823 108.991 86.2063 108.559 86.2063 107.999V89.2308ZM75.7183 93.7188C75.7183 94.4228 75.9343 95.0068 76.3663 95.4708C76.8143 95.9348 77.3903 96.1668 78.0943 96.1668C78.7983 96.1668 79.3663 95.9348 79.7983 95.4708C80.2463 95.0068 80.4703 94.4228 80.4703 93.7188C80.4703 93.0148 80.2463 92.4308 79.7983 91.9668C79.3663 91.5028 78.7983 91.2708 78.0943 91.2708C77.3903 91.2708 76.8143 91.5028 76.3663 91.9668C75.9343 92.4308 75.7183 93.0148 75.7183 93.7188ZM107.19 109.607C106.406 109.607 105.846 109.447 105.51 109.127C105.174 108.807 105.006 108.255 105.006 107.471V103.775C105.006 102.991 105.174 102.447 105.51 102.143C105.846 101.823 106.406 101.663 107.19 101.663H118.158C118.942 101.663 119.494 101.823 119.814 102.143C120.15 102.447 120.318 102.991 120.318 103.775V107.471C120.318 108.255 120.15 108.807 119.814 109.127C119.494 109.447 118.942 109.607 118.158 109.607H107.19ZM102.63 96.5268C102.63 95.8548 102.774 95.2628 103.062 94.7508C103.366 94.2388 103.782 93.8148 104.31 93.4788C104.838 93.1268 105.454 92.8708 106.158 92.7108C106.878 92.5348 107.654 92.4468 108.486 92.4468C109.318 92.4468 110.086 92.5348 110.79 92.7108C111.51 92.8708 112.134 93.1268 112.662 93.4788C113.19 93.8148 113.598 94.2388 113.886 94.7508C114.19 95.2628 114.342 95.8548 114.342 96.5268C114.342 97.1988 114.19 97.7908 113.886 98.3028C113.598 98.8148 113.19 99.2468 112.662 99.5988C112.134 99.9348 111.51 100.191 110.79 100.367C110.086 100.527 109.318 100.607 108.486 100.607C107.654 100.607 106.878 100.527 106.158 100.367C105.454 100.191 104.838 99.9348 104.31 99.5988C103.782 99.2468 103.366 98.8148 103.062 98.3028C102.774 97.7908 102.63 97.1988 102.63 96.5268ZM116.478 89.2068C116.478 88.6468 116.654 88.2228 117.006 87.9348C117.374 87.6308 117.838 87.4788 118.398 87.4788C118.958 87.4788 119.414 87.6308 119.766 87.9348C120.134 88.2228 120.318 88.6468 120.318 89.2068V92.3508H121.974C122.486 92.3508 122.902 92.4788 123.222 92.7348C123.542 92.9908 123.702 93.3908 123.702 93.9348C123.702 94.4788 123.542 94.8788 123.222 95.1348C122.902 95.3908 122.486 95.5188 121.974 95.5188H120.318V98.7108C120.318 99.2708 120.134 99.7028 119.766 100.007C119.414 100.311 118.958 100.463 118.398 100.463C117.838 100.463 117.374 100.311 117.006 100.007C116.654 99.7028 116.478 99.2708 116.478 98.7108V89.2068ZM103.206 91.8228C102.662 91.8228 102.23 91.7268 101.91 91.5348C101.606 91.3268 101.454 90.9508 101.454 90.4068C101.454 89.8628 101.606 89.4948 101.91 89.3028C102.23 89.0948 102.662 88.9908 103.206 88.9908H106.686V88.2948C106.686 87.7508 106.846 87.3428 107.166 87.0708C107.502 86.7828 107.942 86.6388 108.486 86.6388C109.03 86.6388 109.462 86.7828 109.782 87.0708C110.118 87.3428 110.286 87.7508 110.286 88.2948V88.9908H113.526C114.07 88.9908 114.494 89.0948 114.798 89.3028C115.118 89.4948 115.278 89.8628 115.278 90.4068C115.278 90.9508 115.118 91.3268 114.798 91.5348C114.494 91.7268 114.07 91.8228 113.526 91.8228H103.206ZM108.99 104.543C108.83 104.543 108.75 104.623 108.75 104.783V106.247C108.75 106.327 108.766 106.423 108.798 106.535C108.846 106.663 108.91 106.727 108.99 106.727H116.334C116.414 106.727 116.47 106.663 116.502 106.535C116.55 106.423 116.574 106.327 116.574 106.247V104.783C116.574 104.623 116.494 104.543 116.334 104.543H108.99ZM110.718 96.5268C110.718 96.0468 110.494 95.7028 110.046 95.4948C109.614 95.2708 109.094 95.1588 108.486 95.1588C107.91 95.1588 107.39 95.2708 106.926 95.4948C106.478 95.7028 106.254 96.0468 106.254 96.5268C106.254 97.0068 106.478 97.3588 106.926 97.5828C107.39 97.7908 107.91 97.8948 108.486 97.8948C109.094 97.8948 109.614 97.7908 110.046 97.5828C110.494 97.3588 110.718 97.0068 110.718 96.5268ZM131.008 103.079C131.968 101.335 132.672 99.5508 133.12 97.7268C133.568 95.9028 133.792 94.1668 133.792 92.5188V91.9668C133.792 91.8068 133.712 91.7268 133.552 91.7268H132.952C132.44 91.7268 132.096 91.5988 131.92 91.3428C131.76 91.0708 131.68 90.6788 131.68 90.1668C131.68 89.6548 131.76 89.2708 131.92 89.0148C132.096 88.7428 132.44 88.6068 132.952 88.6068H134.896C135.616 88.6068 136.128 88.7668 136.432 89.0868C136.736 89.4068 136.888 89.9188 136.888 90.6228V91.5348C136.888 92.0468 136.872 92.5908 136.84 93.1668C136.808 93.7268 136.76 94.3028 136.696 94.8948H138.4V89.3508C138.4 88.2628 138.928 87.7188 139.984 87.7188C141.04 87.7188 141.568 88.2628 141.568 89.3508V107.423C141.568 108.511 141.04 109.055 139.984 109.055C138.928 109.055 138.4 108.511 138.4 107.423V97.8708H136.24C135.968 99.1828 135.608 100.455 135.16 101.687C134.728 102.903 134.176 103.983 133.504 104.927C133.328 105.167 133.024 105.343 132.592 105.455C132.16 105.551 131.736 105.455 131.32 105.167C131.096 105.023 130.944 104.855 130.864 104.663C130.784 104.471 130.744 104.279 130.744 104.087C130.744 103.895 130.768 103.711 130.816 103.535C130.88 103.359 130.944 103.207 131.008 103.079ZM145.936 108.095C145.936 109.199 145.408 109.751 144.352 109.751C143.296 109.751 142.768 109.199 142.768 108.095V89.1348C142.768 88.0308 143.296 87.4788 144.352 87.4788C145.408 87.4788 145.936 88.0308 145.936 89.1348V108.095ZM127.336 91.7268C126.824 91.7268 126.424 91.5988 126.136 91.3428C125.864 91.0708 125.728 90.6788 125.728 90.1668C125.728 89.6548 125.864 89.2708 126.136 89.0148C126.424 88.7428 126.824 88.6068 127.336 88.6068H129.568C130.256 88.6068 130.72 88.7748 130.96 89.1108C131.216 89.4308 131.344 89.9268 131.344 90.5988V91.5348C131.344 92.5748 131.272 93.6228 131.128 94.6788C131 95.7348 130.784 96.7748 130.48 97.7988C130.192 98.8068 129.816 99.7908 129.352 100.751C128.904 101.711 128.368 102.607 127.744 103.439C127.648 103.567 127.52 103.679 127.36 103.775C127.2 103.871 127.024 103.935 126.832 103.967C126.64 103.999 126.432 103.999 126.208 103.967C126 103.919 125.792 103.823 125.584 103.679C125.376 103.519 125.224 103.343 125.128 103.151C125.032 102.959 124.976 102.767 124.96 102.575C124.96 102.383 124.984 102.207 125.032 102.047C125.096 101.871 125.168 101.727 125.248 101.615C125.696 100.975 126.104 100.295 126.472 99.5748C126.84 98.8388 127.152 98.0868 127.408 97.3188C127.68 96.5348 127.888 95.7348 128.032 94.9188C128.176 94.0868 128.248 93.2628 128.248 92.4468V91.9668C128.248 91.8068 128.176 91.7268 128.032 91.7268H127.336ZM171.048 107.423C171.048 107.967 170.896 108.375 170.592 108.647C170.304 108.919 169.888 109.055 169.344 109.055C168.8 109.055 168.376 108.919 168.072 108.647C167.784 108.375 167.64 107.967 167.64 107.423V89.3508C167.64 88.8068 167.784 88.3988 168.072 88.1268C168.376 87.8548 168.8 87.7188 169.344 87.7188C169.888 87.7188 170.304 87.8548 170.592 88.1268C170.896 88.3988 171.048 88.8068 171.048 89.3508V94.2948H172.92V89.1348C172.92 88.5908 173.072 88.1828 173.376 87.9108C173.68 87.6228 174.104 87.4788 174.648 87.4788C175.192 87.4788 175.616 87.6228 175.92 87.9108C176.224 88.1828 176.376 88.5908 176.376 89.1348V108.095C176.376 108.639 176.224 109.047 175.92 109.319C175.616 109.607 175.192 109.751 174.648 109.751C174.104 109.751 173.68 109.607 173.376 109.319C173.072 109.047 172.92 108.639 172.92 108.095V97.5588H171.048V107.423ZM165.288 103.175C164.712 103.303 164.072 103.399 163.368 103.463C162.664 103.527 161.944 103.559 161.208 103.559H159.432C157.816 103.559 157.008 102.759 157.008 101.159V90.3828C157.008 89.8548 157.152 89.4148 157.44 89.0628C157.744 88.7108 158.2 88.5348 158.808 88.5348C159.416 88.5348 159.864 88.7108 160.152 89.0628C160.456 89.4148 160.608 89.8548 160.608 90.3828V99.8868C160.608 100.063 160.632 100.175 160.68 100.223C160.728 100.271 160.84 100.295 161.016 100.295H161.64C162.168 100.295 162.72 100.271 163.296 100.223C163.872 100.175 164.376 100.111 164.808 100.031C165.272 99.9508 165.68 100.015 166.032 100.223C166.384 100.415 166.6 100.767 166.68 101.279C166.776 101.807 166.68 102.231 166.392 102.551C166.12 102.855 165.752 103.063 165.288 103.175ZM197.294 101.135C198.494 101.135 199.598 101.223 200.606 101.399C201.614 101.559 202.478 101.823 203.198 102.191C203.918 102.543 204.478 102.999 204.878 103.559C205.294 104.103 205.502 104.767 205.502 105.551C205.502 106.335 205.294 107.007 204.878 107.567C204.462 108.127 203.886 108.583 203.15 108.935C202.414 109.303 201.542 109.567 200.534 109.727C199.542 109.903 198.462 109.991 197.294 109.991C196.126 109.991 195.038 109.903 194.03 109.727C193.038 109.567 192.174 109.303 191.438 108.935C190.702 108.583 190.126 108.127 189.71 107.567C189.294 107.007 189.086 106.335 189.086 105.551C189.086 104.767 189.286 104.103 189.686 103.559C190.102 102.999 190.67 102.543 191.39 102.191C192.11 101.823 192.974 101.559 193.982 101.399C194.99 101.223 196.094 101.135 197.294 101.135ZM206.27 96.9348C206.814 96.9348 207.238 97.0468 207.542 97.2708C207.862 97.4948 208.022 97.8788 208.022 98.4228C208.022 98.9668 207.862 99.3508 207.542 99.5748C207.238 99.7988 206.814 99.9108 206.27 99.9108H188.318C187.774 99.9108 187.342 99.7988 187.022 99.5748C186.718 99.3508 186.566 98.9668 186.566 98.4228C186.566 97.8788 186.718 97.4948 187.022 97.2708C187.342 97.0468 187.774 96.9348 188.318 96.9348H193.862V94.5108C193.862 93.9348 194.038 93.5028 194.39 93.2148C194.742 92.9268 195.206 92.7828 195.782 92.7828C196.358 92.7828 196.822 92.9268 197.174 93.2148C197.526 93.5028 197.702 93.9348 197.702 94.5108V96.9348H206.27ZM191.198 90.7428C190.654 90.7428 190.222 90.6308 189.902 90.4068C189.598 90.1828 189.446 89.7988 189.446 89.2548C189.446 88.7108 189.598 88.3268 189.902 88.1028C190.222 87.8788 190.654 87.7668 191.198 87.7668H202.838C203.654 87.7668 204.238 87.9428 204.59 88.2948C204.958 88.6468 205.142 89.1508 205.142 89.8068V91.1028C205.142 91.2948 205.134 91.5268 205.118 91.7988C205.102 92.0548 205.078 92.3268 205.046 92.6148C205.03 92.9028 205.006 93.1828 204.974 93.4548C204.942 93.7268 204.91 93.9668 204.878 94.1748C204.798 94.6068 204.574 94.9668 204.206 95.2548C203.838 95.5428 203.35 95.6548 202.742 95.5908C202.134 95.5268 201.718 95.3348 201.494 95.0148C201.27 94.6788 201.182 94.2948 201.23 93.8628C201.262 93.5428 201.294 93.1908 201.326 92.8068C201.374 92.4228 201.398 92.0948 201.398 91.8228V91.1268C201.398 90.9508 201.366 90.8468 201.302 90.8148C201.254 90.7668 201.142 90.7428 200.966 90.7428H191.198ZM197.294 104.087C195.998 104.087 194.934 104.207 194.102 104.447C193.286 104.671 192.878 105.039 192.878 105.551C192.878 106.063 193.286 106.431 194.102 106.655C194.934 106.895 195.998 107.015 197.294 107.015C198.59 107.015 199.646 106.895 200.462 106.655C201.294 106.431 201.71 106.063 201.71 105.551C201.71 105.039 201.294 104.671 200.462 104.447C199.646 104.207 198.59 104.087 197.294 104.087ZM222.407 91.1988C222.407 92.3508 222.175 93.4468 221.711 94.4868C221.263 95.5108 220.623 96.4468 219.791 97.2948C218.975 98.1268 217.991 98.8468 216.839 99.4548C215.703 100.063 214.447 100.519 213.071 100.823C212.591 100.935 212.151 100.911 211.751 100.751C211.351 100.575 211.087 100.239 210.959 99.7428C210.815 99.2468 210.855 98.8308 211.079 98.4948C211.303 98.1588 211.663 97.9268 212.159 97.7988C213.103 97.5588 213.975 97.2308 214.775 96.8148C215.591 96.3828 216.287 95.8948 216.863 95.3508C217.455 94.8068 217.919 94.2228 218.255 93.5988C218.591 92.9748 218.759 92.3428 218.759 91.7028V91.4388C218.759 91.2628 218.727 91.1428 218.663 91.0788C218.615 90.9988 218.503 90.9588 218.327 90.9588H212.903C212.391 90.9588 211.983 90.8388 211.679 90.5988C211.391 90.3588 211.247 89.9828 211.247 89.4708C211.247 88.9588 211.391 88.5828 211.679 88.3428C211.983 88.1028 212.391 87.9828 212.903 87.9828H220.271C221.007 87.9828 221.543 88.1508 221.879 88.4868C222.231 88.8068 222.407 89.2628 222.407 89.8548V91.1988ZM215.639 101.159C216.199 101.159 216.663 101.319 217.031 101.639C217.399 101.959 217.583 102.407 217.583 102.983V105.911C217.583 106.087 217.607 106.199 217.655 106.247C217.703 106.295 217.815 106.319 217.991 106.319H227.975C228.487 106.319 228.887 106.455 229.175 106.727C229.463 106.999 229.607 107.391 229.607 107.903C229.607 108.415 229.463 108.807 229.175 109.079C228.887 109.351 228.487 109.487 227.975 109.487H215.879C215.095 109.487 214.535 109.327 214.199 109.007C213.863 108.687 213.695 108.143 213.695 107.375V102.983C213.695 102.407 213.879 101.959 214.247 101.639C214.615 101.319 215.079 101.159 215.639 101.159ZM225.167 89.2068C225.167 88.6468 225.343 88.2228 225.695 87.9348C226.063 87.6308 226.527 87.4788 227.087 87.4788C227.647 87.4788 228.103 87.6308 228.455 87.9348C228.823 88.2228 229.007 88.6468 229.007 89.2068V92.5188H230.663C231.175 92.5188 231.591 92.6468 231.911 92.9028C232.231 93.1588 232.391 93.5588 232.391 94.1028C232.391 94.6468 232.231 95.0468 231.911 95.3028C231.591 95.5588 231.175 95.6868 230.663 95.6868H229.007V101.111C229.007 101.671 228.823 102.103 228.455 102.407C228.103 102.711 227.647 102.863 227.087 102.863C226.527 102.863 226.063 102.711 225.695 102.407C225.343 102.103 225.167 101.671 225.167 101.111V89.2068ZM249.537 107.423C249.537 107.967 249.385 108.375 249.081 108.647C248.793 108.919 248.377 109.055 247.833 109.055C247.289 109.055 246.865 108.919 246.561 108.647C246.273 108.375 246.129 107.967 246.129 107.423V97.6308H244.305C244.241 98.6388 244.105 99.5508 243.897 100.367C243.689 101.183 243.377 101.871 242.961 102.431C242.561 102.991 242.057 103.423 241.449 103.727C240.841 104.031 240.113 104.183 239.265 104.183C238.321 104.183 237.521 103.999 236.865 103.631C236.209 103.247 235.673 102.711 235.257 102.023C234.857 101.335 234.569 100.503 234.393 99.5268C234.217 98.5348 234.129 97.4308 234.129 96.2148C234.129 94.9988 234.217 93.9028 234.393 92.9268C234.569 91.9348 234.857 91.0948 235.257 90.4068C235.673 89.7188 236.209 89.1908 236.865 88.8228C237.521 88.4388 238.321 88.2468 239.265 88.2468C240.097 88.2468 240.817 88.3988 241.425 88.7028C242.033 88.9908 242.537 89.4148 242.937 89.9748C243.337 90.5188 243.641 91.1908 243.849 91.9908C244.073 92.7748 244.225 93.6628 244.305 94.6548H246.129V89.3508C246.129 88.8068 246.273 88.3988 246.561 88.1268C246.865 87.8548 247.289 87.7188 247.833 87.7188C248.377 87.7188 248.793 87.8548 249.081 88.1268C249.385 88.3988 249.537 88.8068 249.537 89.3508V107.423ZM254.265 108.095C254.265 108.639 254.113 109.047 253.809 109.319C253.505 109.607 253.081 109.751 252.537 109.751C251.993 109.751 251.569 109.607 251.265 109.319C250.961 109.047 250.809 108.639 250.809 108.095V89.1348C250.809 88.5908 250.961 88.1828 251.265 87.9108C251.569 87.6228 251.993 87.4788 252.537 87.4788C253.081 87.4788 253.505 87.6228 253.809 87.9108C254.113 88.1828 254.265 88.5908 254.265 89.1348V108.095ZM237.465 96.2148C237.465 97.7668 237.593 98.9748 237.849 99.8388C238.105 100.687 238.577 101.111 239.265 101.111C239.953 101.111 240.425 100.687 240.681 99.8388C240.937 98.9748 241.065 97.7668 241.065 96.2148C241.065 94.6628 240.937 93.4628 240.681 92.6148C240.425 91.7508 239.953 91.3188 239.265 91.3188C238.577 91.3188 238.105 91.7508 237.849 92.6148C237.593 93.4628 237.465 94.6628 237.465 96.2148ZM19.7097 114.255C19.7097 113.679 19.8857 113.239 20.2377 112.935C20.6057 112.631 21.0697 112.479 21.6297 112.479C22.2057 112.479 22.6697 112.631 23.0217 112.935C23.3737 113.239 23.5497 113.679 23.5497 114.255V132.975C23.5497 133.551 23.3737 133.991 23.0217 134.295C22.6697 134.599 22.2057 134.751 21.6297 134.751C21.0697 134.751 20.6057 134.599 20.2377 134.295C19.8857 133.991 19.7097 133.551 19.7097 132.975V122.655H16.6617C16.5817 123.647 16.3977 124.551 16.1097 125.367C15.8217 126.167 15.4217 126.847 14.9097 127.407C14.4137 127.967 13.8057 128.399 13.0857 128.703C12.3657 129.007 11.5257 129.159 10.5657 129.159C9.50973 129.159 8.58973 128.975 7.80573 128.607C7.02173 128.223 6.37372 127.687 5.86172 126.999C5.34972 126.311 4.96572 125.487 4.70973 124.527C4.46972 123.551 4.34972 122.463 4.34972 121.263C4.34972 120.063 4.46972 118.983 4.70973 118.023C4.96572 117.047 5.34972 116.215 5.86172 115.527C6.37372 114.839 7.02173 114.311 7.80573 113.943C8.58973 113.559 9.50973 113.367 10.5657 113.367C12.4057 113.367 13.8137 113.919 14.7897 115.023C15.7817 116.111 16.3897 117.591 16.6137 119.463H19.7097V114.255ZM10.5657 125.943C11.0457 125.943 11.4457 125.823 11.7657 125.583C12.0857 125.327 12.3337 124.991 12.5097 124.575C12.7017 124.159 12.8377 123.671 12.9177 123.111C12.9977 122.535 13.0377 121.919 13.0377 121.263C13.0377 120.623 12.9977 120.015 12.9177 119.439C12.8377 118.863 12.7017 118.367 12.5097 117.951C12.3337 117.535 12.0857 117.207 11.7657 116.967C11.4457 116.711 11.0457 116.583 10.5657 116.583C10.0857 116.583 9.68573 116.711 9.36573 116.967C9.04573 117.207 8.78973 117.535 8.59773 117.951C8.42173 118.367 8.29373 118.863 8.21372 119.439C8.13373 120.015 8.09373 120.623 8.09373 121.263C8.09373 121.919 8.13373 122.535 8.21372 123.111C8.29373 123.671 8.42173 124.159 8.59773 124.575C8.78973 124.991 9.04573 125.327 9.36573 125.583C9.68573 125.823 10.0857 125.943 10.5657 125.943ZM44.7568 132.111C45.2688 132.111 45.6688 132.199 45.9568 132.375C46.2448 132.567 46.3888 132.919 46.3888 133.431C46.3888 133.943 46.2448 134.287 45.9568 134.463C45.6688 134.655 45.2688 134.751 44.7568 134.751H32.0608C31.2768 134.751 30.7328 134.607 30.4288 134.319C30.1248 134.031 29.9728 133.495 29.9728 132.711V130.575C29.9728 129.791 30.1248 129.263 30.4288 128.991C30.7328 128.703 31.2768 128.559 32.0608 128.559H42.2368C42.3488 128.559 42.4048 128.503 42.4048 128.391V127.815C42.4048 127.703 42.3488 127.647 42.2368 127.647H31.6288C31.1488 127.647 30.7488 127.559 30.4288 127.383C30.1248 127.191 29.9728 126.855 29.9728 126.375C29.9728 125.895 30.1248 125.567 30.4288 125.391C30.7488 125.199 31.1488 125.103 31.6288 125.103H36.1168V123.663H28.7488C28.3008 123.663 27.9328 123.559 27.6448 123.351C27.3568 123.143 27.2128 122.815 27.2128 122.367C27.2128 121.919 27.3568 121.591 27.6448 121.383C27.9328 121.175 28.3008 121.071 28.7488 121.071H47.1568C47.6048 121.071 47.9648 121.175 48.2368 121.383C48.5248 121.591 48.6688 121.919 48.6688 122.367C48.6688 122.815 48.5248 123.143 48.2368 123.351C47.9648 123.559 47.6048 123.663 47.1568 123.663H39.7648V125.103H43.8448C44.6288 125.103 45.1648 125.247 45.4528 125.535C45.7568 125.823 45.9088 126.359 45.9088 127.143V129.063C45.9088 129.847 45.7568 130.383 45.4528 130.671C45.1648 130.959 44.6288 131.103 43.8448 131.103H33.6688C33.5568 131.103 33.5008 131.159 33.5008 131.271V131.943C33.5008 132.055 33.5568 132.111 33.6688 132.111H44.7568ZM37.9408 112.407C38.9968 112.407 40.0048 112.463 40.9648 112.575C41.9408 112.687 42.7968 112.895 43.5328 113.199C44.2848 113.487 44.8768 113.887 45.3088 114.399C45.7568 114.911 45.9808 115.567 45.9808 116.367C45.9808 117.167 45.7568 117.823 45.3088 118.335C44.8768 118.831 44.2848 119.231 43.5328 119.535C42.7968 119.839 41.9408 120.047 40.9648 120.159C40.0048 120.271 38.9968 120.327 37.9408 120.327C36.8848 120.327 35.8688 120.271 34.8928 120.159C33.9328 120.047 33.0768 119.847 32.3248 119.559C31.5888 119.255 30.9968 118.847 30.5488 118.335C30.1168 117.823 29.9008 117.167 29.9008 116.367C29.9008 115.567 30.1168 114.911 30.5488 114.399C30.9968 113.887 31.5888 113.487 32.3248 113.199C33.0768 112.895 33.9328 112.687 34.8928 112.575C35.8688 112.463 36.8848 112.407 37.9408 112.407ZM37.9408 117.663C38.5488 117.663 39.1168 117.647 39.6448 117.615C40.1728 117.567 40.6288 117.495 41.0128 117.399C41.4128 117.303 41.7248 117.175 41.9488 117.015C42.1728 116.839 42.2848 116.623 42.2848 116.367C42.2848 116.111 42.1728 115.903 41.9488 115.743C41.7248 115.567 41.4128 115.431 41.0128 115.335C40.6288 115.239 40.1728 115.175 39.6448 115.143C39.1168 115.095 38.5488 115.071 37.9408 115.071C37.3328 115.071 36.7648 115.095 36.2368 115.143C35.7088 115.175 35.2448 115.239 34.8448 115.335C34.4608 115.431 34.1568 115.567 33.9328 115.743C33.7088 115.903 33.5968 116.111 33.5968 116.367C33.5968 116.623 33.7088 116.839 33.9328 117.015C34.1568 117.175 34.4608 117.303 34.8448 117.399C35.2448 117.495 35.7088 117.567 36.2368 117.615C36.7648 117.647 37.3328 117.663 37.9408 117.663ZM66.8222 114.231C66.8222 113.671 66.9982 113.239 67.3502 112.935C67.7182 112.631 68.1822 112.479 68.7422 112.479C69.3022 112.479 69.7582 112.631 70.1102 112.935C70.4782 113.239 70.6622 113.671 70.6622 114.231V132.999C70.6622 133.559 70.4782 133.991 70.1102 134.295C69.7582 134.599 69.3022 134.751 68.7422 134.751C68.1822 134.751 67.7182 134.599 67.3502 134.295C66.9982 133.991 66.8222 133.559 66.8222 132.999V114.231ZM60.8702 113.535C62.4382 113.535 63.2222 114.311 63.2222 115.863V120.351C63.2222 121.903 62.4382 122.679 60.8702 122.679H56.0942C55.8702 122.679 55.7582 122.791 55.7582 123.015V126.135C55.7582 126.359 55.8702 126.471 56.0942 126.471H56.8382C57.4462 126.471 58.0062 126.463 58.5182 126.447C59.0462 126.431 59.5582 126.407 60.0542 126.375C60.5502 126.327 61.0382 126.279 61.5182 126.231C61.9982 126.183 62.4942 126.119 63.0062 126.039C63.4702 125.975 63.8622 126.031 64.1822 126.207C64.5182 126.367 64.7262 126.695 64.8062 127.191C64.9022 127.687 64.8222 128.095 64.5662 128.415C64.3102 128.735 63.9502 128.935 63.4862 129.015C62.3342 129.191 61.2062 129.319 60.1022 129.399C58.9982 129.479 57.7982 129.519 56.5022 129.519H54.3902C52.8062 129.519 52.0142 128.743 52.0142 127.191V122.007C52.0142 121.223 52.2302 120.639 52.6622 120.255C53.0942 119.871 53.7022 119.679 54.4862 119.679H59.1662C59.2942 119.679 59.3822 119.655 59.4302 119.607C59.4782 119.559 59.5022 119.463 59.5022 119.319V116.943C59.5022 116.703 59.3902 116.583 59.1662 116.583H53.6462C53.1822 116.583 52.7902 116.455 52.4702 116.199C52.1662 115.943 52.0142 115.567 52.0142 115.071C52.0142 114.559 52.1662 114.175 52.4702 113.919C52.7902 113.663 53.1822 113.535 53.6462 113.535H60.8702ZM77.0853 128.895C77.0853 128.351 77.2613 127.951 77.6133 127.695C77.9653 127.439 78.4133 127.311 78.9573 127.311C79.5013 127.311 79.9493 127.439 80.3013 127.695C80.6693 127.951 80.8533 128.351 80.8533 128.895V131.175C80.8533 131.351 80.9413 131.439 81.1173 131.439H91.9173C92.4613 131.439 92.8773 131.559 93.1653 131.799C93.4693 132.039 93.6213 132.431 93.6213 132.975C93.6213 133.519 93.4693 133.903 93.1653 134.127C92.8773 134.367 92.4613 134.487 91.9173 134.487H79.1493C78.4293 134.487 77.9013 134.319 77.5653 133.983C77.2453 133.663 77.0853 133.143 77.0853 132.423V128.895ZM76.0773 125.967C75.5333 125.967 75.1013 125.871 74.7813 125.679C74.4773 125.471 74.3253 125.095 74.3253 124.551C74.3253 124.007 74.4773 123.631 74.7813 123.423C75.1013 123.215 75.5333 123.111 76.0773 123.111H94.0293C94.5733 123.111 94.9973 123.215 95.3013 123.423C95.6213 123.631 95.7813 124.007 95.7813 124.551C95.7813 125.095 95.6213 125.471 95.3013 125.679C94.9973 125.871 94.5733 125.967 94.0293 125.967H76.0773ZM80.9493 117.951C80.9493 118.063 80.9653 118.135 80.9973 118.167C81.0293 118.199 81.1093 118.215 81.2373 118.215H91.5333C92.0453 118.215 92.4613 118.343 92.7813 118.599C93.1013 118.855 93.2613 119.239 93.2613 119.751C93.2613 120.263 93.1013 120.647 92.7813 120.903C92.4613 121.159 92.0453 121.287 91.5333 121.287H79.5333C78.7173 121.287 78.1253 121.111 77.7573 120.759C77.3893 120.407 77.2053 119.823 77.2053 119.007V114.447C77.2053 113.887 77.3733 113.455 77.7093 113.151C78.0453 112.847 78.5013 112.695 79.0773 112.695C79.6533 112.695 80.1093 112.847 80.4453 113.151C80.7813 113.455 80.9493 113.887 80.9493 114.447V117.951ZM108.323 126.591C108.323 125.999 108.491 125.567 108.827 125.295C109.179 125.007 109.651 124.863 110.243 124.863C110.835 124.863 111.299 125.007 111.635 125.295C111.987 125.567 112.163 125.999 112.163 126.591V127.503H119.795V126.591C119.795 125.999 119.963 125.567 120.299 125.295C120.651 125.007 121.123 124.863 121.715 124.863C122.307 124.863 122.771 125.007 123.107 125.295C123.459 125.567 123.635 125.999 123.635 126.591V132.471C123.635 133.239 123.467 133.783 123.131 134.103C122.795 134.439 122.243 134.607 121.475 134.607H110.507C109.723 134.607 109.163 134.439 108.827 134.103C108.491 133.783 108.323 133.239 108.323 132.471V126.591ZM116.987 122.511C115.963 122.703 114.899 122.839 113.795 122.919C112.707 122.983 111.651 123.015 110.627 123.015H108.251C106.667 123.015 105.875 122.231 105.875 120.663V115.335C105.875 113.767 106.667 112.983 108.251 112.983H115.547C116.027 112.983 116.411 113.111 116.699 113.367C117.003 113.623 117.155 113.991 117.155 114.471C117.155 114.951 117.003 115.319 116.699 115.575C116.411 115.831 116.027 115.959 115.547 115.959H109.859C109.731 115.959 109.651 115.983 109.619 116.031C109.587 116.063 109.571 116.143 109.571 116.271V119.703C109.571 119.927 109.675 120.039 109.883 120.039H110.891C111.867 120.039 112.859 119.999 113.867 119.919C114.891 119.823 115.787 119.711 116.555 119.583C116.987 119.503 117.371 119.543 117.707 119.703C118.059 119.847 118.275 120.159 118.355 120.639C118.451 121.135 118.363 121.551 118.091 121.887C117.819 122.223 117.451 122.431 116.987 122.511ZM119.795 114.207C119.795 113.647 119.971 113.223 120.323 112.935C120.691 112.631 121.155 112.479 121.715 112.479C122.275 112.479 122.731 112.631 123.083 112.935C123.451 113.223 123.635 113.647 123.635 114.207V116.439H125.291C125.803 116.439 126.219 116.567 126.539 116.823C126.859 117.079 127.019 117.479 127.019 118.023C127.019 118.567 126.859 118.967 126.539 119.223C126.219 119.479 125.803 119.607 125.291 119.607H123.635V122.031C123.635 122.591 123.451 123.023 123.083 123.327C122.731 123.631 122.275 123.783 121.715 123.783C121.155 123.783 120.691 123.631 120.323 123.327C119.971 123.023 119.795 122.591 119.795 122.031V114.207ZM112.163 131.631C112.163 131.807 112.243 131.895 112.403 131.895H119.555C119.715 131.895 119.795 131.807 119.795 131.631V130.167H112.163V131.631ZM146.085 132.111C146.597 132.111 146.997 132.199 147.285 132.375C147.573 132.567 147.717 132.919 147.717 133.431C147.717 133.943 147.573 134.287 147.285 134.463C146.997 134.655 146.597 134.751 146.085 134.751H133.389C132.605 134.751 132.061 134.607 131.757 134.319C131.453 134.031 131.301 133.495 131.301 132.711V130.575C131.301 129.791 131.453 129.263 131.757 128.991C132.061 128.703 132.605 128.559 133.389 128.559H143.565C143.677 128.559 143.733 128.503 143.733 128.391V127.815C143.733 127.703 143.677 127.647 143.565 127.647H132.957C132.477 127.647 132.077 127.559 131.757 127.383C131.453 127.191 131.301 126.855 131.301 126.375C131.301 125.895 131.453 125.567 131.757 125.391C132.077 125.199 132.477 125.103 132.957 125.103H145.173C145.957 125.103 146.493 125.247 146.781 125.535C147.085 125.823 147.237 126.359 147.237 127.143V129.063C147.237 129.847 147.085 130.383 146.781 130.671C146.493 130.959 145.957 131.103 145.173 131.103H134.997C134.885 131.103 134.829 131.159 134.829 131.271V131.943C134.829 132.055 134.885 132.111 134.997 132.111H146.085ZM130.077 123.927C129.629 123.927 129.261 123.823 128.973 123.615C128.685 123.391 128.541 123.055 128.541 122.607C128.541 122.159 128.685 121.831 128.973 121.623C129.261 121.399 129.629 121.287 130.077 121.287H148.485C148.933 121.287 149.293 121.399 149.565 121.623C149.853 121.831 149.997 122.159 149.997 122.607C149.997 123.055 149.853 123.391 149.565 123.615C149.293 123.823 148.933 123.927 148.485 123.927H130.077ZM139.269 117.663C139.877 117.663 140.445 117.647 140.973 117.615C141.501 117.567 141.957 117.495 142.341 117.399C142.741 117.303 143.053 117.175 143.277 117.015C143.501 116.839 143.613 116.623 143.613 116.367C143.613 116.111 143.501 115.903 143.277 115.743C143.053 115.567 142.741 115.431 142.341 115.335C141.957 115.239 141.501 115.175 140.973 115.143C140.445 115.095 139.877 115.071 139.269 115.071C138.661 115.071 138.093 115.095 137.565 115.143C137.037 115.175 136.573 115.239 136.173 115.335C135.789 115.431 135.485 115.567 135.261 115.743C135.037 115.903 134.925 116.111 134.925 116.367C134.925 116.623 135.037 116.839 135.261 117.015C135.485 117.175 135.789 117.303 136.173 117.399C136.573 117.495 137.037 117.567 137.565 117.615C138.093 117.647 138.661 117.663 139.269 117.663ZM139.269 112.407C140.325 112.407 141.333 112.463 142.293 112.575C143.269 112.687 144.125 112.895 144.861 113.199C145.613 113.487 146.205 113.887 146.637 114.399C147.085 114.911 147.309 115.567 147.309 116.367C147.309 117.167 147.085 117.823 146.637 118.335C146.205 118.831 145.613 119.231 144.861 119.535C144.125 119.839 143.269 120.047 142.293 120.159C141.333 120.271 140.325 120.327 139.269 120.327C138.213 120.327 137.197 120.271 136.221 120.159C135.261 120.047 134.405 119.847 133.653 119.559C132.917 119.255 132.325 118.847 131.877 118.335C131.445 117.823 131.229 117.167 131.229 116.367C131.229 115.567 131.445 114.911 131.877 114.399C132.325 113.887 132.917 113.487 133.653 113.199C134.405 112.895 135.261 112.687 136.221 112.575C137.197 112.463 138.213 112.407 139.269 112.407ZM163.595 128.775C163.083 128.775 162.683 128.639 162.395 128.367C162.107 128.095 161.963 127.727 161.963 127.263C161.963 126.799 162.107 126.431 162.395 126.159C162.683 125.887 163.083 125.751 163.595 125.751H176.243C176.755 125.751 177.147 125.887 177.419 126.159C177.707 126.431 177.851 126.799 177.851 127.263C177.851 127.727 177.707 128.095 177.419 128.367C177.147 128.639 176.755 128.775 176.243 128.775H171.779C171.843 129.127 172.059 129.455 172.427 129.759C172.811 130.047 173.267 130.311 173.795 130.551C174.323 130.775 174.883 130.975 175.475 131.151C176.067 131.327 176.603 131.471 177.083 131.583C177.563 131.679 177.907 131.919 178.115 132.303C178.339 132.687 178.387 133.111 178.259 133.575C178.131 134.039 177.883 134.351 177.515 134.511C177.163 134.687 176.731 134.727 176.219 134.631C175.019 134.375 173.891 134.023 172.835 133.575C171.795 133.127 170.819 132.519 169.907 131.751C168.995 132.519 168.011 133.135 166.955 133.599C165.899 134.063 164.779 134.423 163.595 134.679C163.083 134.775 162.643 134.735 162.275 134.559C161.907 134.399 161.659 134.087 161.531 133.623C161.403 133.159 161.451 132.735 161.675 132.351C161.899 131.967 162.251 131.727 162.731 131.631C163.211 131.519 163.739 131.375 164.315 131.199C164.907 131.023 165.467 130.815 165.995 130.575C166.523 130.319 166.971 130.047 167.339 129.759C167.723 129.455 167.955 129.127 168.035 128.775H163.595ZM170.483 114.327C171.027 114.327 171.451 114.447 171.755 114.687C172.075 114.911 172.235 115.295 172.235 115.839C172.235 116.383 172.075 116.775 171.755 117.015C171.451 117.239 171.027 117.351 170.483 117.351H167.771V117.399C167.771 117.911 167.875 118.351 168.083 118.719C168.307 119.087 168.595 119.415 168.947 119.703C169.315 119.991 169.731 120.255 170.195 120.495C170.675 120.735 171.171 120.991 171.683 121.263C172.179 121.535 172.483 121.879 172.595 122.295C172.723 122.711 172.651 123.135 172.379 123.567C172.123 123.983 171.755 124.199 171.275 124.215C170.811 124.215 170.339 124.127 169.859 123.951C169.139 123.679 168.443 123.327 167.771 122.895C167.099 122.463 166.507 121.999 165.995 121.503C165.515 122.063 164.939 122.583 164.267 123.063C163.595 123.527 162.883 123.943 162.131 124.311C161.651 124.535 161.171 124.631 160.691 124.599C160.227 124.567 159.867 124.343 159.611 123.927C159.339 123.495 159.259 123.071 159.371 122.655C159.499 122.239 159.811 121.895 160.307 121.623C160.835 121.335 161.339 121.047 161.819 120.759C162.299 120.471 162.715 120.167 163.067 119.847C163.419 119.511 163.699 119.151 163.907 118.767C164.115 118.367 164.219 117.911 164.219 117.399V117.351H161.387C160.843 117.351 160.411 117.239 160.091 117.015C159.787 116.775 159.635 116.383 159.635 115.839C159.635 115.295 159.787 114.911 160.091 114.687C160.411 114.447 160.843 114.327 161.387 114.327H164.195V113.295C164.195 112.751 164.355 112.343 164.675 112.071C165.011 111.783 165.451 111.639 165.995 111.639C166.539 111.639 166.971 111.783 167.291 112.071C167.627 112.343 167.795 112.751 167.795 113.295V114.327H170.483ZM174.011 114.207C174.011 113.647 174.187 113.223 174.539 112.935C174.907 112.631 175.371 112.479 175.931 112.479C176.491 112.479 176.947 112.631 177.299 112.935C177.667 113.223 177.851 113.647 177.851 114.207V116.919H179.507C180.019 116.919 180.435 117.047 180.755 117.303C181.075 117.559 181.235 117.959 181.235 118.503C181.235 119.047 181.075 119.447 180.755 119.703C180.435 119.959 180.019 120.087 179.507 120.087H177.851V122.871C177.851 123.431 177.667 123.863 177.299 124.167C176.947 124.471 176.491 124.623 175.931 124.623C175.371 124.623 174.907 124.471 174.539 124.167C174.187 123.863 174.011 123.431 174.011 122.871V114.207ZM195.405 121.263C195.405 122.463 195.277 123.551 195.021 124.527C194.765 125.487 194.381 126.311 193.869 126.999C193.357 127.687 192.701 128.223 191.901 128.607C191.117 128.975 190.197 129.159 189.141 129.159C188.085 129.159 187.157 128.975 186.357 128.607C185.573 128.223 184.925 127.687 184.413 126.999C183.901 126.311 183.517 125.487 183.261 124.527C183.005 123.551 182.877 122.463 182.877 121.263C182.877 120.063 183.005 118.983 183.261 118.023C183.517 117.047 183.901 116.215 184.413 115.527C184.925 114.839 185.573 114.311 186.357 113.943C187.157 113.559 188.085 113.367 189.141 113.367C190.197 113.367 191.117 113.559 191.901 113.943C192.701 114.311 193.357 114.839 193.869 115.527C194.381 116.215 194.765 117.047 195.021 118.023C195.277 118.983 195.405 120.063 195.405 121.263ZM197.733 114.231C197.733 113.671 197.909 113.239 198.261 112.935C198.629 112.631 199.093 112.479 199.653 112.479C200.213 112.479 200.669 112.631 201.021 112.935C201.389 113.239 201.573 113.671 201.573 114.231V119.439H203.277C203.789 119.439 204.197 119.575 204.501 119.847C204.821 120.119 204.981 120.535 204.981 121.095C204.981 121.639 204.821 122.047 204.501 122.319C204.197 122.591 203.789 122.727 203.277 122.727H201.573V132.999C201.573 133.559 201.389 133.991 201.021 134.295C200.669 134.599 200.213 134.751 199.653 134.751C199.093 134.751 198.629 134.599 198.261 134.295C197.909 133.991 197.733 133.559 197.733 132.999V114.231ZM189.141 125.943C189.621 125.943 190.021 125.823 190.341 125.583C190.661 125.327 190.917 124.991 191.109 124.575C191.317 124.159 191.461 123.671 191.541 123.111C191.621 122.535 191.661 121.919 191.661 121.263C191.661 120.623 191.621 120.015 191.541 119.439C191.461 118.863 191.317 118.367 191.109 117.951C190.917 117.535 190.661 117.207 190.341 116.967C190.021 116.711 189.621 116.583 189.141 116.583C188.661 116.583 188.261 116.711 187.941 116.967C187.621 117.207 187.357 117.535 187.149 117.951C186.957 118.367 186.821 118.863 186.741 119.439C186.661 120.015 186.621 120.623 186.621 121.263C186.621 121.919 186.661 122.535 186.741 123.111C186.821 123.671 186.957 124.159 187.149 124.575C187.357 124.991 187.621 125.327 187.941 125.583C188.261 125.823 188.661 125.943 189.141 125.943ZM208.158 131.991C207.614 131.991 207.19 131.855 206.886 131.583C206.582 131.311 206.43 130.903 206.43 130.359C206.43 129.815 206.582 129.407 206.886 129.135C207.19 128.863 207.614 128.727 208.158 128.727H215.238V125.295H211.614C210.83 125.295 210.23 125.111 209.814 124.743C209.398 124.375 209.19 123.799 209.19 123.015V115.191C209.19 114.647 209.366 114.231 209.718 113.943C210.086 113.639 210.534 113.487 211.062 113.487C211.606 113.487 212.054 113.639 212.406 113.943C212.758 114.231 212.934 114.647 212.934 115.191V116.799H221.406V115.191C221.406 114.647 221.582 114.231 221.934 113.943C222.286 113.639 222.734 113.487 223.278 113.487C223.822 113.487 224.262 113.639 224.598 113.943C224.95 114.231 225.126 114.647 225.126 115.191V123.015C225.126 124.535 224.326 125.295 222.726 125.295H219.078V128.727H226.158C226.702 128.727 227.126 128.863 227.43 129.135C227.734 129.407 227.886 129.815 227.886 130.359C227.886 130.903 227.734 131.311 227.43 131.583C227.126 131.855 226.702 131.991 226.158 131.991H208.158ZM212.934 119.727V122.055C212.934 122.183 212.95 122.263 212.982 122.295C213.014 122.327 213.094 122.343 213.222 122.343H221.118C221.246 122.343 221.326 122.327 221.358 122.295C221.39 122.263 221.406 122.183 221.406 122.055V119.727H212.934ZM235.479 125.271C235.159 125.895 234.767 126.543 234.303 127.215C233.855 127.887 233.335 128.455 232.743 128.919C232.375 129.207 231.935 129.367 231.423 129.399C230.927 129.415 230.527 129.271 230.223 128.967C229.903 128.647 229.735 128.271 229.719 127.839C229.719 127.407 229.871 127.007 230.175 126.639C230.671 126.031 231.127 125.423 231.543 124.815C231.975 124.207 232.343 123.575 232.647 122.919C232.967 122.247 233.207 121.543 233.367 120.807C233.543 120.071 233.631 119.263 233.631 118.383V114.903C233.631 114.359 233.799 113.951 234.135 113.679C234.487 113.391 234.935 113.247 235.479 113.247C236.023 113.247 236.463 113.391 236.799 113.679C237.151 113.951 237.327 114.359 237.327 114.903V118.383C237.327 119.263 237.399 120.047 237.543 120.735C237.703 121.423 237.935 122.079 238.239 122.703C238.543 123.327 238.911 123.943 239.343 124.551C239.775 125.159 240.271 125.807 240.831 126.495C241.055 126.767 241.183 127.111 241.215 127.527C241.247 127.927 241.103 128.287 240.783 128.607C240.447 128.943 240.071 129.119 239.655 129.135C239.255 129.135 238.895 129.023 238.575 128.799C237.919 128.351 237.319 127.807 236.775 127.167C236.231 126.511 235.799 125.879 235.479 125.271ZM245.775 132.423C245.775 132.967 245.623 133.375 245.319 133.647C245.015 133.919 244.591 134.055 244.047 134.055C243.503 134.055 243.079 133.919 242.775 133.647C242.471 133.375 242.319 132.967 242.319 132.423V121.287H240.207C239.663 121.287 239.239 121.175 238.935 120.951C238.631 120.727 238.479 120.343 238.479 119.799C238.479 119.255 238.631 118.871 238.935 118.647C239.239 118.423 239.663 118.311 240.207 118.311H242.319V114.351C242.319 113.807 242.471 113.399 242.775 113.127C243.079 112.855 243.503 112.719 244.047 112.719C244.591 112.719 245.015 112.855 245.319 113.127C245.623 113.399 245.775 113.807 245.775 114.351V132.423ZM250.455 133.095C250.455 133.639 250.303 134.047 249.999 134.319C249.695 134.607 249.271 134.751 248.727 134.751C248.183 134.751 247.759 134.607 247.455 134.319C247.151 134.047 246.999 133.639 246.999 133.095V114.135C246.999 113.591 247.151 113.183 247.455 112.911C247.759 112.623 248.183 112.479 248.727 112.479C249.271 112.479 249.695 112.623 249.999 112.911C250.303 113.183 250.455 113.591 250.455 114.135V133.095ZM264.505 113.367C265.689 113.367 266.777 113.487 267.769 113.727C268.777 113.967 269.649 114.335 270.385 114.831C271.121 115.311 271.689 115.935 272.089 116.703C272.505 117.455 272.713 118.351 272.713 119.391C272.713 120.495 272.481 121.439 272.017 122.223C271.553 123.007 270.913 123.647 270.097 124.143V128.727H273.505C274.049 128.727 274.473 128.863 274.777 129.135C275.081 129.407 275.233 129.815 275.233 130.359C275.233 130.903 275.081 131.311 274.777 131.583C274.473 131.855 274.049 131.991 273.505 131.991H255.505C254.961 131.991 254.537 131.855 254.233 131.583C253.929 131.311 253.777 130.903 253.777 130.359C253.777 129.815 253.929 129.407 254.233 129.135C254.537 128.863 254.961 128.727 255.505 128.727H258.913V124.143C258.097 123.647 257.457 123.007 256.993 122.223C256.529 121.439 256.297 120.495 256.297 119.391C256.297 118.351 256.497 117.455 256.897 116.703C257.313 115.935 257.889 115.311 258.625 114.831C259.361 114.335 260.225 113.967 261.217 113.727C262.225 113.487 263.321 113.367 264.505 113.367ZM264.505 116.559C263.897 116.559 263.329 116.615 262.801 116.727C262.273 116.839 261.801 117.015 261.385 117.255C260.985 117.479 260.665 117.767 260.425 118.119C260.201 118.471 260.089 118.895 260.089 119.391C260.089 119.887 260.201 120.311 260.425 120.663C260.665 121.015 260.985 121.311 261.385 121.551C261.801 121.775 262.273 121.943 262.801 122.055C263.329 122.167 263.897 122.223 264.505 122.223C265.097 122.223 265.657 122.167 266.185 122.055C266.729 121.943 267.201 121.775 267.601 121.551C268.017 121.311 268.337 121.015 268.561 120.663C268.801 120.311 268.921 119.887 268.921 119.391C268.921 118.895 268.801 118.471 268.561 118.119C268.337 117.767 268.017 117.479 267.601 117.255C267.201 117.015 266.729 116.839 266.185 116.727C265.657 116.615 265.097 116.559 264.505 116.559ZM264.505 125.415C264.153 125.415 263.809 125.407 263.473 125.391C263.153 125.375 262.833 125.343 262.513 125.295V128.727H266.497V125.295C266.177 125.343 265.849 125.375 265.513 125.391C265.193 125.407 264.857 125.415 264.505 125.415Z" fill="#5D3C28"/>
<path d="M107.871 465.262C108.409 458.79 102.092 452.982 93.7599 452.29C85.4283 451.597 78.2378 456.281 77.6996 462.753C77.1614 469.225 83.4792 475.033 91.8109 475.726C100.143 476.418 107.333 471.734 107.871 465.262Z" fill="#9F692D" stroke="#5D3C28" stroke-width="3.16768" stroke-linecap="round" stroke-linejoin="round"/>
<path d="M151.79 464.678C151.766 458.077 144.564 452.751 135.704 452.783C126.844 452.815 119.681 458.193 119.705 464.795C119.729 471.396 126.931 476.722 135.791 476.69C144.651 476.658 151.814 471.28 151.79 464.678Z" fill="#9F692D" stroke="#5D3C28" stroke-width="3.17074" stroke-linecap="round" stroke-linejoin="round"/>
<path d="M162.247 352.731C175.26 352.731 185.809 342.182 185.809 329.169C185.809 316.156 175.26 305.607 162.247 305.607C149.234 305.607 138.685 316.156 138.685 329.169C138.685 342.182 149.234 352.731 162.247 352.731Z" fill="#F8B62D" stroke="#5D3C28" stroke-width="3.4732" stroke-linecap="round" stroke-linejoin="round"/>
<path fill-rule="evenodd" clip-rule="evenodd" d="M147.856 407.883C147.856 407.883 154.452 427.563 154.452 445.509C154.452 450.217 154.445 456.148 151.178 463.68C151.178 463.68 141.804 466.514 135.541 467.015C129.121 467.529 119.208 465.132 119.208 465.132C119.208 465.132 115.941 459.012 115.941 456.658C113.981 456.658 111.368 456.658 109.408 456.658C109.408 458.541 109.408 462.778 107.448 464.661C107.448 464.661 98.7695 466.791 93.0747 466.544C87.195 466.289 78.7016 463.249 78.7016 463.249C78.7016 463.249 61.0618 438.768 89.8081 400.163L142.727 397.809L147.856 407.883Z" fill="#F8B62D" stroke="#5D3C28" stroke-width="3.4732" stroke-linecap="round" stroke-linejoin="round"/>
<path fill-rule="evenodd" clip-rule="evenodd" d="M61.1086 415.535C59.978 419.14 61.227 423.711 62.8047 425.75C64.3287 427.726 66.235 428.997 68.4581 429.956C71.6435 431.328 74.1335 430.674 77.5041 429.956C82.5923 427.553 84.2907 425.747 83.723 422.145C83.5198 420.868 83.2739 420.452 82.8078 419.258C81.6006 416.151 91.5268 402.038 91.0726 398.71C83.723 385.49 74.6773 396.907 66.1969 407.122C66.1969 407.122 62.2393 411.93 61.1086 415.535Z" fill="#F8B62D" stroke="#5D3C28" stroke-width="3.4732" stroke-linecap="round" stroke-linejoin="round"/>
<path d="M77.0236 341.311C88.6977 341.311 98.1615 331.848 98.1615 320.174C98.1615 308.499 88.6977 299.036 77.0236 299.036C65.3495 299.036 55.8857 308.499 55.8857 320.174C55.8857 331.848 65.3495 341.311 77.0236 341.311Z" fill="#F8B62D" stroke="#5D3C28" stroke-width="3.4732" stroke-linecap="round" stroke-linejoin="round"/>
<path fill-rule="evenodd" clip-rule="evenodd" d="M177.225 358.748C177.761 328.023 151.141 306.336 117.703 304.48C84.2658 302.625 55.9399 324.104 53.82 354.763C51.7743 384.246 77.5521 401.639 112.688 403.587C162.904 406.37 176.868 379.119 177.224 358.741L177.225 358.748Z" fill="#F8B62D" stroke="#5D3C28" stroke-width="3.4732" stroke-linecap="round" stroke-linejoin="round"/>
<path fill-rule="evenodd" clip-rule="evenodd" d="M160.926 362.835C159.878 384.854 139.24 396.542 112.7 395.279C86.16 394.016 66.9358 380.433 67.9753 358.625C69.041 336.184 89.5831 322.093 116.124 323.363C142.664 324.626 162.017 339.977 160.927 362.842L160.926 362.835Z" fill="#9F692D" stroke="#5D3C28" stroke-width="3.4732" stroke-linecap="round" stroke-linejoin="round"/>
<path d="M134.907 362.1C137.171 361.779 138.746 359.684 138.425 357.42C138.104 355.156 136.009 353.581 133.745 353.902C131.481 354.223 129.906 356.318 130.227 358.582C130.548 360.846 132.643 362.421 134.907 362.1Z" fill="#5D3C28"/>
<path d="M94.0038 360.848C96.2677 360.528 97.8428 358.432 97.5219 356.168C97.201 353.904 95.1056 352.329 92.8417 352.65C90.5779 352.971 89.0028 355.067 89.3237 357.33C89.6446 359.594 91.74 361.169 94.0038 360.848Z" fill="#5D3C28"/>
<path fill-rule="evenodd" clip-rule="evenodd" d="M130.996 370.222C131.129 379.625 123.136 384.597 113.197 384.739C103.252 384.883 95.1185 379.739 94.9897 370.737C94.8639 361.94 102.849 356.362 112.788 356.22C122.734 356.076 130.87 361.425 130.996 370.222Z" fill="#F2D6A1"/>
<path fill-rule="evenodd" clip-rule="evenodd" d="M118.317 366.067C118.253 368.682 115.055 370.228 113.469 370.188C112.052 370.151 108.767 368.445 108.838 365.83C108.901 363.215 111.028 362.972 113.649 363.034C116.271 363.097 118.379 363.446 118.316 366.06L118.317 366.067Z" fill="#5D3C28"/>
<path d="M109.69 374.725L113.678 372.487L117.026 374.619" stroke="#5D3C28" stroke-width="2.08392" stroke-linecap="round" stroke-linejoin="round"/>
<path d="M113.502 368.883L113.415 372.337" stroke="#5D3C28" stroke-width="2.08392" stroke-linecap="round" stroke-linejoin="round"/>
<path fill-rule="evenodd" clip-rule="evenodd" d="M143.437 423.892C143.437 423.892 152.637 443.606 170.38 428.491C170.38 428.491 184.179 414.034 167.094 404.835C167.094 404.835 155.923 410.749 141.466 411.406" fill="#F8B62D"/>
<path d="M143.437 423.892C143.437 423.892 152.637 443.606 170.38 428.491C170.38 428.491 184.179 414.034 167.094 404.835C167.094 404.835 155.923 410.749 141.466 411.406" stroke="#5D3C28" stroke-width="3.4732" stroke-linecap="round" stroke-linejoin="round"/>
<path d="M103.352 455.072C103.459 454.948 103.635 455.085 103.784 455.14C103.941 455.213 104.085 455.295 104.236 455.379C106.927 456.943 109.713 458.385 113.271 458.356C113.277 458.356 113.283 458.356 113.29 458.356C116.685 458.183 119.556 456.887 122.204 455.059C122.498 454.852 122.788 454.637 123.066 454.415C122.711 454.386 122.354 454.36 121.999 454.338C118.839 454.112 115.802 454.293 113.161 454.415C113.156 454.415 113.151 454.415 113.146 454.416C110.652 454.472 107.577 454.166 104.354 454.639C104.172 454.67 103.997 454.706 103.808 454.756C103.716 454.782 103.631 454.811 103.533 454.853C103.456 454.89 103.315 454.965 103.352 455.072Z" fill="#5D3C28"/>
<path d="M73.6928 410.703C73.7553 405.282 78.2903 400.94 83.822 401.004C89.3537 401.067 93.7874 405.513 93.7249 410.934C93.6624 416.354 89.1275 420.697 83.5958 420.633C78.0641 420.569 73.6304 416.123 73.6928 410.703Z" fill="white" stroke="#5D3C28" stroke-width="3.4732" stroke-linecap="round" stroke-linejoin="round"/>
<path fill-rule="evenodd" clip-rule="evenodd" d="M101.157 389.049C109.883 389.152 116.912 392.772 116.861 397.132L116.549 424.032C116.498 428.392 109.384 431.85 100.657 431.747C91.9304 431.644 84.9021 428.024 84.9532 423.664L85.2651 396.763C85.3162 392.403 92.43 388.946 101.157 389.049Z" fill="white" stroke="#5D3C28" stroke-width="3.4732" stroke-linecap="round" stroke-linejoin="round"/>
<path d="M91.0112 397.704C91.0316 395.936 95.4422 394.553 100.863 394.615C106.283 394.678 110.661 396.162 110.64 397.93C110.62 399.699 106.209 401.082 100.789 401.019C95.3685 400.957 90.9908 399.473 91.0112 397.704Z" fill="#5D3C28"/>
<path d="M87.8913 421.063C90.4124 415.767 88.4068 409.546 83.4117 407.168C78.4166 404.791 72.3236 407.157 69.8026 412.453C67.2815 417.75 69.2871 423.971 74.2822 426.348C79.2773 428.726 85.3703 426.36 87.8913 421.063Z" fill="#9F692D" stroke="#5D3C28" stroke-width="3.4732" stroke-linecap="round" stroke-linejoin="round"/>
<path d="M136.307 421.052L143.748 410.229C143.748 410.229 125.433 398.284 131.007 379.172C136.581 360.06 162.082 350.349 184.4 352.475C208.486 354.768 232.179 368.401 232.179 389.106C232.179 408.248 215.954 419.078 197.937 421.755C182.31 424.077 157.325 416.181 157.325 416.181L136.649 421.541C136.364 421.615 136.14 421.295 136.307 421.052Z" fill="white" stroke="#5D3C28" stroke-width="4.77794"/>
<path d="M178.42 417.632C179.661 411.417 175.251 405.298 168.57 403.964C161.889 402.63 155.467 406.587 154.226 412.802C152.985 419.017 157.396 425.137 164.077 426.471C170.757 427.804 177.179 423.847 178.42 417.632Z" fill="#9F692D" stroke="#5D3C28" stroke-width="3.4732" stroke-linecap="round" stroke-linejoin="round"/>
<path d="M85.6589 171.535C85.6589 171.033 85.7709 170.591 85.9949 170.207C86.2189 169.823 86.5389 169.503 86.9549 169.247C87.3709 168.991 87.8723 168.799 88.4589 168.671C89.0456 168.543 89.6963 168.479 90.4109 168.479C91.1256 168.479 91.7763 168.543 92.3629 168.671C92.9496 168.799 93.4509 168.991 93.8669 169.247C94.2829 169.503 94.6029 169.823 94.8269 170.207C95.0509 170.591 95.1629 171.033 95.1629 171.535C95.1629 172.036 95.0509 172.479 94.8269 172.863C94.6029 173.247 94.2829 173.567 93.8669 173.823C93.4509 174.079 92.9496 174.271 92.3629 174.399C91.7763 174.527 91.1256 174.591 90.4109 174.591C89.6963 174.591 89.0456 174.527 88.4589 174.399C87.8723 174.271 87.3709 174.079 86.9549 173.823C86.5389 173.567 86.2189 173.247 85.9949 172.863C85.7709 172.479 85.6589 172.036 85.6589 171.535ZM85.4189 162.559H89.8029V160.847C89.8029 160.633 89.8669 160.468 89.9949 160.351C90.1229 160.223 90.2936 160.159 90.5069 160.159C90.7203 160.159 90.8909 160.223 91.0189 160.351C91.1469 160.468 91.2109 160.633 91.2109 160.847V165.679C91.2109 166.201 91.1043 166.569 90.8909 166.783C90.6883 166.985 90.3256 167.087 89.8029 167.087H85.4189C84.8963 167.087 84.5283 166.985 84.3149 166.783C84.1123 166.569 84.0109 166.201 84.0109 165.679V160.847C84.0109 160.633 84.0749 160.468 84.2029 160.351C84.3309 160.223 84.5016 160.159 84.7149 160.159C84.9283 160.159 85.0989 160.223 85.2269 160.351C85.3549 160.468 85.4189 160.633 85.4189 160.847V162.559ZM87.0509 171.535C87.0509 171.855 87.1309 172.137 87.2909 172.383C87.4509 172.628 87.6803 172.831 87.9789 172.991C88.2776 173.151 88.6296 173.268 89.0349 173.343C89.4509 173.428 89.9096 173.471 90.4109 173.471C90.9123 173.471 91.3656 173.428 91.7709 173.343C92.1869 173.268 92.5443 173.151 92.8429 172.991C93.1416 172.831 93.3709 172.628 93.5309 172.383C93.6909 172.137 93.7709 171.855 93.7709 171.535C93.7709 171.215 93.6909 170.932 93.5309 170.687C93.3709 170.441 93.1416 170.239 92.8429 170.079C92.5443 169.919 92.1869 169.801 91.7709 169.727C91.3656 169.641 90.9123 169.599 90.4109 169.599C89.9096 169.599 89.4509 169.641 89.0349 169.727C88.6296 169.801 88.2776 169.919 87.9789 170.079C87.6803 170.239 87.4509 170.441 87.2909 170.687C87.1309 170.932 87.0509 171.215 87.0509 171.535ZM95.2109 167.487C95.2109 167.7 95.1469 167.871 95.0189 167.999C94.8909 168.116 94.7203 168.175 94.5069 168.175C94.2936 168.175 94.1229 168.116 93.9949 167.999C93.8669 167.871 93.8029 167.7 93.8029 167.487V160.591C93.8029 160.377 93.8669 160.212 93.9949 160.095C94.1229 159.967 94.2936 159.903 94.5069 159.903C94.7203 159.903 94.8909 159.967 95.0189 160.095C95.1469 160.212 95.2109 160.377 95.2109 160.591V163.167H97.1149C97.3176 163.167 97.4776 163.215 97.5949 163.311C97.7229 163.407 97.7869 163.556 97.7869 163.759C97.7869 163.961 97.7229 164.111 97.5949 164.207C97.4776 164.303 97.3176 164.351 97.1149 164.351H95.2109V167.487ZM89.3709 165.967C89.5416 165.967 89.6536 165.94 89.7069 165.887C89.7709 165.823 89.8029 165.705 89.8029 165.535V163.679H85.4189V165.535C85.4189 165.705 85.4456 165.823 85.4989 165.887C85.5629 165.94 85.6803 165.967 85.8509 165.967H89.3709ZM116.026 169.487C116.026 169.7 115.962 169.871 115.834 169.999C115.706 170.116 115.536 170.175 115.322 170.175C115.109 170.175 114.938 170.116 114.81 169.999C114.682 169.871 114.618 169.7 114.618 169.487V160.591C114.618 160.377 114.682 160.212 114.81 160.095C114.938 159.967 115.109 159.903 115.322 159.903C115.536 159.903 115.706 159.967 115.834 160.095C115.962 160.212 116.026 160.377 116.026 160.591V169.487ZM107.866 172.719C107.866 172.953 107.984 173.071 108.218 173.071H115.754C115.957 173.071 116.117 173.119 116.234 173.215C116.362 173.311 116.426 173.46 116.426 173.663C116.426 173.865 116.362 174.015 116.234 174.111C116.117 174.207 115.957 174.255 115.754 174.255H107.946C107.402 174.255 107.018 174.143 106.794 173.919C106.57 173.695 106.458 173.311 106.458 172.767V169.711C106.458 169.497 106.522 169.332 106.65 169.215C106.778 169.087 106.949 169.023 107.162 169.023C107.376 169.023 107.546 169.087 107.674 169.215C107.802 169.332 107.866 169.497 107.866 169.711V172.719ZM111.946 163.951C111.946 164.516 111.85 165.033 111.658 165.503C111.466 165.961 111.194 166.356 110.842 166.687C110.501 167.017 110.096 167.273 109.626 167.455C109.157 167.636 108.645 167.727 108.09 167.727C107.536 167.727 107.024 167.636 106.554 167.455C106.085 167.273 105.674 167.017 105.322 166.687C104.981 166.356 104.714 165.961 104.522 165.503C104.33 165.033 104.234 164.516 104.234 163.951C104.234 163.385 104.33 162.873 104.522 162.415C104.714 161.945 104.981 161.545 105.322 161.215C105.674 160.884 106.085 160.628 106.554 160.447C107.024 160.265 107.536 160.175 108.09 160.175C108.645 160.175 109.157 160.265 109.626 160.447C110.096 160.628 110.501 160.884 110.842 161.215C111.194 161.545 111.466 161.945 111.658 162.415C111.85 162.873 111.946 163.385 111.946 163.951ZM110.57 163.951C110.57 163.567 110.512 163.215 110.394 162.895C110.288 162.564 110.122 162.281 109.898 162.047C109.685 161.812 109.424 161.631 109.114 161.503C108.816 161.364 108.474 161.295 108.09 161.295C107.706 161.295 107.36 161.364 107.05 161.503C106.752 161.631 106.49 161.812 106.266 162.047C106.053 162.281 105.888 162.564 105.77 162.895C105.664 163.215 105.61 163.567 105.61 163.951C105.61 164.335 105.664 164.692 105.77 165.023C105.888 165.343 106.053 165.62 106.266 165.855C106.49 166.089 106.752 166.276 107.05 166.415C107.36 166.543 107.706 166.607 108.09 166.607C108.474 166.607 108.816 166.543 109.114 166.415C109.424 166.276 109.685 166.089 109.898 165.855C110.122 165.62 110.288 165.343 110.394 165.023C110.512 164.692 110.57 164.335 110.57 163.951ZM121.325 169.327C121.325 169.497 121.352 169.615 121.405 169.679C121.469 169.732 121.587 169.759 121.757 169.759H122.637C123.149 169.759 123.645 169.748 124.125 169.727C124.605 169.695 125.101 169.636 125.613 169.551C125.805 169.519 125.971 169.54 126.109 169.615C126.248 169.689 126.328 169.828 126.349 170.031C126.371 170.244 126.328 170.404 126.221 170.511C126.115 170.617 125.96 170.687 125.757 170.719C125.288 170.804 124.781 170.863 124.237 170.895C123.693 170.927 123.16 170.943 122.637 170.943H121.373C120.829 170.943 120.451 170.841 120.237 170.639C120.035 170.425 119.933 170.047 119.933 169.503V162.047C119.933 161.513 120.035 161.14 120.237 160.927C120.451 160.713 120.829 160.607 121.373 160.607H124.973C125.176 160.607 125.336 160.655 125.453 160.751C125.581 160.836 125.645 160.985 125.645 161.199C125.645 161.412 125.581 161.567 125.453 161.663C125.336 161.748 125.176 161.791 124.973 161.791H121.757C121.587 161.791 121.469 161.823 121.405 161.887C121.352 161.94 121.325 162.052 121.325 162.223V164.975H124.493C124.696 164.975 124.856 165.023 124.973 165.119C125.101 165.204 125.165 165.353 125.165 165.567C125.165 165.78 125.101 165.935 124.973 166.031C124.856 166.116 124.696 166.159 124.493 166.159H121.325V169.327ZM129.293 173.279C129.293 173.737 129.064 173.967 128.605 173.967C128.147 173.967 127.917 173.737 127.917 173.279V166.111H126.317C126.115 166.111 125.949 166.063 125.821 165.967C125.704 165.871 125.645 165.721 125.645 165.519C125.645 165.316 125.704 165.167 125.821 165.071C125.949 164.975 126.115 164.927 126.317 164.927H127.917V160.751C127.917 160.292 128.147 160.063 128.605 160.063C129.064 160.063 129.293 160.292 129.293 160.751V173.279ZM132.205 173.743C132.205 174.201 131.976 174.431 131.517 174.431C131.059 174.431 130.829 174.201 130.829 173.743V160.591C130.829 160.132 131.059 159.903 131.517 159.903C131.976 159.903 132.205 160.132 132.205 160.591V173.743ZM143.489 170.559C142.774 170.708 142.027 170.809 141.249 170.863C140.481 170.916 139.681 170.943 138.849 170.943H137.377C136.854 170.943 136.481 170.836 136.257 170.623C136.043 170.399 135.937 170.025 135.937 169.503V166.399C135.937 165.876 136.043 165.508 136.257 165.295C136.481 165.071 136.854 164.959 137.377 164.959H140.913C141.094 164.959 141.211 164.932 141.265 164.879C141.329 164.825 141.361 164.708 141.361 164.527V162.191C141.361 162.009 141.329 161.892 141.265 161.839C141.211 161.785 141.094 161.759 140.913 161.759H136.689C136.486 161.759 136.321 161.716 136.193 161.631C136.075 161.535 136.017 161.385 136.017 161.183C136.017 160.98 136.075 160.836 136.193 160.751C136.321 160.655 136.486 160.607 136.689 160.607H141.329C141.851 160.607 142.219 160.719 142.433 160.943C142.657 161.156 142.769 161.524 142.769 162.047V164.655C142.769 165.177 142.657 165.551 142.433 165.775C142.219 165.988 141.851 166.095 141.329 166.095H137.777C137.595 166.095 137.473 166.121 137.409 166.175C137.355 166.228 137.329 166.345 137.329 166.527V169.343C137.329 169.524 137.355 169.641 137.409 169.695C137.473 169.748 137.595 169.775 137.777 169.775H138.849C139.617 169.764 140.353 169.732 141.057 169.679C141.771 169.625 142.513 169.54 143.281 169.423C143.483 169.391 143.654 169.407 143.793 169.471C143.931 169.535 144.017 169.668 144.049 169.871C144.081 170.073 144.043 170.228 143.937 170.335C143.841 170.441 143.691 170.516 143.489 170.559ZM147.409 173.743C147.409 173.956 147.345 174.121 147.217 174.239C147.089 174.367 146.918 174.431 146.705 174.431C146.491 174.431 146.321 174.367 146.193 174.239C146.065 174.121 146.001 173.956 146.001 173.743V160.591C146.001 160.377 146.065 160.212 146.193 160.095C146.321 159.967 146.491 159.903 146.705 159.903C146.918 159.903 147.089 159.967 147.217 160.095C147.345 160.212 147.409 160.377 147.409 160.591V173.743ZM158.644 165.599C158.644 166.367 158.564 167.065 158.404 167.695C158.254 168.313 158.02 168.847 157.7 169.295C157.39 169.743 156.996 170.089 156.516 170.335C156.036 170.58 155.476 170.703 154.836 170.703C154.196 170.703 153.636 170.58 153.156 170.335C152.676 170.089 152.276 169.743 151.956 169.295C151.646 168.847 151.412 168.313 151.252 167.695C151.102 167.065 151.028 166.367 151.028 165.599C151.028 164.831 151.102 164.137 151.252 163.519C151.412 162.889 151.646 162.351 151.956 161.903C152.276 161.455 152.676 161.108 153.156 160.863C153.636 160.617 154.196 160.495 154.836 160.495C155.476 160.495 156.036 160.617 156.516 160.863C156.996 161.108 157.39 161.455 157.7 161.903C158.02 162.351 158.254 162.889 158.404 163.519C158.564 164.137 158.644 164.831 158.644 165.599ZM157.268 165.599C157.268 165.012 157.22 164.473 157.124 163.983C157.028 163.492 156.878 163.076 156.676 162.735C156.484 162.393 156.233 162.127 155.924 161.935C155.614 161.743 155.252 161.647 154.836 161.647C154.42 161.647 154.057 161.743 153.748 161.935C153.438 162.127 153.182 162.393 152.98 162.735C152.788 163.076 152.644 163.492 152.548 163.983C152.452 164.473 152.404 165.012 152.404 165.599C152.404 166.196 152.452 166.74 152.548 167.231C152.644 167.711 152.788 168.121 152.98 168.463C153.182 168.804 153.438 169.071 153.748 169.263C154.057 169.455 154.42 169.551 154.836 169.551C155.252 169.551 155.614 169.455 155.924 169.263C156.233 169.071 156.484 168.804 156.676 168.463C156.878 168.121 157.028 167.711 157.124 167.231C157.22 166.74 157.268 166.196 157.268 165.599ZM159.716 165.967C159.513 165.967 159.348 165.919 159.22 165.823C159.102 165.727 159.044 165.577 159.044 165.375C159.044 165.172 159.102 165.023 159.22 164.927C159.348 164.831 159.513 164.783 159.716 164.783H161.604V160.591C161.604 160.377 161.668 160.212 161.796 160.095C161.924 159.967 162.094 159.903 162.308 159.903C162.521 159.903 162.692 159.967 162.82 160.095C162.948 160.212 163.012 160.377 163.012 160.591V173.743C163.012 173.956 162.948 174.121 162.82 174.239C162.692 174.367 162.521 174.431 162.308 174.431C162.094 174.431 161.924 174.367 161.796 174.239C161.668 174.121 161.604 173.956 161.604 173.743V165.967H159.716ZM177.975 165.279C177.975 165.801 177.863 166.175 177.639 166.399C177.425 166.612 177.057 166.719 176.535 166.719H169.431C168.908 166.719 168.535 166.612 168.311 166.399C168.097 166.175 167.991 165.801 167.991 165.279V160.783C167.991 160.569 168.055 160.404 168.183 160.287C168.311 160.159 168.481 160.095 168.695 160.095C168.908 160.095 169.079 160.159 169.207 160.287C169.335 160.404 169.399 160.569 169.399 160.783V162.319H176.567V160.783C176.567 160.569 176.631 160.404 176.759 160.287C176.887 160.159 177.057 160.095 177.271 160.095C177.484 160.095 177.655 160.159 177.783 160.287C177.911 160.404 177.975 160.569 177.975 160.783V165.279ZM166.823 169.679C166.62 169.679 166.455 169.631 166.327 169.535C166.209 169.439 166.151 169.289 166.151 169.087C166.151 168.884 166.209 168.735 166.327 168.639C166.455 168.543 166.62 168.495 166.823 168.495H179.143C179.345 168.495 179.505 168.543 179.623 168.639C179.751 168.735 179.815 168.884 179.815 169.087C179.815 169.289 179.751 169.439 179.623 169.535C179.505 169.631 179.345 169.679 179.143 169.679H173.703V173.775C173.703 173.977 173.633 174.137 173.495 174.255C173.367 174.372 173.196 174.431 172.983 174.431C172.769 174.431 172.593 174.372 172.455 174.255C172.327 174.137 172.263 173.977 172.263 173.775V169.679H166.823ZM169.831 165.583H176.135C176.305 165.583 176.417 165.556 176.471 165.503C176.535 165.439 176.567 165.321 176.567 165.151V163.455H169.399V165.151C169.399 165.321 169.425 165.439 169.479 165.503C169.543 165.556 169.66 165.583 169.831 165.583ZM184.138 169.327C184.138 169.497 184.165 169.615 184.218 169.679C184.282 169.732 184.399 169.759 184.57 169.759H185.45C186.154 169.759 186.858 169.732 187.562 169.679C188.277 169.625 188.97 169.54 189.642 169.423C189.834 169.391 189.994 169.412 190.122 169.487C190.261 169.561 190.346 169.7 190.378 169.903C190.41 170.116 190.367 170.276 190.25 170.383C190.143 170.479 189.989 170.548 189.786 170.591C189.071 170.719 188.362 170.809 187.658 170.863C186.954 170.916 186.218 170.943 185.45 170.943H184.186C183.663 170.943 183.29 170.836 183.066 170.623C182.853 170.399 182.746 170.025 182.746 169.503V162.047C182.746 161.535 182.853 161.167 183.066 160.943C183.29 160.719 183.663 160.607 184.186 160.607H188.426C188.629 160.607 188.789 160.655 188.906 160.751C189.034 160.836 189.098 160.985 189.098 161.199C189.098 161.412 189.034 161.567 188.906 161.663C188.789 161.748 188.629 161.791 188.426 161.791H184.57C184.399 161.791 184.282 161.823 184.218 161.887C184.165 161.94 184.138 162.052 184.138 162.223V164.975H188.266C188.469 164.975 188.629 165.023 188.746 165.119C188.874 165.204 188.938 165.353 188.938 165.567C188.938 165.78 188.874 165.935 188.746 166.031C188.629 166.116 188.469 166.159 188.266 166.159H184.138V169.327ZM194.218 173.743C194.218 173.956 194.154 174.121 194.026 174.239C193.898 174.367 193.727 174.431 193.514 174.431C193.301 174.431 193.13 174.367 193.002 174.239C192.874 174.121 192.81 173.956 192.81 173.743V165.983H190.25C190.047 165.983 189.882 165.935 189.754 165.839C189.637 165.732 189.578 165.577 189.578 165.375C189.578 165.172 189.637 165.023 189.754 164.927C189.882 164.82 190.047 164.767 190.25 164.767H192.81V160.591C192.81 160.377 192.874 160.212 193.002 160.095C193.13 159.967 193.301 159.903 193.514 159.903C193.727 159.903 193.898 159.967 194.026 160.095C194.154 160.212 194.218 160.377 194.218 160.591V173.743ZM55.3204 194.071C55.3204 194.615 55.2084 194.999 54.9844 195.223C54.7711 195.436 54.3924 195.543 53.8484 195.543H49.8004C49.2564 195.543 48.8724 195.436 48.6484 195.223C48.4351 194.999 48.3284 194.615 48.3284 194.071V187.127C48.3284 186.604 48.4404 186.231 48.6644 186.007C48.8991 185.772 49.2778 185.655 49.8004 185.655H53.8484C54.3924 185.655 54.7711 185.767 54.9844 185.991C55.2084 186.204 55.3204 186.583 55.3204 187.127V194.071ZM49.6884 193.991C49.6884 194.161 49.7151 194.279 49.7684 194.343C49.8324 194.396 49.9498 194.423 50.1204 194.423H53.5284C53.6991 194.423 53.8111 194.396 53.8644 194.343C53.9284 194.279 53.9604 194.161 53.9604 193.991V187.207C53.9604 187.036 53.9284 186.924 53.8644 186.871C53.8111 186.807 53.6991 186.775 53.5284 186.775H50.1204C49.9498 186.775 49.8324 186.807 49.7684 186.871C49.7151 186.924 49.6884 187.036 49.6884 187.207V193.991ZM59.4804 198.743C59.4804 198.945 59.4164 199.111 59.2884 199.239C59.1711 199.367 59.0004 199.431 58.7764 199.431C58.5524 199.431 58.3764 199.367 58.2484 199.239C58.1311 199.111 58.0724 198.945 58.0724 198.743V185.607C58.0724 185.393 58.1364 185.228 58.2644 185.111C58.3924 184.983 58.5631 184.919 58.7764 184.919C58.9898 184.919 59.1604 184.983 59.2884 185.111C59.4164 185.228 59.4804 185.393 59.4804 185.607V189.943H61.4004C61.6031 189.943 61.7631 189.996 61.8804 190.103C62.0084 190.199 62.0724 190.348 62.0724 190.551C62.0724 190.753 62.0084 190.908 61.8804 191.015C61.7631 191.111 61.6031 191.159 61.4004 191.159H59.4804V198.743ZM64.0916 192.775C63.8889 192.775 63.7236 192.727 63.5956 192.631C63.4782 192.535 63.4196 192.385 63.4196 192.183C63.4196 191.98 63.4782 191.831 63.5956 191.735C63.7236 191.639 63.8889 191.591 64.0916 191.591H76.4116C76.6142 191.591 76.7742 191.639 76.8916 191.735C77.0196 191.831 77.0836 191.98 77.0836 192.183C77.0836 192.385 77.0196 192.535 76.8916 192.631C76.7742 192.727 76.6142 192.775 76.4116 192.775H64.0916ZM65.2116 187.575C65.2116 187.095 65.3289 186.689 65.5636 186.359C65.8089 186.028 66.1502 185.756 66.5876 185.543C67.0249 185.329 67.5529 185.175 68.1716 185.079C68.8009 184.983 69.4942 184.935 70.2516 184.935C71.0089 184.935 71.6969 184.983 72.3156 185.079C72.9342 185.175 73.4622 185.329 73.8996 185.543C74.3476 185.756 74.6889 186.028 74.9236 186.359C75.1689 186.689 75.2916 187.095 75.2916 187.575C75.2916 188.055 75.1689 188.46 74.9236 188.791C74.6889 189.121 74.3476 189.393 73.8996 189.607C73.4622 189.82 72.9342 189.975 72.3156 190.071C71.6969 190.167 71.0089 190.215 70.2516 190.215C69.4942 190.215 68.8009 190.167 68.1716 190.071C67.5529 189.975 67.0249 189.82 66.5876 189.607C66.1502 189.393 65.8089 189.121 65.5636 188.791C65.3289 188.46 65.2116 188.055 65.2116 187.575ZM66.6356 187.575C66.6356 188.119 66.9556 188.503 67.5956 188.727C68.2462 188.951 69.1316 189.063 70.2516 189.063C71.3716 189.063 72.2516 188.951 72.8916 188.727C73.5422 188.503 73.8676 188.119 73.8676 187.575C73.8676 187.031 73.5422 186.647 72.8916 186.423C72.2516 186.199 71.3716 186.087 70.2516 186.087C69.1316 186.087 68.2462 186.199 67.5956 186.423C66.9556 186.647 66.6356 187.031 66.6356 187.575ZM73.4516 198.199C73.6222 198.199 73.7289 198.172 73.7716 198.119C73.8249 198.076 73.8516 197.969 73.8516 197.799V195.863C73.8516 195.692 73.8249 195.585 73.7716 195.543C73.7289 195.489 73.6222 195.463 73.4516 195.463H67.0516C66.8809 195.463 66.7689 195.489 66.7156 195.543C66.6729 195.585 66.6516 195.692 66.6516 195.863V197.799C66.6516 197.969 66.6729 198.076 66.7156 198.119C66.7689 198.172 66.8809 198.199 67.0516 198.199H73.4516ZM66.6516 199.335C66.3956 199.335 66.1769 199.319 65.9956 199.287C65.8142 199.255 65.6702 199.191 65.5636 199.095C65.4569 198.999 65.3769 198.865 65.3236 198.695C65.2809 198.535 65.2596 198.327 65.2596 198.071V195.591C65.2596 195.335 65.2809 195.127 65.3236 194.967C65.3769 194.796 65.4569 194.663 65.5636 194.567C65.6702 194.471 65.8142 194.407 65.9956 194.375C66.1769 194.343 66.3956 194.327 66.6516 194.327H73.8516C74.1076 194.327 74.3262 194.343 74.5076 194.375C74.6889 194.407 74.8329 194.471 74.9396 194.567C75.0462 194.663 75.1209 194.796 75.1636 194.967C75.2169 195.127 75.2436 195.335 75.2436 195.591V198.071C75.2436 198.327 75.2169 198.535 75.1636 198.695C75.1209 198.865 75.0462 198.999 74.9396 199.095C74.8329 199.191 74.6889 199.255 74.5076 199.287C74.3262 199.319 74.1076 199.335 73.8516 199.335H66.6516ZM88.9747 198.279C88.9747 198.737 88.7454 198.967 88.2867 198.967C87.828 198.967 87.5987 198.737 87.5987 198.279V191.047H85.7587C85.7374 191.729 85.6627 192.359 85.5347 192.935C85.4174 193.5 85.2307 193.991 84.9747 194.407C84.7187 194.823 84.388 195.148 83.9827 195.383C83.5774 195.607 83.0867 195.719 82.5107 195.719C81.8814 195.719 81.3587 195.591 80.9427 195.335C80.5267 195.079 80.1907 194.721 79.9347 194.263C79.6894 193.804 79.5134 193.26 79.4067 192.631C79.3 192.001 79.2467 191.313 79.2467 190.567C79.2467 189.82 79.3 189.132 79.4067 188.503C79.5134 187.873 79.6947 187.329 79.9507 186.871C80.2067 186.412 80.5427 186.055 80.9587 185.799C81.3747 185.543 81.892 185.415 82.5107 185.415C83.076 185.415 83.556 185.527 83.9507 185.751C84.356 185.975 84.6867 186.284 84.9427 186.679C85.1987 187.073 85.3907 187.548 85.5187 188.103C85.6467 188.657 85.7267 189.26 85.7587 189.911H87.5987V185.751C87.5987 185.292 87.828 185.063 88.2867 185.063C88.7454 185.063 88.9747 185.292 88.9747 185.751V198.279ZM80.6227 190.567C80.6227 191.143 80.6494 191.676 80.7027 192.167C80.7667 192.647 80.868 193.068 81.0067 193.431C81.156 193.783 81.348 194.06 81.5827 194.263C81.828 194.465 82.1374 194.567 82.5107 194.567C82.8734 194.567 83.1774 194.465 83.4227 194.263C83.668 194.06 83.86 193.783 83.9987 193.431C84.148 193.068 84.2494 192.647 84.3027 192.167C84.3667 191.676 84.3987 191.143 84.3987 190.567C84.3987 189.991 84.3667 189.463 84.3027 188.983C84.2494 188.492 84.148 188.071 83.9987 187.719C83.86 187.356 83.668 187.073 83.4227 186.871C83.1774 186.668 82.8734 186.567 82.5107 186.567C82.1374 186.567 81.828 186.668 81.5827 186.871C81.348 187.073 81.156 187.356 81.0067 187.719C80.868 188.071 80.7667 188.492 80.7027 188.983C80.6494 189.463 80.6227 189.991 80.6227 190.567ZM91.8867 198.743C91.8867 199.201 91.6574 199.431 91.1987 199.431C90.74 199.431 90.5107 199.201 90.5107 198.743V185.591C90.5107 185.132 90.74 184.903 91.1987 184.903C91.6574 184.903 91.8867 185.132 91.8867 185.591V198.743ZM102.878 186.839C102.707 186.839 102.59 186.871 102.526 186.935C102.462 186.988 102.43 187.1 102.43 187.271V191.431C102.43 191.601 102.462 191.719 102.526 191.783C102.59 191.836 102.707 191.863 102.878 191.863H110.494C110.697 191.863 110.857 191.911 110.974 192.007C111.102 192.103 111.166 192.252 111.166 192.455C111.166 192.657 111.102 192.807 110.974 192.903C110.857 192.999 110.697 193.047 110.494 193.047H102.462C101.939 193.047 101.566 192.94 101.342 192.727C101.129 192.503 101.022 192.129 101.022 191.607V187.095C101.022 186.572 101.129 186.204 101.342 185.991C101.566 185.767 101.939 185.655 102.462 185.655H110.334C110.537 185.655 110.697 185.703 110.814 185.799C110.942 185.895 111.006 186.044 111.006 186.247C111.006 186.449 110.942 186.599 110.814 186.695C110.697 186.791 110.537 186.839 110.334 186.839H102.878ZM99.8541 197.591C99.6514 197.591 99.4861 197.543 99.3581 197.447C99.2407 197.351 99.1821 197.201 99.1821 196.999C99.1821 196.796 99.2407 196.647 99.3581 196.551C99.4861 196.455 99.6514 196.407 99.8541 196.407H112.174C112.377 196.407 112.537 196.455 112.654 196.551C112.782 196.647 112.846 196.796 112.846 196.999C112.846 197.201 112.782 197.351 112.654 197.447C112.537 197.543 112.377 197.591 112.174 197.591H99.8541ZM115.457 193.463C115.255 193.463 115.089 193.415 114.961 193.319C114.844 193.223 114.785 193.073 114.785 192.871C114.785 192.668 114.844 192.519 114.961 192.423C115.089 192.327 115.255 192.279 115.457 192.279H127.777C127.98 192.279 128.14 192.327 128.257 192.423C128.385 192.519 128.449 192.668 128.449 192.871C128.449 193.073 128.385 193.223 128.257 193.319C128.14 193.415 127.98 193.463 127.777 193.463H115.457ZM126.337 198.071C126.54 198.071 126.7 198.119 126.817 198.215C126.945 198.311 127.009 198.46 127.009 198.663C127.009 198.865 126.945 199.015 126.817 199.111C126.7 199.207 126.54 199.255 126.337 199.255H118.113C117.569 199.255 117.185 199.143 116.961 198.919C116.737 198.695 116.625 198.311 116.625 197.767V195.463C116.625 195.249 116.689 195.084 116.817 194.967C116.945 194.849 117.116 194.791 117.329 194.791C117.543 194.791 117.713 194.849 117.841 194.967C117.969 195.084 118.033 195.249 118.033 195.463V197.655C118.033 197.825 118.06 197.937 118.113 197.991C118.167 198.044 118.279 198.071 118.449 198.071H126.337ZM118.177 190.455C117.633 190.455 117.249 190.348 117.025 190.135C116.812 189.921 116.705 189.543 116.705 188.999V185.735C116.705 185.521 116.769 185.356 116.897 185.239C117.025 185.111 117.201 185.047 117.425 185.047C117.649 185.047 117.825 185.111 117.953 185.239C118.081 185.356 118.145 185.521 118.145 185.735V188.839C118.145 189.009 118.177 189.127 118.241 189.191C118.305 189.244 118.423 189.271 118.593 189.271H126.097C126.3 189.271 126.46 189.319 126.577 189.415C126.705 189.511 126.769 189.66 126.769 189.863C126.769 190.065 126.705 190.215 126.577 190.311C126.46 190.407 126.3 190.455 126.097 190.455H118.177ZM135.729 186.775C135.27 186.775 135.041 186.572 135.041 186.167C135.041 185.761 135.27 185.559 135.729 185.559H141.009C141.467 185.559 141.697 185.761 141.697 186.167C141.697 186.572 141.467 186.775 141.009 186.775H139.137V188.967C139.137 189.692 139.222 190.332 139.393 190.887C139.563 191.431 139.782 191.921 140.049 192.359C140.315 192.785 140.614 193.175 140.945 193.527C141.275 193.868 141.601 194.199 141.921 194.519C142.017 194.625 142.065 194.753 142.065 194.903C142.075 195.052 142.022 195.185 141.905 195.303C141.766 195.431 141.622 195.495 141.473 195.495C141.323 195.484 141.19 195.431 141.073 195.335C140.785 195.111 140.502 194.849 140.225 194.551C139.958 194.252 139.707 193.943 139.473 193.623C139.238 193.303 139.03 192.983 138.849 192.663C138.667 192.343 138.534 192.055 138.449 191.799C138.353 192.055 138.214 192.353 138.033 192.695C137.862 193.036 137.659 193.383 137.425 193.735C137.19 194.087 136.934 194.428 136.657 194.759C136.39 195.079 136.113 195.351 135.825 195.575C135.707 195.671 135.574 195.724 135.425 195.735C135.275 195.735 135.131 195.671 134.993 195.543C134.875 195.425 134.817 195.292 134.817 195.143C134.827 194.993 134.881 194.865 134.977 194.759C135.297 194.417 135.622 194.06 135.953 193.687C136.283 193.303 136.582 192.887 136.849 192.439C137.115 191.98 137.334 191.468 137.505 190.903C137.675 190.337 137.761 189.692 137.761 188.967V186.775H135.729ZM141.281 190.535C141.078 190.535 140.913 190.487 140.785 190.391C140.667 190.295 140.609 190.145 140.609 189.943C140.609 189.74 140.667 189.591 140.785 189.495C140.913 189.399 141.078 189.351 141.281 189.351H143.521V185.751C143.521 185.292 143.75 185.063 144.209 185.063C144.667 185.063 144.897 185.292 144.897 185.751V198.279C144.897 198.737 144.667 198.967 144.209 198.967C143.75 198.967 143.521 198.737 143.521 198.279V190.535H141.281ZM147.809 198.743C147.809 199.201 147.579 199.431 147.121 199.431C146.662 199.431 146.433 199.201 146.433 198.743V185.591C146.433 185.132 146.662 184.903 147.121 184.903C147.579 184.903 147.809 185.132 147.809 185.591V198.743ZM153.78 199.335C153.524 199.335 153.305 199.319 153.124 199.287C152.942 199.255 152.798 199.191 152.692 199.095C152.585 198.999 152.505 198.865 152.452 198.695C152.409 198.535 152.388 198.327 152.388 198.071V195.911C152.388 195.655 152.409 195.447 152.452 195.287C152.505 195.116 152.585 194.983 152.692 194.887C152.798 194.791 152.942 194.727 153.124 194.695C153.305 194.663 153.524 194.647 153.78 194.647H156.66V193.207H151.22C151.017 193.207 150.852 193.159 150.724 193.063C150.606 192.967 150.548 192.817 150.548 192.615C150.548 192.412 150.606 192.263 150.724 192.167C150.852 192.071 151.017 192.023 151.22 192.023H163.54C163.742 192.023 163.902 192.071 164.02 192.167C164.148 192.263 164.212 192.412 164.212 192.615C164.212 192.817 164.148 192.967 164.02 193.063C163.902 193.159 163.742 193.207 163.54 193.207H158.1V194.647H160.98C161.236 194.647 161.454 194.663 161.636 194.695C161.817 194.727 161.961 194.791 162.068 194.887C162.174 194.983 162.249 195.116 162.292 195.287C162.345 195.447 162.372 195.655 162.372 195.911V198.071C162.372 198.327 162.345 198.535 162.292 198.695C162.249 198.865 162.174 198.999 162.068 199.095C161.961 199.191 161.817 199.255 161.636 199.287C161.454 199.319 161.236 199.335 160.98 199.335H153.78ZM155.46 188.167C155.46 188.444 155.465 188.705 155.476 188.951C155.486 189.196 155.513 189.436 155.556 189.671H159.348C159.422 189.233 159.46 188.732 159.46 188.167V187.639C159.46 187.18 159.689 186.951 160.148 186.951C160.606 186.951 160.836 187.18 160.836 187.639V188.167C160.836 188.444 160.825 188.711 160.804 188.967C160.793 189.212 160.766 189.447 160.724 189.671H162.02C162.222 189.671 162.382 189.719 162.5 189.815C162.628 189.911 162.692 190.06 162.692 190.263C162.692 190.465 162.628 190.615 162.5 190.711C162.382 190.807 162.222 190.855 162.02 190.855H152.9C152.697 190.855 152.532 190.807 152.404 190.711C152.286 190.615 152.228 190.465 152.228 190.263C152.228 190.06 152.286 189.911 152.404 189.815C152.532 189.719 152.697 189.671 152.9 189.671H154.196C154.153 189.447 154.121 189.212 154.1 188.967C154.089 188.711 154.084 188.444 154.084 188.167V187.639C154.084 187.18 154.313 186.951 154.772 186.951C155.23 186.951 155.46 187.18 155.46 187.639V188.167ZM160.58 198.199C160.75 198.199 160.857 198.172 160.9 198.119C160.953 198.076 160.98 197.969 160.98 197.799V196.183C160.98 196.012 160.953 195.905 160.9 195.863C160.857 195.809 160.75 195.783 160.58 195.783H154.18C154.009 195.783 153.897 195.809 153.844 195.863C153.801 195.905 153.78 196.012 153.78 196.183V197.799C153.78 197.969 153.801 198.076 153.844 198.119C153.897 198.172 154.009 198.199 154.18 198.199H160.58ZM152.82 186.279C152.617 186.279 152.452 186.231 152.324 186.135C152.206 186.039 152.148 185.889 152.148 185.687C152.148 185.484 152.206 185.335 152.324 185.239C152.452 185.143 152.617 185.095 152.82 185.095H162.1C162.302 185.095 162.462 185.143 162.58 185.239C162.708 185.335 162.772 185.484 162.772 185.687C162.772 185.889 162.708 186.039 162.58 186.135C162.462 186.231 162.302 186.279 162.1 186.279H152.82ZM171.283 192.791C171.283 192.236 171.374 191.74 171.555 191.303C171.736 190.855 171.987 190.476 172.307 190.167C172.627 189.857 173.006 189.623 173.443 189.463C173.88 189.303 174.36 189.223 174.883 189.223C175.406 189.223 175.886 189.303 176.323 189.463C176.76 189.623 177.139 189.857 177.459 190.167C177.779 190.476 178.03 190.855 178.211 191.303C178.392 191.74 178.483 192.236 178.483 192.791C178.483 193.356 178.392 193.857 178.211 194.295C178.03 194.732 177.779 195.105 177.459 195.415C177.139 195.724 176.76 195.959 176.323 196.119C175.886 196.279 175.406 196.359 174.883 196.359C174.36 196.359 173.88 196.279 173.443 196.119C173.006 195.959 172.627 195.724 172.307 195.415C171.987 195.105 171.736 194.732 171.555 194.295C171.374 193.857 171.283 193.356 171.283 192.791ZM182.371 198.743C182.371 198.945 182.307 199.111 182.179 199.239C182.062 199.367 181.891 199.431 181.667 199.431C181.443 199.431 181.267 199.367 181.139 199.239C181.022 199.111 180.963 198.945 180.963 198.743V185.607C180.963 185.393 181.027 185.228 181.155 185.111C181.283 184.983 181.454 184.919 181.667 184.919C181.88 184.919 182.051 184.983 182.179 185.111C182.307 185.228 182.371 185.393 182.371 185.607V190.743H184.291C184.494 190.743 184.654 190.796 184.771 190.903C184.899 190.999 184.963 191.148 184.963 191.351C184.963 191.553 184.899 191.708 184.771 191.815C184.654 191.911 184.494 191.959 184.291 191.959H182.371V198.743ZM177.091 192.791C177.091 192.055 176.894 191.468 176.499 191.031C176.115 190.593 175.576 190.375 174.883 190.375C174.19 190.375 173.646 190.593 173.251 191.031C172.867 191.468 172.675 192.055 172.675 192.791C172.675 193.527 172.867 194.113 173.251 194.551C173.646 194.988 174.19 195.207 174.883 195.207C175.576 195.207 176.115 194.988 176.499 194.551C176.894 194.113 177.091 193.527 177.091 192.791ZM171.219 188.135C171.016 188.135 170.851 188.087 170.723 187.991C170.606 187.895 170.547 187.745 170.547 187.543C170.547 187.34 170.606 187.191 170.723 187.095C170.851 186.999 171.016 186.951 171.219 186.951H174.179V185.271C174.179 185.057 174.243 184.892 174.371 184.775C174.499 184.647 174.67 184.583 174.883 184.583C175.096 184.583 175.267 184.647 175.395 184.775C175.523 184.892 175.587 185.057 175.587 185.271V186.951H178.403C178.606 186.951 178.766 186.999 178.883 187.095C179.011 187.191 179.075 187.34 179.075 187.543C179.075 187.745 179.011 187.895 178.883 187.991C178.766 188.087 178.606 188.135 178.403 188.135H171.219ZM197.974 198.743C197.974 198.945 197.91 199.111 197.782 199.239C197.665 199.367 197.494 199.431 197.27 199.431C197.046 199.431 196.87 199.367 196.742 199.239C196.625 199.111 196.566 198.945 196.566 198.743V185.607C196.566 185.393 196.63 185.228 196.758 185.111C196.886 184.983 197.057 184.919 197.27 184.919C197.484 184.919 197.654 184.983 197.782 185.111C197.91 185.228 197.974 185.393 197.974 185.607V189.655H199.894C200.097 189.655 200.257 189.708 200.374 189.815C200.502 189.911 200.566 190.06 200.566 190.263C200.566 190.465 200.502 190.62 200.374 190.727C200.257 190.823 200.097 190.871 199.894 190.871H197.974V198.743ZM194.518 194.951C193.75 195.079 192.972 195.169 192.182 195.223C191.393 195.276 190.582 195.303 189.75 195.303H188.582C188.06 195.303 187.686 195.196 187.462 194.983C187.249 194.759 187.142 194.385 187.142 193.863V186.295C187.142 186.081 187.206 185.916 187.334 185.799C187.462 185.671 187.633 185.607 187.846 185.607C188.06 185.607 188.23 185.671 188.358 185.799C188.486 185.916 188.55 186.081 188.55 186.295V193.687C188.55 193.847 188.582 193.959 188.646 194.023C188.721 194.087 188.838 194.119 188.998 194.119H189.75C190.508 194.119 191.276 194.097 192.054 194.055C192.844 194.001 193.606 193.916 194.342 193.799C194.534 193.767 194.694 193.788 194.822 193.863C194.961 193.927 195.046 194.06 195.078 194.263C195.11 194.465 195.073 194.625 194.966 194.743C194.87 194.849 194.721 194.919 194.518 194.951ZM213.673 198.743C213.673 198.945 213.609 199.111 213.481 199.239C213.364 199.367 213.193 199.431 212.969 199.431C212.745 199.431 212.569 199.367 212.441 199.239C212.324 199.111 212.265 198.945 212.265 198.743V185.607C212.265 185.393 212.329 185.228 212.457 185.111C212.585 184.983 212.756 184.919 212.969 184.919C213.183 184.919 213.353 184.983 213.481 185.111C213.609 185.228 213.673 185.393 213.673 185.607V189.975H215.593C215.796 189.975 215.956 190.028 216.073 190.135C216.201 190.231 216.265 190.38 216.265 190.583C216.265 190.785 216.201 190.94 216.073 191.047C215.956 191.143 215.796 191.191 215.593 191.191H213.673V198.743ZM209.129 185.655C209.385 185.655 209.599 185.676 209.769 185.719C209.94 185.761 210.073 185.836 210.169 185.943C210.276 186.039 210.345 186.172 210.377 186.343C210.42 186.513 210.441 186.727 210.441 186.983V188.119C210.441 188.876 210.377 189.623 210.249 190.359C210.132 191.095 209.945 191.809 209.689 192.503C209.444 193.185 209.124 193.841 208.729 194.471C208.345 195.1 207.881 195.681 207.337 196.215C207.188 196.353 207.023 196.428 206.841 196.439C206.66 196.449 206.5 196.385 206.361 196.247C206.223 196.097 206.164 195.937 206.185 195.767C206.217 195.596 206.303 195.436 206.441 195.287C206.964 194.7 207.391 194.124 207.721 193.559C208.063 192.983 208.329 192.396 208.521 191.799C208.724 191.201 208.863 190.583 208.937 189.943C209.023 189.303 209.065 188.625 209.065 187.911V187.223C209.065 187.073 209.039 186.972 208.985 186.919C208.932 186.865 208.831 186.839 208.681 186.839H207.337C207.135 186.839 206.969 186.791 206.841 186.695C206.724 186.599 206.665 186.449 206.665 186.247C206.665 186.044 206.724 185.895 206.841 185.799C206.969 185.703 207.135 185.655 207.337 185.655H209.129ZM202.697 186.839C202.495 186.839 202.329 186.791 202.201 186.695C202.084 186.599 202.025 186.449 202.025 186.247C202.025 186.044 202.084 185.895 202.201 185.799C202.329 185.703 202.495 185.655 202.697 185.655H204.729C204.985 185.655 205.199 185.676 205.369 185.719C205.54 185.761 205.673 185.836 205.769 185.943C205.876 186.039 205.945 186.172 205.977 186.343C206.02 186.513 206.041 186.727 206.041 186.983V187.719C206.041 188.316 205.993 188.935 205.897 189.575C205.812 190.215 205.652 190.86 205.417 191.511C205.183 192.151 204.857 192.785 204.441 193.415C204.025 194.033 203.492 194.615 202.841 195.159C202.703 195.276 202.548 195.345 202.377 195.367C202.207 195.377 202.052 195.319 201.913 195.191C201.753 195.041 201.689 194.871 201.721 194.679C201.753 194.487 201.844 194.321 201.993 194.183C202.505 193.724 202.932 193.26 203.273 192.791C203.615 192.311 203.887 191.815 204.089 191.303C204.303 190.791 204.452 190.252 204.537 189.687C204.623 189.111 204.665 188.492 204.665 187.831V187.223C204.665 187.073 204.639 186.972 204.585 186.919C204.532 186.865 204.431 186.839 204.281 186.839H202.697ZM218.924 186.839C218.722 186.839 218.556 186.791 218.428 186.695C218.311 186.599 218.252 186.449 218.252 186.247C218.252 186.044 218.311 185.895 218.428 185.799C218.556 185.703 218.722 185.655 218.924 185.655H225.212C225.415 185.655 225.575 185.703 225.692 185.799C225.82 185.895 225.884 186.044 225.884 186.247C225.884 186.449 225.82 186.599 225.692 186.695C225.575 186.791 225.415 186.839 225.212 186.839H222.828V188.951C222.828 189.548 222.914 190.103 223.084 190.615C223.255 191.116 223.49 191.585 223.788 192.023C224.098 192.46 224.455 192.876 224.86 193.271C225.276 193.655 225.724 194.028 226.204 194.391C226.343 194.497 226.434 194.636 226.476 194.807C226.519 194.977 226.487 195.132 226.38 195.271C226.263 195.42 226.119 195.511 225.948 195.543C225.778 195.564 225.607 195.516 225.436 195.399C225.095 195.175 224.764 194.924 224.444 194.647C224.124 194.369 223.82 194.076 223.532 193.767C223.255 193.447 222.994 193.116 222.748 192.775C222.514 192.433 222.311 192.087 222.14 191.735C221.81 192.503 221.351 193.217 220.764 193.879C220.188 194.54 219.548 195.111 218.844 195.591C218.674 195.708 218.498 195.756 218.316 195.735C218.146 195.703 218.007 195.612 217.9 195.463C217.794 195.303 217.767 195.137 217.82 194.967C217.884 194.785 217.996 194.636 218.156 194.519C218.658 194.145 219.111 193.756 219.516 193.351C219.922 192.945 220.268 192.519 220.556 192.071C220.844 191.623 221.063 191.143 221.212 190.631C221.372 190.108 221.452 189.548 221.452 188.951V186.839H218.924ZM229.98 198.743C229.98 198.956 229.916 199.121 229.788 199.239C229.66 199.367 229.49 199.431 229.276 199.431C229.063 199.431 228.892 199.367 228.764 199.239C228.636 199.121 228.572 198.956 228.572 198.743V185.591C228.572 185.377 228.636 185.212 228.764 185.095C228.892 184.967 229.063 184.903 229.276 184.903C229.49 184.903 229.66 184.967 229.788 185.095C229.916 185.212 229.98 185.377 229.98 185.591V198.743Z" fill="#5D3C28"/>
<mask id="path-26-inside-1_1985_4665" fill="white">
<rect x="117.784" y="2.27075" width="10.3782" height="16.8646" rx="1.53982"/>
</mask>
<rect x="117.784" y="2.27075" width="10.3782" height="16.8646" rx="1.53982" fill="#CBBFB3" stroke="#5D3C28" stroke-width="9.98902" mask="url(#path-26-inside-1_1985_4665)"/>
<path d="M162.822 57.1455H118.15C117.016 57.1455 116.097 56.2263 116.097 55.0924V21.5889C116.097 20.9427 116.401 20.3341 116.918 19.9464L139.254 3.19465C139.984 2.64715 140.988 2.64715 141.718 3.19465L164.053 19.9464C164.57 20.3341 164.875 20.9427 164.875 21.5889V55.0924C164.875 56.2263 163.956 57.1455 162.822 57.1455Z" fill="#FFD100" stroke="#5D3C28" stroke-width="4.99451"/>
<path d="M124.27 36.2425V54.503C124.27 55.3534 124.959 56.0428 125.81 56.0428H136.208C137.059 56.0428 137.748 55.3534 137.748 54.503V36.2425C137.748 35.392 137.059 34.7026 136.208 34.7026H125.81C124.959 34.7026 124.27 35.392 124.27 36.2425Z" fill="#5D3C28"/>
<path d="M126.517 43.3071V37.3245C126.517 37.1156 126.686 36.9463 126.895 36.9463H135.124C135.333 36.9463 135.502 37.1156 135.502 37.3245V43.3071C135.502 43.516 135.333 43.6853 135.124 43.6853H126.895C126.686 43.6853 126.517 43.516 126.517 43.3071Z" fill="#9F692D"/>
<path d="M126.517 47.8014V46.3114C126.517 46.1026 126.686 45.9332 126.895 45.9332H135.124C135.333 45.9332 135.502 46.1026 135.502 46.3114V47.8014C135.502 48.0102 135.333 48.1796 135.124 48.1796H126.895C126.686 48.1796 126.517 48.0102 126.517 47.8014Z" fill="#9F692D"/>
<path d="M126.517 52.2926V50.8026C126.517 50.5938 126.686 50.4244 126.895 50.4244H135.124C135.333 50.4244 135.502 50.5938 135.502 50.8026V52.2926C135.502 52.5014 135.333 52.6708 135.124 52.6708H126.895C126.686 52.6708 126.517 52.5014 126.517 52.2926Z" fill="#9F692D"/>
<circle cx="136.4" cy="44.5857" r="0.898534" fill="#FFD100"/>
<mask id="path-33-inside-2_1985_4665" fill="white">
<rect x="145.026" y="28.2162" width="14.27" height="14.27" rx="1.02655"/>
</mask>
<rect x="145.026" y="28.2162" width="14.27" height="14.27" rx="1.02655" fill="#9F692D" stroke="#5D3C28" stroke-width="9.98902" mask="url(#path-33-inside-2_1985_4665)"/>
<path d="M119.146 23.6109H113.049C112.109 23.6109 111.728 22.4015 112.498 21.8627L139.897 2.68283C140.251 2.43541 140.721 2.43541 141.075 2.68283L168.304 21.7434C169.126 22.319 168.719 23.6109 167.715 23.6109H161.826H140.486H119.146Z" fill="#9F692D" stroke="#5D3C28" stroke-width="4.99451"/>
<path d="M178.092 264.214C181.642 258.872 188.147 256.418 193.805 259.438C199.463 262.459 201.043 269.23 198.58 275.152C196.675 279.734 190.878 281.278 188.558 282.966C187.143 283.995 185.58 286.089 185.122 286.724C185.046 286.83 184.902 286.864 184.787 286.803L177.021 282.657L176.089 282.159C175.972 282.097 175.921 281.957 175.968 281.833C176.252 281.097 177.15 278.637 177.176 276.889C177.219 273.986 175.345 268.347 178.092 264.214Z" fill="#F8B62D" stroke="#5D3C28" stroke-width="2.58065"/>
<path d="M172.353 288.579L175.849 282.031L184.955 286.893L181.459 293.441C181.367 293.613 181.186 293.719 180.99 293.714L178.608 293.65C178.488 293.647 178.37 293.616 178.264 293.559L174.033 291.301C173.927 291.244 173.836 291.163 173.766 291.065L172.388 289.121C172.275 288.962 172.261 288.752 172.353 288.579Z" fill="white" stroke="#5D3C28" stroke-width="2.58065"/>
<path d="M180.415 289.588C180.73 289.756 181.121 289.637 181.288 289.323C181.456 289.009 181.337 288.618 181.023 288.45L180.719 289.019L180.415 289.588ZM173.89 285.373L173.586 285.942L180.415 289.588L180.719 289.019L181.023 288.45L174.193 284.804L173.89 285.373Z" fill="#5D3C28"/>
<path d="M176.347 289.318L182.039 292.356" stroke="#5D3C28" stroke-width="1.29032" stroke-linecap="round"/>
<path d="M173.702 293.792L173.264 292.353L177.817 294.784L176.378 295.221C176.182 295.281 175.97 295.26 175.788 295.163L174.078 294.25C173.897 294.153 173.761 293.988 173.702 293.792Z" fill="#5D3C28" stroke="#5D3C28" stroke-width="1.03226"/>
<path d="M193.894 265.81C195.759 268.791 195.242 272.677 192.662 275.067L191.682 275.975" stroke="white" stroke-width="2.58065" stroke-linecap="round"/>
<path d="M187.239 251.853L186.458 245.25" stroke="#F8B62D" stroke-width="3" stroke-linecap="round"/>
<path d="M177.356 256.229L173.079 250.589" stroke="#F8B62D" stroke-width="3" stroke-linecap="round"/>
<path d="M198.092 254.653L201.486 249.169" stroke="#F8B62D" stroke-width="3" stroke-linecap="round"/>
<path d="M204.953 264.066L211.846 261.198" stroke="#F8B62D" stroke-width="3" stroke-linecap="round"/>
<path d="M205.167 275.104L212.461 275.109" stroke="#F8B62D" stroke-width="3" stroke-linecap="round"/>
</svg>
