<svg width="65" height="62" viewBox="0 0 65 62" fill="none" xmlns="http://www.w3.org/2000/svg">
<path d="M33.2234 38.4379C50.0075 38.4379 63.6137 34.402 63.6137 29.4234C63.6137 24.4449 50.0075 20.4089 33.2234 20.4089C16.4392 20.4089 2.83301 24.4449 2.83301 29.4234C2.83301 34.402 16.4392 38.4379 33.2234 38.4379Z" fill="white" stroke="#5D3C28" stroke-width="0.895361" stroke-linecap="round" stroke-linejoin="round"/>
<path d="M44.5794 41.0435C45.8087 41.0435 46.8053 40.047 46.8053 38.8177C46.8053 37.5884 45.8087 36.5918 44.5794 36.5918C43.3501 36.5918 42.3535 37.5884 42.3535 38.8177C42.3535 40.047 43.3501 41.0435 44.5794 41.0435Z" fill="#F8B62D" stroke="#5D3C28" stroke-width="0.895361" stroke-linecap="round" stroke-linejoin="round"/>
<path d="M49.5741 18.3209C52.9288 18.3209 55.6483 15.6014 55.6483 12.2467C55.6483 8.89209 52.9288 6.17261 49.5741 6.17261C46.2195 6.17261 43.5 8.89209 43.5 12.2467C43.5 15.6014 46.2195 18.3209 49.5741 18.3209Z" fill="#F8B62D" stroke="#5D3C28" stroke-width="0.895361" stroke-linecap="round" stroke-linejoin="round"/>
<path fill-rule="evenodd" clip-rule="evenodd" d="M43.5609 27.3873C43.5609 27.3873 46.9848 36.2066 42.8464 40.9198C41.2061 42.7893 37.9076 43.5504 33.4487 43.5647L29.3999 41.8205C29.3999 41.8205 29.4876 39.5427 29.4876 39.5302C29.5431 38.0815 27.2492 37.8218 25.197 38.2838C24.1441 38.5202 23.4636 39.0109 21.0408 39.5982L17.3286 34.0219C17.3286 34.0219 21.8591 33.6315 24.2623 24.1013L43.5609 27.3855V27.3873Z" fill="#F8B62D" stroke="#5D3C28" stroke-width="0.895361" stroke-linecap="round" stroke-linejoin="round"/>
<path d="M24.9394 11.3461C27.9489 11.3461 30.3886 8.90641 30.3886 5.89692C30.3886 2.88743 27.9489 0.447754 24.9394 0.447754C21.9299 0.447754 19.4902 2.88743 19.4902 5.89692C19.4902 8.90641 21.9299 11.3461 24.9394 11.3461Z" fill="#F8B62D" stroke="#5D3C28" stroke-width="0.895361" stroke-linecap="round" stroke-linejoin="round"/>
<path fill-rule="evenodd" clip-rule="evenodd" d="M51.4942 19.5441C52.6116 11.2172 46.0683 4.48589 37.0467 2.92438C28.025 1.36287 19.6534 6.29989 18.108 14.5587C16.6199 22.5006 23.0701 28.0393 32.5501 29.6796C46.0988 32.0236 50.7528 25.0649 51.4942 19.5423V19.5441Z" fill="#F8B62D" stroke="#5D3C28" stroke-width="0.895361" stroke-linecap="round" stroke-linejoin="round"/>
<path fill-rule="evenodd" clip-rule="evenodd" d="M44.7621 20.056C43.7934 25.6556 38.1418 27.9889 31.3926 26.8214C24.6434 25.6538 20.1576 21.5674 21.1174 16.0215C22.1041 10.3145 27.8076 7.36337 34.5568 8.53271C41.306 9.70026 45.7685 14.2433 44.7621 20.0578V20.056Z" fill="#9F692D" stroke="#5D3C28" stroke-width="0.895361" stroke-linecap="round" stroke-linejoin="round"/>
<path d="M37.3456 19.6375C37.935 19.6375 38.4129 19.1596 38.4129 18.5702C38.4129 17.9808 37.935 17.5029 37.3456 17.5029C36.7562 17.5029 36.2783 17.9808 36.2783 18.5702C36.2783 19.1596 36.7562 19.6375 37.3456 19.6375Z" fill="#5D3C28"/>
<path d="M26.952 17.8382C27.5415 17.8382 28.0193 17.3603 28.0193 16.7709C28.0193 16.1814 27.5415 15.7036 26.952 15.7036C26.3626 15.7036 25.8848 16.1814 25.8848 16.7709C25.8848 17.3603 26.3626 17.8382 26.952 17.8382Z" fill="#5D3C28"/>
<path fill-rule="evenodd" clip-rule="evenodd" d="M36.193 21.5227C35.7793 23.9115 33.5176 24.7907 30.9927 24.3538C28.466 23.9169 26.6502 22.2264 27.0459 19.9397C27.4327 17.7049 29.7213 16.6716 32.2462 17.1085C34.7729 17.5455 36.5797 19.2879 36.193 21.5227Z" fill="#E6C89B"/>
<path fill-rule="evenodd" clip-rule="evenodd" d="M32.3227 19.7826C32.2081 20.4469 31.3342 20.7209 30.9313 20.6511C30.5713 20.5884 29.7978 20.0297 29.9142 19.3653C30.0288 18.701 30.5803 18.7189 31.2465 18.8335C31.9126 18.9481 32.4373 19.1164 32.3227 19.7808V19.7826Z" fill="#5D3C28"/>
<path d="M29.7979 21.6659L30.8991 21.2451L31.6727 21.9148" stroke="#5D3C28" stroke-width="0.537217" stroke-linecap="round" stroke-linejoin="round"/>
<path d="M30.9888 20.3179L30.8384 21.1971" stroke="#5D3C28" stroke-width="0.537217" stroke-linecap="round" stroke-linejoin="round"/>
<path d="M23.6066 53.5174C24.3354 51.1424 23.8088 48.8742 22.4303 48.4511C21.0518 48.0281 19.3434 49.6105 18.6146 51.9855C17.8858 54.3605 18.4124 56.6288 19.7909 57.0518C21.1694 57.4749 22.8777 55.8925 23.6066 53.5174Z" fill="white" stroke="#5D3C28" stroke-width="0.895361" stroke-linejoin="round"/>
<path d="M48.589 57.1875C49.9675 56.7645 50.4941 54.4962 49.7653 52.1212C49.0364 49.7462 47.3281 48.1638 45.9496 48.5868C44.5711 49.0099 44.0445 51.2781 44.7733 53.6531C45.5021 56.0282 47.2105 57.6106 48.589 57.1875Z" fill="white" stroke="#5D3C28" stroke-width="0.895361" stroke-linejoin="round"/>
<path d="M10.7485 32.8832C9.2944 31.6064 9.09921 28.9937 10.2274 27.366C11.3555 25.7382 13.5563 25.2189 15.2611 26.0372C15.6031 24.4686 16.9193 23.2204 18.3787 23.0808C19.8382 22.9429 21.3298 23.9242 21.91 25.4051C22.4419 23.8454 24.1878 23.0217 25.6491 23.4532C27.1103 23.8848 28.1991 25.3783 28.5017 27.0096C29.0407 26.2199 30.0345 25.8438 30.9013 26.1017C31.768 26.3596 32.4538 27.237 32.5577 28.2183C33.2614 27.4734 34.0171 26.6962 34.9716 26.4742C35.926 26.2503 37.1079 26.8484 37.2135 27.9157C38.1161 26.4169 39.6185 25.2153 41.2516 25.2923C42.8848 25.3693 44.4337 27.1135 44.0649 28.8666C45.2969 28.0482 46.7599 27.4358 48.1584 27.8083C49.557 28.1789 50.7138 29.8766 50.1981 31.3557C51.0612 30.6931 51.9458 30.0198 52.9576 29.7011C53.9693 29.3823 55.1494 29.4754 55.9481 30.2311C56.7467 30.9868 56.9598 32.4946 56.2149 33.3129C57.2088 33.8967 58.3566 34.7849 58.2134 36.0151C58.1256 36.7637 57.5365 37.351 56.8828 37.5802C56.2292 37.8095 55.5237 37.7378 54.8468 37.6161C54.3203 39.0827 53.1492 40.2502 51.7703 40.68C50.3915 41.1098 48.8389 40.7928 47.6929 39.8473C47.5424 39.7237 47.3902 39.5841 47.204 39.5482C46.7599 39.4605 46.4286 39.9655 46.1582 40.363C44.7453 42.4438 41.7083 42.8718 39.8656 41.2512C39.6901 41.0972 39.4896 40.9164 39.2693 40.9593C39.126 40.9862 39.0132 41.1026 38.9112 41.2172C38.1483 42.0678 37.4929 43.0778 36.5474 43.6633C35.6091 44.2453 34.497 44.342 33.4226 44.419C32.5219 44.4835 31.5871 44.5372 30.7508 44.1629C29.9146 43.7887 29.2126 42.8575 29.3433 41.8762C27.746 43.2962 25.6526 44.0215 23.6059 43.8639C23.0131 43.8191 22.4043 43.6938 21.9172 43.3213C21.4301 42.9488 21.0917 42.2791 21.217 41.6398C20.0548 42.8199 18.4754 43.486 16.896 43.4663C16.1278 43.4556 15.3273 43.2712 14.7382 42.7286C14.149 42.186 13.8357 41.2208 14.1634 40.4561C13.1964 40.9987 12.1166 41.2978 11.0314 41.3228C10.8452 41.3264 10.65 41.3211 10.487 41.2208C10.1772 41.0328 10.0949 40.5582 10.2095 40.1911C10.3241 39.824 10.5873 39.5375 10.8434 39.2707C10.3384 39.2635 9.87638 38.789 9.83341 38.2339C9.79401 37.6948 10.1611 37.3689 10.111 36.8478C10.068 36.3912 9.66687 35.9346 9.62568 35.4045C9.55047 34.4304 9.93369 33.3613 10.7431 32.885L10.7485 32.8832Z" fill="#D9D9D9" stroke="#5D3C28" stroke-width="0.895361" stroke-linecap="round" stroke-linejoin="round"/>
<path d="M18.0244 27.5485C18.3814 27.5485 18.6708 27.2591 18.6708 26.9021C18.6708 26.545 18.3814 26.2556 18.0244 26.2556C17.6674 26.2556 17.3779 26.545 17.3779 26.9021C17.3779 27.2591 17.6674 27.5485 18.0244 27.5485Z" fill="white" stroke="#5D3C28" stroke-width="0.358144" stroke-linecap="round" stroke-linejoin="round"/>
<path d="M21.525 31.6383C22.149 31.6383 22.6549 31.1324 22.6549 30.5084C22.6549 29.8843 22.149 29.3784 21.525 29.3784C20.9009 29.3784 20.395 29.8843 20.395 30.5084C20.395 31.1324 20.9009 31.6383 21.525 31.6383Z" fill="white" stroke="#5D3C28" stroke-width="0.358144" stroke-linecap="round" stroke-linejoin="round"/>
<path d="M46.7803 31.0458C47.4044 31.0458 47.9103 30.5399 47.9103 29.9158C47.9103 29.2918 47.4044 28.7859 46.7803 28.7859C46.1563 28.7859 45.6504 29.2918 45.6504 29.9158C45.6504 30.5399 46.1563 31.0458 46.7803 31.0458Z" fill="white" stroke="#5D3C28" stroke-width="0.358144" stroke-linecap="round" stroke-linejoin="round"/>
<path d="M27.0699 30.2398C27.6049 30.2398 28.0386 29.8061 28.0386 29.271C28.0386 28.736 27.6049 28.3022 27.0699 28.3022C26.5348 28.3022 26.1011 28.736 26.1011 29.271C26.1011 29.8061 26.5348 30.2398 27.0699 30.2398Z" fill="white" stroke="#5D3C28" stroke-width="0.358144" stroke-linecap="round" stroke-linejoin="round"/>
<path d="M34.502 34.117C35.037 34.117 35.4708 33.6833 35.4708 33.1482C35.4708 32.6132 35.037 32.1794 34.502 32.1794C33.9669 32.1794 33.5332 32.6132 33.5332 33.1482C33.5332 33.6833 33.9669 34.117 34.502 34.117Z" fill="white" stroke="#5D3C28" stroke-width="0.358144" stroke-linecap="round" stroke-linejoin="round"/>
<path d="M39.5634 31.5329C39.9205 31.5329 40.2099 31.2435 40.2099 30.8864C40.2099 30.5294 39.9205 30.24 39.5634 30.24C39.2064 30.24 38.917 30.5294 38.917 30.8864C38.917 31.2435 39.2064 31.5329 39.5634 31.5329Z" fill="white" stroke="#5D3C28" stroke-width="0.179072" stroke-miterlimit="10"/>
<path d="M62.6737 35.9059C59.3751 52.7082 51.4619 55.2475 34.8906 55.2475C16.1919 55.2475 8.95735 52.6796 5.51916 35.9847C4.38385 30.4657 6.04026 32.4373 11.8547 34.7956C17.4149 37.0519 26.8807 36.8765 34.4608 36.8765C42.041 36.8765 49.5011 37.9688 54.5706 35.4904C60.8113 32.439 63.6639 30.8543 62.6719 35.9059H62.6737Z" fill="white" stroke="#5D3C28" stroke-width="0.895361" stroke-linecap="round" stroke-linejoin="round"/>
<path d="M61.0106 27.0292C60.8029 27.04 60.5952 27.0686 60.391 27.1062C59.741 27.2244 59.0927 27.4465 58.5878 27.8744C57.8392 28.5084 57.9377 29.4449 57.354 30.1612C56.9958 30.5999 56.4228 30.8936 55.9285 31.1425C54.3545 31.9358 52.5351 32.2939 50.8142 32.6002C45.2433 33.5886 39.4951 33.7086 33.8507 33.7086C28.3407 33.7086 22.7733 33.6549 17.3027 32.9332C15.4116 32.6843 13.4741 32.3763 11.678 31.7084C11.0584 31.4774 10.403 31.2159 9.87294 30.813C9.04563 30.1827 8.91491 29.3464 8.31323 28.5281C7.38384 27.2638 5.54835 26.7624 4.10503 27.3766C1.9669 28.2863 2.32147 31.2321 3.48365 32.8025C4.69059 34.4339 6.76783 35.3364 8.62123 35.9918C14.8637 38.198 21.86 38.5078 28.4159 38.7083C30.2729 38.7656 32.1316 38.7907 33.9886 38.7907C40.822 38.7907 47.8327 38.5006 54.5067 36.9069C57.841 36.11 65.9852 33.757 63.6233 28.6552C63.3296 28.0195 62.8354 27.4518 62.1853 27.1958C61.8146 27.0507 61.4153 27.0113 61.0142 27.0328L61.0106 27.0292Z" fill="white" stroke="#5D3C28" stroke-width="0.895361" stroke-miterlimit="10"/>
<path d="M13.4119 46.6004C13.1397 46.9299 12.2408 46.0757 11.3812 44.8562C10.511 43.6439 9.9988 42.5139 10.3999 42.3653C10.6524 42.2668 10.8279 42.5032 11.041 42.9079C11.2523 43.3126 11.5155 43.8946 11.9238 44.4694C12.7404 45.6244 13.6662 46.3013 13.4137 46.5986L13.4119 46.6004Z" fill="white"/>
<path d="M14.6022 49.2164C15.0116 49.2164 15.3436 48.8844 15.3436 48.475C15.3436 48.0656 15.0116 47.7336 14.6022 47.7336C14.1928 47.7336 13.8608 48.0656 13.8608 48.475C13.8608 48.8844 14.1928 49.2164 14.6022 49.2164Z" fill="white"/>
<path d="M54.3982 17.2022C53.8216 17.752 53.7016 18.5596 53.8646 19.3385C53.9899 19.9366 54.9121 20.6744 54.9121 20.6744C54.9121 20.6744 54.7331 21.7453 54.9336 22.3846C55.2004 23.2387 55.5514 23.5629 56.1119 23.9282C56.5632 24.2218 57.3332 24.383 57.8722 24.3615C58.4739 24.3365 59.3692 24.1663 59.3692 24.1663C59.3692 24.1663 59.7435 24.3221 59.9423 24.3579C60.7123 24.4922 61.2549 24.5513 61.8261 23.9873C62.5532 23.2692 62.2004 22.1177 62.2004 22.1177C62.2004 22.1177 63.7905 21.7399 63.9105 20.1945C64.018 18.8049 62.6284 18.1101 62.6284 18.1101C62.6284 18.1101 62.9382 17.2667 62.2219 16.5987C61.665 16.0794 60.6657 16.4752 60.6657 16.4752C60.6657 16.4752 59.9029 14.7436 58.1408 15.1715C57.1416 15.4133 56.7064 16.6149 56.7064 16.6149C56.7064 16.6149 55.5246 16.1332 54.4018 17.2004L54.3982 17.2022Z" fill="white" stroke="#5D3C28" stroke-width="0.895361" stroke-linecap="round" stroke-linejoin="round"/>
<path d="M58.3736 18.7864C58.0584 18.3925 57.394 18.3477 57.0287 18.6969C56.6634 19.0461 56.6777 19.7122 57.0592 20.0453" stroke="#5D3C28" stroke-width="0.243538" stroke-linecap="round" stroke-linejoin="round"/>
<path d="M59.0752 22.2907C59.1235 22.3516 59.1826 22.4035 59.2489 22.4447C59.4405 22.5665 59.6984 22.5934 59.8971 22.4823C60.0941 22.3713 60.2051 22.1099 60.121 21.9004C60.3036 22.083 60.6367 22.0364 60.8122 21.8466C60.9877 21.6568 61.0235 21.3721 60.9752 21.1178C60.959 21.0319 60.934 20.9459 60.8838 20.8743" stroke="#5D3C28" stroke-width="0.243538" stroke-linecap="round" stroke-linejoin="round"/>
<path d="M12.0393 23.6197C11.5468 24.0889 11.4447 24.7801 11.5826 25.4445C11.6883 25.9566 12.478 26.5852 12.478 26.5852C12.478 26.5852 12.3258 27.5002 12.4959 28.0464C12.7233 28.777 13.0242 29.0528 13.5023 29.3644C13.8873 29.6151 14.5463 29.753 15.0065 29.735C15.5204 29.7136 16.2851 29.5685 16.2851 29.5685C16.2851 29.5685 16.6056 29.7028 16.7739 29.7315C17.4311 29.8461 17.8949 29.8962 18.3838 29.4145C19.0034 28.8021 18.7025 27.8172 18.7025 27.8172C18.7025 27.8172 20.0617 27.4931 20.1638 26.1733C20.2551 24.9861 19.0679 24.3933 19.0679 24.3933C19.0679 24.3933 19.3329 23.6717 18.7205 23.1022C18.2459 22.6581 17.3899 22.9966 17.3899 22.9966C17.3899 22.9966 16.7381 21.5174 15.2321 21.8827C14.3797 22.0905 14.0055 23.1165 14.0055 23.1165C14.0055 23.1165 12.9955 22.7047 12.0375 23.6179L12.0393 23.6197Z" fill="white" stroke="#5D3C28" stroke-width="0.895361" stroke-linecap="round" stroke-linejoin="round"/>
<path d="M15.4351 24.9737C15.1647 24.6371 14.597 24.5995 14.2854 24.8967C13.9738 25.1958 13.9864 25.7634 14.3123 26.0481" stroke="#5D3C28" stroke-width="0.207724" stroke-linecap="round" stroke-linejoin="round"/>
<path d="M16.0342 27.9679C16.0754 28.0199 16.1273 28.0646 16.1828 28.1004C16.3458 28.2043 16.5678 28.2276 16.7361 28.1327C16.9045 28.0378 16.9994 27.8139 16.9277 27.6349C17.0835 27.7907 17.3683 27.7513 17.5187 27.5883C17.6691 27.4253 17.6996 27.1836 17.6584 26.9651C17.644 26.8917 17.6225 26.8183 17.5814 26.7556" stroke="#5D3C28" stroke-width="0.207724" stroke-linecap="round" stroke-linejoin="round"/>
<path d="M22.6709 25.787C22.9669 24.3041 22.0732 22.8756 20.6746 22.5964C19.2761 22.3172 17.9024 23.293 17.6063 24.7759C17.3103 26.2588 18.204 27.6873 19.6026 27.9665C21.0011 28.2457 22.3748 27.2699 22.6709 25.787Z" fill="#9F692D" stroke="#5D3C28" stroke-width="0.895361" stroke-linecap="round" stroke-linejoin="round"/>
<path d="M50.5489 32.1439C51.075 32.1439 51.5015 31.7173 51.5015 31.1912C51.5015 30.665 51.075 30.2385 50.5489 30.2385C50.0227 30.2385 49.5962 30.665 49.5962 31.1912C49.5962 31.7173 50.0227 32.1439 50.5489 32.1439Z" fill="white" stroke="#5D3C28" stroke-width="0.358144" stroke-linecap="round" stroke-linejoin="round"/>
<path d="M5.7804 42.9507C5.71951 44.3349 4.52868 44.5158 4.52868 44.5158C2.00018 44.8399 0.268555 46.0325 0.268555 47.6101V57.4806C0.268555 58.6141 0.990216 60.1201 2.32789 60.5427C2.32789 60.5427 9.44422 61.2644 12.3201 60.5427C13.536 60.2383 14.3794 58.6141 14.3794 57.4806V47.6101C14.3794 45.8588 11.6952 44.8399 9.61792 44.5158C9.61792 44.5158 8.08327 44.1541 8.3859 43.0707" fill="#F8B62D"/>
<path d="M5.7804 42.9507C5.71951 44.3349 4.52868 44.5158 4.52868 44.5158C2.00018 44.8399 0.268555 46.0325 0.268555 47.6101V57.4806C0.268555 58.6141 0.990216 60.1201 2.32789 60.5427C2.32789 60.5427 9.44422 61.2644 12.3201 60.5427C13.536 60.2383 14.3794 58.6141 14.3794 57.4806V47.6101C14.3794 45.8588 11.6952 44.8399 9.61792 44.5158C9.61792 44.5158 8.08327 44.1541 8.3859 43.0707" stroke="#5D3C28" stroke-width="0.537217" stroke-linecap="round" stroke-linejoin="round"/>
<path d="M13.8545 52.6531V58.2706C13.8545 59.1838 10.4091 59.8786 9.33471 60.124C6.79725 60.7042 2.64278 60.124 2.64278 60.124C1.46269 59.7837 0.825195 59.182 0.825195 58.2706V52.6531H13.8545Z" fill="#D9D9D9"/>
<path opacity="0.56" d="M12.9444 46.8687C12.9946 47.0371 12.6436 47.8823 11.0051 48.3031C9.41849 48.7114 8.84725 48.2852 8.79711 48.1187C8.75234 47.97 8.85799 47.8572 8.97976 47.8662C9.44893 47.902 9.92347 47.9593 10.3855 47.9289C11.2826 47.868 12.1243 47.4633 12.7689 46.781C12.8424 46.8222 12.9176 46.7738 12.9462 46.867L12.9444 46.8687Z" fill="white"/>
<path d="M13.6179 52.4952C13.6179 53.2061 9.1662 53.7809 7.0048 53.7809C4.8434 53.7809 0.893066 53.2043 0.893066 52.4952C0.893066 51.7861 4.84519 51.2095 7.0048 51.2095C9.16441 51.2095 13.6179 51.7861 13.6179 52.4952Z" fill="#D9D9D9"/>
<path d="M6.99854 53.2722C6.99854 53.2722 8.26099 53.4298 9.39273 52.8389" stroke="white" stroke-width="0.238166" stroke-linecap="round" stroke-linejoin="round"/>
<path opacity="0.51" d="M7.56641 53.7542C7.56641 53.7542 11.5203 53.7184 12.4157 53.4319" stroke="#F8B62D" stroke-width="0.238166" stroke-linecap="round" stroke-linejoin="round"/>
<path opacity="0.51" d="M6.02302 51.3689C4.75877 51.4549 1.53905 51.89 1.53905 51.89C1.53905 51.89 -0.00992688 52.5848 1.25432 53.1919" stroke="#F8B62D" stroke-width="0.238166" stroke-linecap="round" stroke-linejoin="round"/>
<path d="M2.1626 52.3969C2.1626 52.3969 5.17638 51.9689 6.25082 51.874" stroke="white" stroke-width="0.238166" stroke-linecap="round" stroke-linejoin="round"/>
<path d="M4.98535 52.4807C4.98535 52.4807 5.67657 52.2837 6.58626 52.2729" stroke="white" stroke-width="0.238166" stroke-linecap="round" stroke-linejoin="round"/>
<path d="M5.8635 43.3748C5.80978 44.6927 4.74072 44.8646 4.74072 44.8646C3.37798 45.3231 0.691895 46.0913 0.691895 47.1693V57.8366C0.691895 58.9146 1.34014 59.6256 2.53992 60.0285C2.53992 60.0285 6.77498 60.1681 9.44495 60.2505C11.053 60.3007 13.8609 59.7312 13.8573 57.8366V47.1693C13.8573 46.0913 10.6698 45.3804 9.30706 44.8646C9.30706 44.8646 7.93179 44.5208 8.20039 43.4894" stroke="white" stroke-width="0.238166" stroke-miterlimit="10"/>
<path d="M9.3471 41.3266C9.3471 41.5379 8.25655 41.9874 7.00304 41.9874C5.74954 41.9874 4.80225 41.5379 4.80225 41.3266C4.80225 41.1153 5.13353 40.6712 7.06214 40.6031C8.74721 40.5423 9.3471 41.1153 9.3471 41.3266Z" fill="#F8B62D" stroke="#5D3C28" stroke-width="0.537217" stroke-linecap="round" stroke-linejoin="round"/>
<path d="M9.3471 41.3262C9.3471 41.5375 8.31743 41.9279 7.06214 41.9279C5.80684 41.9279 4.80225 41.5375 4.80225 41.3262V43.7938C4.80225 44.0051 5.86235 44.3937 7.11765 44.3937C8.37295 44.3937 9.3471 44.0051 9.3471 43.7938V41.3262Z" fill="#F8B62D" stroke="#5D3C28" stroke-width="0.537217" stroke-linecap="round" stroke-linejoin="round"/>
<path d="M8.34002 38.7959C8.34002 38.9069 7.77057 38.9983 7.07936 38.9983C6.38814 38.9983 5.81152 38.9069 5.81152 38.7959V40.9089C5.81152 41.02 6.42395 41.3423 7.11517 41.3423C7.80639 41.3423 8.34002 41.0218 8.34002 40.9089V38.7959Z" fill="#F8B62D" stroke="#5D3C28" stroke-width="0.537217" stroke-linecap="round" stroke-linejoin="round"/>
<path d="M8.34002 38.7568C8.34002 38.918 7.77416 39.269 7.07577 39.269C6.37739 39.269 5.81152 38.918 5.81152 38.7568C5.81152 38.5957 6.37739 38.3235 7.07577 38.3235C7.77416 38.3235 8.34002 38.5957 8.34002 38.7568Z" fill="#F8B62D" stroke="#5D3C28" stroke-width="0.476332" stroke-linecap="round" stroke-linejoin="round"/>
<path d="M5.42529 41.9531V43.9426" stroke="#5D3C28" stroke-width="0.166537" stroke-linecap="round" stroke-linejoin="round"/>
<path d="M5.96387 41.9531V44.1414" stroke="#5D3C28" stroke-width="0.166537" stroke-linecap="round" stroke-linejoin="round"/>
<path d="M6.50244 41.9531V44.1915" stroke="#5D3C28" stroke-width="0.166537" stroke-linecap="round" stroke-linejoin="round"/>
<path d="M7.04248 41.9531V44.1915" stroke="#5D3C28" stroke-width="0.166537" stroke-linecap="round" stroke-linejoin="round"/>
<path d="M7.57959 41.9531V44.1915" stroke="#5D3C28" stroke-width="0.166537" stroke-linecap="round" stroke-linejoin="round"/>
<path d="M8.11963 41.9531V44.1414" stroke="#5D3C28" stroke-width="0.166537" stroke-linecap="round" stroke-linejoin="round"/>
<path d="M8.6582 41.9531V43.9426" stroke="#5D3C28" stroke-width="0.166537" stroke-linecap="round" stroke-linejoin="round"/>
<path d="M11.2228 57.7579C11.2228 57.7579 11.2228 50.3049 11.2228 50.2763C11.2228 48.4623 8.66746 48.6431 7.45156 48.7255C6.15866 48.8133 3.08398 48.371 3.08398 50.2763V57.7579C3.08398 57.7579 3.30066 58.7786 4.6831 59.0383C6.2088 59.3248 10.8324 59.6453 11.2228 57.7579Z" stroke="#5D3C28" stroke-width="0.537217" stroke-miterlimit="10"/>
<path d="M5.71619 52.5415C5.74842 52.5522 5.77707 52.5701 5.80214 52.5934C5.829 52.6167 5.85049 52.6436 5.8684 52.674C5.8863 52.7044 5.90063 52.7367 5.90958 52.7707C5.91854 52.8047 5.92212 52.837 5.91854 52.8692C5.91137 52.9408 5.8863 53.0035 5.84333 53.0554C5.80035 53.1074 5.74663 53.1485 5.68574 53.1808C5.62307 53.213 5.55681 53.2345 5.48518 53.247C5.41355 53.2596 5.34551 53.2632 5.27925 53.256C5.23627 53.2524 5.1915 53.247 5.14494 53.2417C5.10018 53.2363 5.0572 53.2255 5.02139 53.2094C4.98378 53.1933 4.95334 53.17 4.92827 53.1378C4.9032 53.1056 4.89066 53.0626 4.89066 53.0071C4.88708 52.9104 4.88708 52.8155 4.88887 52.7188C4.88887 52.6239 4.89603 52.529 4.90499 52.4323C4.90857 52.3875 4.91394 52.3391 4.91752 52.2908C4.9229 52.2424 4.93006 52.1959 4.94438 52.1511C4.95692 52.1063 4.97662 52.0652 5.00169 52.0258C5.02676 51.9882 5.06436 51.9559 5.11092 51.9291C5.16464 51.8986 5.22195 51.8789 5.28283 51.87C5.34372 51.861 5.40281 51.8592 5.46369 51.8646C5.51562 51.87 5.56935 51.8807 5.62665 51.8986C5.68395 51.9165 5.73588 51.9398 5.78244 51.9703C5.829 52.0007 5.86661 52.0383 5.89526 52.0831C5.92391 52.1278 5.93644 52.1798 5.92928 52.2406C5.9257 52.2693 5.91854 52.298 5.906 52.3284C5.89347 52.3588 5.87735 52.3875 5.85765 52.4161C5.83795 52.443 5.81647 52.4681 5.79319 52.4913C5.76812 52.5146 5.74305 52.5307 5.71619 52.5433V52.5415ZM5.41713 52.9551C5.47623 52.9426 5.51921 52.9265 5.54248 52.9032C5.56576 52.8799 5.57472 52.8567 5.56935 52.8334C5.56397 52.8101 5.54607 52.7868 5.51562 52.7689C5.48518 52.7492 5.44579 52.7385 5.39565 52.7349C5.36878 52.7349 5.34013 52.7349 5.31148 52.7385C5.28283 52.742 5.25776 52.7474 5.23269 52.7528C5.23269 52.7886 5.23269 52.8226 5.23269 52.8584C5.23269 52.8925 5.23269 52.9283 5.23627 52.9623C5.26313 52.9659 5.29178 52.9677 5.32223 52.9677C5.35267 52.9677 5.3849 52.9623 5.41534 52.9569L5.41713 52.9551ZM5.24164 52.4126C5.27388 52.4126 5.30432 52.4126 5.33297 52.409C5.36162 52.4072 5.39027 52.4018 5.41713 52.3964C5.45653 52.3875 5.49234 52.3714 5.52458 52.3481C5.55502 52.3248 5.57472 52.3033 5.58367 52.2783C5.59263 52.255 5.58725 52.2335 5.56935 52.212C5.55144 52.1923 5.51204 52.1798 5.45474 52.1744C5.4046 52.169 5.36699 52.169 5.34192 52.1744C5.31506 52.178 5.29537 52.1887 5.28283 52.2066C5.2703 52.2245 5.26134 52.2496 5.25776 52.2818C5.25418 52.3159 5.24881 52.3588 5.24343 52.4126H5.24164Z" fill="white" stroke="white" stroke-width="0.358144" stroke-linecap="round" stroke-linejoin="round"/>
<path d="M6.05453 52.6422C6.05453 52.5616 6.06706 52.4864 6.09034 52.4147C6.11362 52.3431 6.14406 52.2786 6.18346 52.2213C6.22285 52.164 6.26941 52.1157 6.32492 52.0745C6.37865 52.0333 6.43774 52.0029 6.50221 51.9832C6.56667 51.9635 6.63293 51.9563 6.70456 51.9617C6.77619 51.9671 6.84782 51.9868 6.92303 52.019C6.98212 52.0459 7.03226 52.0781 7.07524 52.1193C7.11821 52.1605 7.15224 52.2034 7.1791 52.2536C7.20596 52.3037 7.22566 52.3574 7.23819 52.4147C7.25073 52.472 7.25789 52.5329 7.2561 52.5956C7.2561 52.6816 7.24177 52.7657 7.21491 52.8499C7.18805 52.9323 7.14866 53.0075 7.09673 53.0737C7.04479 53.14 6.98212 53.1919 6.9087 53.2331C6.83528 53.2743 6.75112 53.2922 6.65621 53.2922C6.56667 53.2922 6.48609 53.2725 6.41088 53.2385C6.33746 53.2027 6.27299 53.1561 6.21927 53.097C6.16555 53.0379 6.12436 52.9699 6.09571 52.8911C6.06706 52.8123 6.05273 52.7317 6.05273 52.6457L6.05453 52.6422ZM6.66158 52.9412C6.70635 52.9412 6.74574 52.9305 6.77798 52.9072C6.812 52.8839 6.83886 52.8535 6.86035 52.8177C6.88184 52.7818 6.89796 52.7424 6.9087 52.6995C6.91944 52.6565 6.92482 52.6171 6.92482 52.5795C6.92482 52.5114 6.91407 52.4559 6.889 52.413C6.86393 52.37 6.83349 52.3377 6.79588 52.318C6.75828 52.2983 6.71709 52.2894 6.67412 52.293C6.63114 52.2966 6.58995 52.3127 6.55235 52.3395C6.51474 52.3664 6.48251 52.4058 6.45744 52.4577C6.43237 52.5097 6.41983 52.5723 6.41804 52.6493C6.41804 52.6851 6.42341 52.721 6.43416 52.755C6.4449 52.789 6.46102 52.8212 6.48072 52.8481C6.50041 52.8767 6.52548 52.8982 6.55593 52.9161C6.58637 52.9323 6.62218 52.9412 6.66158 52.943V52.9412Z" fill="white" stroke="white" stroke-width="0.358144" stroke-linecap="round" stroke-linejoin="round"/>
<path d="M7.66103 51.9167C7.75057 51.9131 7.83831 51.9238 7.92427 51.9507C8.01201 51.9758 8.08902 52.0152 8.15885 52.0653C8.22869 52.1172 8.28599 52.1799 8.33076 52.2551C8.37553 52.3303 8.39881 52.4163 8.40239 52.513C8.40597 52.5918 8.39344 52.6652 8.37016 52.735C8.34509 52.8049 8.31107 52.8693 8.26809 52.9284C8.22511 52.9875 8.17318 53.0413 8.11409 53.0878C8.05499 53.1362 7.99053 53.1756 7.92248 53.2078C7.90278 53.2167 7.8795 53.2275 7.85264 53.2364C7.82578 53.2454 7.79713 53.2544 7.76848 53.2633C7.73982 53.2723 7.70938 53.2758 7.67894 53.2794C7.6485 53.283 7.61985 53.283 7.59119 53.2794C7.56254 53.2758 7.53747 53.2687 7.51598 53.2561C7.4927 53.2454 7.4748 53.2275 7.46047 53.2042C7.44794 53.1845 7.43898 53.163 7.43003 53.1398C7.42108 53.1165 7.41391 53.0914 7.40854 53.0663C7.39421 53.009 7.38347 52.9535 7.37452 52.8998C7.36556 52.8461 7.35661 52.7906 7.34945 52.7386C7.34228 52.6867 7.33691 52.6312 7.33333 52.5775C7.32975 52.5237 7.32617 52.4682 7.32438 52.4109C7.32259 52.35 7.32438 52.2909 7.33154 52.2336C7.3387 52.1763 7.35482 52.1226 7.3781 52.0778C7.40138 52.0313 7.4354 51.9937 7.48196 51.965C7.52673 51.9364 7.58582 51.9203 7.66103 51.9185V51.9167ZM7.76489 52.9302C7.8025 52.9159 7.83831 52.8962 7.87592 52.8693C7.91352 52.8425 7.94576 52.8103 7.97441 52.7762C8.00306 52.7404 8.02634 52.7028 8.04425 52.6616C8.06215 52.6204 8.06932 52.5793 8.06753 52.5381C8.06753 52.4951 8.0532 52.4557 8.02992 52.4217C8.00664 52.3859 7.9762 52.3572 7.94218 52.3339C7.90278 52.3071 7.86696 52.2892 7.83473 52.2802C7.8025 52.2695 7.77743 52.2695 7.75594 52.2784C7.73445 52.2874 7.71834 52.3053 7.70759 52.3303C7.69685 52.3572 7.69148 52.393 7.69327 52.4414C7.70222 52.5416 7.71296 52.633 7.72729 52.71C7.74161 52.7888 7.75415 52.8622 7.76668 52.932L7.76489 52.9302Z" fill="white" stroke="white" stroke-width="0.358144" stroke-linecap="round" stroke-linejoin="round"/>
<path d="M9.51075 51.7932C9.53582 51.7914 9.56089 51.7932 9.58596 51.795C9.61103 51.7986 9.63251 51.804 9.65221 51.8147C9.67191 51.8255 9.68803 51.8398 9.70056 51.8577C9.7131 51.8756 9.72026 51.8989 9.72205 51.9275C9.72742 52.0009 9.71847 52.0762 9.69698 52.1532C9.67549 52.2302 9.64326 52.3054 9.60386 52.377C9.56447 52.4486 9.5197 52.5185 9.46777 52.5811C9.41584 52.6456 9.3657 52.7011 9.31377 52.7495L9.346 53.1291C9.346 53.1452 9.34063 53.1613 9.3263 53.1775C9.31197 53.1918 9.29228 53.2043 9.26721 53.2115C9.23856 53.2204 9.20453 53.2276 9.16514 53.2294C9.12574 53.233 9.08813 53.2312 9.05232 53.2294C9.03799 53.2294 9.02725 53.224 9.01651 53.2186C9.00576 53.2115 8.9986 53.2043 8.99144 53.1954C8.98427 53.1864 8.9789 53.1774 8.97532 53.1685C8.97174 53.1595 8.96995 53.1506 8.96995 53.1434L8.97532 52.8014C8.90727 52.7692 8.84281 52.7244 8.78013 52.6689C8.71746 52.6134 8.66194 52.5507 8.6118 52.4827C8.56166 52.4146 8.52227 52.3412 8.49003 52.2624C8.45959 52.1854 8.43989 52.1066 8.43452 52.0278C8.43273 51.9992 8.43631 51.9723 8.44706 51.9508C8.4578 51.9293 8.47213 51.9096 8.49182 51.8953C8.51152 51.881 8.53301 51.8684 8.55808 51.8613C8.58315 51.8541 8.61001 51.8487 8.63687 51.8469C8.67448 51.8434 8.71029 51.8541 8.74074 51.8774C8.77118 51.9007 8.79267 51.9311 8.80341 51.9669C8.81953 52.026 8.83743 52.0815 8.85892 52.1353C8.88041 52.1872 8.90727 52.2409 8.93951 52.2928C8.96637 52.3358 8.98965 52.368 9.01113 52.3895C9.03262 52.411 9.05232 52.4271 9.07202 52.4325C9.09172 52.4397 9.11141 52.4379 9.12932 52.4289C9.14723 52.42 9.16693 52.4057 9.18842 52.3842C9.21349 52.3573 9.23497 52.3233 9.25288 52.2839C9.27079 52.2445 9.28691 52.2015 9.30302 52.1567C9.31735 52.112 9.33167 52.0672 9.34242 52.0224C9.35495 51.9777 9.3657 51.9383 9.37823 51.906C9.38719 51.8792 9.4033 51.8541 9.423 51.8308C9.4427 51.8093 9.47135 51.7968 9.50716 51.7932H9.51075Z" fill="white" stroke="white" stroke-width="0.358144" stroke-linecap="round" stroke-linejoin="round"/>
<path d="M6.31351 54.0964C6.34932 54.1 6.37618 54.1125 6.39588 54.134C6.41558 54.1555 6.4317 54.1823 6.44065 54.2164C6.4496 54.2486 6.45498 54.2844 6.45677 54.3238C6.45677 54.3632 6.45677 54.4008 6.45318 54.4384C6.45139 54.4688 6.44781 54.5047 6.44423 54.5494C6.44065 54.5942 6.43349 54.6425 6.42632 54.6945C6.41916 54.7464 6.41021 54.8019 6.39767 54.8592C6.38693 54.9165 6.3726 54.972 6.35469 55.0258C6.33858 55.0795 6.31888 55.1314 6.2956 55.1798C6.27232 55.2281 6.24725 55.2693 6.21681 55.3051C6.18637 55.3409 6.15055 55.366 6.11295 55.3857C6.07355 55.4036 6.03057 55.4108 5.98222 55.4054C5.92492 55.4 5.87299 55.3803 5.82643 55.3499C5.77987 55.3176 5.73869 55.28 5.70108 55.2353C5.66348 55.1905 5.63303 55.1422 5.60617 55.0884C5.57931 55.0347 5.55782 54.9828 5.54171 54.9344C5.51664 54.9738 5.48798 55.0186 5.45575 55.0669C5.42352 55.1153 5.3895 55.1601 5.3501 55.2012C5.3107 55.2424 5.26952 55.2765 5.22296 55.3015C5.1764 55.3266 5.12447 55.3373 5.06896 55.332C5.01702 55.3266 4.97405 55.3087 4.94002 55.2783C4.90421 55.2478 4.87556 55.2084 4.85407 55.1601C4.83258 55.1117 4.81646 55.0562 4.80572 54.9953C4.79498 54.9344 4.7896 54.87 4.78781 54.8037C4.78602 54.7375 4.78781 54.6694 4.79139 54.6014C4.79677 54.5333 4.80393 54.4688 4.81288 54.408C4.82184 54.3471 4.83258 54.2898 4.84332 54.2396C4.85407 54.1895 4.86481 54.1483 4.87377 54.1161C4.88093 54.0928 4.88988 54.0713 4.90063 54.0516C4.91137 54.0319 4.92212 54.0158 4.93644 54.0015C4.95077 53.9871 4.96688 53.9764 4.98479 53.9692C5.0027 53.9621 5.02419 53.9603 5.04747 53.9621C5.0797 53.9657 5.10835 53.9692 5.13521 53.9764C5.16028 53.9818 5.18356 53.9925 5.19968 54.005C5.21759 54.0176 5.23012 54.0355 5.23907 54.0588C5.24803 54.0803 5.24982 54.1107 5.24624 54.1465C5.24086 54.1949 5.2337 54.2414 5.22475 54.288C5.21579 54.3345 5.20505 54.3811 5.1961 54.4259C5.18714 54.4724 5.17819 54.5172 5.16924 54.5638C5.16028 54.6085 5.15491 54.6533 5.15133 54.6963C5.14596 54.75 5.14417 54.7948 5.14775 54.8306C5.14954 54.8664 5.15491 54.8897 5.16566 54.9022C5.17461 54.9147 5.18893 54.9147 5.20684 54.9022C5.22475 54.8897 5.24445 54.8628 5.26952 54.8216C5.28205 54.8001 5.29638 54.7733 5.31249 54.7392C5.32861 54.7052 5.34294 54.6694 5.35905 54.6318C5.37517 54.5924 5.38949 54.5548 5.40382 54.5136C5.41815 54.4742 5.42889 54.4366 5.43964 54.4026C5.44501 54.3865 5.44859 54.3721 5.45396 54.356C5.45933 54.3417 5.4665 54.3274 5.47545 54.3166C5.4844 54.3059 5.49515 54.2969 5.50768 54.2916C5.52022 54.2862 5.53812 54.2844 5.55782 54.2862C5.57931 54.288 5.59901 54.2898 5.61871 54.2916C5.63841 54.2916 5.6581 54.2951 5.67601 54.2987C5.70287 54.3041 5.72078 54.3095 5.73331 54.3184C5.74585 54.3274 5.7548 54.3363 5.75838 54.3489C5.76376 54.3596 5.76555 54.3739 5.76734 54.3901C5.76913 54.4062 5.77092 54.4241 5.77629 54.4456C5.78166 54.4778 5.78703 54.5118 5.7942 54.5458C5.80136 54.5799 5.80673 54.6139 5.81211 54.6461C5.81748 54.6784 5.82464 54.7088 5.83001 54.7375C5.83539 54.7661 5.84076 54.7894 5.84613 54.8073C5.86583 54.8932 5.88732 54.9523 5.9088 54.9846C5.93029 55.0168 5.94999 55.0276 5.9679 55.0186C5.98581 55.0096 6.00192 54.9828 6.01625 54.938C6.03057 54.8932 6.04132 54.8395 6.05027 54.7733C6.05743 54.7195 6.06281 54.6676 6.06639 54.6175C6.06997 54.5673 6.07355 54.5208 6.07534 54.4778C6.07534 54.4402 6.07713 54.4026 6.07892 54.3632C6.08071 54.3238 6.07892 54.2826 6.08071 54.2396C6.0843 54.2092 6.09325 54.1841 6.10757 54.1644C6.1219 54.1447 6.13981 54.1286 6.1613 54.1179C6.18279 54.1071 6.20606 54.1 6.23293 54.0964C6.25979 54.0928 6.28665 54.0928 6.3153 54.0964H6.31351Z" fill="white" stroke="white" stroke-width="0.358144" stroke-linecap="round" stroke-linejoin="round"/>
<path d="M7.12691 54.1016C7.18422 54.1016 7.23436 54.1159 7.27912 54.141C7.32389 54.166 7.3615 54.2018 7.39373 54.2466C7.42775 54.2914 7.45462 54.3415 7.47789 54.4006C7.50117 54.4579 7.52087 54.5188 7.53699 54.5833C7.55311 54.6477 7.56564 54.7122 7.57459 54.7785C7.58355 54.8447 7.59071 54.9092 7.59429 54.9701C7.59966 55.0309 7.60324 55.0882 7.60504 55.1402C7.60683 55.1921 7.60862 55.2351 7.60862 55.2709C7.60862 55.2906 7.60862 55.3121 7.60504 55.3318C7.60145 55.3515 7.59429 55.373 7.58355 55.3909C7.5728 55.4088 7.55848 55.4249 7.53878 55.4374C7.51908 55.45 7.49401 55.4589 7.46357 55.4643C7.40806 55.4733 7.36508 55.4697 7.33464 55.4571C7.30598 55.4428 7.2845 55.4231 7.27196 55.3945C7.25943 55.3658 7.25226 55.3318 7.25226 55.2924C7.25226 55.253 7.25226 55.21 7.25226 55.1653L6.90844 55.1849C6.90486 55.2136 6.89949 55.244 6.89412 55.2763C6.88875 55.3085 6.878 55.339 6.86547 55.3658C6.85114 55.3927 6.83323 55.4159 6.80995 55.4356C6.78668 55.4536 6.75623 55.4625 6.71863 55.4625C6.65416 55.4625 6.60223 55.45 6.56642 55.4267C6.5306 55.4034 6.5127 55.3569 6.5127 55.2924C6.5127 55.2745 6.51628 55.2494 6.52165 55.2172C6.52702 55.1849 6.53418 55.1491 6.54314 55.1115C6.55209 55.0721 6.56105 55.0327 6.57179 54.9898C6.58253 54.9468 6.59328 54.9056 6.60402 54.8662C6.61477 54.8268 6.62551 54.791 6.63446 54.757C6.64342 54.7247 6.65058 54.6979 6.65774 54.6782C6.66849 54.6424 6.68102 54.603 6.69714 54.5618C6.71147 54.5188 6.72937 54.4776 6.74907 54.4346C6.76877 54.3917 6.79205 54.3523 6.81712 54.3111C6.84219 54.2717 6.87084 54.2359 6.90307 54.2054C6.93531 54.175 6.96933 54.1499 7.00693 54.132C7.04454 54.1141 7.08573 54.1051 7.13049 54.1051L7.12691 54.1016ZM7.2075 54.7086C7.19675 54.6531 7.18422 54.6083 7.17168 54.5761C7.15915 54.5439 7.14482 54.5278 7.1287 54.5242C7.11259 54.5206 7.09647 54.5349 7.07856 54.5654C7.06066 54.5958 7.04275 54.6424 7.02305 54.7086C7.01052 54.7498 6.99798 54.791 6.98724 54.8322C6.97649 54.8734 6.96575 54.9145 6.955 54.9539L7.23794 54.9396C7.23256 54.9002 7.22898 54.8608 7.2254 54.8232C7.22182 54.7838 7.21645 54.7462 7.2075 54.7086Z" fill="white" stroke="white" stroke-width="0.358144" stroke-linecap="round" stroke-linejoin="round"/>
<path d="M8.22474 54.4328C8.20325 54.4185 8.17819 54.4131 8.15312 54.4131C8.12805 54.4131 8.10656 54.4203 8.09223 54.431C8.0779 54.4418 8.07253 54.4579 8.07611 54.4794C8.0797 54.5009 8.10118 54.5241 8.13879 54.551C8.16386 54.5689 8.19072 54.5886 8.22295 54.6083C8.25519 54.628 8.28742 54.6495 8.32144 54.6746C8.35547 54.6996 8.38949 54.7247 8.42172 54.7516C8.45396 54.7802 8.4844 54.8107 8.51126 54.8447C8.53812 54.8787 8.55961 54.9145 8.57573 54.9557C8.59184 54.9951 8.6008 55.0399 8.60259 55.0882C8.60438 55.1437 8.59542 55.1939 8.57214 55.2404C8.55066 55.2852 8.52021 55.3246 8.48261 55.3586C8.445 55.3926 8.40203 55.4177 8.35188 55.4374C8.30174 55.4571 8.25161 55.4661 8.19788 55.4678C8.15312 55.4678 8.11014 55.4643 8.06358 55.4553C8.01881 55.4446 7.97583 55.4302 7.93465 55.4088C7.89346 55.3873 7.85585 55.364 7.82183 55.3335C7.78781 55.3031 7.76095 55.2709 7.73946 55.2315C7.72692 55.2082 7.71976 55.1813 7.71797 55.1527C7.71618 55.124 7.72155 55.0972 7.7323 55.0739C7.74304 55.0506 7.76095 55.0291 7.78244 55.0112C7.80393 54.9951 7.83258 54.9861 7.8666 54.9844C7.88988 54.9844 7.91495 54.9915 7.93823 55.0094C7.96151 55.0273 7.98658 55.047 8.00986 55.0685C8.03493 55.09 8.06 55.1097 8.08686 55.1276C8.11372 55.1455 8.14416 55.1545 8.17639 55.1527C8.21937 55.1527 8.24623 55.1384 8.25698 55.1169C8.26772 55.0936 8.26056 55.0649 8.23549 55.0273C8.21937 55.0058 8.19788 54.9844 8.17281 54.9647C8.14774 54.9432 8.12088 54.9253 8.09223 54.9056C8.06358 54.8877 8.03672 54.8697 8.00986 54.8554C7.983 54.8393 7.96151 54.825 7.9436 54.8124C7.91137 54.7892 7.88093 54.7641 7.85227 54.7354C7.82183 54.7068 7.79497 54.6763 7.77169 54.6423C7.74841 54.6083 7.7305 54.5725 7.71439 54.5367C7.70006 54.4991 7.69111 54.4615 7.69111 54.4203C7.68932 54.3576 7.70006 54.3039 7.72513 54.2591C7.7502 54.2143 7.78423 54.1785 7.8272 54.1517C7.87018 54.1248 7.91853 54.1051 7.97225 54.0944C8.02597 54.0836 8.08149 54.08 8.13521 54.0836C8.19072 54.0872 8.24265 54.0979 8.29458 54.1159C8.34651 54.1338 8.38949 54.157 8.4271 54.1875C8.45575 54.2108 8.48082 54.234 8.50052 54.2591C8.522 54.2842 8.53275 54.3128 8.53454 54.3469C8.53454 54.3648 8.53096 54.3827 8.5238 54.3988C8.51663 54.4149 8.5041 54.431 8.49156 54.4453C8.47724 54.4597 8.46291 54.4722 8.445 54.483C8.4271 54.4937 8.40919 54.5026 8.39307 54.508C8.36979 54.5152 8.35188 54.517 8.33935 54.5152C8.32502 54.5134 8.31428 54.508 8.30354 54.5009C8.29279 54.4937 8.28205 54.4847 8.26951 54.474C8.25698 54.4633 8.24265 54.4507 8.22295 54.4382L8.22474 54.4328Z" fill="white" stroke="white" stroke-width="0.358144" stroke-linecap="round" stroke-linejoin="round"/>
<path d="M9.43371 54.0514C9.4534 54.0514 9.47668 54.0514 9.50354 54.0514C9.5304 54.0514 9.55548 54.0585 9.58055 54.0657C9.60562 54.0728 9.62531 54.0854 9.64143 54.1015C9.65934 54.1176 9.66829 54.1391 9.67008 54.166C9.67187 54.2 9.67008 54.2358 9.67008 54.2734C9.67008 54.311 9.66471 54.3468 9.66471 54.3808C9.66292 54.5313 9.66471 54.6835 9.67545 54.8321C9.67904 54.9019 9.6862 54.9718 9.69515 55.0416C9.70411 55.1115 9.71127 55.1813 9.71485 55.2511C9.71664 55.2816 9.71127 55.3049 9.70052 55.321C9.68978 55.3389 9.67545 55.3514 9.65755 55.3622C9.63964 55.3711 9.61815 55.3783 9.59487 55.3819C9.57159 55.3854 9.54652 55.389 9.52324 55.389C9.49101 55.3908 9.46415 55.3854 9.44087 55.3711C9.41759 55.3568 9.40326 55.3335 9.3961 55.3013C9.38357 55.2404 9.37282 55.1795 9.36387 55.1186C9.35671 55.0577 9.34775 54.9951 9.3388 54.9342C9.28508 54.9378 9.22956 54.9413 9.17584 54.9449C9.12212 54.9485 9.06661 54.9539 9.01289 54.9592C9.01289 55.0166 9.01647 55.0739 9.02005 55.1312C9.02363 55.1885 9.02542 55.2458 9.02542 55.3031C9.02542 55.346 9.01468 55.3765 8.99677 55.3926C8.97707 55.4087 8.94842 55.4195 8.90902 55.4248C8.89828 55.4248 8.88933 55.4284 8.88037 55.4302C8.87142 55.4302 8.86067 55.432 8.85172 55.4338C8.81412 55.4356 8.78188 55.4302 8.75502 55.4141C8.72816 55.398 8.71205 55.3711 8.70667 55.3317C8.69772 55.2762 8.69235 55.2207 8.68877 55.1652C8.68518 55.1097 8.6816 55.0542 8.67802 54.9986C8.66907 54.8572 8.6637 54.7121 8.65832 54.5635C8.65295 54.4149 8.65832 54.2698 8.67086 54.1266C8.67265 54.1104 8.67802 54.0961 8.68698 54.0836C8.69593 54.0711 8.70488 54.0603 8.71742 54.0514C8.72995 54.0424 8.74249 54.0352 8.7586 54.0317C8.77293 54.0263 8.78905 54.0245 8.80337 54.0227C8.82128 54.0227 8.84456 54.0227 8.86963 54.0227C8.8947 54.0227 8.92156 54.0263 8.94663 54.0317C8.9717 54.037 8.99319 54.046 9.0111 54.0585C9.029 54.0711 9.03796 54.089 9.03975 54.114V54.1301C9.03617 54.2286 9.03258 54.3289 9.02542 54.4328C9.02005 54.5366 9.01468 54.6369 9.01289 54.7372C9.06482 54.7318 9.11496 54.7283 9.1651 54.7229C9.21524 54.7193 9.26538 54.7157 9.31731 54.7121C9.30836 54.6226 9.30119 54.5313 9.29582 54.4364C9.28866 54.3415 9.28866 54.2501 9.29582 54.1588C9.29582 54.1409 9.30119 54.1266 9.31015 54.114C9.3191 54.1015 9.32984 54.0908 9.34417 54.0818C9.35671 54.0728 9.37282 54.0675 9.38894 54.0621C9.40505 54.0567 9.42117 54.0549 9.4355 54.0531L9.43371 54.0514Z" fill="white" stroke="white" stroke-width="0.358144" stroke-linecap="round" stroke-linejoin="round"/>
<path d="M5.29015 56.6264C5.59278 56.4957 6.03151 56.6335 6.07986 56.9595C6.23923 56.7016 6.49172 56.4813 6.79256 56.4473C7.09341 56.4151 7.42648 56.6318 7.4426 56.9344C7.49811 56.6013 7.62167 56.2503 7.90639 56.0695C8.19112 55.8886 8.66208 55.9996 8.72654 56.3309C8.74266 56.1124 9.00232 55.9692 9.21362 56.0265C9.42493 56.0838 9.57177 56.2861 9.62191 56.4992C9.69174 56.279 9.92991 56.1232 10.1609 56.1501C10.3919 56.1769 10.5871 56.3828 10.605 56.6138C10.6444 56.5028 10.8127 56.4957 10.9005 56.5745C10.9882 56.6532 11.0151 56.7768 11.0366 56.8914C11.0867 57.1582 11.1369 57.4412 11.0455 57.6972C10.9094 58.0769 10.6014 58.4619 10.2254 58.6051C8.48121 59.2749 6.12104 59.3357 4.33748 58.7788C3.75192 58.5962 2.94967 58.1002 3.19321 57.2478C3.42959 56.4205 4.2372 56.7696 4.62579 57.2961C4.77442 57.0508 5.01617 56.7464 5.29015 56.6264Z" fill="#F8B62D" stroke="#5D3C28" stroke-width="0.166537" stroke-linecap="round" stroke-linejoin="round"/>
<path d="M6.41531 58.1736C6.70211 58.1736 6.93462 57.9411 6.93462 57.6543C6.93462 57.3675 6.70211 57.135 6.41531 57.135C6.1285 57.135 5.896 57.3675 5.896 57.6543C5.896 57.9411 6.1285 58.1736 6.41531 58.1736Z" fill="white" stroke="#5D3C28" stroke-width="0.166537" stroke-linecap="round" stroke-linejoin="round"/>
<path d="M8.23866 57.0418C8.37909 57.0418 8.49294 56.9279 8.49294 56.7875C8.49294 56.6471 8.37909 56.5332 8.23866 56.5332C8.09822 56.5332 7.98438 56.6471 7.98438 56.7875C7.98438 56.9279 8.09822 57.0418 8.23866 57.0418Z" fill="white" stroke="#5D3C28" stroke-width="0.166537" stroke-miterlimit="10"/>
<path d="M9.53376 57.2211C9.71177 57.2211 9.85609 57.0768 9.85609 56.8987C9.85609 56.7207 9.71177 56.5764 9.53376 56.5764C9.35574 56.5764 9.21143 56.7207 9.21143 56.8987C9.21143 57.0768 9.35574 57.2211 9.53376 57.2211Z" fill="white" stroke="#5D3C28" stroke-width="0.166537" stroke-miterlimit="10"/>
<path d="M8.37911 58.3759C8.49086 58.3759 8.58146 58.2853 8.58146 58.1735C8.58146 58.0618 8.49086 57.9712 8.37911 57.9712C8.26735 57.9712 8.17676 58.0618 8.17676 58.1735C8.17676 58.2853 8.26735 58.3759 8.37911 58.3759Z" fill="white" stroke="#5D3C28" stroke-width="0.166537" stroke-miterlimit="10"/>
<g opacity="0.67">
<path d="M5.38602 48.2263C5.38065 48.3015 5.2356 48.3427 4.90252 48.3373C4.56945 48.3302 4.04835 48.2782 3.31057 48.0992C2.85036 47.9846 2.49042 47.8628 2.21107 47.7518C2.07318 47.698 1.93172 47.6372 1.81711 47.5458C1.75981 47.4993 1.70967 47.4455 1.67206 47.3882C1.63625 47.3345 1.60401 47.2557 1.59685 47.2002C1.56462 46.9585 1.69355 46.817 1.78488 46.7812C1.87979 46.7472 1.9156 46.7866 1.92276 46.817C1.94067 46.8815 1.83502 46.9477 1.91739 47.1393C1.9353 47.168 1.98186 47.2163 2.0517 47.2539C2.12511 47.2951 2.22898 47.3292 2.36507 47.3739C2.63368 47.4599 2.96317 47.5655 3.37504 47.673C4.154 47.8735 4.66257 47.9505 4.97057 48.0257C5.27858 48.0956 5.38781 48.1547 5.38244 48.2281L5.38602 48.2263Z" fill="white"/>
</g>
<g opacity="0.67">
<path d="M1.64698 56.6159C1.34435 56.6159 1.2566 55.7152 1.22616 53.3389C1.18677 50.3699 1.36405 49.7754 1.64698 49.7754C1.91201 49.7754 2.0875 50.5006 2.0875 53.2727C2.0875 55.8907 1.93171 56.6159 1.64698 56.6159Z" fill="white"/>
</g>
<path d="M49.7611 33.8556C50.7209 32.9441 50.592 31.157 49.5122 30.3923C49.1272 30.1201 48.5738 29.7709 48.7583 29.3358C48.8156 29.1997 48.9392 29.1048 49.0412 28.9974C49.582 28.4315 49.4979 27.3964 48.8711 26.9255C48.5165 26.6587 48.0474 26.5727 47.7089 26.2862C47.3973 26.023 47.238 25.6254 47.0052 25.2906C46.3677 24.3701 45.0945 23.9457 44.0326 24.2985C43.3252 24.5331 42.3923 24.9987 41.9804 24.3773C41.898 24.2537 41.8622 24.1069 41.8049 23.9708C41.4271 23.0611 40.1252 22.9089 39.4322 23.5195C38.6962 24.1678 39.2155 24.6405 38.3381 25.2601C37.6791 25.7257 35.7881 25.9871 35.4604 26.5638C35.0503 27.2836 35.9869 28.179 35.6036 28.906C35.4335 29.2266 35.0055 29.2749 34.6814 29.4379C34.1317 29.7118 33.8541 30.387 33.949 30.994C34.0439 31.5993 34.4576 32.124 34.9697 32.4606C35.4496 32.7758 36.105 33.0856 36.0836 33.6604C36.0746 33.9021 35.9313 34.1224 35.9027 34.3624C35.8346 34.9103 36.2931 35.5926 36.8124 35.7806C37.3317 35.9686 37.9692 35.7842 38.4276 36.0922C38.8663 36.3877 38.8037 37.0449 39.1493 37.4442C39.4967 37.8435 40.3598 38.0047 40.8576 37.8274C41.1226 37.7325 41.3214 37.5104 41.5757 37.3923C42.3296 37.0413 43.1336 37.6913 43.8034 38.1855C44.4713 38.6798 45.492 38.7353 45.8484 37.9832C46.0077 37.6465 46.0382 37.4621 46.0382 37.0896C46.0382 36.7172 46.2244 36.2659 46.5969 36.2444C46.9246 36.2247 47.1842 36.556 47.5119 36.5739C48.1727 36.6097 48.1978 35.6123 48.4968 35.0213C48.7583 34.5056 49.3439 34.2531 49.7647 33.8538L49.7611 33.8556Z" fill="#F8B62D" stroke="#5D3C28" stroke-width="0.179072" stroke-linecap="round" stroke-linejoin="round"/>
<path d="M41.8045 23.9671C41.8618 24.1032 41.8976 24.2501 41.98 24.3736C42.3919 24.995 43.3248 24.5294 44.0322 24.2948C45.0959 23.9421 46.3673 24.3665 47.0048 25.2869C47.2376 25.6218 47.3969 26.0193 47.7085 26.2825C48.047 26.569 48.5161 26.6568 48.8707 26.9218C49.4975 27.391 49.5816 28.4278 49.0408 28.9937C48.9387 29.1011 48.8152 29.196 48.7579 29.3321C48.5734 29.7673 49.125 30.1165 49.5118 30.3887C50.5916 31.1533 50.7205 32.9404 49.7607 33.8519C49.3417 34.2512 48.7561 34.5019 48.4929 35.0195C48.1938 35.6104 48.1687 36.6078 47.508 36.572C47.1803 36.5541 46.9206 36.2228 46.5929 36.2425C46.2204 36.264 46.0324 36.7135 46.0342 37.0878C46.0342 37.4602 46.0055 37.6447 45.8444 37.9813C45.488 38.7316 44.4673 38.6779 43.7994 38.1837C43.1314 37.6894 42.3256 37.0394 41.5717 37.3904C41.3174 37.5086 41.1187 37.7306 40.8536 37.8255C40.3558 38.0028 39.4909 37.8416 39.1453 37.4423C38.7997 37.043 38.8624 36.3858 38.4236 36.0903C37.9652 35.7823 37.3259 35.9668 36.8084 35.7787C36.2909 35.5907 35.8307 34.9067 35.8987 34.3605C35.9292 34.1187 36.0706 33.9003 36.0796 33.6567C36.1011 33.0837 35.4457 32.7721 34.9657 32.4569C34.4536 32.1203 34.0399 31.5956 33.945 30.9903C33.8501 30.3851 34.1295 29.7082 34.6774 29.4342C35.0016 29.273 35.4313 29.2247 35.5997 28.9024C35.9829 28.1753 34.8583 27.4716 35.3221 26.7857C36.3553 25.2564 37.2704 25.9029 37.9294 25.4373C38.8068 24.8159 38.6922 24.1659 39.4282 23.5159C40.1212 22.9052 41.4231 23.0574 41.8009 23.9671H41.8045Z" fill="#E6C89B" stroke="white" stroke-width="0.179072" stroke-linecap="round" stroke-linejoin="round"/>
<path opacity="0.62" d="M39.8526 25.9782C40.9485 26.168 42.0641 27.1045 43.0311 26.5548C43.375 26.3596 43.6006 26.0086 43.9068 25.7561C44.5407 25.2332 45.4844 25.1974 46.2365 25.5251C46.9886 25.8546 47.5688 26.4957 47.9843 27.203C48.0989 27.3964 48.2063 27.6238 48.1419 27.8387C48.0953 27.9999 47.961 28.1199 47.8303 28.2255C47.4703 28.5156 47.0674 28.7842 46.8561 29.1943C46.6448 29.6044 46.7308 30.215 47.1588 30.3851C47.3235 30.4514 47.5079 30.4406 47.6852 30.4514C49.1017 30.5355 50.16 32.226 49.6192 33.5368C49.0766 34.8476 47.1337 35.2971 46.07 34.3569C45.5525 33.8985 45.0815 33.141 44.4064 33.2861C43.9516 33.3828 43.6973 33.8699 43.5934 34.3229C43.4896 34.776 43.4699 35.2648 43.2138 35.6534C42.895 36.1387 42.2683 36.3482 41.6881 36.3232C41.1079 36.2981 40.5581 36.0725 40.0209 35.8504C39.7846 35.7537 39.5428 35.6516 39.3655 35.4672C38.8874 34.9694 39.1005 34.1653 39.2079 33.4831C39.3154 32.8008 39.0611 31.866 38.3699 31.8768C38.0404 31.8822 37.7664 32.1185 37.4745 32.2708C36.846 32.5949 36.0026 32.4982 35.5226 31.9771C35.0427 31.4578 35.0427 30.5409 35.5746 30.0753C36.1225 29.5936 36.9964 29.8013 37.3563 30.3994C37.9312 29.565 36.9767 28.6875 37.1522 27.7635C37.3814 26.5601 38.6707 25.7704 39.849 25.9746L39.8526 25.9782Z" fill="#F9EFDD" stroke="white" stroke-width="0.179072" stroke-linecap="round" stroke-linejoin="round"/>
<path opacity="0.62" d="M36.7989 32.2187C36.8544 31.7961 37.0532 31.3591 37.4328 31.1675C37.6298 31.0672 37.8554 31.0422 38.0614 30.9634C38.672 30.7306 39.0319 29.982 38.8296 29.3589C38.7508 29.1171 38.5986 28.8843 38.6272 28.6318C38.6774 28.186 39.254 27.9979 39.6891 28.1036C40.1243 28.2092 40.5003 28.494 40.9373 28.5996C41.3724 28.7035 41.949 28.5137 41.9974 28.0678C42.0189 27.8636 41.9222 27.6684 41.829 27.4858C41.607 27.056 41.3867 26.6244 41.1647 26.1947C41.0626 25.9977 40.9587 25.7667 41.0465 25.5608C41.1754 25.2581 41.5945 25.251 41.9204 25.2921C42.3895 25.353 42.8694 25.4157 43.2921 25.6288C43.7147 25.8419 44.0764 26.2341 44.1194 26.705C44.1337 26.8608 44.1158 27.0292 44.2 27.1617C44.268 27.2691 44.3916 27.33 44.5115 27.373C45.4194 27.6971 46.5207 27.3497 47.3283 27.878C48.0393 28.3418 48.1951 29.4627 47.6399 30.1038C47.5289 30.2328 47.3946 30.342 47.3087 30.487C47.1027 30.8326 47.2102 31.275 47.3588 31.6474C47.5862 32.2187 47.9032 32.7774 47.9282 33.3916C47.9533 34.0058 47.5414 34.7024 46.9254 34.7042C46.6694 34.7042 46.4169 34.5878 46.1644 34.6308C45.6934 34.7113 45.4946 35.2862 45.4982 35.7625C45.5018 36.2388 45.6093 36.7492 45.3854 37.1718C45.0971 37.718 44.3217 37.8702 43.763 37.6069C43.2043 37.3437 42.8462 36.7707 42.6599 36.1815C42.4683 35.5691 42.3358 34.7973 41.7288 34.586C40.8728 34.2852 40.2156 35.4223 39.3471 35.6891C37.7945 36.1672 36.6395 33.4023 36.7971 32.2169L36.7989 32.2187Z" fill="#F9EFDD" stroke="white" stroke-width="0.179072" stroke-linecap="round" stroke-linejoin="round"/>
<path opacity="0.62" d="M39.6498 31.2196C39.1967 30.5356 39.0982 29.6277 39.3955 28.863C39.4671 28.6786 39.5746 28.4888 39.759 28.4189C39.8879 28.3706 40.0312 28.3903 40.1637 28.3545C40.6723 28.2202 40.649 27.4484 40.3249 27.0329C39.999 26.6193 39.494 26.3345 39.297 25.8475C39.0606 25.2619 39.4098 24.5295 39.9936 24.2895C40.5774 24.0496 41.299 24.2842 41.684 24.7838C42.069 25.2852 42.121 25.9979 41.8792 26.5817C41.8112 26.7464 41.7199 26.904 41.6787 27.0795C41.5587 27.597 41.9956 28.1664 42.5257 28.1861C43.0557 28.2041 43.5321 27.6668 43.4497 27.1422C43.3709 26.6497 42.8981 26.1662 43.1381 25.7293C43.3011 25.4338 43.6968 25.3765 44.0335 25.3711C44.7122 25.3586 45.432 25.4213 45.9854 25.8134C46.5387 26.2056 46.8377 27.0258 46.4599 27.5898C46.1752 28.0142 45.6308 28.1629 45.2028 28.444C44.7766 28.7252 44.465 29.3788 44.8447 29.7226C45.1007 29.9554 45.5144 29.8802 45.8117 29.7029C46.1089 29.5256 46.3542 29.2642 46.6712 29.1281C47.3588 28.8326 48.2596 29.3179 48.3885 30.0539C48.5192 30.7899 47.8387 31.5545 47.092 31.5115C46.6676 31.4864 46.2826 31.2483 45.8618 31.1856C45.441 31.1229 44.9038 31.3611 44.9235 31.7855C44.9432 32.1866 45.4052 32.3746 45.749 32.5824C46.3668 32.9548 46.7643 33.7517 46.5065 34.425C46.2486 35.0983 45.2225 35.3848 44.7569 34.8333C44.4185 34.434 44.4901 33.8466 44.4758 33.3237C44.4614 32.8008 44.2161 32.1651 43.695 32.1311C43.1345 32.0935 42.8158 32.7919 42.8426 33.3524C42.8695 33.9129 43.0683 34.5002 42.8588 35.0213C42.5543 35.777 41.5712 35.9758 40.7582 35.9131C40.1601 35.8666 39.5316 35.7197 39.1072 35.2935C38.6828 34.8673 38.5664 34.0973 38.998 33.6783C39.485 33.2073 40.3356 33.4437 40.8084 33.929C40.9301 34.0526 41.0573 34.2012 41.231 34.2101C41.4083 34.2191 41.5515 34.0776 41.6715 33.9487C43.2581 32.2278 40.3929 32.3442 39.6462 31.216L39.6498 31.2196Z" fill="#F9EFDD" stroke="white" stroke-width="0.179072" stroke-linecap="round" stroke-linejoin="round"/>
<path d="M40.4346 30.3333C41.0291 30.2473 41.5842 30.8687 42.1609 30.704C42.5602 30.5912 42.7679 30.0557 42.553 29.703C42.408 29.463 42.1322 29.3394 41.9281 29.146C41.7257 28.9526 41.6129 28.5873 41.8314 28.4118C41.9424 28.3223 42.0982 28.3187 42.2414 28.3241C42.9667 28.3563 43.7439 28.5694 44.1718 29.1568C44.4225 29.5024 44.444 30.1094 44.0411 30.2527C43.7206 30.3655 43.3338 30.1023 43.0419 30.2778C42.7321 30.464 42.8431 30.9565 43.092 31.2179C43.3409 31.4793 43.6901 31.6656 43.8316 31.9987C43.8728 32.0954 43.8925 32.21 43.8495 32.3049C43.7492 32.5305 43.409 32.4965 43.1995 32.364C42.99 32.2315 42.7948 32.0327 42.5477 32.0381C42.4653 32.3335 42.6032 32.6379 42.6963 32.9298C43.4448 35.2631 37.6697 30.7326 40.4328 30.3333H40.4346Z" fill="#F9EFDD" stroke="white" stroke-width="0.179072" stroke-linecap="round" stroke-linejoin="round"/>
<path d="M50.4011 32.0734C50.4011 32.0627 50.3993 32.0519 50.3976 32.0412C50.3868 31.9015 50.3617 31.7618 50.3277 31.6257C50.3188 31.5917 50.3098 31.5577 50.2991 31.5237C50.265 31.4109 50.2221 31.2998 50.1719 31.1942C50.1415 31.1279 50.1057 31.0652 50.0681 31.0026C49.9248 30.7644 49.7421 30.5531 49.5111 30.3901C49.3177 30.254 49.0832 30.0983 48.9202 29.9228C48.9005 29.9013 48.8808 29.878 48.8629 29.8565C48.759 29.7258 48.7017 29.5843 48.7286 29.4321C48.7322 29.4088 48.7393 29.3855 48.7483 29.3623C48.7519 29.3533 48.7537 29.3444 48.7573 29.3336C48.7608 29.3247 48.7662 29.3193 48.7698 29.3103C48.7984 29.253 48.8378 29.2011 48.8808 29.1528C48.9059 29.1259 48.9327 29.099 48.9596 29.074C48.9865 29.0471 49.0133 29.022 49.0384 28.9952C49.2067 28.8179 49.316 28.5958 49.3643 28.3595C49.384 28.2646 49.3948 28.1679 49.3948 28.0694C49.3965 27.8742 49.3625 27.679 49.2927 27.4981C49.2569 27.4086 49.2139 27.3208 49.162 27.2403C49.0832 27.1185 48.9847 27.011 48.8665 26.9233C48.7769 26.857 48.682 26.8015 48.5818 26.7514C48.2845 26.601 47.9568 26.4989 47.7025 26.284C47.6631 26.2518 47.6273 26.216 47.5915 26.1784C47.3497 25.9205 47.2011 25.5803 46.997 25.2866C46.8376 25.0556 46.6388 24.8568 46.4132 24.6939C45.7363 24.2032 44.8212 24.0295 44.0244 24.2945C43.9366 24.3232 43.8435 24.3572 43.7504 24.3912C43.2794 24.5613 42.7583 24.7565 42.368 24.6562C42.3286 24.6455 42.291 24.633 42.2551 24.6169C42.1459 24.5685 42.051 24.4897 41.974 24.3733C41.9543 24.3429 41.9364 24.3106 41.9203 24.2766C41.888 24.2104 41.8648 24.1405 41.8397 24.0707C41.8272 24.0349 41.8146 24.0008 41.8003 23.9668C41.7609 23.8701 41.7072 23.7842 41.6481 23.7054C41.6033 23.6445 41.555 23.5872 41.4995 23.537C41.0392 23.1073 40.2764 23.0356 39.7123 23.3239C39.6102 23.3759 39.5135 23.4403 39.4276 23.5173C39.1823 23.7322 39.03 23.9955 38.9029 24.2748C38.8689 24.3482 38.8367 24.4217 38.8062 24.4951C38.7937 24.5273 38.7793 24.5578 38.7668 24.59C38.2045 25.9456 37.3145 25.215 36.1756 25.8883C34.1969 27.0576 36.0574 28.0371 35.599 28.9038C35.5775 28.9432 35.5525 28.9791 35.5238 29.0131C35.4952 29.0471 35.4629 29.074 35.4289 29.1008C35.2212 29.2566 34.9203 29.3157 34.6768 29.4357C34.5389 29.5037 34.4189 29.5969 34.3169 29.7097C34.0107 30.0445 33.8728 30.537 33.9426 30.9918C33.9892 31.2945 34.1163 31.5774 34.2954 31.8263C34.3401 31.889 34.3885 31.9481 34.4386 32.0072C34.5908 32.1809 34.7699 32.3331 34.9615 32.4602C35.4414 32.7754 36.0968 33.0852 36.0754 33.66C36.0754 33.6833 36.0718 33.7084 36.0682 33.7316C36.0539 33.8373 36.0181 33.9394 35.9822 34.0432C35.9446 34.1489 35.9088 34.2545 35.8945 34.3638C35.8855 34.43 35.8873 34.4945 35.8945 34.5572C35.8945 34.5643 35.8963 34.5715 35.8981 34.5786C35.9052 34.6306 35.9196 34.6807 35.9357 34.7291C36.07 35.1051 36.4066 35.637 36.8024 35.7802C37.3217 35.9682 37.9592 35.7838 38.4176 36.0918C38.4731 36.1294 38.5251 36.1688 38.5752 36.21C38.6755 36.2942 38.765 36.3891 38.851 36.4893C39.0318 36.6989 38.8653 37.1053 39.0408 37.322C39.073 37.3632 39.107 37.4044 39.1411 37.4438C39.1608 37.4671 39.1805 37.4886 39.202 37.5101C39.2037 37.5118 39.2055 37.5154 39.2091 37.5172C39.5565 37.8807 40.3838 37.9918 40.8512 37.8252C40.8834 37.8127 40.9157 37.8001 40.9479 37.784C40.9801 37.7679 41.0088 37.7518 41.0392 37.7339C41.2183 37.6264 41.3795 37.4796 41.5693 37.3901C41.9686 37.2038 42.3841 37.3005 42.7852 37.5047C42.8747 37.5512 42.9661 37.6014 43.0538 37.6569C43.5982 37.9953 44.1085 38.4538 44.7639 38.3857C46.4723 38.2066 45.6521 36.9854 46.2968 36.3765C46.3702 36.3067 46.4598 36.2601 46.5636 36.2476C46.5726 36.2476 46.5815 36.2422 46.5905 36.2422C46.6908 36.2368 46.7839 36.2655 46.8752 36.3049C46.9325 36.33 46.9898 36.3604 47.0471 36.3926C47.0829 36.4141 47.1205 36.4338 47.1581 36.4535C47.2692 36.5126 47.382 36.5646 47.5109 36.5699C47.5807 36.5735 47.6416 36.5628 47.6989 36.5449C47.7562 36.5269 47.8064 36.4983 47.8529 36.4607C47.8941 36.4267 47.9335 36.3891 47.9675 36.3443C47.989 36.3156 48.0105 36.2834 48.0302 36.2494C48.0696 36.1831 48.1036 36.1079 48.1359 36.0273C48.152 35.9879 48.1663 35.9468 48.1806 35.9038C48.2093 35.8196 48.2379 35.7319 48.2648 35.6441C48.2791 35.5994 48.2917 35.5564 48.306 35.5116C48.3328 35.4239 48.3615 35.3361 48.3919 35.252C48.4224 35.1678 48.4564 35.0872 48.494 35.0138C48.5066 34.9887 48.5227 34.9672 48.537 34.9439C48.5961 34.8437 48.6641 34.7523 48.7429 34.67C48.7465 34.6664 48.7483 34.6646 48.7519 34.661C49.0456 34.3584 49.4485 34.1435 49.7601 33.8462C50.2382 33.3914 50.4459 32.7199 50.3993 32.0645L50.4011 32.0734Z" stroke="#5D3C28" stroke-width="0.537217" stroke-linecap="round" stroke-linejoin="round"/>
<path d="M5.59656 52.4233C5.62879 52.4341 5.65744 52.452 5.68251 52.4753C5.70937 52.4985 5.73086 52.5254 5.74877 52.5558C5.76667 52.5863 5.781 52.6185 5.78995 52.6525C5.79891 52.6866 5.80249 52.7188 5.79891 52.751C5.79174 52.8227 5.76667 52.8853 5.7237 52.9373C5.68072 52.9892 5.627 53.0304 5.56611 53.0626C5.50344 53.0948 5.43718 53.1163 5.36555 53.1289C5.29392 53.1414 5.22588 53.145 5.15962 53.1378C5.11664 53.1342 5.07187 53.1289 5.02532 53.1235C4.98055 53.1181 4.93757 53.1074 4.90176 53.0913C4.86415 53.0751 4.83371 53.0519 4.80864 53.0196C4.78357 52.9874 4.77103 52.9444 4.77103 52.8889C4.76745 52.7922 4.76745 52.6973 4.76924 52.6006C4.76924 52.5057 4.77641 52.4108 4.78536 52.3141C4.78894 52.2693 4.79431 52.221 4.79789 52.1726C4.80327 52.1243 4.81043 52.0777 4.82476 52.0329C4.83729 51.9882 4.85699 51.947 4.88206 51.9076C4.90713 51.87 4.94473 51.8378 4.99129 51.8109C5.04501 51.7805 5.10232 51.7608 5.1632 51.7518C5.22409 51.7428 5.28318 51.7411 5.34407 51.7464C5.396 51.7518 5.44972 51.7625 5.50702 51.7804C5.56432 51.7984 5.61625 51.8216 5.66281 51.8521C5.70937 51.8825 5.74698 51.9201 5.77563 51.9649C5.80428 52.0097 5.81682 52.0616 5.80965 52.1225C5.80607 52.1511 5.79891 52.1798 5.78637 52.2102C5.77384 52.2407 5.75772 52.2693 5.73802 52.298C5.71833 52.3248 5.69684 52.3499 5.67356 52.3732C5.64849 52.3965 5.62342 52.4126 5.59656 52.4251V52.4233ZM5.29751 52.837C5.3566 52.8244 5.39958 52.8083 5.42286 52.785C5.44614 52.7618 5.45509 52.7385 5.44972 52.7152C5.44434 52.6919 5.42644 52.6686 5.39599 52.6507C5.36555 52.631 5.32616 52.6203 5.27602 52.6167C5.24916 52.6167 5.2205 52.6167 5.19185 52.6203C5.1632 52.6239 5.13813 52.6293 5.11306 52.6346C5.11306 52.6704 5.11306 52.7045 5.11306 52.7403C5.11306 52.7743 5.11306 52.8101 5.11664 52.8441C5.1435 52.8477 5.17216 52.8495 5.2026 52.8495C5.23304 52.8495 5.26527 52.8441 5.29571 52.8388L5.29751 52.837ZM5.12201 52.2962C5.15425 52.2962 5.18469 52.2962 5.21334 52.2926C5.24199 52.2908 5.27065 52.2854 5.29751 52.2801C5.3369 52.2711 5.37272 52.255 5.40495 52.2317C5.43539 52.2084 5.45509 52.1869 5.46404 52.1619C5.473 52.1386 5.46762 52.1171 5.44972 52.0956C5.43181 52.0759 5.39241 52.0634 5.33511 52.058C5.28497 52.0526 5.24737 52.0526 5.2223 52.058C5.19544 52.0616 5.17574 52.0723 5.1632 52.0902C5.15067 52.1082 5.14171 52.1332 5.13813 52.1655C5.13455 52.1995 5.12918 52.2425 5.12381 52.2962H5.12201Z" fill="#5D3C28"/>
<path d="M5.93831 52.5255C5.93831 52.4449 5.95085 52.3697 5.97413 52.298C5.99741 52.2264 6.02785 52.1619 6.06725 52.1046C6.10664 52.0473 6.1532 51.999 6.20871 51.9578C6.26244 51.9166 6.32153 51.8862 6.386 51.8665C6.45046 51.8468 6.51672 51.8396 6.58835 51.845C6.65998 51.8504 6.7316 51.8701 6.80681 51.9023C6.86591 51.9292 6.91605 51.9614 6.95903 52.0026C7.002 52.0438 7.03603 52.0867 7.06289 52.1369C7.08975 52.187 7.10945 52.2407 7.12198 52.298C7.13452 52.3553 7.14168 52.4162 7.13989 52.4789C7.13989 52.5649 7.12556 52.649 7.0987 52.7332C7.07184 52.8156 7.03245 52.8908 6.98051 52.957C6.92858 53.0233 6.86591 53.0752 6.79249 53.1164C6.71907 53.1576 6.63491 53.1755 6.54 53.1755C6.45046 53.1755 6.36988 53.1558 6.29467 53.1218C6.22125 53.086 6.15678 53.0394 6.10306 52.9803C6.04934 52.9212 6.00815 52.8532 5.9795 52.7744C5.95085 52.6956 5.93652 52.615 5.93652 52.529L5.93831 52.5255ZM6.54537 52.8245C6.59014 52.8245 6.62953 52.8138 6.66177 52.7905C6.69579 52.7672 6.72265 52.7368 6.74414 52.701C6.76563 52.6651 6.78174 52.6257 6.79249 52.5828C6.80323 52.5398 6.80861 52.5004 6.80861 52.4628C6.80861 52.3947 6.79786 52.3392 6.77279 52.2962C6.74772 52.2533 6.71728 52.221 6.67967 52.2013C6.64207 52.1816 6.60088 52.1727 6.5579 52.1763C6.51493 52.1799 6.47374 52.196 6.43614 52.2228C6.39853 52.2497 6.3663 52.2891 6.34123 52.341C6.31616 52.3929 6.30362 52.4556 6.30183 52.5326C6.30183 52.5684 6.3072 52.6043 6.31795 52.6383C6.32869 52.6723 6.34481 52.7045 6.36451 52.7314C6.3842 52.76 6.40928 52.7815 6.43972 52.7994C6.47016 52.8156 6.50597 52.8245 6.54537 52.8263V52.8245Z" fill="#5D3C28"/>
<path d="M7.54189 51.7983C7.63143 51.7947 7.71917 51.8054 7.80513 51.8323C7.89287 51.8574 7.96987 51.8968 8.03971 51.9469C8.10955 51.9988 8.16685 52.0615 8.21162 52.1367C8.25639 52.2119 8.27967 52.2979 8.28325 52.3946C8.28683 52.4734 8.2743 52.5468 8.25102 52.6166C8.22595 52.6865 8.19192 52.7509 8.14895 52.81C8.10597 52.8691 8.05404 52.9229 7.99494 52.9694C7.93585 53.0178 7.87138 53.0572 7.80334 53.0894C7.78364 53.0983 7.76036 53.1091 7.7335 53.118C7.70664 53.127 7.67799 53.1359 7.64933 53.1449C7.62068 53.1539 7.59024 53.1574 7.5598 53.161C7.52936 53.1646 7.5007 53.1646 7.47205 53.161C7.4434 53.1574 7.41833 53.1503 7.39684 53.1377C7.37356 53.127 7.35566 53.1091 7.34133 53.0858C7.32879 53.0661 7.31984 53.0446 7.31089 53.0213C7.30193 52.9981 7.29477 52.973 7.2894 52.9479C7.27507 52.8906 7.26433 52.8351 7.25538 52.7814C7.24642 52.7277 7.23747 52.6721 7.23031 52.6202C7.22314 52.5683 7.21777 52.5128 7.21419 52.4591C7.21061 52.4053 7.20703 52.3498 7.20524 52.2925C7.20344 52.2316 7.20524 52.1725 7.2124 52.1152C7.21956 52.0579 7.23568 52.0042 7.25896 51.9594C7.28224 51.9129 7.31626 51.8753 7.36282 51.8466C7.40759 51.818 7.46668 51.8019 7.54189 51.8001V51.7983ZM7.64754 52.8136C7.68515 52.7993 7.72096 52.7796 7.75857 52.7527C7.79617 52.7259 7.82841 52.6936 7.85706 52.6596C7.88571 52.6238 7.90899 52.5862 7.9269 52.545C7.9448 52.5038 7.95197 52.4626 7.95018 52.4214C7.95018 52.3785 7.93585 52.3391 7.91257 52.3051C7.88929 52.2692 7.85885 52.2406 7.82483 52.2173C7.78543 52.1904 7.74962 52.1725 7.71738 52.1636C7.68515 52.1528 7.66008 52.1528 7.63859 52.1618C7.6171 52.1707 7.60098 52.1887 7.59024 52.2137C7.5795 52.2406 7.57412 52.2764 7.57592 52.3247C7.58487 52.425 7.59561 52.5164 7.60994 52.5934C7.62426 52.6721 7.6368 52.7456 7.64933 52.8154L7.64754 52.8136Z" fill="#5D3C28"/>
<path d="M9.39307 51.6746C9.41814 51.6728 9.44321 51.6746 9.46828 51.6764C9.49335 51.6799 9.51484 51.6853 9.53454 51.6961C9.55424 51.7068 9.57035 51.7211 9.58289 51.739C9.59542 51.7569 9.60259 51.7802 9.60438 51.8089C9.60975 51.8823 9.60079 51.9575 9.57931 52.0345C9.55782 52.1115 9.52558 52.1867 9.48619 52.2583C9.44679 52.33 9.40202 52.3998 9.35009 52.4625C9.29816 52.527 9.24802 52.5825 9.19609 52.6308L9.22832 53.0105C9.22832 53.0266 9.22295 53.0427 9.20863 53.0588C9.1943 53.0731 9.1746 53.0857 9.14953 53.0928C9.12088 53.1018 9.08686 53.1089 9.04746 53.1107C9.00807 53.1143 8.97046 53.1125 8.93464 53.1107C8.92032 53.1107 8.90958 53.1054 8.89883 53.1C8.88809 53.0928 8.88092 53.0857 8.87376 53.0767C8.8666 53.0678 8.86123 53.0588 8.85764 53.0498C8.85406 53.0409 8.85227 53.0319 8.85227 53.0248L8.85764 52.6827C8.7896 52.6505 8.72513 52.6057 8.66246 52.5502C8.59978 52.4947 8.54427 52.432 8.49413 52.364C8.44399 52.296 8.40459 52.2225 8.37236 52.1437C8.34192 52.0667 8.32222 51.9879 8.31685 51.9092C8.31506 51.8805 8.31864 51.8536 8.32938 51.8322C8.34013 51.8107 8.35445 51.791 8.37415 51.7766C8.39385 51.7623 8.41534 51.7498 8.44041 51.7426C8.46548 51.7355 8.49234 51.7301 8.5192 51.7283C8.5568 51.7247 8.59262 51.7355 8.62306 51.7587C8.6535 51.782 8.67499 51.8125 8.68573 51.8483C8.70185 51.9074 8.71976 51.9629 8.74125 52.0166C8.76274 52.0685 8.7896 52.1223 8.82183 52.1742C8.84869 52.2172 8.87197 52.2494 8.89346 52.2709C8.91495 52.2924 8.93464 52.3085 8.95434 52.3139C8.97404 52.321 8.99374 52.3192 9.01165 52.3103C9.02955 52.3013 9.04925 52.287 9.07074 52.2655C9.09581 52.2387 9.1173 52.2046 9.13521 52.1652C9.15311 52.1258 9.16923 52.0829 9.18535 52.0381C9.19967 51.9933 9.214 51.9485 9.22474 51.9038C9.23728 51.859 9.24802 51.8196 9.26056 51.7874C9.26951 51.7605 9.28563 51.7355 9.30533 51.7122C9.32502 51.6907 9.35367 51.6782 9.38949 51.6746H9.39307Z" fill="#5D3C28"/>
<path d="M6.19778 53.9777C6.2336 53.9813 6.26046 53.9938 6.28016 54.0153C6.29986 54.0368 6.31597 54.0637 6.32493 54.0977C6.33388 54.1299 6.33925 54.1657 6.34104 54.2051C6.34104 54.2445 6.34104 54.2821 6.33746 54.3198C6.33567 54.3502 6.33209 54.386 6.32851 54.4308C6.32493 54.4755 6.31776 54.5239 6.3106 54.5758C6.30344 54.6278 6.29448 54.6833 6.28195 54.7406C6.2712 54.7979 6.25688 54.8534 6.23897 54.9071C6.22285 54.9608 6.20316 55.0128 6.17988 55.0611C6.1566 55.1095 6.13153 55.1506 6.10108 55.1865C6.07064 55.2223 6.03483 55.2473 5.99722 55.267C5.95783 55.2849 5.91485 55.2921 5.8665 55.2867C5.8092 55.2814 5.75727 55.2617 5.71071 55.2312C5.66415 55.199 5.62296 55.1614 5.58536 55.1166C5.54775 55.0719 5.51731 55.0235 5.49045 54.9698C5.46359 54.9161 5.4421 54.8641 5.42598 54.8158C5.40091 54.8552 5.37226 54.8999 5.34003 54.9483C5.30779 54.9966 5.27377 55.0414 5.23438 55.0826C5.19498 55.1238 5.15379 55.1578 5.10723 55.1829C5.06068 55.2079 5.00874 55.2187 4.95323 55.2133C4.9013 55.2079 4.85832 55.19 4.8243 55.1596C4.78849 55.1292 4.75983 55.0898 4.73835 55.0414C4.71686 54.9931 4.70074 54.9375 4.69 54.8767C4.67925 54.8158 4.67388 54.7513 4.67209 54.6851C4.6703 54.6188 4.67209 54.5508 4.67567 54.4827C4.68104 54.4147 4.68821 54.3502 4.69716 54.2893C4.70611 54.2284 4.71686 54.1711 4.7276 54.121C4.73835 54.0708 4.74909 54.0297 4.75804 53.9974C4.76521 53.9741 4.77416 53.9527 4.7849 53.933C4.79565 53.9133 4.80639 53.8971 4.82072 53.8828C4.83504 53.8685 4.85116 53.8577 4.86907 53.8506C4.88698 53.8434 4.90846 53.8416 4.93174 53.8434C4.96398 53.847 4.99263 53.8506 5.01949 53.8577C5.04456 53.8631 5.06784 53.8739 5.08395 53.8864C5.10186 53.8989 5.1144 53.9168 5.12335 53.9401C5.1323 53.9616 5.1341 53.992 5.13051 54.0279C5.12514 54.0762 5.11798 54.1228 5.10903 54.1693C5.10007 54.2159 5.08933 54.2624 5.08037 54.3072C5.07142 54.3538 5.06247 54.3985 5.05351 54.4451C5.04456 54.4899 5.03919 54.5346 5.03561 54.5776C5.03023 54.6313 5.02844 54.6761 5.03202 54.7119C5.03382 54.7477 5.03919 54.771 5.04993 54.7835C5.05889 54.7961 5.07321 54.7961 5.09112 54.7835C5.10902 54.771 5.12872 54.7442 5.15379 54.703C5.16633 54.6815 5.18065 54.6546 5.19677 54.6206C5.21289 54.5866 5.22721 54.5508 5.24333 54.5131C5.25945 54.4738 5.27377 54.4361 5.2881 54.395C5.30242 54.3556 5.31317 54.318 5.32391 54.2839C5.32928 54.2678 5.33287 54.2535 5.33824 54.2374C5.34361 54.223 5.35077 54.2087 5.35973 54.198C5.36868 54.1872 5.37942 54.1783 5.39196 54.1729C5.40449 54.1675 5.4224 54.1657 5.4421 54.1675C5.46359 54.1693 5.48329 54.1711 5.50298 54.1729C5.52268 54.1729 5.54238 54.1765 5.56029 54.1801C5.58715 54.1854 5.60506 54.1908 5.61759 54.1998C5.63013 54.2087 5.63908 54.2177 5.64266 54.2302C5.64803 54.241 5.64982 54.2553 5.65161 54.2714C5.65341 54.2875 5.6552 54.3054 5.66057 54.3269C5.66594 54.3591 5.67131 54.3932 5.67848 54.4272C5.68564 54.4612 5.69101 54.4952 5.69638 54.5275C5.70175 54.5597 5.70892 54.5901 5.71429 54.6188C5.71966 54.6475 5.72503 54.6707 5.73041 54.6886C5.7501 54.7746 5.77159 54.8337 5.79308 54.8659C5.81457 54.8982 5.83427 54.9089 5.85217 54.8999C5.87008 54.891 5.8862 54.8641 5.90052 54.8194C5.91485 54.7746 5.92559 54.7209 5.93455 54.6546C5.94171 54.6009 5.94708 54.549 5.95066 54.4988C5.95425 54.4487 5.95783 54.4021 5.95962 54.3591C5.95962 54.3215 5.96141 54.2839 5.9632 54.2445C5.96499 54.2051 5.9632 54.164 5.96499 54.121C5.96857 54.0905 5.97753 54.0655 5.99185 54.0458C6.00618 54.0261 6.02408 54.01 6.04557 53.9992C6.06706 53.9885 6.09034 53.9813 6.1172 53.9777C6.14406 53.9741 6.17092 53.9741 6.19958 53.9777H6.19778Z" fill="#5D3C28"/>
<path d="M7.01119 53.9851C7.06849 53.9851 7.11863 53.9994 7.1634 54.0245C7.20817 54.0496 7.24577 54.0854 7.27801 54.1302C7.31203 54.1749 7.33889 54.2251 7.36217 54.2842C7.38545 54.3415 7.40515 54.4023 7.42127 54.4668C7.43738 54.5313 7.44992 54.5957 7.45887 54.662C7.46782 54.7283 7.47499 54.7927 7.47857 54.8536C7.48394 54.9145 7.48752 54.9718 7.48931 55.0237C7.4911 55.0757 7.4929 55.1186 7.4929 55.1544C7.4929 55.1741 7.49289 55.1956 7.48931 55.2153C7.48573 55.235 7.47857 55.2565 7.46783 55.2744C7.45708 55.2923 7.44276 55.3084 7.42306 55.321C7.40336 55.3335 7.37829 55.3425 7.34785 55.3478C7.29233 55.3568 7.24936 55.3532 7.21891 55.3407C7.19026 55.3264 7.16877 55.3067 7.15624 55.278C7.1437 55.2494 7.13654 55.2153 7.13654 55.1759C7.13654 55.1365 7.13654 55.0936 7.13654 55.0488L6.79272 55.0685C6.78914 55.0971 6.78377 55.1276 6.7784 55.1598C6.77302 55.1921 6.76228 55.2225 6.74975 55.2494C6.73542 55.2762 6.71751 55.2995 6.69423 55.3192C6.67095 55.3371 6.64051 55.3461 6.60291 55.3461C6.53844 55.3461 6.48651 55.3335 6.45069 55.3102C6.41488 55.287 6.39697 55.2404 6.39697 55.1759C6.39697 55.158 6.40055 55.133 6.40593 55.1007C6.4113 55.0685 6.41846 55.0327 6.42741 54.9951C6.43637 54.9557 6.44532 54.9163 6.45607 54.8733C6.46681 54.8303 6.47756 54.7891 6.4883 54.7497C6.49904 54.7103 6.50979 54.6745 6.51874 54.6405C6.5277 54.6083 6.53486 54.5814 6.54202 54.5617C6.55277 54.5259 6.5653 54.4865 6.58142 54.4453C6.59574 54.4023 6.61365 54.3612 6.63335 54.3182C6.65305 54.2752 6.67632 54.2358 6.70139 54.1946C6.72647 54.1552 6.75512 54.1194 6.78735 54.089C6.81958 54.0585 6.85361 54.0335 6.89121 54.0155C6.92882 53.9976 6.97 53.9887 7.01477 53.9887L7.01119 53.9851ZM7.09177 54.5904C7.08103 54.5349 7.06849 54.4901 7.05596 54.4579C7.04342 54.4256 7.0291 54.4095 7.01298 54.4059C6.99687 54.4023 6.98075 54.4167 6.96284 54.4471C6.94493 54.4776 6.92703 54.5241 6.90733 54.5904C6.89479 54.6316 6.88226 54.6727 6.87151 54.7139C6.86077 54.7551 6.85003 54.7963 6.83928 54.8357L7.12222 54.8214C7.11684 54.782 7.11326 54.7426 7.10968 54.705C7.1061 54.6656 7.10073 54.628 7.09177 54.5904Z" fill="#5D3C28"/>
<path d="M8.10658 54.3161C8.08509 54.3018 8.06002 54.2964 8.03495 54.2964C8.00988 54.2964 7.98839 54.3036 7.97407 54.3143C7.95974 54.3251 7.95437 54.3412 7.95795 54.3627C7.96153 54.3842 7.98302 54.4074 8.02063 54.4343C8.0457 54.4522 8.07256 54.4719 8.10479 54.4916C8.13702 54.5113 8.16926 54.5328 8.20328 54.5579C8.2373 54.5829 8.27133 54.608 8.30356 54.6349C8.33579 54.6635 8.36624 54.694 8.3931 54.728C8.41996 54.762 8.44145 54.7978 8.45756 54.839C8.47368 54.8784 8.48263 54.9232 8.48442 54.9715C8.48621 55.027 8.47726 55.0772 8.45398 55.1237C8.43249 55.1685 8.40205 55.2079 8.36444 55.2419C8.32684 55.2759 8.28386 55.301 8.23372 55.3207C8.18358 55.3404 8.13344 55.3494 8.07972 55.3511C8.03495 55.3511 7.99197 55.3476 7.94542 55.3386C7.90065 55.3279 7.85767 55.3135 7.81648 55.2921C7.7753 55.2706 7.73769 55.2473 7.70367 55.2168C7.66964 55.1864 7.64278 55.1542 7.62129 55.1148C7.60876 55.0915 7.6016 55.0646 7.59981 55.036C7.59802 55.0073 7.60339 54.9805 7.61413 54.9572C7.62488 54.9339 7.64278 54.9124 7.66427 54.8945C7.68576 54.8784 7.71441 54.8694 7.74844 54.8677C7.77172 54.8677 7.79678 54.8748 7.82006 54.8927C7.84334 54.9106 7.86841 54.9303 7.89169 54.9518C7.91676 54.9733 7.94183 54.993 7.96869 55.0109C7.99556 55.0288 8.026 55.0378 8.05823 55.036C8.10121 55.036 8.12807 55.0217 8.13881 55.0002C8.14956 54.9769 8.1424 54.9482 8.11732 54.9106C8.10121 54.8891 8.07972 54.8676 8.05465 54.848C8.02958 54.8265 8.00272 54.8086 7.97407 54.7889C7.94541 54.771 7.91855 54.753 7.89169 54.7387C7.86483 54.7226 7.84334 54.7083 7.82544 54.6957C7.7932 54.6725 7.76276 54.6474 7.73411 54.6187C7.70367 54.5901 7.67681 54.5596 7.65353 54.5256C7.63025 54.4916 7.61234 54.4558 7.59622 54.42C7.5819 54.3824 7.57295 54.3448 7.57295 54.3036C7.57115 54.2409 7.5819 54.1872 7.60697 54.1424C7.63204 54.0976 7.66606 54.0618 7.70904 54.035C7.75202 54.0081 7.80037 53.9884 7.85409 53.9777C7.90781 53.9669 7.96332 53.9633 8.01704 53.9669C8.07256 53.9705 8.12449 53.9812 8.17642 53.9992C8.22835 54.0171 8.27133 54.0403 8.30893 54.0708C8.33758 54.0941 8.36265 54.1173 8.38235 54.1424C8.40384 54.1675 8.41458 54.1961 8.41638 54.2302C8.41638 54.2481 8.41279 54.266 8.40563 54.2821C8.39847 54.2982 8.38593 54.3143 8.3734 54.3286C8.35907 54.343 8.34475 54.3555 8.32684 54.3662C8.30893 54.377 8.29102 54.3859 8.27491 54.3913C8.25163 54.3985 8.23372 54.4003 8.22119 54.3985C8.20686 54.3967 8.19612 54.3913 8.18537 54.3842C8.17463 54.377 8.16388 54.368 8.15135 54.3573C8.13881 54.3466 8.12449 54.334 8.10479 54.3215L8.10658 54.3161Z" fill="#5D3C28"/>
<path d="M9.31603 53.9351C9.33573 53.9351 9.35901 53.9351 9.38587 53.9351C9.41273 53.9351 9.4378 53.9423 9.46287 53.9495C9.48794 53.9566 9.50764 53.9692 9.52375 53.9853C9.54166 54.0014 9.55062 54.0229 9.55241 54.0497C9.5542 54.0838 9.55241 54.1196 9.55241 54.1572C9.55241 54.1948 9.54703 54.2306 9.54703 54.2646C9.54524 54.4151 9.54703 54.5673 9.55778 54.7159C9.56136 54.7857 9.56852 54.8556 9.57748 54.9254C9.58643 54.9953 9.59359 55.0651 9.59718 55.1349C9.59897 55.1654 9.59359 55.1887 9.58285 55.2048C9.5721 55.2227 9.55778 55.2352 9.53987 55.246C9.52196 55.2549 9.50048 55.2621 9.4772 55.2657C9.45392 55.2692 9.42885 55.2728 9.40557 55.2728C9.37333 55.2746 9.34647 55.2692 9.32319 55.2549C9.29991 55.2406 9.28559 55.2173 9.27843 55.1851C9.26589 55.1242 9.25515 55.0633 9.24619 55.0024C9.23903 54.9415 9.23008 54.8789 9.22112 54.818C9.1674 54.8216 9.11189 54.8251 9.05817 54.8287C9.00445 54.8323 8.94893 54.8377 8.89521 54.843C8.89521 54.9003 8.89879 54.9576 8.90237 55.015C8.90596 55.0723 8.90775 55.1296 8.90775 55.1869C8.90775 55.2298 8.897 55.2603 8.8791 55.2764C8.8594 55.2925 8.83075 55.3033 8.79135 55.3086C8.78061 55.3086 8.77165 55.3122 8.7627 55.314C8.75374 55.314 8.743 55.3158 8.73405 55.3176C8.69644 55.3194 8.66421 55.314 8.63735 55.2979C8.61049 55.2818 8.59437 55.2549 8.589 55.2155C8.58004 55.16 8.57467 55.1045 8.57109 55.049C8.56751 54.9935 8.56393 54.9379 8.56035 54.8824C8.55139 54.741 8.54602 54.5959 8.54065 54.4473C8.53528 54.2987 8.54065 54.1536 8.55318 54.0104C8.55497 53.9942 8.56035 53.9799 8.5693 53.9674C8.57825 53.9548 8.58721 53.9441 8.59974 53.9351C8.61228 53.9262 8.62481 53.919 8.64093 53.9154C8.65525 53.9101 8.67137 53.9083 8.6857 53.9065C8.7036 53.9065 8.72688 53.9065 8.75195 53.9065C8.77702 53.9065 8.80388 53.9101 8.82895 53.9154C8.85403 53.9208 8.87551 53.9298 8.89342 53.9423C8.91133 53.9548 8.92028 53.9727 8.92207 53.9978V54.0139C8.91849 54.1124 8.91491 54.2127 8.90775 54.3166C8.90237 54.4204 8.897 54.5207 8.89521 54.621C8.94714 54.6156 8.99728 54.612 9.04742 54.6067C9.09756 54.6031 9.1477 54.5995 9.19963 54.5959C9.19068 54.5064 9.18352 54.4151 9.17815 54.3202C9.17098 54.2252 9.17098 54.1339 9.17815 54.0426C9.17815 54.0247 9.18352 54.0104 9.19247 53.9978C9.20143 53.9853 9.21217 53.9745 9.2265 53.9656C9.23903 53.9566 9.25515 53.9513 9.27126 53.9459C9.28738 53.9405 9.3035 53.9387 9.31782 53.9369L9.31603 53.9351Z" fill="#5D3C28"/>
<path d="M51.1062 29.0925C51.4261 27.4903 50.4605 25.9469 48.9494 25.6453C47.4384 25.3436 45.9542 26.3979 45.6343 28.0001C45.3145 29.6023 46.2801 31.1457 47.7911 31.4473C49.3022 31.749 50.7864 30.6947 51.1062 29.0925Z" fill="#9F692D" stroke="#5D3C28" stroke-width="0.895361" stroke-linecap="round" stroke-linejoin="round"/>
<path d="M59.5313 60.7611L52.0604 60.5211C50.7245 60.4781 50.8821 59.3894 50.9251 58.0535C50.9681 56.7176 53.3103 55.7005 54.6444 55.7417L62.1153 55.9816C63.4512 56.0246 63.2936 57.1134 63.2506 58.4493C63.2076 59.7851 60.8654 60.8023 59.5313 60.7611Z" fill="#E6C89B" stroke="#5D3C28" stroke-width="0.537217" stroke-linecap="round" stroke-linejoin="round"/>
<path d="M51.6724 57.962C53.2751 58.2145 54.8921 58.3721 56.5145 58.4329C57.5567 58.4723 58.6096 58.4723 59.6303 58.2539C60.6493 58.0354 61.6431 57.5841 62.3648 56.832" fill="#E6C89B"/>
<path d="M62.3668 56.8354C62.3954 56.8623 62.3578 56.9554 62.2271 57.113C62.0964 57.2688 61.8671 57.4908 61.4965 57.729C61.1276 57.9672 60.6136 58.2179 59.935 58.4005C59.2563 58.585 58.4182 58.6852 57.4405 58.6852C56.2192 58.6799 55.254 58.6064 54.4822 58.533C53.7122 58.4578 53.141 58.3737 52.7237 58.2984C51.8874 58.1462 51.66 58.0406 51.6708 57.9672C51.6815 57.8937 51.9824 57.8902 52.8347 57.96C53.2609 57.994 53.8268 58.0388 54.5646 58.0979C55.3024 58.148 56.2192 58.2089 57.333 58.2214C58.3842 58.2322 59.233 58.1355 59.8973 57.9672C60.5635 57.8006 61.047 57.5768 61.3962 57.387C61.7454 57.1936 61.9692 57.0342 62.1143 56.9375C62.2611 56.8408 62.3345 56.8104 62.3632 56.8372L62.3668 56.8354Z" fill="white"/>
<path d="M59.7803 58.6194C59.8125 59.1208 59.8429 59.6204 59.8752 60.1218L59.7803 58.6194Z" fill="#E6C89B"/>
<path d="M59.8712 60.1217C59.7083 60.1324 59.6492 59.9372 59.5991 59.4161C59.5364 58.7643 59.6241 58.6282 59.7763 58.6193C59.9178 58.6103 60.0235 58.7643 60.0629 59.3732C60.0987 59.948 60.0252 60.1127 59.873 60.1235L59.8712 60.1217Z" fill="white"/>
</svg>
