<svg width="65" height="58" viewBox="0 0 65 58" fill="none" xmlns="http://www.w3.org/2000/svg">
<path fill-rule="evenodd" clip-rule="evenodd" d="M38.4303 0.310791L38.3237 28.9635L64.1033 44.0599L64.1311 8.07447L38.4303 0.310791Z" fill="white" stroke="#5D3C28" stroke-width="0.463411" stroke-linecap="round" stroke-linejoin="round"/>
<path fill-rule="evenodd" clip-rule="evenodd" d="M38.4384 0.231689L0.349121 9.75325V39.9476L38.4384 28.7995V0.231689Z" fill="white" stroke="#5D3C28" stroke-width="0.463411" stroke-linecap="round" stroke-linejoin="round"/>
<path fill-rule="evenodd" clip-rule="evenodd" d="M0.231934 40.1115L38.3228 28.9634L64.1024 44.0598L26.478 56.8329L0.231934 40.1115Z" fill="#FDF1D8" stroke="#5D3C28" stroke-width="0.463411" stroke-linecap="round" stroke-linejoin="round"/>
<path fill-rule="evenodd" clip-rule="evenodd" d="M42.894 1.7395L42.9836 15.838L62.7049 23.7809V7.8071L42.894 1.7395Z" fill="white" stroke="#5D3C28" stroke-width="0.463411" stroke-linecap="round" stroke-linejoin="round"/>
<path d="M43.018 15.656L42.1792 16.2847" stroke="#5D3C28" stroke-width="0.463411" stroke-linecap="round" stroke-linejoin="round"/>
<path d="M1.85889 12.7055C1.85889 12.7055 19.6261 19.0928 37.6265 2.36987" stroke="#5D3C28" stroke-width="0.463411" stroke-linecap="round" stroke-linejoin="round"/>
<path d="M7.43385 16.1885C8.20336 16.1885 8.82717 15.5647 8.82717 14.7952C8.82717 14.0257 8.20336 13.4019 7.43385 13.4019C6.66434 13.4019 6.04053 14.0257 6.04053 14.7952C6.04053 15.5647 6.66434 16.1885 7.43385 16.1885Z" fill="#F8B62D" stroke="#5D3C28" stroke-width="0.463411" stroke-linecap="round" stroke-linejoin="round"/>
<path d="M21.8323 14.6792C22.6018 14.6792 23.2256 14.0554 23.2256 13.2859C23.2256 12.5164 22.6018 11.8926 21.8323 11.8926C21.0628 11.8926 20.439 12.5164 20.439 13.2859C20.439 14.0554 21.0628 14.6792 21.8323 14.6792Z" fill="#F8B62D" stroke="#5D3C28" stroke-width="0.463411" stroke-linecap="round" stroke-linejoin="round"/>
<path fill-rule="evenodd" clip-rule="evenodd" d="M14.2854 12.3965L14.9141 13.6709L16.3214 13.8763L15.3034 14.868L15.5444 16.2706L14.2854 15.6079L13.0265 16.2706L13.2675 14.868L12.2495 13.8763L13.6552 13.6709L14.2854 12.3965Z" fill="#5D3C28" stroke="#5D3C28" stroke-width="0.463411" stroke-linecap="round" stroke-linejoin="round"/>
<path fill-rule="evenodd" clip-rule="evenodd" d="M27.9881 8.56372L28.6168 9.83965L30.0241 10.0435L29.0061 11.0352L29.2471 12.4378L27.9881 11.7752L26.7292 12.4378L26.9702 11.0352L25.9507 10.0435L27.3579 9.83965L27.9881 8.56372Z" fill="#5D3C28" stroke="#5D3C28" stroke-width="0.463411" stroke-linecap="round" stroke-linejoin="round"/>
<path fill-rule="evenodd" clip-rule="evenodd" d="M34.8671 4.31006L35.4958 5.58598L36.903 5.78989L35.885 6.78313L36.126 8.18418L34.8671 7.52304L33.6081 8.18418L33.8491 6.78313L32.8296 5.78989L34.2368 5.58598L34.8671 4.31006Z" fill="#5D3C28" stroke="#5D3C28" stroke-width="0.463411" stroke-linecap="round" stroke-linejoin="round"/>
<path fill-rule="evenodd" clip-rule="evenodd" d="M47.1836 7.93546C47.3674 8.05132 47.5666 8.22278 47.7736 8.15327C47.8957 8.1131 47.9744 8.00034 48.0579 7.90457C48.3946 7.52612 48.9553 7.36392 49.4419 7.50604C49.9285 7.64815 50.3147 8.0853 50.3965 8.58578C50.4228 8.74952 50.4197 8.92098 50.483 9.07391C50.6128 9.39057 50.9835 9.5435 51.155 9.83854C51.4052 10.2711 51.1133 10.8611 50.6653 11.0789C50.2158 11.2983 49.6829 11.2334 49.2009 11.099C48.9692 11.0341 48.7344 10.9554 48.495 10.9739C48.2911 10.9893 47.6979 10.5414 47.4987 10.4981C43.4917 9.63155 45.0658 6.60702 47.1866 7.93392L47.1836 7.93546Z" fill="white"/>
<path fill-rule="evenodd" clip-rule="evenodd" d="M57.5728 8.54244C57.7056 8.65212 57.8462 8.79732 58.0161 8.76642C58.1459 8.74325 58.2308 8.62431 58.322 8.53009C58.739 8.09448 59.4882 8.09757 59.981 8.44513C60.4737 8.79269 60.7271 9.40902 60.758 10.0115C61.3372 10.0871 61.7775 10.7158 61.6508 11.2858C60.7394 11.6504 59.7076 11.3399 58.7993 10.9676C58.1057 10.6834 56.2134 10.4455 55.8659 9.68707C55.387 8.63822 56.7618 7.87668 57.5712 8.5409L57.5728 8.54244Z" fill="white"/>
<path fill-rule="evenodd" clip-rule="evenodd" d="M46.8067 12.1986C47.2485 12.489 47.6053 12.889 47.9575 13.2829C48.1119 13.4559 48.2649 13.6274 48.4193 13.8004C48.9214 14.3627 49.462 14.9512 50.1849 15.169C50.9882 15.4115 51.8424 15.1474 52.6704 15.0254C53.4999 14.9018 54.4869 14.9914 54.9565 15.6865C55.2469 16.1159 55.3273 16.7523 55.8092 16.9423C56.2294 17.1076 56.6742 16.8172 57.1052 16.6828C58.1433 16.3584 59.3775 17.1354 59.5366 18.2105C60.5267 18.2662 61.2867 19.4154 60.95 20.3484C61.9849 20.9833 62.6553 22.1758 62.6584 23.3915C62.6584 23.685 62.6167 23.997 62.4298 24.2241C62.0745 24.6581 61.4026 24.5886 60.8558 24.4666C56.6341 23.5228 52.6426 21.7788 48.6804 20.0441C46.8499 19.2424 44.9747 18.4114 43.5535 17.0057C42.88 16.3399 42.31 15.5243 42.1494 14.5913C41.7107 12.0348 44.9391 10.969 46.8067 12.2001V12.1986Z" fill="white"/>
<path fill-rule="evenodd" clip-rule="evenodd" d="M63.3465 24.1007L43.0059 15.5662V1.85233L41.7593 1.38892V16.473L62.4954 25.1557L63.3465 24.1007Z" fill="#9F692D" stroke="#5D3C28" stroke-width="0.463411" stroke-linecap="round" stroke-linejoin="round"/>
<path fill-rule="evenodd" clip-rule="evenodd" d="M51.7261 4.4165V20.3887L53.243 21.0144V4.95097L51.7261 4.4165Z" fill="#9F692D" stroke="#5D3C28" stroke-width="0.463411" stroke-linecap="round" stroke-linejoin="round"/>
<path fill-rule="evenodd" clip-rule="evenodd" d="M54.1365 5.21971L53.2437 5.04053L53.3332 20.832L54.1365 20.2188V5.21971Z" fill="#9F692D" stroke="#5D3C28" stroke-width="0.463411" stroke-linecap="round" stroke-linejoin="round"/>
<path fill-rule="evenodd" clip-rule="evenodd" d="M40.7515 1.02563V16.9979L42.1803 16.2842V1.47051L40.7515 1.02563Z" fill="#9F692D" stroke="#5D3C28" stroke-width="0.463411" stroke-linecap="round" stroke-linejoin="round"/>
<path fill-rule="evenodd" clip-rule="evenodd" d="M40.9077 17.0523L62.7931 26.458V24.9179L42.0323 16.3711L40.9077 17.0523Z" fill="#9F692D" stroke="#5D3C28" stroke-width="0.463411" stroke-linecap="round" stroke-linejoin="round"/>
<path fill-rule="evenodd" clip-rule="evenodd" d="M62.7926 26.4581L63.9527 25.8325V8.19973L62.7046 7.80737L62.7926 26.4581Z" fill="#9F692D" stroke="#5D3C28" stroke-width="0.463411" stroke-linecap="round" stroke-linejoin="round"/>
<path d="M38.3234 29.0795C38.4138 29.0795 38.4871 22.6325 38.4871 14.6798C38.4871 6.72701 38.4138 0.280029 38.3234 0.280029C38.233 0.280029 38.1597 6.72701 38.1597 14.6798C38.1597 22.6325 38.233 29.0795 38.3234 29.0795Z" fill="#5D3C28"/>
<path fill-rule="evenodd" clip-rule="evenodd" d="M43.8833 47.557L45.5191 48.6769L45.7709 42.3822L44.0841 41.4585C44.0841 41.4585 43.8663 47.0658 43.8833 47.5585V47.557Z" fill="#9F692D" stroke="#5D3C28" stroke-width="0.463411" stroke-linecap="round" stroke-linejoin="round"/>
<path fill-rule="evenodd" clip-rule="evenodd" d="M58.352 41.9142L59.9879 43.0341L60.2396 36.7394L58.5528 35.8157C58.5528 35.8157 58.335 41.4229 58.352 41.9157V41.9142Z" fill="#9F692D" stroke="#5D3C28" stroke-width="0.463411" stroke-linecap="round" stroke-linejoin="round"/>
<path fill-rule="evenodd" clip-rule="evenodd" d="M47.2182 41.7751L46.9819 48.1131L45.519 48.6769L45.7708 42.3807L47.2182 41.7751Z" fill="#9F692D" stroke="#5D3C28" stroke-width="0.463411" stroke-linecap="round" stroke-linejoin="round"/>
<path fill-rule="evenodd" clip-rule="evenodd" d="M61.5653 38.6826L61.4263 42.6015L60.0854 43.119L60.2415 39.2387L61.5653 38.6826Z" fill="#9F692D" stroke="#5D3C28" stroke-width="0.463411" stroke-linecap="round" stroke-linejoin="round"/>
<path fill-rule="evenodd" clip-rule="evenodd" d="M38.4975 17.0288L37.8302 29.9626L23.0474 34.901L22.9995 21.2922L38.4975 17.0288Z" fill="#9F692D" stroke="#5D3C28" stroke-width="0.463411" stroke-linecap="round" stroke-linejoin="round"/>
<path fill-rule="evenodd" clip-rule="evenodd" d="M23.0575 34.8334L23.2382 21.2925L38.6884 17.077L37.7554 16.405L22.1245 20.6916V34.163L23.0575 34.8334Z" fill="#9F692D" stroke="#5D3C28" stroke-width="0.463411" stroke-linecap="round" stroke-linejoin="round"/>
<path fill-rule="evenodd" clip-rule="evenodd" d="M23.1436 29.2002L61.6592 37.2836L61.5217 40.7175L45.6746 46.7789L23.1436 32.458V29.2002Z" fill="#9F692D" stroke="#5D3C28" stroke-width="0.463411" stroke-linecap="round" stroke-linejoin="round"/>
<path fill-rule="evenodd" clip-rule="evenodd" d="M38.6527 25.1824L61.6596 37.2836L45.8124 43.345L23.4961 29.211L38.6527 25.1824Z" fill="#5D3C28" stroke="#5D3C28" stroke-width="0.463411" stroke-linecap="round" stroke-linejoin="round"/>
<path d="M45.8128 43.345L45.6753 46.7788" stroke="#5D3C28" stroke-width="0.463411" stroke-linecap="round" stroke-linejoin="round"/>
<path fill-rule="evenodd" clip-rule="evenodd" d="M50.8815 44.0501C52.7491 43.131 53.7392 42.8715 55.7813 42.1671C56.9429 41.767 58.103 41.3531 59.2121 40.8387C60.0107 40.4679 61.8057 39.7188 62.3355 39.7265C62.5379 39.7296 63.1187 36.7128 62.2227 35.9682C59.4284 33.645 55.4801 32.6934 52.244 30.9865C49.0758 29.3167 45.8844 27.3549 42.3517 26.3632C39.6067 25.594 36.3953 27.131 33.1391 28.5845C30.0944 29.9439 26.8768 30.2482 26.5293 32.3057C26.3748 33.2233 25.6936 35.667 26.2466 36.0609C26.8799 36.5119 26.7517 37.0742 27.541 37.2858C28.4107 37.5191 28.7567 38.4645 29.56 38.829C30.5733 39.2878 31.5465 39.1688 32.4084 39.9597C32.9182 40.4262 33.3677 40.9731 34.0134 41.2712C34.4551 41.4751 34.9603 41.5461 35.4082 41.7423C35.8917 41.9539 36.2825 42.2984 36.6872 42.6197C38.3432 43.9327 40.1999 44.6 42.1771 45.394C42.6174 45.5701 44.1466 46.5015 45.5816 47.1287C46.5347 46.5355 47.0198 45.5794 47.7921 44.9769C48.4841 44.4378 50.1138 44.4286 50.8815 44.0501Z" fill="#F8B62D" stroke="#5D3C28" stroke-width="0.463411" stroke-linecap="round" stroke-linejoin="round"/>
<path fill-rule="evenodd" clip-rule="evenodd" d="M25.3897 25.0525C25.4407 24.5906 24.8537 24.1658 24.9356 24.2013C25.7388 24.5551 27.1661 23.6267 28.0991 23.2822C29.3256 22.8296 31.153 22.4805 32.3826 22.0372C35.0596 21.0702 35.3144 21.9816 36.5131 21.0579C36.3679 22.5948 37.6238 22.2519 38.1644 23.1741C38.6325 23.9712 39.0264 24.9938 39.1994 26.1523C39.2519 26.5029 39.3956 26.7578 39.7107 27.1131C39.3569 26.9586 38.6093 27.0977 38.2154 27.3927C37.3797 28.0198 36.7788 28.0059 36.1393 28.2824C33.2291 29.5414 30.1737 30.4929 28.7263 30.4388C28.3185 30.4234 27.991 30.8297 27.6064 31.083C27.8736 30.2581 27.1028 30.2967 26.59 29.3854C26.2918 28.8555 25.1318 27.3556 25.3897 25.0494V25.0525Z" fill="white" stroke="#5D3C28" stroke-width="0.463411" stroke-linecap="round" stroke-linejoin="round"/>
<path fill-rule="evenodd" clip-rule="evenodd" d="M33.4076 26.3423C33.3304 26.3948 32.9643 25.9499 32.3325 25.6796C31.71 25.3939 31.1307 25.3861 31.1246 25.2904C31.1215 25.2486 31.2682 25.1915 31.5185 25.1822C31.7656 25.173 32.1163 25.2224 32.4669 25.3815C32.8176 25.5375 33.0894 25.7708 33.2423 25.9685C33.3968 26.1677 33.4432 26.3191 33.4076 26.3423Z" fill="#5D3C28"/>
<path fill-rule="evenodd" clip-rule="evenodd" d="M33.9018 25.2545C33.8879 25.3457 33.6037 25.3735 33.2762 25.4507C32.9488 25.5202 32.68 25.6175 32.6275 25.5403C32.6043 25.5032 32.6445 25.426 32.7464 25.3426C32.8468 25.2592 33.0105 25.1742 33.2052 25.131C33.3998 25.0877 33.5821 25.0954 33.7088 25.1263C33.837 25.1588 33.9065 25.2097 33.9018 25.2545Z" fill="#5D3C28"/>
<path d="M22.1362 20.6697L23.2391 21.3401" stroke="#5D3C28" stroke-width="0.463411" stroke-linecap="round" stroke-linejoin="round"/>
<path fill-rule="evenodd" clip-rule="evenodd" d="M5.28223 40.3186L3.71436 39.2743V31.0874H5.28223V40.3186Z" fill="#9F692D" stroke="#5D3C28" stroke-width="0.463411" stroke-linecap="round" stroke-linejoin="round"/>
<path fill-rule="evenodd" clip-rule="evenodd" d="M7.12475 30.8386H5.38232V40.4189L6.9502 39.9833L7.12475 30.8386Z" fill="#9F692D" stroke="#5D3C28" stroke-width="0.463411" stroke-linecap="round" stroke-linejoin="round"/>
<path fill-rule="evenodd" clip-rule="evenodd" d="M14.5759 28.043H12.8335V37.6248L14.4014 37.1892L14.5759 28.043Z" fill="#9F692D" stroke="#5D3C28" stroke-width="0.463411" stroke-linecap="round" stroke-linejoin="round"/>
<path fill-rule="evenodd" clip-rule="evenodd" d="M20.6689 40.3186L19.1011 39.2743V31.0874H20.6689V40.3186Z" fill="#9F692D" stroke="#5D3C28" stroke-width="0.463411" stroke-linecap="round" stroke-linejoin="round"/>
<path fill-rule="evenodd" clip-rule="evenodd" d="M22.4001 30.6519H20.6577L20.6932 40.3819L22.2256 39.7965L22.4001 30.6519Z" fill="#9F692D" stroke="#5D3C28" stroke-width="0.463411" stroke-linecap="round" stroke-linejoin="round"/>
<path fill-rule="evenodd" clip-rule="evenodd" d="M11.4291 44.2311L9.86279 43.1869V35H11.4291V44.2311Z" fill="#9F692D" stroke="#5D3C28" stroke-width="0.463411" stroke-linecap="round" stroke-linejoin="round"/>
<path fill-rule="evenodd" clip-rule="evenodd" d="M13.1584 34.5645H11.4175V44.2945L12.9838 43.7091L13.1584 34.5645Z" fill="#9F692D" stroke="#5D3C28" stroke-width="0.463411" stroke-linecap="round" stroke-linejoin="round"/>
<path fill-rule="evenodd" clip-rule="evenodd" d="M3.65967 31.8689V29.8623L22.3738 30.7505V32.6984L11.4527 35.8897L3.65967 31.8689Z" fill="#9F692D" stroke="#5D3C28" stroke-width="0.463411" stroke-linecap="round" stroke-linejoin="round"/>
<path fill-rule="evenodd" clip-rule="evenodd" d="M3.65967 29.8624L14.227 27.3616L22.3738 30.692L11.4527 33.8833L3.65967 29.8624Z" fill="#9F692D" stroke="#5D3C28" stroke-width="0.463411" stroke-linecap="round" stroke-linejoin="round"/>
<path d="M11.4526 33.8833V35.8899" stroke="#5D3C28" stroke-width="0.463411" stroke-linecap="round" stroke-linejoin="round"/>
<path d="M48.9254 38.2427C49.9859 38.2427 50.8455 37.3831 50.8455 36.3227C50.8455 35.2622 49.9859 34.4026 48.9254 34.4026C47.865 34.4026 47.0054 35.2622 47.0054 36.3227C47.0054 37.3831 47.865 38.2427 48.9254 38.2427Z" fill="#F8B62D" stroke="#5D3820" stroke-width="0.772352" stroke-linecap="round" stroke-linejoin="round"/>
<path d="M18.1344 29.5783C18.4171 29.7173 18.0016 30.0988 17.7529 30.1637L11.3748 32.1054C11.1261 32.1703 10.6951 32.11 10.4125 31.9726L5.84477 29.5844C5.56209 29.4454 5.57753 28.9928 5.82623 28.9295L12.4082 27.1855C12.6569 27.1206 13.0292 27.0913 13.3119 27.2303L18.1329 29.5798L18.1344 29.5783Z" fill="#5D3C28" stroke="#5D3C28" stroke-width="0.308941" stroke-linecap="round" stroke-linejoin="round"/>
<path d="M18.2692 29.1688C18.5519 29.3079 18.1364 29.6894 17.8877 29.7543L11.5096 31.696C11.2609 31.7609 10.8299 31.7006 10.5472 31.5631L5.97953 29.175C5.69685 29.036 5.7123 28.5834 5.961 28.5201L12.543 26.7761C12.7917 26.7112 13.164 26.6819 13.4466 26.8209L18.2677 29.1704L18.2692 29.1688Z" fill="#5D3C28" stroke="#5D3C28" stroke-width="0.308941" stroke-linecap="round" stroke-linejoin="round"/>
<path d="M15.088 29.8576C15.088 29.8576 15.0864 29.8638 15.0725 29.8669L13.4691 30.2839C13.4568 30.287 13.4429 30.2886 13.4382 30.2855L12.3569 29.7572C12.3569 29.7572 12.3585 29.751 12.3724 29.7479L13.9758 29.3309C13.9881 29.3278 14.002 29.3262 14.0067 29.3293L15.088 29.8576Z" fill="white" stroke="#5D3C28" stroke-width="0.15447" stroke-linecap="round" stroke-linejoin="round"/>
<path d="M12.4864 26.4022C12.5034 26.7328 12.4045 26.8996 12.1311 26.9552L5.29734 28.7285C5.02547 28.7841 4.79067 28.5632 4.77368 28.2327L4.27783 22.8061C4.26084 22.4755 4.46783 22.1635 4.74124 22.1064L11.6708 20.6775C11.9427 20.6219 12.1774 20.8428 12.1944 21.1734L12.4879 26.4006L12.4864 26.4022Z" fill="#5D3C28" stroke="#5D3C28" stroke-width="0.308941" stroke-linecap="round" stroke-linejoin="round"/>
<path d="M13.88 29.0423C13.88 29.0423 13.8661 29.0485 13.8445 29.0531L11.1722 29.7482C11.1505 29.7544 11.132 29.7575 11.1304 29.7575L10.7134 29.5536C10.7134 29.5536 10.7273 29.5474 10.7489 29.5428L13.4212 28.8476C13.4429 28.8415 13.4614 28.8384 13.463 28.8384L13.88 29.0423Z" fill="white" stroke="#5D3C28" stroke-width="0.0772352" stroke-linecap="round" stroke-linejoin="round"/>
<path d="M14.3248 28.9266C14.3248 28.9266 14.3248 28.9281 14.3233 28.9296L13.9819 29.0177C13.9819 29.0177 13.9757 29.0177 13.9742 29.0177L13.5571 28.8138C13.5571 28.8138 13.5571 28.8123 13.5587 28.8107L13.9001 28.7227C13.9001 28.7227 13.9062 28.7227 13.9078 28.7227L14.3248 28.9266Z" fill="white" stroke="#5D3C28" stroke-width="0.0772352" stroke-linecap="round" stroke-linejoin="round"/>
<path d="M14.7653 28.8121C14.7653 28.8121 14.7653 28.8136 14.7637 28.8151L14.4224 28.9032C14.4224 28.9032 14.4162 28.9032 14.4146 28.9032L13.9976 28.6993C13.9976 28.6993 13.9976 28.6977 13.9991 28.6962L14.3405 28.6082C14.3405 28.6082 14.3467 28.6082 14.3482 28.6082L14.7653 28.8121Z" fill="white" stroke="#5D3C28" stroke-width="0.0772352" stroke-linecap="round" stroke-linejoin="round"/>
<path d="M15.1972 28.6795C15.1972 28.6795 15.1972 28.6795 15.1941 28.6811L14.8527 28.7691H14.8466L14.6411 28.6687C14.6411 28.6687 14.6411 28.6687 14.6442 28.6671L14.9856 28.5791H14.9918L15.1972 28.6795Z" fill="white" stroke="#5D3C28" stroke-width="0.0772352" stroke-linecap="round" stroke-linejoin="round"/>
<path d="M15.6503 28.5621C15.6503 28.5621 15.6503 28.5621 15.6472 28.5636L15.3059 28.6517H15.2997L15.0942 28.5513C15.0942 28.5513 15.0942 28.5513 15.0973 28.5497L15.4387 28.4617H15.4449L15.6503 28.5621Z" fill="white" stroke="#5D3C28" stroke-width="0.0772352" stroke-linecap="round" stroke-linejoin="round"/>
<path d="M15.414 28.4461C15.414 28.4461 15.414 28.4461 15.4109 28.4477L15.0695 28.5357H15.0634L14.8579 28.4353C14.8579 28.4353 14.8579 28.4353 14.861 28.4338L15.2024 28.3457H15.2086L15.414 28.4461Z" fill="white" stroke="#5D3C28" stroke-width="0.0772352" stroke-linecap="round" stroke-linejoin="round"/>
<path d="M16.0683 28.4542C16.0683 28.4542 16.0683 28.4542 16.0652 28.4557L15.7238 28.5438H15.7177L15.5122 28.4434C15.5122 28.4434 15.5122 28.4434 15.5153 28.4418L15.8567 28.3538H15.8629L16.0683 28.4542Z" fill="white" stroke="#5D3C28" stroke-width="0.0772352" stroke-linecap="round" stroke-linejoin="round"/>
<path d="M9.75112 30.116C9.75112 30.116 9.75112 30.1176 9.74957 30.1191L9.40819 30.2071C9.40819 30.2071 9.40201 30.2071 9.40047 30.2071L8.9834 30.0032C8.9834 30.0032 8.9834 30.0017 8.98494 30.0002L9.32632 29.9121C9.32632 29.9121 9.3325 29.9121 9.33405 29.9121L9.75112 30.116Z" fill="white" stroke="#5D3C28" stroke-width="0.0772352" stroke-linecap="round" stroke-linejoin="round"/>
<path d="M10.1837 30.0035C10.1837 30.0035 10.1837 30.005 10.1822 30.0066L9.84081 30.0946C9.84081 30.0946 9.83463 30.0946 9.83309 30.0946L9.41602 29.8907C9.41602 29.8907 9.41602 29.8892 9.41756 29.8876L9.75894 29.7996C9.75894 29.7996 9.76512 29.7996 9.76666 29.7996L10.1837 30.0035Z" fill="white" stroke="#5D3C28" stroke-width="0.0772352" stroke-linecap="round" stroke-linejoin="round"/>
<path d="M10.6193 29.889C10.6193 29.889 10.6193 29.8905 10.6177 29.8921L10.2764 29.9801C10.2764 29.9801 10.2702 29.9801 10.2686 29.9801L9.85156 29.7762C9.85156 29.7762 9.85156 29.7747 9.85311 29.7731L10.1945 29.6851C10.1945 29.6851 10.2007 29.6851 10.2022 29.6851L10.6193 29.889Z" fill="white" stroke="#5D3C28" stroke-width="0.0772352" stroke-linecap="round" stroke-linejoin="round"/>
<path d="M11.0553 29.7759C11.0553 29.7759 11.0553 29.7775 11.0538 29.779L10.7124 29.8671C10.7124 29.8671 10.7062 29.8671 10.7047 29.8671L10.2876 29.6632C10.2876 29.6632 10.2876 29.6616 10.2891 29.6601L10.6305 29.572C10.6305 29.572 10.6367 29.572 10.6382 29.572L11.0553 29.7759Z" fill="white" stroke="#5D3C28" stroke-width="0.0772352" stroke-linecap="round" stroke-linejoin="round"/>
<path d="M9.70026 29.7881C9.70026 29.7881 9.70026 29.7912 9.69254 29.7927L8.95726 29.9843C8.95726 29.9843 8.9449 29.9858 8.94336 29.9843L8.52783 29.7804C8.52783 29.7804 8.52938 29.7773 8.53556 29.7757L9.27083 29.5842C9.27083 29.5842 9.28319 29.5826 9.28474 29.5842L9.70026 29.7881Z" fill="white" stroke="#5D3C28" stroke-width="0.0772352" stroke-linecap="round" stroke-linejoin="round"/>
<path d="M15.6578 28.2405C15.6578 28.2405 15.6547 28.2436 15.6469 28.2451L14.7294 28.483C14.7294 28.483 14.7155 28.4861 14.7124 28.4845L14.2969 28.2806C14.2969 28.2806 14.3 28.2775 14.3061 28.276L15.2237 28.0381C15.2237 28.0381 15.2376 28.035 15.2407 28.0366L15.6562 28.2405H15.6578Z" fill="white" stroke="#5D3C28" stroke-width="0.0772352" stroke-linecap="round" stroke-linejoin="round"/>
<path d="M10.1236 29.6783C10.1236 29.6783 10.1236 29.6798 10.1221 29.6814L9.78067 29.7694C9.78067 29.7694 9.77449 29.7694 9.77295 29.7694L9.35742 29.5655C9.35742 29.5655 9.35742 29.564 9.35897 29.5624L9.70035 29.4744C9.70035 29.4744 9.70652 29.4744 9.70807 29.4744L10.1236 29.6783Z" fill="white" stroke="#5D3C28" stroke-width="0.0772352" stroke-linecap="round" stroke-linejoin="round"/>
<path d="M10.5689 29.5628C10.5689 29.5628 10.5689 29.5643 10.5674 29.5659L10.226 29.6539C10.226 29.6539 10.2198 29.6539 10.2183 29.6539L9.80273 29.45C9.80273 29.45 9.80273 29.4485 9.80428 29.4469L10.1457 29.3589C10.1457 29.3589 10.1518 29.3589 10.1534 29.3589L10.5689 29.5628Z" fill="white" stroke="#5D3C28" stroke-width="0.0772352" stroke-linecap="round" stroke-linejoin="round"/>
<path d="M11.0128 29.4471C11.0128 29.4471 11.0128 29.4486 11.0112 29.4502L10.6698 29.5382C10.6698 29.5382 10.6637 29.5382 10.6621 29.5382L10.2466 29.3343C10.2466 29.3343 10.2466 29.3328 10.2481 29.3312L10.5895 29.2432C10.5895 29.2432 10.5957 29.2432 10.5972 29.2432L11.0128 29.4471Z" fill="white" stroke="#5D3C28" stroke-width="0.0772352" stroke-linecap="round" stroke-linejoin="round"/>
<path d="M11.4581 29.3326C11.4581 29.3326 11.4581 29.3341 11.4565 29.3357L11.1151 29.4237C11.1151 29.4237 11.109 29.4237 11.1074 29.4237L10.6919 29.2198C10.6919 29.2198 10.6919 29.2183 10.6934 29.2167L11.0348 29.1287C11.0348 29.1287 11.041 29.1287 11.0425 29.1287L11.4581 29.3326Z" fill="white" stroke="#5D3C28" stroke-width="0.0772352" stroke-linecap="round" stroke-linejoin="round"/>
<path d="M11.9 29.2168C11.9 29.2168 11.9 29.2184 11.8984 29.2199L11.557 29.308C11.557 29.308 11.5509 29.308 11.5493 29.308L11.1338 29.1041C11.1338 29.1041 11.1338 29.1025 11.1353 29.101L11.4767 29.0129C11.4767 29.0129 11.4829 29.0129 11.4844 29.0129L11.9 29.2168Z" fill="white" stroke="#5D3C28" stroke-width="0.0772352" stroke-linecap="round" stroke-linejoin="round"/>
<path d="M12.3453 29.1006C12.3453 29.1006 12.3453 29.1022 12.3437 29.1037L12.0024 29.1918C12.0024 29.1918 11.9962 29.1918 11.9946 29.1918L11.5791 28.9879C11.5791 28.9879 11.5791 28.9863 11.5806 28.9848L11.922 28.8967C11.922 28.8967 11.9282 28.8967 11.9298 28.8967L12.3453 29.1006Z" fill="white" stroke="#5D3C28" stroke-width="0.0772352" stroke-linecap="round" stroke-linejoin="round"/>
<path d="M12.7886 28.9866C12.7886 28.9866 12.7886 28.9882 12.7871 28.9897L12.4457 29.0778C12.4457 29.0778 12.4395 29.0778 12.438 29.0778L12.0225 28.8739C12.0225 28.8739 12.0225 28.8723 12.024 28.8708L12.3654 28.7827C12.3654 28.7827 12.3716 28.7827 12.3731 28.7827L12.7886 28.9866Z" fill="white" stroke="#5D3C28" stroke-width="0.0772352" stroke-linecap="round" stroke-linejoin="round"/>
<path d="M13.2339 28.8704C13.2339 28.8704 13.2339 28.8719 13.2324 28.8735L12.891 28.9615C12.891 28.9615 12.8848 28.9615 12.8833 28.9615L12.4678 28.7576C12.4678 28.7576 12.4678 28.7561 12.4693 28.7546L12.8107 28.6665C12.8107 28.6665 12.8169 28.6665 12.8184 28.6665L13.2339 28.8704Z" fill="white" stroke="#5D3C28" stroke-width="0.0772352" stroke-linecap="round" stroke-linejoin="round"/>
<path d="M13.6758 28.7547C13.6758 28.7547 13.6758 28.7562 13.6743 28.7578L13.3329 28.8458C13.3329 28.8458 13.3267 28.8458 13.3252 28.8458L12.9097 28.6419C12.9097 28.6419 12.9097 28.6404 12.9112 28.6388L13.2526 28.5508C13.2526 28.5508 13.2588 28.5508 13.2603 28.5508L13.6758 28.7547Z" fill="white" stroke="#5D3C28" stroke-width="0.0772352" stroke-linecap="round" stroke-linejoin="round"/>
<path d="M14.1231 28.6392C14.1231 28.6392 14.1231 28.6407 14.1216 28.6423L13.7802 28.7303C13.7802 28.7303 13.774 28.7303 13.7725 28.7303L13.3569 28.5264C13.3569 28.5264 13.3569 28.5249 13.3585 28.5234L13.6999 28.4353C13.6999 28.4353 13.706 28.4353 13.7076 28.4353L14.1231 28.6392Z" fill="white" stroke="#5D3C28" stroke-width="0.0772352" stroke-linecap="round" stroke-linejoin="round"/>
<path d="M14.565 28.5247C14.565 28.5247 14.565 28.5262 14.5635 28.5278L14.2221 28.6158C14.2221 28.6158 14.2159 28.6158 14.2144 28.6158L13.7988 28.4119C13.7988 28.4119 13.7988 28.4104 13.8004 28.4089L14.1418 28.3208C14.1418 28.3208 14.1479 28.3208 14.1495 28.3208L14.565 28.5247Z" fill="white" stroke="#5D3C28" stroke-width="0.0772352" stroke-linecap="round" stroke-linejoin="round"/>
<path d="M15.2422 28.0365C15.2422 28.0365 15.2407 28.0396 15.2345 28.0411L14.5502 28.2187C14.5502 28.2187 14.5394 28.2203 14.5379 28.2187L14.1455 28.0272C14.1455 28.0272 14.1471 28.0241 14.1532 28.0226L14.8375 27.8449C14.8375 27.8449 14.8483 27.8434 14.8499 27.8449L15.2422 28.0365Z" fill="white" stroke="#5D3C28" stroke-width="0.0772352" stroke-linecap="round" stroke-linejoin="round"/>
<path d="M9.23206 29.589C9.23206 29.589 9.23206 29.592 9.22434 29.5936L8.52922 29.7743C8.52922 29.7743 8.51841 29.7759 8.51687 29.7743L8.12451 29.5828C8.12451 29.5828 8.12606 29.5797 8.13224 29.5781L8.82735 29.3974C8.82735 29.3974 8.83817 29.3959 8.83971 29.3974L9.23206 29.589Z" fill="white" stroke="#5D3C28" stroke-width="0.0772352" stroke-linecap="round" stroke-linejoin="round"/>
<path d="M9.69564 29.4686C9.69564 29.4686 9.69564 29.4702 9.69409 29.4717L9.35272 29.5598C9.35272 29.5598 9.34654 29.5598 9.34499 29.5598L8.95264 29.3682C8.95264 29.3682 8.95264 29.3667 8.95418 29.3651L9.29556 29.2771C9.29556 29.2771 9.30174 29.2771 9.30328 29.2771L9.69564 29.4686Z" fill="white" stroke="#5D3C28" stroke-width="0.0772352" stroke-linecap="round" stroke-linejoin="round"/>
<path d="M10.1234 29.3573C10.1234 29.3573 10.1234 29.3589 10.1218 29.3604L9.78045 29.4485C9.78045 29.4485 9.77427 29.4485 9.77273 29.4485L9.38037 29.2569C9.38037 29.2569 9.38037 29.2554 9.38192 29.2538L9.7233 29.1658C9.7233 29.1658 9.72947 29.1658 9.73102 29.1658L10.1234 29.3573Z" fill="white" stroke="#5D3C28" stroke-width="0.0772352" stroke-linecap="round" stroke-linejoin="round"/>
<path d="M10.5511 29.246C10.5511 29.246 10.5511 29.2475 10.5496 29.2491L10.2082 29.3371C10.2082 29.3371 10.202 29.3371 10.2005 29.3371L9.80811 29.1456C9.80811 29.1456 9.80811 29.144 9.80965 29.1425L10.151 29.0544C10.151 29.0544 10.1572 29.0544 10.1588 29.0544L10.5511 29.246Z" fill="white" stroke="#5D3C28" stroke-width="0.0772352" stroke-linecap="round" stroke-linejoin="round"/>
<path d="M10.9803 29.1347C10.9803 29.1347 10.9803 29.1362 10.9788 29.1377L10.6374 29.2258C10.6374 29.2258 10.6312 29.2258 10.6297 29.2258L10.2373 29.0343C10.2373 29.0343 10.2373 29.0327 10.2388 29.0312L10.5802 28.9431C10.5802 28.9431 10.5864 28.9431 10.588 28.9431L10.9803 29.1347Z" fill="white" stroke="#5D3C28" stroke-width="0.0772352" stroke-linecap="round" stroke-linejoin="round"/>
<path d="M11.4066 29.0238C11.4066 29.0238 11.4066 29.0254 11.405 29.0269L11.0637 29.115C11.0637 29.115 11.0575 29.115 11.0559 29.115L10.6636 28.9234C10.6636 28.9234 10.6636 28.9219 10.6651 28.9203L11.0065 28.8323C11.0065 28.8323 11.0127 28.8323 11.0142 28.8323L11.4066 29.0238Z" fill="white" stroke="#5D3C28" stroke-width="0.0772352" stroke-linecap="round" stroke-linejoin="round"/>
<path d="M11.8358 28.9125C11.8358 28.9125 11.8358 28.914 11.8342 28.9156L11.4929 29.0036C11.4929 29.0036 11.4867 29.0036 11.4851 29.0036L11.0928 28.8121C11.0928 28.8121 11.0928 28.8105 11.0943 28.809L11.4357 28.7209C11.4357 28.7209 11.4419 28.7209 11.4434 28.7209L11.8358 28.9125Z" fill="white" stroke="#5D3C28" stroke-width="0.0772352" stroke-linecap="round" stroke-linejoin="round"/>
<path d="M12.2635 28.8014C12.2635 28.8014 12.2635 28.803 12.262 28.8045L11.9206 28.8925C11.9206 28.8925 11.9144 28.8925 11.9129 28.8925L11.5205 28.701C11.5205 28.701 11.5205 28.6995 11.5221 28.6979L11.8634 28.6099C11.8634 28.6099 11.8696 28.6099 11.8712 28.6099L12.2635 28.8014Z" fill="white" stroke="#5D3C28" stroke-width="0.0772352" stroke-linecap="round" stroke-linejoin="round"/>
<path d="M12.6912 28.6901C12.6912 28.6901 12.6912 28.6916 12.6897 28.6932L12.3483 28.7812C12.3483 28.7812 12.3421 28.7812 12.3406 28.7812L11.9482 28.5897C11.9482 28.5897 11.9482 28.5881 11.9498 28.5866L12.2912 28.4985C12.2912 28.4985 12.2973 28.4985 12.2989 28.4985L12.6912 28.6901Z" fill="white" stroke="#5D3C28" stroke-width="0.0772352" stroke-linecap="round" stroke-linejoin="round"/>
<path d="M13.119 28.5788C13.119 28.5788 13.119 28.5803 13.1174 28.5818L12.7761 28.6699C12.7761 28.6699 12.7699 28.6699 12.7683 28.6699L12.376 28.4783C12.376 28.4783 12.376 28.4768 12.3775 28.4753L12.7189 28.3872C12.7189 28.3872 12.7251 28.3872 12.7266 28.3872L13.119 28.5788Z" fill="white" stroke="#5D3C28" stroke-width="0.0772352" stroke-linecap="round" stroke-linejoin="round"/>
<path d="M13.5462 28.4677C13.5462 28.4677 13.5462 28.4692 13.5447 28.4708L13.2033 28.5588C13.2033 28.5588 13.1971 28.5588 13.1956 28.5588L12.8032 28.3673C12.8032 28.3673 12.8032 28.3657 12.8048 28.3642L13.1461 28.2761C13.1461 28.2761 13.1523 28.2761 13.1539 28.2761L13.5462 28.4677Z" fill="white" stroke="#5D3C28" stroke-width="0.0772352" stroke-linecap="round" stroke-linejoin="round"/>
<path d="M13.974 28.3566C13.974 28.3566 13.974 28.3581 13.9724 28.3597L13.631 28.4477C13.631 28.4477 13.6249 28.4477 13.6233 28.4477L13.231 28.2562C13.231 28.2562 13.231 28.2546 13.2325 28.2531L13.5739 28.165C13.5739 28.165 13.5801 28.165 13.5816 28.165L13.974 28.3566Z" fill="white" stroke="#5D3C28" stroke-width="0.0772352" stroke-linecap="round" stroke-linejoin="round"/>
<path d="M14.4017 28.2453C14.4017 28.2453 14.4017 28.2468 14.4001 28.2483L14.0588 28.3364C14.0588 28.3364 14.0526 28.3364 14.051 28.3364L13.6587 28.1448C13.6587 28.1448 13.6587 28.1433 13.6602 28.1418L14.0016 28.0537C14.0016 28.0537 14.0078 28.0537 14.0093 28.0537L14.4017 28.2453Z" fill="white" stroke="#5D3C28" stroke-width="0.0772352" stroke-linecap="round" stroke-linejoin="round"/>
<path d="M14.4157 27.6337C14.4157 27.6337 14.4157 27.6368 14.408 27.6383L13.7237 27.816C13.7237 27.816 13.7129 27.8175 13.7114 27.816L13.3159 27.6229C13.3159 27.6229 13.3175 27.6198 13.3236 27.6183L14.0079 27.4406C14.0079 27.4406 14.0188 27.4391 14.0203 27.4406L14.4157 27.6337Z" fill="white" stroke="#5D3C28" stroke-width="0.0772352" stroke-linecap="round" stroke-linejoin="round"/>
<path d="M13.165 27.9599C13.165 27.9599 13.165 27.9615 13.1635 27.963L12.8221 28.0511C12.8221 28.0511 12.8159 28.0511 12.8144 28.0511L12.4189 27.858C12.4189 27.858 12.4189 27.8564 12.4205 27.8549L12.7619 27.7668C12.7619 27.7668 12.768 27.7668 12.7696 27.7668L13.165 27.9599Z" fill="white" stroke="#5D3C28" stroke-width="0.0772352" stroke-linecap="round" stroke-linejoin="round"/>
<path d="M13.5894 27.8486C13.5894 27.8486 13.5894 27.8502 13.5878 27.8517L13.2464 27.9397C13.2464 27.9397 13.2403 27.9397 13.2387 27.9397L12.8433 27.7467C12.8433 27.7467 12.8433 27.7451 12.8448 27.7436L13.1862 27.6555C13.1862 27.6555 13.1924 27.6555 13.1939 27.6555L13.5894 27.8486Z" fill="white" stroke="#5D3C28" stroke-width="0.0772352" stroke-linecap="round" stroke-linejoin="round"/>
<path d="M8.05517 29.2863C8.05517 29.2863 8.05517 29.2879 8.05363 29.2894L7.71225 29.3775C7.71225 29.3775 7.70607 29.3775 7.70453 29.3775L7.30908 29.1844C7.30908 29.1844 7.30908 29.1829 7.31063 29.1813L7.65201 29.0933C7.65201 29.0933 7.65819 29.0933 7.65973 29.0933L8.05517 29.2863Z" fill="white" stroke="#5D3C28" stroke-width="0.0772352" stroke-linecap="round" stroke-linejoin="round"/>
<path d="M8.47949 29.177C8.47949 29.177 8.47949 29.1785 8.47795 29.1801L8.13657 29.2681C8.13657 29.2681 8.13039 29.2681 8.12884 29.2681L7.7334 29.075C7.7334 29.075 7.7334 29.0735 7.73494 29.0719L8.07632 28.9839C8.07632 28.9839 8.0825 28.9839 8.08405 28.9839L8.47949 29.177Z" fill="white" stroke="#5D3C28" stroke-width="0.0772352" stroke-linecap="round" stroke-linejoin="round"/>
<path d="M8.90576 29.0659C8.90576 29.0659 8.90576 29.0674 8.90422 29.069L8.56284 29.157C8.56284 29.157 8.55666 29.157 8.55511 29.157L8.15967 28.9639C8.15967 28.9639 8.15967 28.9624 8.16121 28.9609L8.50259 28.8728C8.50259 28.8728 8.50877 28.8728 8.51032 28.8728L8.90576 29.0659Z" fill="white" stroke="#5D3C28" stroke-width="0.0772352" stroke-linecap="round" stroke-linejoin="round"/>
<path d="M9.33203 28.956C9.33203 28.956 9.33203 28.9576 9.33049 28.9591L8.98911 29.0472C8.98911 29.0472 8.98293 29.0472 8.98138 29.0472L8.58594 28.8541C8.58594 28.8541 8.58594 28.8525 8.58748 28.851L8.92886 28.7629C8.92886 28.7629 8.93504 28.7629 8.93659 28.7629L9.33203 28.956Z" fill="white" stroke="#5D3C28" stroke-width="0.0772352" stroke-linecap="round" stroke-linejoin="round"/>
<path d="M9.75635 28.8447C9.75635 28.8447 9.75635 28.8462 9.7548 28.8478L9.41342 28.9358C9.41342 28.9358 9.40724 28.9358 9.4057 28.9358L9.01025 28.7427C9.01025 28.7427 9.01025 28.7412 9.0118 28.7397L9.35318 28.6516C9.35318 28.6516 9.35936 28.6516 9.3609 28.6516L9.75635 28.8447Z" fill="white" stroke="#5D3C28" stroke-width="0.0772352" stroke-linecap="round" stroke-linejoin="round"/>
<path d="M10.1841 28.7334C10.1841 28.7334 10.1841 28.7349 10.1825 28.7365L9.84116 28.8245C9.84116 28.8245 9.83498 28.8245 9.83343 28.8245L9.43799 28.6314C9.43799 28.6314 9.43799 28.6299 9.43953 28.6283L9.78091 28.5403C9.78091 28.5403 9.78709 28.5403 9.78864 28.5403L10.1841 28.7334Z" fill="white" stroke="#5D3C28" stroke-width="0.0772352" stroke-linecap="round" stroke-linejoin="round"/>
<path d="M10.6104 28.6242C10.6104 28.6242 10.6103 28.6258 10.6088 28.6273L10.2674 28.7154C10.2674 28.7154 10.2612 28.7154 10.2597 28.7154L9.86426 28.5223C9.86426 28.5223 9.86426 28.5207 9.8658 28.5192L10.2072 28.4312C10.2072 28.4312 10.2134 28.4312 10.2149 28.4312L10.6104 28.6242Z" fill="white" stroke="#5D3C28" stroke-width="0.0772352" stroke-linecap="round" stroke-linejoin="round"/>
<path d="M11.0347 28.5129C11.0347 28.5129 11.0347 28.5145 11.0331 28.516L10.6917 28.604C10.6917 28.604 10.6856 28.604 10.684 28.604L10.2886 28.411C10.2886 28.411 10.2886 28.4094 10.2901 28.4079L10.6315 28.3198C10.6315 28.3198 10.6377 28.3198 10.6392 28.3198L11.0347 28.5129Z" fill="white" stroke="#5D3C28" stroke-width="0.0772352" stroke-linecap="round" stroke-linejoin="round"/>
<path d="M11.4609 28.4016C11.4609 28.4016 11.4609 28.4031 11.4594 28.4047L11.118 28.4927C11.118 28.4927 11.1118 28.4927 11.1103 28.4927L10.7148 28.2996C10.7148 28.2996 10.7148 28.2981 10.7164 28.2965L11.0578 28.2085C11.0578 28.2085 11.0639 28.2085 11.0655 28.2085L11.4609 28.4016Z" fill="white" stroke="#5D3C28" stroke-width="0.0772352" stroke-linecap="round" stroke-linejoin="round"/>
<path d="M11.8882 28.2917C11.8882 28.2917 11.8882 28.2933 11.8866 28.2948L11.5453 28.3829C11.5453 28.3829 11.5391 28.3829 11.5375 28.3829L11.1421 28.1898C11.1421 28.1898 11.1421 28.1882 11.1436 28.1867L11.485 28.0986C11.485 28.0986 11.4912 28.0986 11.4927 28.0986L11.8882 28.2917Z" fill="white" stroke="#5D3C28" stroke-width="0.0772352" stroke-linecap="round" stroke-linejoin="round"/>
<path d="M12.313 28.1804C12.313 28.1804 12.313 28.1819 12.3114 28.1835L11.9701 28.2715C11.9701 28.2715 11.9639 28.2715 11.9623 28.2715L11.5669 28.0784C11.5669 28.0784 11.5669 28.0769 11.5684 28.0754L11.9098 27.9873C11.9098 27.9873 11.916 27.9873 11.9175 27.9873L12.313 28.1804Z" fill="white" stroke="#5D3C28" stroke-width="0.0772352" stroke-linecap="round" stroke-linejoin="round"/>
<path d="M12.7388 28.0691C12.7388 28.0691 12.7388 28.0706 12.7372 28.0722L12.3958 28.1602C12.3958 28.1602 12.3897 28.1602 12.3881 28.1602L11.9927 27.9671C11.9927 27.9671 11.9927 27.9656 11.9942 27.964L12.3356 27.876C12.3356 27.876 12.3418 27.876 12.3433 27.876L12.7388 28.0691Z" fill="white" stroke="#5D3C28" stroke-width="0.0772352" stroke-linecap="round" stroke-linejoin="round"/>
<path d="M12.7372 27.7654C12.7372 27.7654 12.7372 27.7669 12.7357 27.7684L12.3943 27.8565C12.3943 27.8565 12.3881 27.8565 12.3866 27.8565L11.9927 27.6634C11.9927 27.6634 11.9927 27.6619 11.9942 27.6603L12.3356 27.5723C12.3356 27.5723 12.3418 27.5723 12.3433 27.5723L12.7372 27.7654Z" fill="white" stroke="#5D3C28" stroke-width="0.0772352" stroke-linecap="round" stroke-linejoin="round"/>
<path d="M13.162 27.6557C13.162 27.6557 13.162 27.6573 13.1605 27.6588L12.8191 27.7469C12.8191 27.7469 12.8129 27.7469 12.8114 27.7469L12.4175 27.5538C12.4175 27.5538 12.4175 27.5522 12.419 27.5507L12.7604 27.4626C12.7604 27.4626 12.7666 27.4626 12.7681 27.4626L13.162 27.6557Z" fill="white" stroke="#5D3C28" stroke-width="0.0772352" stroke-linecap="round" stroke-linejoin="round"/>
<path d="M13.5849 27.5444C13.5849 27.5444 13.5849 27.546 13.5833 27.5475L13.242 27.6355C13.242 27.6355 13.2358 27.6355 13.2342 27.6355L12.8403 27.4425C12.8403 27.4425 12.8403 27.4409 12.8419 27.4394L13.1833 27.3513C13.1833 27.3513 13.1894 27.3513 13.191 27.3513L13.5849 27.5444Z" fill="white" stroke="#5D3C28" stroke-width="0.0772352" stroke-linecap="round" stroke-linejoin="round"/>
<path d="M14.0092 27.4348C14.0092 27.4348 14.0092 27.4363 14.0077 27.4379L13.6663 27.5259C13.6663 27.5259 13.6601 27.5259 13.6585 27.5259L13.2646 27.3328C13.2646 27.3328 13.2646 27.3313 13.2662 27.3297L13.6076 27.2417C13.6076 27.2417 13.6138 27.2417 13.6153 27.2417L14.0092 27.4348Z" fill="white" stroke="#5D3C28" stroke-width="0.0772352" stroke-linecap="round" stroke-linejoin="round"/>
<path d="M7.64836 29.0876C7.64836 29.0876 7.64836 29.0892 7.64681 29.0907L7.30543 29.1788C7.30543 29.1788 7.29925 29.1788 7.29771 29.1788L6.90381 28.9857C6.90381 28.9857 6.90381 28.9841 6.90535 28.9826L7.24673 28.8945C7.24673 28.8945 7.25291 28.8945 7.25446 28.8945L7.64836 29.0876Z" fill="white" stroke="#5D3C28" stroke-width="0.0772352" stroke-linecap="round" stroke-linejoin="round"/>
<path d="M8.07121 28.9778C8.07121 28.9778 8.07121 28.9793 8.06966 28.9808L7.72828 29.0689C7.72828 29.0689 7.7221 29.0689 7.72056 29.0689L7.32666 28.8758C7.32666 28.8758 7.32666 28.8743 7.32821 28.8727L7.66958 28.7847C7.66958 28.7847 7.67576 28.7847 7.67731 28.7847L8.07121 28.9778Z" fill="white" stroke="#5D3C28" stroke-width="0.0772352" stroke-linecap="round" stroke-linejoin="round"/>
<path d="M8.49699 28.8681C8.49699 28.8681 8.49699 28.8697 8.49544 28.8712L8.15406 28.9593C8.15406 28.9593 8.14789 28.9593 8.14634 28.9593L7.75244 28.7662C7.75244 28.7662 7.75244 28.7646 7.75399 28.7631L8.09537 28.675C8.09537 28.675 8.10154 28.675 8.10309 28.675L8.49699 28.8681Z" fill="white" stroke="#5D3C28" stroke-width="0.0772352" stroke-linecap="round" stroke-linejoin="round"/>
<path d="M8.91984 28.7573C8.91984 28.7573 8.91984 28.7588 8.9183 28.7604L8.57692 28.8484C8.57692 28.8484 8.57074 28.8484 8.56919 28.8484L8.17529 28.6553C8.17529 28.6553 8.17529 28.6538 8.17684 28.6523L8.51822 28.5642C8.51822 28.5642 8.5244 28.5642 8.52594 28.5642L8.91984 28.7573Z" fill="white" stroke="#5D3C28" stroke-width="0.0772352" stroke-linecap="round" stroke-linejoin="round"/>
<path d="M9.34464 28.6472C9.34464 28.6472 9.34465 28.6487 9.3431 28.6503L9.00172 28.7383C9.00172 28.7383 8.99554 28.7383 8.994 28.7383L8.6001 28.5452C8.6001 28.5452 8.6001 28.5437 8.60164 28.5422L8.94302 28.4541C8.94302 28.4541 8.9492 28.4541 8.95075 28.4541L9.34464 28.6472Z" fill="white" stroke="#5D3C28" stroke-width="0.0772352" stroke-linecap="round" stroke-linejoin="round"/>
<path d="M9.7675 28.5378C9.7675 28.5378 9.7675 28.5394 9.76595 28.5409L9.42457 28.629C9.42457 28.629 9.41839 28.629 9.41685 28.629L9.02295 28.4359C9.02295 28.4359 9.02295 28.4343 9.02449 28.4328L9.36587 28.3447C9.36587 28.3447 9.37205 28.3447 9.3736 28.3447L9.7675 28.5378Z" fill="white" stroke="#5D3C28" stroke-width="0.0772352" stroke-linecap="round" stroke-linejoin="round"/>
<path d="M10.1918 28.426C10.1918 28.426 10.1918 28.4275 10.1903 28.4291L9.84889 28.5171C9.84889 28.5171 9.84271 28.5171 9.84116 28.5171L9.44727 28.324C9.44727 28.324 9.44726 28.3225 9.44881 28.321L9.79019 28.2329C9.79019 28.2329 9.79637 28.2329 9.79791 28.2329L10.1918 28.426Z" fill="white" stroke="#5D3C28" stroke-width="0.0772352" stroke-linecap="round" stroke-linejoin="round"/>
<path d="M10.6166 28.3169C10.6166 28.3169 10.6166 28.3184 10.6151 28.32L10.2737 28.408C10.2737 28.408 10.2675 28.408 10.266 28.408L9.87207 28.2149C9.87207 28.2149 9.87207 28.2134 9.87362 28.2118L10.215 28.1238C10.215 28.1238 10.2212 28.1238 10.2227 28.1238L10.6166 28.3169Z" fill="white" stroke="#5D3C28" stroke-width="0.0772352" stroke-linecap="round" stroke-linejoin="round"/>
<path d="M11.0409 28.2068C11.0409 28.2068 11.0409 28.2083 11.0394 28.2098L10.698 28.2979C10.698 28.2979 10.6918 28.2979 10.6903 28.2979L10.2964 28.1048C10.2964 28.1048 10.2964 28.1033 10.2979 28.1017L10.6393 28.0137C10.6393 28.0137 10.6455 28.0137 10.647 28.0137L11.0409 28.2068Z" fill="white" stroke="#5D3C28" stroke-width="0.0772352" stroke-linecap="round" stroke-linejoin="round"/>
<path d="M11.4653 28.0957C11.4653 28.0957 11.4653 28.0972 11.4637 28.0988L11.1223 28.1868C11.1223 28.1868 11.1161 28.1868 11.1146 28.1868L10.7207 27.9937C10.7207 27.9937 10.7207 27.9922 10.7222 27.9906L11.0636 27.9026C11.0636 27.9026 11.0698 27.9026 11.0714 27.9026L11.4653 28.0957Z" fill="white" stroke="#5D3C28" stroke-width="0.0772352" stroke-linecap="round" stroke-linejoin="round"/>
<path d="M11.8901 27.9861C11.8901 27.9861 11.8901 27.9876 11.8885 27.9891L11.5471 28.0772C11.5471 28.0772 11.541 28.0772 11.5394 28.0772L11.1455 27.8841C11.1455 27.8841 11.1455 27.8826 11.1471 27.881L11.4884 27.793C11.4884 27.793 11.4946 27.793 11.4962 27.793L11.8901 27.9861Z" fill="white" stroke="#5D3C28" stroke-width="0.0772352" stroke-linecap="round" stroke-linejoin="round"/>
<path d="M12.3144 27.8747C12.3144 27.8747 12.3144 27.8763 12.3128 27.8778L11.9714 27.9659C11.9714 27.9659 11.9653 27.9659 11.9637 27.9659L11.5698 27.7728C11.5698 27.7728 11.5698 27.7712 11.5714 27.7697L11.9127 27.6816C11.9127 27.6816 11.9189 27.6816 11.9205 27.6816L12.3144 27.8747Z" fill="white" stroke="#5D3C28" stroke-width="0.0772352" stroke-linecap="round" stroke-linejoin="round"/>
<path d="M14.8114 27.8266C14.8114 27.8266 14.8114 27.8281 14.8067 27.8296L14.3016 27.9609C14.3016 27.9609 14.2939 27.9609 14.2908 27.9609L13.9077 27.774C13.9077 27.774 13.9077 27.7725 13.9123 27.7709L14.4175 27.6396C14.4175 27.6396 14.4267 27.6396 14.4283 27.6396L14.8114 27.8266Z" fill="white" stroke="#5D3C28" stroke-width="0.0772352" stroke-linecap="round" stroke-linejoin="round"/>
<path d="M8.61955 29.4345C8.61955 29.4345 8.61955 29.436 8.61492 29.4376L8.10825 29.5689C8.10825 29.5689 8.09899 29.5689 8.09744 29.5689L7.71436 29.3819C7.71436 29.3819 7.71436 29.3804 7.71899 29.3789L8.22565 29.2476C8.22565 29.2476 8.23492 29.2476 8.23647 29.2476L8.61955 29.4345Z" fill="white" stroke="#5D3C28" stroke-width="0.0772352" stroke-linecap="round" stroke-linejoin="round"/>
<path d="M9.0433 29.3251C9.0433 29.3251 9.0433 29.3266 9.04176 29.3282L8.70038 29.4162C8.70038 29.4162 8.6942 29.4162 8.69266 29.4162L8.30957 29.2293C8.30957 29.2293 8.30957 29.2278 8.31112 29.2262L8.65249 29.1382C8.65249 29.1382 8.65867 29.1382 8.66022 29.1382L9.0433 29.3251Z" fill="white" stroke="#5D3C28" stroke-width="0.0772352" stroke-linecap="round" stroke-linejoin="round"/>
<path d="M9.47104 29.2138C9.47104 29.2138 9.47104 29.2153 9.46949 29.2169L9.12812 29.3049C9.12812 29.3049 9.12194 29.3049 9.12039 29.3049L8.7373 29.118C8.7373 29.118 8.7373 29.1164 8.73885 29.1149L9.08023 29.0269C9.08023 29.0269 9.08641 29.0269 9.08795 29.0269L9.47104 29.2138Z" fill="white" stroke="#5D3C28" stroke-width="0.0772352" stroke-linecap="round" stroke-linejoin="round"/>
<path d="M9.90024 29.1024C9.90024 29.1024 9.90024 29.104 9.89869 29.1055L9.55731 29.1936C9.55731 29.1936 9.55113 29.1936 9.54959 29.1936L9.1665 29.0067C9.1665 29.0067 9.1665 29.0051 9.16805 29.0036L9.50943 28.9155C9.50943 28.9155 9.51561 28.9155 9.51715 28.9155L9.90024 29.1024Z" fill="white" stroke="#5D3C28" stroke-width="0.0772352" stroke-linecap="round" stroke-linejoin="round"/>
<path d="M10.328 28.9911C10.328 28.9911 10.328 28.9927 10.3264 28.9942L9.98505 29.0822C9.98505 29.0822 9.97887 29.0822 9.97733 29.0822L9.59424 28.8953C9.59424 28.8953 9.59424 28.8938 9.59578 28.8922L9.93716 28.8042C9.93716 28.8042 9.94334 28.8042 9.94489 28.8042L10.328 28.9911Z" fill="white" stroke="#5D3C28" stroke-width="0.0772352" stroke-linecap="round" stroke-linejoin="round"/>
<path d="M10.7572 28.8803C10.7572 28.8803 10.7572 28.8818 10.7556 28.8834L10.4142 28.9714C10.4142 28.9714 10.4081 28.9714 10.4065 28.9714L10.0234 28.7845C10.0234 28.7845 10.0234 28.783 10.025 28.7814L10.3664 28.6934C10.3664 28.6934 10.3725 28.6934 10.3741 28.6934L10.7572 28.8803Z" fill="white" stroke="#5D3C28" stroke-width="0.0772352" stroke-linecap="round" stroke-linejoin="round"/>
<path d="M11.1849 28.7689C11.1849 28.7689 11.1849 28.7705 11.1834 28.772L10.842 28.8601C10.842 28.8601 10.8358 28.8601 10.8343 28.8601L10.4512 28.6732C10.4512 28.6732 10.4512 28.6716 10.4527 28.6701L10.7941 28.582C10.7941 28.582 10.8003 28.582 10.8018 28.582L11.1849 28.7689Z" fill="white" stroke="#5D3C28" stroke-width="0.0772352" stroke-linecap="round" stroke-linejoin="round"/>
<path d="M11.6126 28.6576C11.6126 28.6576 11.6126 28.6592 11.6111 28.6607L11.2697 28.7488C11.2697 28.7488 11.2635 28.7488 11.262 28.7488L10.8789 28.5618C10.8789 28.5618 10.8789 28.5603 10.8805 28.5588L11.2218 28.4707C11.2218 28.4707 11.228 28.4707 11.2296 28.4707L11.6126 28.6576Z" fill="white" stroke="#5D3C28" stroke-width="0.0772352" stroke-linecap="round" stroke-linejoin="round"/>
<path d="M12.0404 28.5463C12.0404 28.5463 12.0404 28.5478 12.0388 28.5494L11.6975 28.6374C11.6975 28.6374 11.6913 28.6374 11.6897 28.6374L11.3066 28.4505C11.3066 28.4505 11.3066 28.449 11.3082 28.4474L11.6496 28.3594C11.6496 28.3594 11.6557 28.3594 11.6573 28.3594L12.0404 28.5463Z" fill="white" stroke="#5D3C28" stroke-width="0.0772352" stroke-linecap="round" stroke-linejoin="round"/>
<path d="M12.4681 28.435C12.4681 28.435 12.4681 28.4365 12.4666 28.438L12.1252 28.5261C12.1252 28.5261 12.119 28.5261 12.1175 28.5261L11.7344 28.3392C11.7344 28.3392 11.7344 28.3376 11.7359 28.3361L12.0773 28.248C12.0773 28.248 12.0835 28.248 12.085 28.248L12.4681 28.435Z" fill="white" stroke="#5D3C28" stroke-width="0.0772352" stroke-linecap="round" stroke-linejoin="round"/>
<path d="M12.8958 28.3241C12.8958 28.3241 12.8958 28.3257 12.8943 28.3272L12.5529 28.4153C12.5529 28.4153 12.5467 28.4153 12.5452 28.4153L12.1621 28.2283C12.1621 28.2283 12.1621 28.2268 12.1637 28.2253L12.505 28.1372C12.505 28.1372 12.5112 28.1372 12.5128 28.1372L12.8958 28.3241Z" fill="white" stroke="#5D3C28" stroke-width="0.0772352" stroke-linecap="round" stroke-linejoin="round"/>
<path d="M13.3236 28.2128C13.3236 28.2128 13.3236 28.2143 13.322 28.2159L12.9807 28.3039C12.9807 28.3039 12.9745 28.3039 12.9729 28.3039L12.5898 28.117C12.5898 28.117 12.5898 28.1155 12.5914 28.1139L12.9328 28.0259C12.9328 28.0259 12.9389 28.0259 12.9405 28.0259L13.3236 28.2128Z" fill="white" stroke="#5D3C28" stroke-width="0.0772352" stroke-linecap="round" stroke-linejoin="round"/>
<path d="M13.7508 28.1015C13.7508 28.1015 13.7508 28.103 13.7493 28.1045L13.4079 28.1926C13.4079 28.1926 13.4017 28.1926 13.4002 28.1926L13.0171 28.0057C13.0171 28.0057 13.0171 28.0041 13.0186 28.0026L13.36 27.9146C13.36 27.9146 13.3662 27.9146 13.3677 27.9146L13.7508 28.1015Z" fill="white" stroke="#5D3C28" stroke-width="0.0772352" stroke-linecap="round" stroke-linejoin="round"/>
<path d="M14.1786 27.9901C14.1786 27.9901 14.1786 27.9917 14.177 27.9932L13.8356 28.0813C13.8356 28.0813 13.8295 28.0813 13.8279 28.0813L13.4448 27.8944C13.4448 27.8944 13.4448 27.8928 13.4464 27.8913L13.7877 27.8032C13.7877 27.8032 13.7939 27.8032 13.7955 27.8032L14.1786 27.9901Z" fill="white" stroke="#5D3C28" stroke-width="0.0772352" stroke-linecap="round" stroke-linejoin="round"/>
<path d="M13.144 27.0866L12.852 27.1623L12.73 27.1021L13.0219 27.0264L13.144 27.0866Z" fill="white" stroke="#5D3C28" stroke-width="0.0772352" stroke-linecap="round" stroke-linejoin="round"/>
<path d="M12.9024 26.1705C12.9194 26.5011 12.8205 26.6679 12.5471 26.7235L5.71335 28.4968C5.44148 28.5524 5.20669 28.3315 5.1897 28.001L4.69385 22.5744C4.67685 22.2439 4.88385 21.9318 5.15726 21.8747L12.0868 20.4458C12.3587 20.3902 12.5935 20.6111 12.6105 20.9417L12.9039 26.169L12.9024 26.1705Z" fill="#5D3C28" stroke="#5D3C28" stroke-width="0.308941" stroke-linecap="round" stroke-linejoin="round"/>
<path d="M12.2261 25.9744C12.2261 25.993 12.1859 26.0161 12.1365 26.0269L5.9762 27.5269C5.92523 27.5377 5.88352 27.5315 5.88198 27.513L5.44482 23.0657C5.44482 23.0472 5.48499 23.024 5.53442 23.0132L11.8878 21.7033C11.9388 21.6925 11.9805 21.6987 11.982 21.7172L12.2245 25.9744H12.2261Z" fill="white" stroke="#5D3C28" stroke-width="0.308941" stroke-linecap="round" stroke-linejoin="round"/>
<path d="M8.78976 21.5952C8.79439 21.6925 8.7326 21.7852 8.65228 21.8022C8.57195 21.8192 8.50244 21.7528 8.49781 21.6554C8.49317 21.5581 8.55342 21.4654 8.63529 21.4485C8.71716 21.4315 8.78512 21.4979 8.78976 21.5952Z" fill="white" stroke="#5D3C28" stroke-width="0.308941" stroke-linecap="round" stroke-linejoin="round"/>
<path d="M50.9403 23.9633C53.0355 23.9633 54.7341 22.2648 54.7341 20.1695C54.7341 18.0743 53.0355 16.3757 50.9403 16.3757C48.845 16.3757 47.1465 18.0743 47.1465 20.1695C47.1465 22.2648 48.845 23.9633 50.9403 23.9633Z" fill="#F8B62D" stroke="#5D3820" stroke-width="0.772352" stroke-linecap="round" stroke-linejoin="round"/>
<path fill-rule="evenodd" clip-rule="evenodd" d="M47.8411 28.2977C47.8411 28.2977 50.376 33.5512 48.8915 36.9759C47.9323 39.191 44.9154 40.0452 39.7175 40.2275L40.1686 38.3275C40.1686 38.3275 40.0481 36.9094 40.0481 36.9017C39.9724 35.9996 38.5296 36.0135 37.2939 36.4568C36.659 36.6839 36.2744 37.0392 34.8193 37.5891L32.0913 34.4178C32.0913 34.4178 34.8687 33.8293 35.6287 27.7385L47.8411 28.2977Z" fill="#F8B62D" stroke="#5D3820" stroke-width="0.772352" stroke-linecap="round" stroke-linejoin="round"/>
<path d="M35.5243 36.7847C35.76 35.6634 34.9602 34.5462 33.7379 34.2893C32.5156 34.0324 31.3338 34.7331 31.0981 35.8543C30.8624 36.9756 31.6622 38.0928 32.8845 38.3497C34.1067 38.6066 35.2886 37.9059 35.5243 36.7847Z" fill="#9F692D" stroke="#5D3820" stroke-width="0.772352" stroke-linecap="round" stroke-linejoin="round"/>
<path fill-rule="evenodd" clip-rule="evenodd" d="M40.2435 39.1356C39.8203 40.4393 38.3899 41.1004 37.0491 40.6108C35.7083 40.1211 34.9653 38.6675 35.3901 37.3638C35.8133 36.0601 37.2437 35.3989 38.5845 35.8886C39.9253 36.3783 40.6683 37.8318 40.2435 39.1356Z" fill="#9F692D" stroke="#5D3820" stroke-width="0.772352" stroke-linecap="round" stroke-linejoin="round"/>
<path d="M35.9718 18.2447C37.8512 18.2447 39.3748 16.7211 39.3748 14.8417C39.3748 12.9623 37.8512 11.4387 35.9718 11.4387C34.0924 11.4387 32.5688 12.9623 32.5688 14.8417C32.5688 16.7211 34.0924 18.2447 35.9718 18.2447Z" fill="#F8B62D" stroke="#5D3820" stroke-width="0.772352" stroke-linecap="round" stroke-linejoin="round"/>
<path fill-rule="evenodd" clip-rule="evenodd" d="M51.7243 24.8157C52.8844 19.6981 49.1926 15.1459 43.6687 13.6707C38.1449 12.1955 32.6611 14.7983 31.2385 19.848C29.8699 24.7045 33.571 28.5107 39.376 30.0616C47.6726 32.2782 50.9566 28.2095 51.7259 24.8157H51.7243Z" fill="#F8B62D" stroke="#5D3820" stroke-width="0.772352" stroke-linecap="round" stroke-linejoin="round"/>
<path fill-rule="evenodd" clip-rule="evenodd" d="M47.5072 24.7573C46.5911 28.1866 42.9456 29.3204 38.8136 28.2175C34.6799 27.113 32.1204 24.3202 33.0271 20.9249C33.9601 17.4308 37.672 15.9139 41.8057 17.0184C45.9393 18.1228 48.4587 21.1968 47.5087 24.7573H47.5072Z" fill="#9F692D" stroke="#5D3820" stroke-width="0.772352" stroke-linecap="round" stroke-linejoin="round"/>
<path d="M42.9792 24.0835C43.3469 24.0835 43.645 23.7854 43.645 23.4177C43.645 23.05 43.3469 22.752 42.9792 22.752C42.6116 22.752 42.3135 23.05 42.3135 23.4177C42.3135 23.7854 42.6116 24.0835 42.9792 24.0835Z" fill="#5D3820"/>
<path d="M36.6135 22.3831C36.9812 22.3831 37.2793 22.085 37.2793 21.7173C37.2793 21.3496 36.9812 21.0515 36.6135 21.0515C36.2458 21.0515 35.9478 21.3496 35.9478 21.7173C35.9478 22.085 36.2458 22.3831 36.6135 22.3831Z" fill="#5D3820"/>
<path fill-rule="evenodd" clip-rule="evenodd" d="M42.0957 25.1895C41.7049 26.6523 40.2498 27.0725 38.702 26.6601C37.1557 26.2476 36.1208 25.0937 36.4946 23.6942C36.8607 22.3256 38.3405 21.8112 39.8883 22.2237C41.4346 22.6361 42.4618 23.8209 42.0957 25.1895Z" fill="#F2D6A1"/>
<path fill-rule="evenodd" clip-rule="evenodd" d="M39.7865 23.8908C39.6783 24.2986 39.1192 24.4191 38.8735 24.3542C38.6542 24.2955 38.2031 23.9047 38.3128 23.4969C38.4209 23.0891 38.7639 23.1324 39.1717 23.2405C39.5795 23.3486 39.8961 23.483 39.788 23.8908H39.7865Z" fill="#5D3820"/>
<path d="M38.1108 24.9209L38.8183 24.7217L39.2632 25.1805" stroke="#5D3820" stroke-width="0.463411" stroke-linecap="round" stroke-linejoin="round"/>
<path d="M38.9283 24.1499L38.7847 24.6875" stroke="#5D3820" stroke-width="0.463411" stroke-linecap="round" stroke-linejoin="round"/>
<path fill-rule="evenodd" clip-rule="evenodd" d="M28.6075 27.1716L29.3057 26.9183L29.6872 26.8225L30.163 26.4734C30.163 26.4734 33.5598 27.5207 33.8456 28.982C33.8456 28.982 35.9418 27.394 38.957 28.0289L39.2428 28.2189L39.6552 28.3147L40.0043 28.7271L39.7186 29.7435L33.2416 30.6642L31.6228 29.172L28.606 27.1716H28.6075Z" fill="white" stroke="#5D3820" stroke-width="0.463411" stroke-linecap="round" stroke-linejoin="round"/>
<path fill-rule="evenodd" clip-rule="evenodd" d="M28.6075 27.1716C28.6075 27.1716 32.0676 27.8698 33.1474 29.3311L34.4171 29.4578C34.4171 29.4578 37.2424 28.1556 40.1959 28.6963L41.0207 34.3159C41.0207 34.3159 36.4484 34.2834 35.5911 34.7608C35.5911 34.7608 34.638 35.1423 34.2256 34.7608C34.2256 34.7608 30.6063 33.1419 30.0981 33.0461L28.606 27.1732L28.6075 27.1716Z" fill="#5D3C28" stroke="#5D3820" stroke-width="0.463411" stroke-linecap="round" stroke-linejoin="round"/>
<path d="M33.1479 29.3308L34.2277 34.7589" stroke="#5D3820" stroke-width="0.463411" stroke-linecap="round" stroke-linejoin="round"/>
<path d="M34.4165 29.4578L35.4005 34.855" stroke="#5D3820" stroke-width="0.463411" stroke-linecap="round" stroke-linejoin="round"/>
<path d="M35.8662 31.6247L35.4958 30.3285L35.9337 30.2033C36.035 30.1744 36.1231 30.1679 36.1979 30.184C36.2727 30.1996 36.3342 30.2329 36.3826 30.2839C36.4309 30.3349 36.466 30.3985 36.4879 30.4749C36.5097 30.5513 36.5134 30.6235 36.4991 30.6915C36.4847 30.7595 36.4501 30.8196 36.3952 30.8718C36.3402 30.9236 36.2624 30.9638 36.162 30.9925L35.8076 31.0938L35.7671 30.952L36.1164 30.8522C36.1856 30.8324 36.2384 30.8064 36.2748 30.774C36.3117 30.7416 36.3343 30.7041 36.3427 30.6616C36.3513 30.6185 36.3483 30.571 36.3334 30.5191C36.3186 30.4672 36.2959 30.4246 36.2654 30.3913C36.2349 30.358 36.1953 30.3369 36.1467 30.328C36.0979 30.3187 36.0385 30.324 35.9685 30.344L35.6925 30.4229L36.0232 31.5799L35.8662 31.6247ZM36.3099 30.8681L36.7953 31.3592L36.6131 31.4113L36.1327 30.9187L36.3099 30.8681Z" fill="#5D3820"/>
<path d="M37.5048 30.5399C37.5353 30.6787 37.5366 30.8043 37.5087 30.9164C37.4808 31.0286 37.4292 31.1217 37.3538 31.1958C37.2784 31.2699 37.1846 31.3193 37.0723 31.344C36.96 31.3687 36.8541 31.3632 36.7546 31.3276C36.6551 31.2919 36.5692 31.229 36.4968 31.1389C36.4244 31.0488 36.373 30.9343 36.3424 30.7954C36.3119 30.6566 36.3106 30.5311 36.3385 30.4189C36.3664 30.3067 36.4181 30.2136 36.4934 30.1395C36.5688 30.0654 36.6626 30.016 36.7749 29.9913C36.8872 29.9666 36.9931 29.9721 37.0926 30.0077C37.1921 30.0434 37.278 30.1063 37.3504 30.1964C37.4228 30.2865 37.4743 30.401 37.5048 30.5399ZM37.3505 30.5738C37.3254 30.4598 37.2852 30.3678 37.2298 30.2977C37.1749 30.2276 37.1106 30.1795 37.037 30.1534C36.9639 30.1273 36.8874 30.123 36.8077 30.1405C36.728 30.158 36.6602 30.194 36.6043 30.2485C36.5489 30.303 36.5107 30.3736 36.4898 30.4604C36.4694 30.5471 36.4717 30.6475 36.4967 30.7615C36.5218 30.8755 36.5618 30.9676 36.6168 31.0377C36.6722 31.1078 36.7364 31.1559 36.8096 31.182C36.8832 31.2081 36.9598 31.2124 37.0395 31.1948C37.1192 31.1773 37.1868 31.1413 37.2423 31.0869C37.2981 31.0324 37.3363 30.9618 37.3568 30.875C37.3777 30.7882 37.3756 30.6878 37.3505 30.5738Z" fill="#5D3820"/>
<path d="M38.3408 30.4447C38.3619 30.5853 38.3548 30.7107 38.3195 30.8207C38.2841 30.9308 38.2263 31.0202 38.1461 31.0891C38.0659 31.1579 37.969 31.2009 37.8553 31.218C37.7416 31.2351 37.6363 31.2225 37.5394 31.1803C37.4426 31.138 37.361 31.0695 37.2949 30.9748C37.2287 30.88 37.1851 30.7623 37.1639 30.6217C37.1428 30.4811 37.1499 30.3557 37.1853 30.2457C37.2206 30.1357 37.2784 30.0462 37.3586 29.9773C37.4388 29.9085 37.5357 29.8655 37.6494 29.8484C37.7631 29.8313 37.8684 29.8439 37.9653 29.8861C38.0622 29.9284 38.1437 29.9969 38.2098 30.0917C38.276 30.1864 38.3197 30.3041 38.3408 30.4447ZM38.1846 30.4682C38.1672 30.3528 38.1333 30.2583 38.0827 30.1847C38.0326 30.111 37.9717 30.0587 37.9 30.0277C37.8288 29.9967 37.7528 29.9873 37.6721 29.9994C37.5914 30.0116 37.5213 30.043 37.4619 30.0936C37.403 30.1442 37.3602 30.2121 37.3335 30.2973C37.3072 30.3825 37.3028 30.4828 37.3201 30.5982C37.3375 30.7136 37.3712 30.8082 37.4214 30.8818C37.4719 30.9555 37.5328 31.0078 37.604 31.0388C37.6757 31.0697 37.7519 31.0791 37.8326 31.067C37.9133 31.0548 37.9832 31.0235 38.0421 30.9729C38.1015 30.9223 38.1443 30.8544 38.1706 30.7692C38.1973 30.684 38.2019 30.5837 38.1846 30.4682Z" fill="#5D3820"/>
<path d="M38.0093 29.8261L38.2037 29.8124L38.7392 30.8966L38.7549 30.8955L39.1335 29.7471L39.3279 29.7334L39.4224 31.0782L39.27 31.0889L39.1982 30.0672L39.1851 30.0681L38.8366 31.1194L38.6896 31.1297L38.1975 30.1375L38.1844 30.1385L38.2562 31.1602L38.1038 31.1709L38.0093 29.8261Z" fill="#5D3820"/>
<path d="M38.9783 31.1259L38.995 29.7779L39.8085 29.788L39.8067 29.9328L39.1564 29.9247L39.1508 30.3802L39.759 30.3877L39.7572 30.5325L39.149 30.525L39.1433 30.9831L39.8042 30.9913L39.8024 31.1361L38.9783 31.1259Z" fill="#5D3820"/>
<path d="M31.5109 30.8566C31.5811 29.9148 30.9179 29.0977 30.0297 29.0315C29.1415 28.9654 28.3647 29.6752 28.2945 30.617C28.2244 31.5588 28.8875 32.3759 29.7757 32.4421C30.6639 32.5082 31.4408 31.7984 31.5109 30.8566Z" fill="#9F692D" stroke="#5D3820" stroke-width="0.772352" stroke-linecap="round" stroke-linejoin="round"/>
<path fill-rule="evenodd" clip-rule="evenodd" d="M46.105 30.9375C46.105 30.9375 41.2577 29.4067 40.1826 31.75C40.1826 31.75 39.7949 33.375 40.7634 34.0732C40.7634 34.0732 44.1309 35.4665 46.105 34.3049" fill="#F8B62D"/>
<path d="M46.105 30.9375C46.105 30.9375 41.2577 29.4067 40.1826 31.75C40.1826 31.75 39.7949 33.375 40.7634 34.0732C40.7634 34.0732 44.1309 35.4665 46.105 34.3049" stroke="#5D3820" stroke-width="0.772352" stroke-linecap="round" stroke-linejoin="round"/>
<path d="M42.2565 32.8369C42.3323 31.8194 41.6158 30.9366 40.6561 30.8651C39.6965 30.7936 38.8571 31.5605 38.7813 32.578C38.7055 33.5956 39.422 34.4784 40.3817 34.5498C41.3413 34.6213 42.1807 33.8544 42.2565 32.8369Z" fill="#9F692D" stroke="#5D3820" stroke-width="0.772352" stroke-linecap="round" stroke-linejoin="round"/>
</svg>
