<svg width="77" height="71" viewBox="0 0 77 71" fill="none" xmlns="http://www.w3.org/2000/svg">
<path d="M55.1307 23.6474C58.8 23.6474 61.7746 20.6728 61.7746 17.0035C61.7746 13.3342 58.8 10.3596 55.1307 10.3596C51.4614 10.3596 48.4868 13.3342 48.4868 17.0035C48.4868 20.6728 51.4614 23.6474 55.1307 23.6474Z" fill="#F8B62D" stroke="#5D3C28" stroke-width="0.979345" stroke-linecap="round" stroke-linejoin="round"/>
<path fill-rule="evenodd" clip-rule="evenodd" d="M24.8662 52.836C25.3657 54.8397 23.4599 40.5746 32.225 35.6681L53.3789 35.2078C53.3789 35.2078 58.0797 45.4321 54.5286 51.3023C53.1203 53.6312 52.2918 54.3677 47.491 55.2393L42.7961 54.1405" fill="#F8B62D"/>
<path d="M24.8662 52.836C25.3657 54.8397 23.4599 40.5746 32.225 35.6681L53.3789 35.2078C53.3789 35.2078 58.0797 45.4321 54.5286 51.3023C53.1203 53.6312 52.2918 54.3677 47.491 55.2393L42.7961 54.1405" stroke="#5D3C28" stroke-width="0.979345" stroke-linecap="round" stroke-linejoin="round"/>
<path d="M26.9237 20.3996C30.2155 20.3996 32.884 17.7311 32.884 14.4393C32.884 11.1475 30.2155 8.479 26.9237 8.479C23.6319 8.479 20.9634 11.1475 20.9634 14.4393C20.9634 17.7311 23.6319 20.3996 26.9237 20.3996Z" fill="#F8B62D" stroke="#5D3C28" stroke-width="0.979345" stroke-linecap="round" stroke-linejoin="round"/>
<path fill-rule="evenodd" clip-rule="evenodd" d="M59.518 25.1827C59.1204 16.0004 50.7842 10.0107 40.7694 10.0636C30.7546 10.1165 22.6888 17.0404 22.6104 26.2306C22.534 35.0682 30.5431 39.7926 41.0671 39.7377C56.1079 39.6594 59.7824 31.2703 59.518 25.1827Z" fill="#F8B62D" stroke="#5D3C28" stroke-width="0.979345" stroke-linecap="round" stroke-linejoin="round"/>
<path fill-rule="evenodd" clip-rule="evenodd" d="M55.1284 27.2573C55.1617 33.4722 49.5246 37.0703 42.0326 37.1095C34.5406 37.1487 28.925 33.6093 28.8937 27.4531C28.8604 21.1187 34.4348 16.8449 41.9268 16.8057C49.4188 16.7665 55.0971 20.8014 55.1304 27.2553L55.1284 27.2573Z" fill="#9F692D" stroke="#5D3C28" stroke-width="0.979345" stroke-linecap="round" stroke-linejoin="round"/>
<path d="M48.4647 28.2478C49.1095 28.2478 49.6321 27.7252 49.6321 27.0805C49.6321 26.4357 49.1095 25.9131 48.4647 25.9131C47.82 25.9131 47.2974 26.4357 47.2974 27.0805C47.2974 27.7252 47.82 28.2478 48.4647 28.2478Z" fill="#5D3C28"/>
<path d="M36.9291 28.3086C37.5738 28.3086 38.0965 27.786 38.0965 27.1413C38.0965 26.4965 37.5738 25.9739 36.9291 25.9739C36.2844 25.9739 35.7617 26.4965 35.7617 27.1413C35.7617 27.786 36.2844 28.3086 36.9291 28.3086Z" fill="#5D3C28"/>
<path fill-rule="evenodd" clip-rule="evenodd" d="M47.7921 30.4832C47.8058 33.1352 45.5396 34.5161 42.7367 34.5318C39.9338 34.5474 37.652 33.0745 37.6382 30.536C37.6245 28.0544 39.8907 26.5031 42.6936 26.4874C45.4965 26.4718 47.7784 28.0015 47.7921 30.4832Z" fill="#F2D6A1"/>
<path fill-rule="evenodd" clip-rule="evenodd" d="M44.7952 29.2783C44.7991 30.0167 43.9099 30.479 43.4653 30.481C43.0657 30.4829 42.1255 30.0305 42.1216 29.292C42.1177 28.5536 42.7151 28.4674 43.4535 28.4635C44.1919 28.4596 44.7913 28.5399 44.7952 29.2764V29.2783Z" fill="#5D3C28"/>
<path d="M42.439 31.7934L43.5437 31.1274L44.5054 31.7013" stroke="#5D3C28" stroke-width="0.587607" stroke-linecap="round" stroke-linejoin="round"/>
<path d="M43.4639 30.1128L43.4678 31.0882" stroke="#5D3C28" stroke-width="0.587607" stroke-linecap="round" stroke-linejoin="round"/>
<path d="M6.75 48.4307H70.5191" stroke="#5D3C28" stroke-width="0.979345" stroke-linecap="round" stroke-linejoin="round"/>
<path fill-rule="evenodd" clip-rule="evenodd" d="M59.4446 42.0609C59.7149 39.8045 58.3732 38.2512 56.8983 36.7332C55.2079 34.9939 54.3872 36.3787 53.0769 37.74C51.3748 39.5087 50.1897 41.9629 50.5756 44.3878C51.0183 47.1731 54.1091 47.1809 56.1853 46.2779C57.8541 45.5532 59.1684 44.0019 59.4289 42.1823C59.4348 42.1412 59.4406 42.1001 59.4446 42.0609Z" fill="#F8B62D" stroke="#5D3C28" stroke-width="0.979345" stroke-linecap="round" stroke-linejoin="round"/>
<path d="M45.1877 47.2456C51.9638 47.2456 57.4569 45.2655 57.4569 42.8229C57.4569 40.3803 51.9638 38.4001 45.1877 38.4001C38.4116 38.4001 32.9185 40.3803 32.9185 42.8229C32.9185 45.2655 38.4116 47.2456 45.1877 47.2456Z" fill="#ECDEC5" stroke="#5D3C28" stroke-width="0.979345" stroke-linecap="round" stroke-linejoin="round"/>
<path d="M45.1888 41.855C40.347 41.855 36.3356 43.4709 35.6069 45.5863C37.8555 46.5989 41.3126 47.2473 45.1888 47.2473C49.0651 47.2473 52.5222 46.5989 54.7708 45.5863C54.0421 43.4729 50.0307 41.855 45.1888 41.855Z" fill="white" stroke="#5D3C28" stroke-width="0.979345" stroke-linecap="round" stroke-linejoin="round"/>
<path d="M57.3415 36.3964C58.1183 35.6893 58.1748 34.4865 57.4677 33.7097C56.7607 32.9329 55.5578 32.8764 54.781 33.5835L49.7867 38.1296C49.0099 38.8366 48.9534 40.0395 49.6604 40.8163C50.3675 41.5931 51.5704 41.6496 52.3472 40.9425L57.3415 36.3964Z" fill="#D1AB79" stroke="#5D3C28" stroke-width="0.979345" stroke-linecap="round" stroke-linejoin="round"/>
<path d="M46.9124 47.8155C49.1067 45.8181 49.9252 43.1438 48.7404 41.8423C47.5557 40.5407 44.8164 41.1048 42.6221 43.1022C40.4278 45.0996 39.6093 47.7739 40.7941 49.0754C41.9788 50.377 44.7181 49.8129 46.9124 47.8155Z" stroke="#5D3C28" stroke-width="0.979345" stroke-linecap="round" stroke-linejoin="round"/>
<path d="M45.8553 46.6547C48.0496 44.6573 49.3486 42.5108 48.7566 41.8605C48.1645 41.2101 45.9058 42.3021 43.7115 44.2994C41.5171 46.2968 40.2182 48.4433 40.8102 49.0936C41.4022 49.744 43.661 48.652 45.8553 46.6547Z" stroke="#5D3C28" stroke-width="0.979345" stroke-linecap="round" stroke-linejoin="round"/>
<path d="M48.7574 41.8613L40.8091 49.0967" stroke="#5D3C28" stroke-width="0.979345" stroke-linecap="round" stroke-linejoin="round"/>
<path d="M50.186 41.2392L49.354 40.3252L48.159 41.4129L48.991 42.3269L50.186 41.2392Z" fill="white" stroke="#5D3C28" stroke-width="0.979345" stroke-linecap="round" stroke-linejoin="round"/>
<path d="M41.3318 43.2812C41.3318 43.2812 43.1396 46.1351 49.1313 45.8491L50.0832 49.5589L36.958 49.6548L38.2899 45.6611L41.3337 43.2832L41.3318 43.2812Z" fill="white"/>
<path fill-rule="evenodd" clip-rule="evenodd" d="M51.3956 55.3603C50.524 56.1849 48.2578 57.2622 44.928 57.2622C41.5983 57.2622 39.3987 56.1183 38.5564 55.2643C32.459 49.0925 32.9252 42.9187 32.9252 42.9187C34.2767 45.9449 39.4124 47.3414 45.1944 47.3414C51.4916 47.3414 56.5313 45.4689 57.4637 42.9187C57.4637 42.9187 56.8173 50.2246 51.3956 55.3603Z" fill="#ECDEC5" stroke="#5D3C28" stroke-width="0.979345" stroke-linecap="round" stroke-linejoin="round"/>
<path d="M57.1647 37.6423C57.2015 35.8557 55.8654 34.3791 54.1804 34.3444C52.4953 34.3097 51.0995 35.73 51.0627 37.5166C51.0259 39.3033 52.3621 40.7798 54.0471 40.8146C55.7321 40.8493 57.1279 39.429 57.1647 37.6423Z" fill="#9F692D" stroke="#5D3C28" stroke-width="0.979345" stroke-linecap="round" stroke-linejoin="round"/>
<path fill-rule="evenodd" clip-rule="evenodd" d="M30.8599 41.4557C30.8599 41.4557 33.6099 41.2501 34.8556 45.4515C35.0025 45.2164 35.5862 49.1573 32.797 49.3277C32.797 49.3277 30.4955 49.4491 28.8013 47.0263" fill="#F8B62D"/>
<path d="M30.8599 41.4557C30.8599 41.4557 33.6099 41.2501 34.8556 45.4515C35.0025 45.2164 35.5862 49.1573 32.797 49.3277C32.797 49.3277 30.4955 49.4491 28.8013 47.0263" stroke="#5D3C28" stroke-width="0.979345" stroke-linecap="round" stroke-linejoin="round"/>
<path d="M36.9256 46.7884C36.9597 45.1347 35.723 43.7681 34.1635 43.736C32.6039 43.7039 31.312 45.0184 31.278 46.6721C31.2439 48.3257 32.4806 49.6923 34.0401 49.7244C35.5997 49.7565 36.8916 48.442 36.9256 46.7884Z" fill="#9F692D" stroke="#5D3C28" stroke-width="0.979345" stroke-linecap="round" stroke-linejoin="round"/>
<path fill-rule="evenodd" clip-rule="evenodd" d="M45.332 12.2026L46.4817 7.42535C47.9351 6.45579 48.0507 5.2845 47.8705 4.52649C47.2084 1.73339 44.4565 2.58542 44.4565 2.58542C43.7768 0.836314 42.3979 0.57385 41.5537 0.501378C39.2463 0.307468 37.7617 2.82438 37.7617 2.82438C35.3015 2.08596 34.855 4.15629 34.855 4.15629C33.5231 6.57919 36.9136 8.03254 36.9136 8.03254L37.6402 12.514C37.6402 12.514 42.7367 14.9937 45.332 12.2065V12.2026Z" fill="white" stroke="#5D3C28" stroke-width="0.979345" stroke-linecap="round" stroke-linejoin="round"/>
<path d="M39.6143 4.84204C40.0295 5.21027 40.339 5.69603 40.4976 6.22879" stroke="#5D3C28" stroke-width="0.979345" stroke-linecap="round" stroke-linejoin="round"/>
<path d="M43.334 6.33425C43.4221 5.88571 43.6337 5.46263 43.9392 5.12378" stroke="#5D3C28" stroke-width="0.979345" stroke-linecap="round" stroke-linejoin="round"/>
<path d="M8.464 50.1307C8.01742 51.6957 8.22113 53.4859 9.21222 54.7767C10.7263 56.751 13.5331 57.0997 16.0226 57.1036C20.2083 57.1114 24.394 56.6002 28.4563 55.5856C29.0675 55.4328 29.7001 55.2566 30.1702 54.8354C30.6383 54.4143 30.8832 53.6739 30.5541 53.1373C30.3641 52.8278 30.0311 52.6437 29.7119 52.4713C28.5269 51.8347 27.3438 51.1982 26.1588 50.5616C27.0539 49.4647 27.6239 48.1073 27.7826 46.701C27.8198 46.368 27.8315 46.0135 27.6768 45.7158C27.4476 45.2731 26.9247 45.0812 26.4448 44.946C21.0525 43.4222 10.3698 43.4731 8.46596 50.1326L8.464 50.1307Z" fill="#CEB39E" stroke="#5D3C28" stroke-width="0.587607" stroke-miterlimit="10"/>
<path d="M64.9226 59.9964C69.3296 59.9964 72.9023 58.8555 72.9023 57.4482C72.9023 56.0408 69.3296 54.8999 64.9226 54.8999C60.5155 54.8999 56.9429 56.0408 56.9429 57.4482C56.9429 58.8555 60.5155 59.9964 64.9226 59.9964Z" fill="white" stroke="#5D3C28" stroke-width="0.783476" stroke-linecap="round" stroke-linejoin="round"/>
<path d="M70.403 56.6041C70.403 57.701 67.847 58.5903 64.6935 58.5903C61.54 58.5903 58.9839 57.701 58.9839 56.6041V50.5361C58.9839 51.633 61.54 52.5222 64.6935 52.5222C67.847 52.5222 70.403 51.633 70.403 50.5361V56.6041Z" fill="#F8B62D" stroke="#5D3C28" stroke-width="0.783476" stroke-miterlimit="10"/>
<path d="M60.1154 47.3396C60.8597 46.8539 61.7528 46.6502 62.6362 46.5464C64.4245 46.3348 66.9766 46.4719 68.6376 47.1692C69.6698 47.6021 70.3554 48.2681 70.7334 49.3767C71.0958 50.4363 71.1095 51.5547 70.4181 52.4342C70.0028 52.963 69.1939 53.2843 68.6533 52.8827C68.3125 53.4586 67.7836 53.9522 67.1314 54.105C66.4791 54.2577 65.7133 53.9913 65.4116 53.3939C64.9161 53.9894 64.207 54.4575 63.4334 54.4712C62.6597 54.4849 61.8566 53.9326 61.7646 53.1628C61.0398 53.5076 60.1428 53.4684 59.4514 53.059C57.2537 51.7584 58.3564 48.4913 60.1154 47.3416V47.3396Z" fill="white" stroke="#5D3C28" stroke-width="0.783476" stroke-linecap="round" stroke-linejoin="round"/>
<path d="M61.9834 44.2408C62.3164 44.3309 62.5808 44.1801 62.9157 44.2702C63.0411 43.9391 63.237 43.8471 63.3623 43.5161C63.5934 43.7198 63.9127 43.6414 64.1419 43.8451C64.3965 43.5905 64.561 43.616 64.8157 43.3613C64.7902 44.0018 64.704 44.6404 64.5591 45.2652C64.2888 45.2652 64.0302 45.367 63.7697 45.4375C63.3937 45.5394 63.047 45.5413 62.7532 45.2691C62.4378 44.9772 62.1734 44.6266 61.9834 44.2408Z" fill="#F8B62D" stroke="#5D3C28" stroke-width="0.587607" stroke-linecap="round" stroke-linejoin="round"/>
<path d="M62.3401 46.7712C62.2911 46.0543 62.5928 45.3923 63.2039 45.03C63.9149 44.6088 65.049 44.5422 65.6542 45.1455C66.1674 45.6587 66.4142 46.6145 66.2575 47.3275C66.0303 48.3578 65.2292 49.0609 64.1695 48.82C63.2489 48.6104 62.4067 47.7094 62.3421 46.7732L62.3401 46.7712Z" fill="#F8B62D" stroke="#5D3C28" stroke-width="0.587607" stroke-linecap="round" stroke-linejoin="round"/>
<path d="M63.4487 45.9626C63.5036 46.0194 63.5545 46.0821 63.5976 46.1468" stroke="white" stroke-width="0.229167" stroke-linecap="round" stroke-linejoin="round"/>
<path d="M64.4888 45.3259L64.5573 45.6099" stroke="white" stroke-width="0.229167" stroke-linecap="round" stroke-linejoin="round"/>
<path d="M65.2695 46.3406C65.295 46.4209 65.3224 46.5031 65.3479 46.5835" stroke="white" stroke-width="0.229167" stroke-linecap="round" stroke-linejoin="round"/>
<path d="M64.2905 46.6343L64.3356 46.7733" stroke="white" stroke-width="0.229167" stroke-linecap="round" stroke-linejoin="round"/>
<path d="M63.2095 47.0186C63.2369 47.1165 63.2917 47.2066 63.3662 47.2751" stroke="white" stroke-width="0.229167" stroke-linecap="round" stroke-linejoin="round"/>
<path d="M64.3848 47.6958L64.5062 47.9641" stroke="white" stroke-width="0.229167" stroke-linecap="round" stroke-linejoin="round"/>
<path d="M65.4131 47.4434C65.4248 47.5217 65.4288 47.602 65.4288 47.6823C65.4229 47.6608 65.4151 47.6392 65.4092 47.6177" stroke="white" stroke-width="0.229167" stroke-linecap="round" stroke-linejoin="round"/>
<path fill-rule="evenodd" clip-rule="evenodd" d="M67.4961 49.9035C67.5137 49.9877 65.8488 50.356 63.755 50.3285C62.711 50.3168 61.7591 50.1934 61.0971 49.974C60.766 49.8643 60.5114 49.7292 60.3567 49.6019C60.2019 49.4745 60.151 49.3727 60.1647 49.3609C60.1843 49.3433 60.2646 49.4119 60.4252 49.4961C60.5878 49.5803 60.8366 49.6763 61.1597 49.7527C61.8042 49.9074 62.7326 49.9916 63.7589 50.0034C65.8175 50.0308 67.4824 49.8114 67.4961 49.9035Z" fill="#5D3C28"/>
<path d="M68.202 49.9817C68.3719 49.9817 68.5096 49.8441 68.5096 49.6742C68.5096 49.5044 68.3719 49.3667 68.202 49.3667C68.0322 49.3667 67.8945 49.5044 67.8945 49.6742C67.8945 49.8441 68.0322 49.9817 68.202 49.9817Z" fill="#5D3C28"/>
<path d="M24.0752 45.4531C23.754 47.3276 23.2251 50.1324 22.1812 51.7209" stroke="#5D3C28" stroke-width="0.391738" stroke-linecap="round" stroke-linejoin="round"/>
<path d="M9.30127 53.0142C12.6565 53.3863 18.8264 52.7047 22.0758 51.7979" stroke="#5D3C28" stroke-width="0.634615" stroke-linecap="round" stroke-linejoin="round"/>
<path d="M22.0771 51.7979C23.1662 52.5755 26.2648 54.0386 27.5517 54.4049" stroke="#5D3C28" stroke-width="0.391738" stroke-linecap="round" stroke-linejoin="round"/>
<path d="M21.9882 54.4004C23.6757 54.4004 25.0437 52.7246 25.0437 50.6574C25.0437 48.5901 23.6757 46.9143 21.9882 46.9143C20.3006 46.9143 18.9326 48.5901 18.9326 50.6574C18.9326 52.7246 20.3006 54.4004 21.9882 54.4004Z" fill="#F8B62D" stroke="#5D3C28" stroke-width="0.391738" stroke-linecap="round" stroke-linejoin="round"/>
<path d="M17.0336 54.7237C18.7211 54.7237 20.0891 53.0478 20.0891 50.9806C20.0891 48.9134 18.7211 47.2375 17.0336 47.2375C15.346 47.2375 13.978 48.9134 13.978 50.9806C13.978 53.0478 15.346 54.7237 17.0336 54.7237Z" fill="#F8B62D" stroke="#5D3C28" stroke-width="0.391738" stroke-linecap="round" stroke-linejoin="round"/>
<path d="M12.391 55.6819C14.0785 55.6819 15.4466 54.0061 15.4466 51.9389C15.4466 49.8716 14.0785 48.1958 12.391 48.1958C10.7035 48.1958 9.33545 49.8716 9.33545 51.9389C9.33545 54.0061 10.7035 55.6819 12.391 55.6819Z" fill="#F8B62D" stroke="#5D3C28" stroke-width="0.391738" stroke-linecap="round" stroke-linejoin="round"/>
<path d="M31.8389 53.4347C30.3033 52.2105 26.6523 50.526 26.5955 50.624C27.5239 49.01 28.2721 47.1434 28.6266 45.312C28.7539 44.6519 28.4425 44.3621 27.7981 44.2465C27.5219 44.1975 26.7698 44.2367 26.7698 44.2367L24.7719 43.367C23.8161 42.9322 22.9464 42.9753 22.9464 42.9753C17.8186 43.367 12.301 44.3229 12.301 44.3229C10.8946 44.7068 10.072 46.0524 10.0426 46.1033C9.23561 47.4431 8.36595 48.7476 7.52959 50.0697C7.00466 50.9002 7.23187 51.5994 7.78618 52.3026C8.63429 53.3818 8.35028 54.5041 8.66759 55.7283C9.16901 57.6616 10.8652 58.9798 12.6927 57.4892C13.6858 58.7525 14.5574 59.8768 16.3163 60.0041C17.9792 60.1236 19.4776 59.2168 20.2963 57.7928C22.0356 59.5321 24.9541 59.5889 26.2919 57.358C27.2007 58.3843 28.656 58.7467 29.7646 57.783C30.5892 57.0661 31.1612 55.9124 31.594 54.9233C31.6234 54.8567 32.211 54.8058 32.3286 54.6883C32.4618 54.557 32.5088 54.4571 32.5068 54.2691C32.5068 54.0497 32.2463 53.7579 31.8389 53.4327V53.4347ZM30.4639 54.0556C30.2465 54.3161 17.7324 55.4894 17.7324 55.4894C14.908 55.8361 14.387 55.4032 14.387 55.4032L9.3022 53.0136L11.5175 48.538C12.2128 47.1473 13.8209 46.9299 13.8209 46.9299C13.8209 46.9299 24.8601 45.3806 25.1186 45.3218C28.3779 44.5834 27.0303 46.9299 27.0303 46.9299L25.2929 51.0588L25.814 51.2762C31.1161 53.3191 30.4639 54.0576 30.4639 54.0576V54.0556Z" fill="#D9D9D9" stroke="#5D3C28" stroke-width="0.587607" stroke-linecap="round" stroke-linejoin="round"/>
<path d="M13.933 52.5107C13.8331 52.5186 13.7724 52.4285 13.6921 52.2287C13.6098 52.0308 13.5138 51.7135 13.2611 51.31C12.9399 50.8106 12.6598 50.5853 12.5227 50.4208C12.3797 50.2602 12.3582 50.1701 12.4052 50.0898C12.4463 50.0193 12.5541 49.9918 12.7813 50.0957C13.0006 50.2034 13.365 50.4404 13.7136 50.9986C14.0348 51.5294 14.0955 51.9388 14.0955 52.1758C14.0916 52.4167 14.0192 52.5048 13.933 52.5107Z" fill="white"/>
<path d="M18.7165 51.4839C18.6225 51.4956 18.5461 51.4036 18.4874 51.1744C18.4247 50.9492 18.4071 50.5751 18.3385 50.0971C18.2465 49.5037 18.0408 49.2686 17.935 49.0884C17.8234 48.9161 17.8058 48.824 17.8626 48.7476C17.9096 48.6849 18.0212 48.6634 18.2406 48.8064C18.3503 48.8749 18.4776 49.0003 18.6049 49.1942C18.7303 49.3901 18.8301 49.6643 18.8772 49.9875C18.9222 50.293 18.9222 50.53 18.9222 50.722C18.9202 50.9139 18.9105 51.0569 18.8967 51.1685C18.8674 51.3879 18.8086 51.4741 18.7165 51.4839Z" fill="white"/>
<path d="M23.4704 51.4704C23.4234 51.4567 23.3921 51.4195 23.3745 51.3588C23.3568 51.2981 23.351 51.2138 23.3451 51.1002C23.3314 50.877 23.3314 50.5205 23.1473 50.0523C23.0317 49.7625 22.8907 49.5529 22.7712 49.3962C22.6478 49.2414 22.5499 49.1278 22.4735 49.0456C22.3246 48.8771 22.2933 48.787 22.3383 48.7048C22.3579 48.6675 22.3951 48.646 22.4598 48.644C22.5244 48.644 22.6184 48.6636 22.7398 48.7263C22.8632 48.787 23.0121 48.8967 23.1786 49.0691C23.3431 49.2414 23.5174 49.4882 23.6487 49.8251C23.8935 50.4676 23.825 50.9357 23.7447 51.1805C23.7055 51.3079 23.6526 51.3842 23.6056 51.4293C23.5586 51.4724 23.5155 51.4822 23.4724 51.4685L23.4704 51.4704Z" fill="white"/>
</svg>
