<svg width="63" height="55" viewBox="0 0 63 55" fill="none" xmlns="http://www.w3.org/2000/svg">
<path d="M50.9644 8.37745C51.7646 8.24411 52.3182 7.5649 52.2008 6.86039C52.0834 6.15588 51.3395 5.69285 50.5393 5.82619C49.7391 5.95953 49.1855 6.63875 49.3029 7.34326C49.4203 8.04777 50.1642 8.51079 50.9644 8.37745Z" fill="#FDF1D8"/>
<path d="M55.9869 9.19728C56.7871 9.06394 57.3407 8.38472 57.2233 7.68021C57.1059 6.9757 56.362 6.51268 55.5618 6.64602C54.7615 6.77936 54.208 7.45857 54.3253 8.16308C54.4427 8.86759 55.1866 9.33062 55.9869 9.19728Z" fill="#FDF1D8"/>
<path d="M51.9258 7.10592V0.170654L56.9605 1.11071V7.65698" stroke="#FDF1D8" stroke-width="0.341218" stroke-linecap="round" stroke-linejoin="round"/>
<path fill-rule="evenodd" clip-rule="evenodd" d="M51.9292 1.81362L56.882 2.69908L56.8615 1.11071L51.9258 0.170654L51.9292 1.81362Z" fill="#FDF1D8"/>
<path d="M58.4046 15.6459C58.9692 15.5518 59.3597 15.0726 59.2769 14.5756C59.1941 14.0786 58.6693 13.752 58.1047 13.846C57.5402 13.9401 57.1497 14.4193 57.2325 14.9163C57.3153 15.4133 57.8401 15.7399 58.4046 15.6459Z" fill="#FDF1D8"/>
<path d="M61.9471 16.224C62.5117 16.1299 62.9022 15.6508 62.8194 15.1538C62.7366 14.6567 62.2118 14.3301 61.6472 14.4242C61.0827 14.5182 60.6921 14.9974 60.7749 15.4944C60.8578 15.9914 61.3826 16.3181 61.9471 16.224Z" fill="#FDF1D8"/>
<path d="M59.082 14.7486V9.85596L62.6339 10.5191V15.1374" stroke="#FDF1D8" stroke-width="0.341218" stroke-linecap="round" stroke-linejoin="round"/>
<path fill-rule="evenodd" clip-rule="evenodd" d="M59.0844 11.015L62.5785 11.6397L62.5641 10.5191L59.082 9.85596L59.0844 11.015Z" fill="#FDF1D8"/>
<path d="M49.5212 21.1592H10.2606C7.58932 21.1592 5.42383 23.3247 5.42383 25.9959V43.3077C5.42383 45.9789 7.58932 48.1444 10.2606 48.1444H49.5212C52.1924 48.1444 54.3579 45.9789 54.3579 43.3077V25.9959C54.3579 23.3247 52.1924 21.1592 49.5212 21.1592Z" fill="#FDF1D8" stroke="#5D3C28" stroke-width="0.511827" stroke-linecap="round" stroke-linejoin="round"/>
<path fill-rule="evenodd" clip-rule="evenodd" d="M5.42243 53.4449C5.4429 53.5166 5.46679 53.5934 5.5265 53.6377C5.58109 53.6787 5.65275 53.6855 5.71929 53.6906C6.36248 53.7418 7.00568 53.7913 7.64888 53.8425C7.99009 53.8698 8.33643 53.8954 8.67082 53.8169C9.09905 53.7162 9.46757 53.4518 9.82244 53.1924C9.89239 53.1413 9.96575 53.0884 10.0118 53.0133C10.0715 52.9178 10.0801 52.8 10.0869 52.6874C10.1176 52.2114 10.1483 51.7354 10.179 51.2594C10.2131 50.7186 10.2455 50.1573 10.0562 49.6489C9.76614 48.8726 8.99328 48.3591 8.18971 48.1595C7.38614 47.9582 6.54333 48.0213 5.71758 48.0861C5.45655 48.1066 5.16993 48.1373 4.98567 48.325C4.77752 48.5365 4.77411 48.8692 4.78435 49.1644C4.83553 50.7033 5.07097 51.9504 5.42243 53.4432V53.4449Z" fill="#D1AB79" stroke="#5D3C28" stroke-width="0.511827" stroke-linecap="round" stroke-linejoin="round"/>
<path d="M8.46094 53.5555C8.5906 52.7213 8.6179 51.8699 8.54112 51.0288" stroke="#5D3C28" stroke-width="0.511827" stroke-linecap="round" stroke-linejoin="round"/>
<path fill-rule="evenodd" clip-rule="evenodd" d="M52.644 53.4448C52.6235 53.5165 52.5996 53.5932 52.5399 53.6376C52.4853 53.6785 52.4137 53.6854 52.3471 53.6905C51.7039 53.7417 51.0608 53.7911 50.4176 53.8423C50.0763 53.8696 49.73 53.8952 49.3956 53.8167C48.9674 53.7161 48.5989 53.4516 48.244 53.1923C48.174 53.1411 48.1007 53.0882 48.0546 53.0132C47.9949 52.9176 47.9864 52.7999 47.9796 52.6873C47.9488 52.2113 47.9181 51.7353 47.8874 51.2593C47.8533 50.7185 47.8209 50.1572 48.0103 49.6488C48.3003 48.8725 49.0732 48.359 49.8767 48.1593C50.6803 47.9597 51.5231 48.0211 52.3489 48.086C52.6099 48.1064 52.8965 48.1372 53.0808 48.3248C53.2889 48.5364 53.2923 48.8691 53.2821 49.1642C53.2309 50.7031 52.9955 51.9503 52.644 53.4431V53.4448Z" fill="#D1AB79" stroke="#5D3C28" stroke-width="0.511827" stroke-linecap="round" stroke-linejoin="round"/>
<path d="M49.6052 53.5555C49.4755 52.7213 49.4482 51.8699 49.525 51.0288" stroke="#5D3C28" stroke-width="0.511827" stroke-linecap="round" stroke-linejoin="round"/>
<path fill-rule="evenodd" clip-rule="evenodd" d="M3.79832 36.5921C2.9504 37.0698 0.894558 38.131 0.507275 39.0233C0.104637 39.9531 0.258185 41.0228 0.466329 42.014C1.0464 44.7626 2.00863 47.4309 3.31379 49.9201C3.46052 50.1982 3.61407 50.4797 3.8478 50.6912C4.07812 50.8994 4.36816 51.0256 4.6599 51.1297C7.92707 52.3035 10.4811 51.6876 12.3697 48.7753C13.5947 46.8866 13.75 45.602 13.5435 43.3602C13.3951 41.7377 13.5742 38.2862 12.641 36.9521C10.348 33.6747 6.59461 35.014 3.79662 36.5904L3.79832 36.5921Z" fill="#FDF1D8" stroke="#5D3C28" stroke-width="0.511827" stroke-linecap="round" stroke-linejoin="round"/>
<path fill-rule="evenodd" clip-rule="evenodd" d="M8.60444 43.8105C8.54984 43.8139 8.49866 43.2356 8.32635 42.3228C8.23934 41.8673 8.11991 41.3264 7.9493 40.7395C7.77699 40.1544 7.58078 39.5026 7.15085 38.9925C6.7175 38.4858 6.0999 38.206 5.52494 38.0746C5.23491 38.0064 4.9517 37.974 4.68896 37.9689C4.42452 37.9637 4.17543 37.991 3.94852 38.0217C3.49299 38.0866 3.12106 38.1685 2.85832 38.2026C2.59729 38.2401 2.44886 38.2418 2.44545 38.2179C2.44033 38.1924 2.57853 38.1446 2.82761 38.0644C3.07841 37.9876 3.43839 37.8699 3.90416 37.7692C4.13789 37.7215 4.39892 37.6771 4.68555 37.6686C4.97388 37.6601 5.27927 37.6856 5.59489 37.7488C6.21932 37.8733 6.92053 38.1685 7.42553 38.7588C7.67462 39.0522 7.84694 39.3832 7.97489 39.7074C8.10285 40.0332 8.19156 40.3506 8.27004 40.6542C8.4253 41.2616 8.52255 41.8178 8.57714 42.287C8.68633 43.227 8.64709 43.8122 8.60273 43.8139L8.60444 43.8105Z" fill="#5D3C28"/>
<path fill-rule="evenodd" clip-rule="evenodd" d="M55.6201 36.5922C56.4681 37.0699 57.5804 37.865 57.966 38.759C58.3686 39.6888 58.2151 40.7585 58.007 41.7497C57.4269 44.4982 56.4681 47.1546 55.1612 49.6421C55.0145 49.9202 54.8609 50.2017 54.6272 50.4133C54.3969 50.6214 54.1222 50.8193 53.8151 50.8517C50.8294 51.1759 47.581 51.4181 45.6924 48.5059C44.4674 46.6172 44.8547 46.0542 45.0611 43.8124C45.2096 42.1899 45.4808 37.836 46.4141 36.5018C48.7071 33.2244 52.8221 35.0158 55.6201 36.5922Z" fill="#FDF1D8" stroke="#5D3C28" stroke-width="0.511827" stroke-linecap="round" stroke-linejoin="round"/>
<path fill-rule="evenodd" clip-rule="evenodd" d="M50.8183 43.8108C50.7739 43.8108 50.7347 43.1847 50.8592 42.1832C50.9223 41.6833 51.0315 41.0896 51.209 40.4464C51.2977 40.124 51.4035 39.7827 51.5621 39.4432C51.7208 39.1037 51.9477 38.7642 52.2548 38.4946C52.8724 37.9504 53.6435 37.732 54.3192 37.6723C54.6655 37.6416 54.9897 37.6655 55.2865 37.7013C55.5851 37.7388 55.8598 37.7934 56.1054 37.8583C56.5985 37.9896 56.9824 38.1654 57.2161 38.3377C57.4532 38.5083 57.5317 38.6584 57.5147 38.6687C57.4925 38.6874 57.3833 38.5782 57.1427 38.4571C56.9039 38.3326 56.5285 38.2012 56.0474 38.1057C55.8069 38.0579 55.5407 38.0204 55.2558 37.9982C54.9692 37.976 54.6638 37.9658 54.3516 38.0033C53.7254 38.0749 53.0294 38.2899 52.4936 38.7642C51.9562 39.2351 51.7157 39.9226 51.5263 40.5403C51.3369 41.1647 51.2038 41.7396 51.11 42.2259C50.9223 43.2 50.8711 43.8159 50.8166 43.8125L50.8183 43.8108Z" fill="#5D3C28"/>
<path fill-rule="evenodd" clip-rule="evenodd" d="M44.972 51.4849C47.2274 51.3944 48.3739 51.246 49.1229 50.4919C49.8719 49.7378 50.0101 46.5184 49.7541 44.4455C49.5869 43.096 45.5128 40.6546 43.8886 40.4737C24.5825 38.3292 17.1047 40.3833 17.1047 40.3833C14.4261 40.8951 11.4012 41.2654 9.87767 43.9371C9.48527 44.6264 9.78725 48.332 10.2069 49.5894C10.7478 51.2136 12.4624 51.304 14.81 51.4849C14.81 51.4849 25.9388 52.2458 44.972 51.4849Z" fill="#FDF1D8" stroke="#5D3C28" stroke-width="0.511827" stroke-linecap="round" stroke-linejoin="round"/>
<path fill-rule="evenodd" clip-rule="evenodd" d="M48.2216 44.3544C48.2216 44.3664 48.0903 44.3681 47.8429 44.3595C47.5955 44.351 47.2321 44.3305 46.7629 44.3032C45.8263 44.2504 44.4734 44.136 42.7997 44.0559C39.454 43.8562 34.8237 43.6583 29.7089 43.6566C24.594 43.6498 19.9637 43.8102 16.618 44.0098C14.9443 44.1002 13.5914 44.2043 12.6565 44.2708C12.189 44.3049 11.8256 44.3305 11.5799 44.3476C11.3325 44.363 11.2029 44.3664 11.2012 44.3544C11.2012 44.3425 11.3274 44.3135 11.5714 44.2759C11.8154 44.2367 12.1771 44.1889 12.6428 44.1309C13.5761 44.0217 14.9273 43.8784 16.601 43.7556C19.9483 43.4894 24.5855 43.2881 29.7106 43.2966C34.8357 43.2984 39.4711 43.5372 42.8167 43.8016C44.4921 43.9143 45.8416 44.0678 46.7749 44.1633C47.2423 44.2128 47.604 44.2555 47.848 44.2879C48.0937 44.3203 48.2216 44.3442 48.2199 44.3561L48.2216 44.3544Z" fill="#5D3C28"/>
<path fill-rule="evenodd" clip-rule="evenodd" d="M41.4657 29.8104C42.9705 30.022 44.4719 30.2455 45.9732 30.4809C47.5718 30.7317 49.1875 30.9995 50.665 31.6581C51.1359 31.8679 51.6272 32.158 51.7995 32.6442C51.9173 32.9735 51.8644 33.3386 51.7808 33.6781C51.4481 35.0242 50.6257 36.1639 50.0371 37.3991C49.3325 38.8766 48.6382 40.3609 47.9404 41.8418C47.739 42.2666 47.5224 42.7119 47.1317 42.9746C46.5226 43.3858 45.7122 43.222 44.9956 43.0616C41.9878 42.3911 38.9066 42.0072 35.8237 42.1523C34.8563 42.1983 33.8412 42.2819 32.966 41.8673C31.5226 41.1832 31.8622 39.849 32.0038 38.578C32.2068 36.7508 32.432 34.927 32.6333 33.0997C32.7851 31.7263 32.9728 29.8053 34.5168 29.2747C36.1291 28.7219 38.2156 29.3634 39.845 29.5835C40.3858 29.6568 40.9266 29.7319 41.4657 29.807V29.8104Z" fill="#EED396" stroke="#5D3C28" stroke-width="0.511827" stroke-linecap="round" stroke-linejoin="round"/>
<path opacity="0.73" fill-rule="evenodd" clip-rule="evenodd" d="M9.36757 43.773C9.40511 44.4827 11.043 41.5209 11.1709 41.3691C12.0905 40.2687 13.9433 39.9684 13.4468 38.3851C13.0135 37.0015 12.6433 35.594 11.3705 35.3602C9.39146 34.9968 4.9488 36.0171 3.25977 37.213C8.3661 37.3632 9.13384 39.3474 9.36757 43.7713V43.773Z" fill="#EFDDBF"/>
<path fill-rule="evenodd" clip-rule="evenodd" d="M15.4366 27.9187C14.9708 28.0483 14.5085 28.1865 14.0461 28.3316C12.4253 28.84 10.1767 29.3109 9.08481 30.7423C8.73165 31.2063 8.61051 31.8137 8.63611 32.3955C8.7453 34.8215 10.5759 36.7119 11.0229 39.0305C11.3761 40.8662 12.3878 42.7429 14.5153 42.2993C16.5831 41.8694 18.528 41.0334 20.5054 40.3134C22.6107 39.5491 24.6921 39.184 26.8947 38.8087C28.4148 38.5493 29.1501 37.3909 28.9847 35.8213C28.8635 34.6714 28.321 33.617 27.9542 32.52C27.5823 31.4076 27.3878 30.2373 26.9322 29.1556C25.8301 26.5402 22.9093 26.4787 20.4815 26.837C18.7788 27.0895 17.0949 27.4546 15.4366 27.917V27.9187Z" fill="#FCEAC3" stroke="#5D3C28" stroke-width="0.511827" stroke-linecap="round" stroke-linejoin="round"/>
<path fill-rule="evenodd" clip-rule="evenodd" d="M41.0985 34.8587C41.0985 34.8587 42.994 49.9304 30.1778 49.3895L26.4773 47.4036C26.4773 47.4036 26.7469 45.2488 26.7486 45.2369C26.9192 43.8669 24.7627 43.4319 22.7768 43.7031C21.7566 43.8413 20.2501 44.244 18.7163 43.884L19.3476 35.49C19.3476 35.49 20.7005 31.6086 23.0481 30.1653L41.0985 34.8587Z" fill="#F8B62D" stroke="#5D3C28" stroke-width="0.853046" stroke-linecap="round" stroke-linejoin="round"/>
<path d="M21.2298 42.2774C21.8287 40.9207 21.1166 39.292 19.6391 38.6398C18.1617 37.9875 16.4784 38.5587 15.8795 39.9154C15.2805 41.2722 15.9926 42.9008 17.4701 43.5531C18.9475 44.2053 20.6308 43.6342 21.2298 42.2774Z" fill="#9F692D" stroke="#5D3C28" stroke-width="0.853046" stroke-linecap="round" stroke-linejoin="round"/>
<path d="M24.9436 19.0412C27.8108 19.0412 30.1352 16.7169 30.1352 13.8496C30.1352 10.9823 27.8108 8.65796 24.9436 8.65796C22.0763 8.65796 19.752 10.9823 19.752 13.8496C19.752 16.7169 22.0763 19.0412 24.9436 19.0412Z" fill="#F8B62D" stroke="#5D3C28" stroke-width="0.853046" stroke-linecap="round" stroke-linejoin="round"/>
<path d="M45.0063 22.9774C48.2024 22.9774 50.7934 20.3865 50.7934 17.1904C50.7934 13.9943 48.2024 11.4033 45.0063 11.4033C41.8102 11.4033 39.2192 13.9943 39.2192 17.1904C39.2192 20.3865 41.8102 22.9774 45.0063 22.9774Z" fill="#F8B62D" stroke="#5D3C28" stroke-width="0.853046" stroke-linecap="round" stroke-linejoin="round"/>
<path fill-rule="evenodd" clip-rule="evenodd" d="M49.0434 27.4764C50.2871 19.5687 44.1998 13.0173 35.6386 11.3368C27.0791 9.65629 18.9991 14.1791 17.3493 22.0118C15.7626 29.5459 21.7869 34.9593 30.7814 36.7251C43.6368 39.2484 48.2193 32.7192 49.0434 27.4764Z" fill="#F8B62D" stroke="#5D3C28" stroke-width="0.853046" stroke-linecap="round" stroke-linejoin="round"/>
<path fill-rule="evenodd" clip-rule="evenodd" d="M42.6187 27.8192C41.5763 33.132 36.1424 35.2322 29.7394 33.9765C23.3347 32.7191 19.1514 28.7303 20.1836 23.4687C21.2465 18.0536 26.7418 15.3665 33.1448 16.6238C39.5494 17.8812 43.7003 22.3034 42.6187 27.8209V27.8192Z" fill="#9F692D" stroke="#5D3C28" stroke-width="0.853046" stroke-linecap="round" stroke-linejoin="round"/>
<path d="M35.5867 27.2617C36.1482 27.2617 36.6035 26.8064 36.6035 26.2449C36.6035 25.6833 36.1482 25.228 35.5867 25.228C35.0251 25.228 34.5698 25.6833 34.5698 26.2449C34.5698 26.8064 35.0251 27.2617 35.5867 27.2617Z" fill="#5D3C28"/>
<path d="M25.7258 25.3252C26.2874 25.3252 26.7426 24.8699 26.7426 24.3083C26.7426 23.7468 26.2874 23.2915 25.7258 23.2915C25.1642 23.2915 24.709 23.7468 24.709 24.3083C24.709 24.8699 25.1642 25.3252 25.7258 25.3252Z" fill="#5D3C28"/>
<path fill-rule="evenodd" clip-rule="evenodd" d="M34.4244 29.0325C33.9791 31.2999 31.8073 32.0881 29.4102 31.6172C27.0132 31.1463 25.319 29.4982 25.7455 27.3281C26.1618 25.2074 28.3627 24.2725 30.7597 24.7434C33.1568 25.2143 34.8407 26.9118 34.4244 29.0325Z" fill="#F2D6A1"/>
<path fill-rule="evenodd" clip-rule="evenodd" d="M30.7762 27.2904C30.6517 27.9217 29.814 28.1639 29.4335 28.0889C29.0923 28.0223 28.3672 27.473 28.4918 26.8417C28.6163 26.2105 29.1418 26.2412 29.7713 26.364C30.4026 26.4885 30.9008 26.6592 30.7762 27.2904Z" fill="#5D3C28"/>
<path d="M28.3311 29.0326L29.3888 28.6555L30.1105 29.309" stroke="#5D3C28" stroke-width="0.511827" stroke-linecap="round" stroke-linejoin="round"/>
<path d="M29.4946 27.7737L29.3325 28.608" stroke="#5D3C28" stroke-width="0.511827" stroke-linecap="round" stroke-linejoin="round"/>
<path fill-rule="evenodd" clip-rule="evenodd" d="M36.8558 37.7455C36.8558 37.7455 31.8928 34.9475 29.5452 38.1072C29.5452 38.1072 27.8306 41.3556 30.719 41.8981C30.719 41.8981 33.4266 44.0648 37.4871 42.0789" fill="#F8B62D"/>
<path d="M36.8558 37.7455C36.8558 37.7455 31.8928 34.9475 29.5452 38.1072C29.5452 38.1072 27.8306 41.3556 30.719 41.8981C30.719 41.8981 33.4266 44.0648 37.4871 42.0789" stroke="#5D3C28" stroke-width="0.853046" stroke-linecap="round" stroke-linejoin="round"/>
<path d="M30.4966 36.9883L20.9152 33.6404C20.4108 33.4641 19.8591 33.7301 19.6829 34.2345L18.5922 37.3559C18.416 37.8602 18.682 38.4119 19.1864 38.5882L28.7678 41.936C29.2722 42.1123 29.8239 41.8463 30.0001 41.3419L31.0908 38.2206C31.267 37.7162 31.001 37.1645 30.4966 36.9883Z" fill="#5D3C28" stroke="#5D3C28" stroke-width="0.511827" stroke-miterlimit="10"/>
<path d="M29.9192 38.0332L20.7178 34.8181L19.765 37.5449L28.9664 40.7599L29.9192 38.0332Z" fill="#5D3C28"/>
<path d="M21.761 35.7942L21.165 35.5859L20.9568 36.1819L21.5527 36.3901L21.761 35.7942Z" fill="#F8B62D"/>
<path d="M21.3977 36.8344L20.8018 36.6262L20.5935 37.2221L21.1895 37.4304L21.3977 36.8344Z" fill="#F8B62D"/>
<path d="M22.5057 36.7541C22.7055 36.7541 22.8674 36.5922 22.8674 36.3925C22.8674 36.1927 22.7055 36.0308 22.5057 36.0308C22.306 36.0308 22.144 36.1927 22.144 36.3925C22.144 36.5922 22.306 36.7541 22.5057 36.7541Z" fill="#F8B62D"/>
<path d="M23.5292 37.1108C23.7289 37.1108 23.8909 36.9489 23.8909 36.7491C23.8909 36.5494 23.7289 36.3875 23.5292 36.3875C23.3294 36.3875 23.1675 36.5494 23.1675 36.7491C23.1675 36.9489 23.3294 37.1108 23.5292 37.1108Z" fill="#F8B62D"/>
<path d="M24.5511 37.469C24.7509 37.469 24.9128 37.3071 24.9128 37.1073C24.9128 36.9075 24.7509 36.7456 24.5511 36.7456C24.3514 36.7456 24.1895 36.9075 24.1895 37.1073C24.1895 37.3071 24.3514 37.469 24.5511 37.469Z" fill="#F8B62D"/>
<path d="M25.5736 37.8257C25.7734 37.8257 25.9353 37.6637 25.9353 37.464C25.9353 37.2642 25.7734 37.1023 25.5736 37.1023C25.3739 37.1023 25.2119 37.2642 25.2119 37.464C25.2119 37.6637 25.3739 37.8257 25.5736 37.8257Z" fill="#F8B62D"/>
<path d="M26.5956 38.1841C26.7953 38.1841 26.9573 38.0221 26.9573 37.8224C26.9573 37.6226 26.7953 37.4607 26.5956 37.4607C26.3958 37.4607 26.2339 37.6226 26.2339 37.8224C26.2339 38.0221 26.3958 38.1841 26.5956 38.1841Z" fill="#F8B62D"/>
<path d="M27.6176 38.5405C27.8173 38.5405 27.9792 38.3786 27.9792 38.1788C27.9792 37.9791 27.8173 37.8171 27.6176 37.8171C27.4178 37.8171 27.2559 37.9791 27.2559 38.1788C27.2559 38.3786 27.4178 38.5405 27.6176 38.5405Z" fill="#F8B62D"/>
<path d="M28.641 38.8972C28.8407 38.8972 29.0027 38.7353 29.0027 38.5355C29.0027 38.3358 28.8407 38.1738 28.641 38.1738C28.4412 38.1738 28.2793 38.3358 28.2793 38.5355C28.2793 38.7353 28.4412 38.8972 28.641 38.8972Z" fill="#F8B62D"/>
<path d="M22.1444 37.7917C22.3442 37.7917 22.5061 37.6298 22.5061 37.43C22.5061 37.2303 22.3442 37.0684 22.1444 37.0684C21.9446 37.0684 21.7827 37.2303 21.7827 37.43C21.7827 37.6298 21.9446 37.7917 22.1444 37.7917Z" fill="#F8B62D"/>
<path d="M23.1664 38.1501C23.3661 38.1501 23.5281 37.9882 23.5281 37.7884C23.5281 37.5887 23.3661 37.4268 23.1664 37.4268C22.9666 37.4268 22.8047 37.5887 22.8047 37.7884C22.8047 37.9882 22.9666 38.1501 23.1664 38.1501Z" fill="#F8B62D"/>
<path d="M24.1884 38.5066C24.3881 38.5066 24.55 38.3447 24.55 38.1449C24.55 37.9451 24.3881 37.7832 24.1884 37.7832C23.9886 37.7832 23.8267 37.9451 23.8267 38.1449C23.8267 38.3447 23.9886 38.5066 24.1884 38.5066Z" fill="#F8B62D"/>
<path d="M25.2103 38.865C25.4101 38.865 25.572 38.703 25.572 38.5033C25.572 38.3035 25.4101 38.1416 25.2103 38.1416C25.0106 38.1416 24.8486 38.3035 24.8486 38.5033C24.8486 38.703 25.0106 38.865 25.2103 38.865Z" fill="#F8B62D"/>
<path d="M26.2342 39.2212C26.434 39.2212 26.5959 39.0592 26.5959 38.8595C26.5959 38.6597 26.434 38.4978 26.2342 38.4978C26.0345 38.4978 25.8726 38.6597 25.8726 38.8595C25.8726 39.0592 26.0345 39.2212 26.2342 39.2212Z" fill="#F8B62D"/>
<path d="M27.2562 39.5798C27.456 39.5798 27.6179 39.4179 27.6179 39.2181C27.6179 39.0184 27.456 38.8564 27.2562 38.8564C27.0565 38.8564 26.8945 39.0184 26.8945 39.2181C26.8945 39.4179 27.0565 39.5798 27.2562 39.5798Z" fill="#F8B62D"/>
<path d="M28.2762 39.936C28.476 39.936 28.6379 39.7741 28.6379 39.5743C28.6379 39.3746 28.476 39.2126 28.2762 39.2126C28.0765 39.2126 27.9146 39.3746 27.9146 39.5743C27.9146 39.7741 28.0765 39.936 28.2762 39.936Z" fill="#F8B62D"/>
<path d="M21.5584 36.1553C21.9606 34.7719 21.229 33.3429 19.9243 32.9636C18.6196 32.5843 17.2359 33.3983 16.8337 34.7817C16.4315 36.1651 17.1631 37.5941 18.4678 37.9734C19.7726 38.3527 21.1563 37.5387 21.5584 36.1553Z" fill="#9F692D" stroke="#5D3C28" stroke-width="0.853046" stroke-linecap="round" stroke-linejoin="round"/>
<path d="M33.0913 39.9866C33.5259 38.4919 32.7354 36.948 31.3257 36.5382C29.9161 36.1284 28.421 37.0079 27.9865 38.5026C27.552 39.9973 28.3425 41.5412 29.7521 41.951C31.1618 42.3608 32.6568 41.4813 33.0913 39.9866Z" fill="#9F692D" stroke="#5D3C28" stroke-width="0.853046" stroke-linecap="round" stroke-linejoin="round"/>
<path fill-rule="evenodd" clip-rule="evenodd" d="M27.5603 43.703C27.5603 43.703 27.4699 42.8909 30.6296 42.3501L27.5603 43.703Z" fill="#F8B62D"/>
<path d="M27.5603 43.703C27.5603 43.703 27.4699 42.8909 30.6296 42.3501" stroke="#5D3C28" stroke-width="0.853046" stroke-linecap="round" stroke-linejoin="round"/>
<path d="M32.1694 48.0847C33.0831 46.5617 32.4791 44.5202 30.8202 43.5251C29.1614 42.5299 27.076 42.9579 26.1622 44.481C25.2485 46.0041 25.8526 48.0455 27.5114 49.0406C29.1702 50.0358 31.2557 49.6078 32.1694 48.0847Z" fill="#9F692D" stroke="#5D3C28" stroke-width="0.853046" stroke-linecap="round" stroke-linejoin="round"/>
</svg>
