<svg width="24" height="24" viewBox="0 0 24 24" fill="currentColor" stroke="currentColor" xmlns="http://www.w3.org/2000/svg">
<path d="M4.33973 4.16717C6.97973 2.36717 10.2397 3.20717 11.9997 5.26717C13.7597 3.20717 17.0197 2.35717 19.6597 4.16717C21.0597 5.12717 21.9397 6.74717 21.9997 8.45717C22.1397 12.3372 18.6997 15.4472 13.4497 20.2172L13.3497 20.3072C12.5897 20.9972 11.4197 20.9972 10.6597 20.2972L10.5497 20.1972C5.29972 15.4372 1.86973 12.3272 1.99973 8.44717C2.05972 6.74717 2.93973 5.12717 4.33973 4.16717ZM11.8997 18.7272L11.9997 18.8272L12.0997 18.7272C16.8597 14.4172 19.9997 11.5672 19.9997 8.67717C19.9997 6.67717 18.4997 5.17717 16.4997 5.17717C14.9597 5.17717 13.4597 6.16717 12.9297 7.53717H11.0597C10.5397 6.16717 9.03973 5.17717 7.49973 5.17717C5.49973 5.17717 3.99973 6.67717 3.99973 8.67717C3.99973 11.5672 7.13972 14.4172 11.8997 18.7272Z" fill="#A09CAB"/>
</svg>
