<svg width="39" height="32" viewBox="0 0 39 32" fill="none" xmlns="http://www.w3.org/2000/svg">
<path d="M11.7665 6.4138L13.7335 2.0862C13.8958 1.7292 14.2518 1.5 14.6439 1.5H24.4064C24.7723 1.5 25.109 1.69989 25.2843 2.02115L27.7157 6.47885C27.891 6.80011 28.2277 7 28.5936 7H36.5C37.0523 7 37.5 7.44772 37.5 8V29.5C37.5 30.0523 37.0523 30.5 36.5 30.5H2.5C1.94772 30.5 1.5 30.0523 1.5 29.5V8C1.5 7.44772 1.94772 7 2.5 7H10.8561C11.2482 7 11.6042 6.7708 11.7665 6.4138Z" fill="#CBBFB3" stroke="#CBBFB3" stroke-width="3" stroke-linecap="round"/>
<circle cx="20" cy="18" r="8.5" stroke="white" stroke-width="2"/>
</svg>
