<svg width="24" height="24" viewBox="0 0 24 24" fill="currentColor" stroke="currentColor" xmlns="http://www.w3.org/2000/svg">
<path d="M5.61 14.56C7.29 13.7 9.47 13 12 13C14.53 13 16.71 13.7 18.39 14.56C19.39 15.07 20 16.1 20 17.22V20H4V17.22C4 16.1 4.61 15.07 5.61 14.56ZM6 18H18V17.22C18 16.84 17.8 16.5 17.48 16.34C16.29 15.73 14.37 15 12 15C9.63 15 7.71 15.73 6.52 16.34C6.2 16.5 6 16.84 6 17.22V18Z" fill="#A09CAB"/>
<path d="M14.22 12H9.78C8.57 12 7.64 10.94 7.8 9.74L8.12 7.29C8.43 5.39 10.08 4 12 4C13.92 4 15.57 5.39 15.88 7.29L16.2 9.74C16.36 10.94 15.43 12 14.22 12ZM13.9 7.59C13.74 6.67 12.94 6 12 6C11.06 6 10.26 6.67 10.1 7.59L9.78 10H14.22L13.9 7.59Z" fill="#A09CAB"/>
</svg>
