<svg width="68" height="68" viewBox="0 0 68 68" fill="none" xmlns="http://www.w3.org/2000/svg">
<rect x="0.5" y="0.5" width="67" height="67" rx="33.5" fill="#FFD100"/>
<rect x="0.5" y="0.5" width="67" height="67" rx="33.5" stroke="#5D3C28"/>
<path d="M30.5871 21.2781L46.0982 38.8063L36.9066 47.1398L21.3759 30.0099L18.1739 18.1628C17.9599 17.3712 18.7372 16.6727 19.5015 16.9698L30.5871 21.2781Z" fill="white" stroke="#5D3C28"/>
<path d="M18.6771 19.8964L21.1839 17.6236L19.5219 16.9777C18.7538 16.6792 17.9746 17.3857 18.1967 18.1792L18.6771 19.8964Z" fill="#5D3C28"/>
<path d="M23.4761 26.1066L23.2061 27.784C23.1045 28.4154 22.5444 28.8694 21.9057 28.8381C21.4779 28.8171 21.1553 29.2215 21.2707 29.6339L21.3759 30.0099L36.9066 47.1398L46.0982 38.8063L30.5676 21.6764L28.5807 21.5791C28.1126 21.5562 27.6913 21.8615 27.5674 22.3135L27.18 23.7263C26.9565 24.5414 26.2448 25.1281 25.4019 25.1918L24.3881 25.2684C23.9268 25.3033 23.5496 25.6499 23.4761 26.1066Z" fill="#5D3C28"/>
<path d="M18.6771 19.8964L21.1839 17.6236L19.5219 16.9777C18.7538 16.6792 17.9746 17.3857 18.1967 18.1792L18.6771 19.8964Z" stroke="#5D3C28"/>
<path d="M23.4761 26.1066L23.2061 27.784C23.1045 28.4154 22.5444 28.8694 21.9057 28.8381C21.4779 28.8171 21.1553 29.2215 21.2707 29.6339L21.3759 30.0099L36.9066 47.1398L46.0982 38.8063L30.5676 21.6764L28.5807 21.5791C28.1126 21.5562 27.6913 21.8615 27.5674 22.3135L27.18 23.7263C26.9565 24.5414 26.2448 25.1281 25.4019 25.1918L24.3881 25.2684C23.9268 25.3033 23.5496 25.6499 23.4761 26.1066Z" stroke="#5D3C28"/>
<path d="M47.1684 39.8275L46.0885 38.6703L36.9066 47.1397L37.9911 48.329C39.4918 49.9747 42.0476 50.0777 43.6758 48.5581L46.9732 45.481C48.5882 43.9737 48.6757 41.4426 47.1684 39.8275Z" fill="white" stroke="#5D3C28"/>
</svg>
