<svg width="16" height="10" viewBox="0 0 16 10" fill="none" xmlns="http://www.w3.org/2000/svg">
<path d="M8.5393 8.5131L9.90513 8.96838C9.95753 8.98584 10.0142 8.95753 10.0316 8.90513L10.4684 7.59487C10.4858 7.54247 10.4575 7.48584 10.4051 7.46838L9.0393 7.0131C9.01414 7.00471 8.98667 7.00666 8.96295 7.01852L8.08944 7.45528C8.04004 7.47998 8.02002 7.54004 8.04472 7.58944L8.48148 8.46295C8.49334 8.48667 8.51414 8.50471 8.5393 8.5131Z" fill="#9F692D" stroke="#5D3C28" stroke-width="0.4"/>
<path d="M4.59376 4.80208L5.79439 4.40187C6.09472 4.30176 6.32524 4.67476 6.10139 4.89861L5.29028 5.70972C5.09876 5.90124 4.87033 6.05187 4.61885 6.15246L4.06127 6.37549C3.43356 6.62657 2.95845 5.78116 3.4993 5.37553C3.83093 5.1268 4.20049 4.93317 4.59376 4.80208Z" fill="#9F692D" stroke="#5D3C28" stroke-width="0.4"/>
<path d="M10.9099 5.12958L9.38041 4.27318C9.09136 4.11133 8.79189 4.46845 9.00164 4.72488L10.0073 5.95437C10.165 6.14722 10.3574 6.3089 10.5745 6.43109L11.0401 6.69309C11.6427 7.03222 12.2383 6.23905 11.7446 5.75492C11.4953 5.51045 11.2146 5.30017 10.9099 5.12958Z" fill="#9F692D" stroke="#5D3C28" stroke-width="0.4"/>
<path d="M7.41056 8.04472L6.35705 8.57148C5.79343 8.85329 5.17194 9 4.54179 9C4.51684 9 4.49468 8.98403 4.48678 8.96035L4.04387 7.63162C4.02229 7.56687 4.07049 7.5 4.13874 7.5H4.98769C4.99587 7.5 5.00401 7.499 5.01194 7.49701L6.92218 7.01946C6.96765 7.00809 7.01491 7.02983 7.03587 7.07175L7.45528 7.91056C7.47998 7.95996 7.45996 8.02002 7.41056 8.04472Z" fill="#9F692D" stroke="#5D3C28" stroke-width="0.4"/>
<path d="M3.41242 6.56564C3.91216 6.28038 4.65174 6.51669 5.0402 7.19723C5.42844 7.87769 5.25551 8.63395 4.75584 8.91917C4.25617 9.20423 3.51785 8.96817 3.12939 8.28794C2.74097 7.60748 2.91281 6.85097 3.41242 6.56564Z" fill="#9F692D" stroke="#5D3C28" stroke-width="0.4"/>
<path d="M3.90237 7.40172C4.2349 7.21214 4.63194 7.32066 4.79886 7.61302C4.96576 7.90541 4.85729 8.30246 4.52494 8.4924C4.19233 8.68226 3.79457 8.57408 3.62761 8.28158C3.46068 7.98909 3.56977 7.59157 3.90237 7.40172Z" fill="#FFD100" stroke="#9F692D" stroke-width="0.4"/>
<path d="M11.572 6.81857C11.0722 6.53331 10.3327 6.76962 9.94421 7.45016C9.55597 8.13062 9.7289 8.88688 10.2286 9.1721C10.7282 9.45716 11.4666 9.2211 11.855 8.54087C12.2434 7.86041 12.0716 7.1039 11.572 6.81857Z" fill="#9F692D" stroke="#5D3C28" stroke-width="0.4"/>
<path d="M7.5 4.2002C8.1169 4.2002 8.69058 4.52962 9.11621 5.02344C9.54248 5.51802 9.7998 6.15521 9.7998 6.72754C9.79965 7.85465 8.78852 8.7998 7.5 8.7998C6.21148 8.7998 5.20035 7.85465 5.2002 6.72754C5.2002 6.15521 5.45752 5.51802 5.88379 5.02344C6.30942 4.52962 6.8831 4.2002 7.5 4.2002Z" fill="#9F692D" stroke="#5D3C28" stroke-width="0.4"/>
<path d="M9 6.63636C9 7.38948 8.32843 8 7.5 8C6.67157 8 6 7.38948 6 6.63636C6 5.88325 6.67157 5 7.5 5C8.32843 5 9 5.88325 9 6.63636Z" fill="#FFD100"/>
<circle cx="9" cy="1" r="0.8" fill="#9F692D" stroke="#5D3C28" stroke-width="0.4"/>
<circle cx="6" cy="1" r="0.8" fill="#9F692D" stroke="#5D3C28" stroke-width="0.4"/>
<circle cx="7.5" cy="2.5" r="2.3" fill="#9F692D" stroke="#5D3C28" stroke-width="0.4"/>
<path d="M8.37876 2.18683C8.39252 2.22676 8.39251 2.27016 8.37874 2.31009C8.32013 2.47996 8.07987 2.47996 8.02126 2.31009C8.00749 2.27016 8.00748 2.22676 8.02124 2.18683C8.0798 2.01684 8.3202 2.01684 8.37876 2.18683Z" fill="#5D3C28"/>
<path d="M7 2.24963C7 2.37673 6.88046 2.46993 6.75719 2.43892C6.56013 2.38935 6.56053 2.10919 6.75774 2.06019C6.88087 2.0296 7 2.12276 7 2.24963Z" fill="#5D3C28"/>
<path d="M7.82929 2.77081L7.57071 3.02939C7.53166 3.06844 7.46834 3.06844 7.42929 3.02939L7.17071 2.77081C7.10771 2.70781 7.15233 2.6001 7.24142 2.6001H7.75858C7.84767 2.6001 7.89229 2.70781 7.82929 2.77081Z" fill="#5D3C28"/>
<path d="M11.0454 7.61379C11.3892 7.78201 11.5229 8.17129 11.3752 8.47379C11.2274 8.77629 10.8381 8.91003 10.4941 8.74217C10.15 8.57405 10.0156 8.18436 10.1634 7.88175C10.3113 7.57918 10.7013 7.44568 11.0454 7.61379Z" fill="#FFD100" stroke="#9F692D" stroke-width="0.4"/>
<path d="M4.06489 7.12473C4.0721 6.96962 4.19678 6.8542 4.33721 6.86072C4.47743 6.8675 4.59009 6.99385 4.58289 7.14881C4.57555 7.30362 4.45171 7.41912 4.31155 7.41286C4.17121 7.40634 4.05783 7.27972 4.06489 7.12473Z" fill="#FFD100" stroke="#9F692D" stroke-width="0.1"/>
<path d="M3.30226 7.95498C3.17133 7.87148 3.13334 7.70588 3.20893 7.58735C3.28464 7.46913 3.45032 7.43436 3.5811 7.51778C3.7117 7.60124 3.75018 7.76615 3.67495 7.88458C3.5994 8.00303 3.43314 8.03829 3.30226 7.95498Z" fill="#FFD100" stroke="#9F692D" stroke-width="0.1"/>
<path d="M3.60225 7.45498C3.47132 7.37148 3.43333 7.20588 3.50892 7.08735C3.58462 6.96913 3.7503 6.93436 3.88109 7.01778C4.01168 7.10124 4.05017 7.26615 3.97494 7.38458C3.89939 7.50303 3.73313 7.53829 3.60225 7.45498Z" fill="#FFD100" stroke="#9F692D" stroke-width="0.1"/>
<path d="M10.983 7.32884C10.9758 7.17372 10.8511 7.0583 10.7107 7.06483C10.5705 7.0716 10.4578 7.19796 10.465 7.35291C10.4724 7.50772 10.5962 7.62322 10.7364 7.61696C10.8767 7.61044 10.9901 7.48383 10.983 7.32884Z" fill="#FFD100" stroke="#9F692D" stroke-width="0.1"/>
<path d="M11.6807 8.15908C11.8116 8.07558 11.8496 7.90998 11.774 7.79146C11.6983 7.67324 11.5326 7.63847 11.4018 7.72188C11.2712 7.80534 11.2328 7.97026 11.308 8.08868C11.3835 8.20713 11.5498 8.24239 11.6807 8.15908Z" fill="#FFD100" stroke="#9F692D" stroke-width="0.1"/>
<path d="M11.4457 7.65908C11.5766 7.57558 11.6146 7.40998 11.539 7.29146C11.4633 7.17324 11.2976 7.13847 11.1668 7.22188C11.0362 7.30534 10.9977 7.47026 11.073 7.58868C11.1485 7.70713 11.3148 7.74239 11.4457 7.65908Z" fill="#FFD100" stroke="#9F692D" stroke-width="0.1"/>
</svg>
