<svg width="11" height="10" viewBox="0 0 11 10" fill="none" xmlns="http://www.w3.org/2000/svg">
<path d="M0.349976 9.62109C0.349976 9.75916 0.461904 9.87109 0.599976 9.87109C0.738047 9.87109 0.849976 9.75916 0.849976 9.62109H0.599976H0.349976ZM0.599976 8.62109H0.349976V9.62109H0.599976H0.849976V8.62109H0.599976Z" fill="#5D3C28"/>
<path d="M8.34998 9.62109C8.34998 9.75916 8.4619 9.87109 8.59998 9.87109C8.73805 9.87109 8.84998 9.75916 8.84998 9.62109H8.59998H8.34998ZM8.59998 8.62109H8.34998V9.62109H8.59998H8.84998V8.62109H8.59998Z" fill="#5D3C28"/>
<path d="M10.35 9.12109H9.34998C9.2119 9.12109 9.09998 9.23302 9.09998 9.37109C9.09998 9.50916 9.2119 9.62109 9.34998 9.62109H10.35C10.488 9.62109 10.6 9.50916 10.6 9.37109C10.6 9.23302 10.488 9.12109 10.35 9.12109Z" fill="#5D3C28" stroke="#5D3C28" stroke-width="0.2"/>
<path d="M6.09998 0.621094V0.521094C6.09998 0.30018 6.27907 0.124381 6.4981 0.153174C7.13323 0.236666 8.37755 0.537457 9.09998 1.62109C9.99314 2.96084 10.0412 4.01199 10.1 5.62109C10.1504 7.00089 9.59998 9.12109 9.59998 9.12109" stroke="#5D3C28" stroke-width="0.3"/>
<path d="M1.09998 7.22109V7.02109C1.09998 6.80018 1.27906 6.62109 1.49998 6.62109H4.19998C4.42089 6.62109 4.59998 6.80018 4.59998 7.02109V7.22109C4.59998 7.44201 4.42089 7.62109 4.19998 7.62109H1.49998C1.27906 7.62109 1.09998 7.44201 1.09998 7.22109Z" fill="#9F692D" stroke="#5D3C28" stroke-width="0.2"/>
<path d="M4.59998 7.22109V7.02109C4.59998 6.80018 4.77906 6.62109 4.99998 6.62109H7.69998C7.92089 6.62109 8.09998 6.80018 8.09998 7.02109V7.22109C8.09998 7.44201 7.92089 7.62109 7.69998 7.62109H4.99998C4.77906 7.62109 4.59998 7.44201 4.59998 7.22109Z" fill="#9F692D" stroke="#5D3C28" stroke-width="0.2"/>
<path d="M8.69998 8.62109H8.49998C8.27906 8.62109 8.09998 8.44201 8.09998 8.22109V5.52109C8.09998 5.30018 8.27906 5.12109 8.49998 5.12109H8.69998C8.92089 5.12109 9.09998 5.30018 9.09998 5.52109V8.22109C9.09998 8.44201 8.92089 8.62109 8.69998 8.62109Z" fill="#9F692D"/>
<path d="M0.699976 8.62109H0.499976C0.279062 8.62109 0.0999756 8.44201 0.0999756 8.22109V5.52109C0.0999756 5.30018 0.279062 5.12109 0.499976 5.12109H0.699976C0.920889 5.12109 1.09998 5.30018 1.09998 5.52109V8.22109C1.09998 8.44201 0.920889 8.62109 0.699976 8.62109Z" fill="#9F692D"/>
<path d="M8.69998 8.62109H8.49998C8.27906 8.62109 8.09998 8.44201 8.09998 8.22109V5.52109C8.09998 5.30018 8.27906 5.12109 8.49998 5.12109H8.69998C8.92089 5.12109 9.09998 5.30018 9.09998 5.52109V8.22109C9.09998 8.44201 8.92089 8.62109 8.69998 8.62109Z" stroke="#5D3C28" stroke-width="0.2"/>
<path d="M0.699976 8.62109H0.499976C0.279062 8.62109 0.0999756 8.44201 0.0999756 8.22109V5.52109C0.0999756 5.30018 0.279062 5.12109 0.499976 5.12109H0.699976C0.920889 5.12109 1.09998 5.30018 1.09998 5.52109V8.22109C1.09998 8.44201 0.920889 8.62109 0.699976 8.62109Z" stroke="#5D3C28" stroke-width="0.2"/>
<path d="M7.69998 8.62109H1.49998C1.27906 8.62109 1.09998 8.44201 1.09998 8.22109V8.02109C1.09998 7.80018 1.27906 7.62109 1.49998 7.62109H7.69998C7.92089 7.62109 8.09998 7.80018 8.09998 8.02109V8.22109C8.09998 8.44201 7.92089 8.62109 7.69998 8.62109Z" fill="#9F692D" stroke="#5D3C28" stroke-width="0.2"/>
<path d="M1.99998 4.12109H4.59998H7.19998C7.42089 4.12109 7.59998 4.30018 7.59998 4.52109V6.22109C7.59998 6.44201 7.42089 6.62109 7.19998 6.62109H4.59998H1.99998C1.77906 6.62109 1.59998 6.44201 1.59998 6.22109V4.52109C1.59998 4.30018 1.77906 4.12109 1.99998 4.12109Z" fill="#9F692D"/>
<path d="M4.59998 6.62109V4.12109M4.59998 6.62109H1.99998C1.77906 6.62109 1.59998 6.44201 1.59998 6.22109V4.52109C1.59998 4.30018 1.77906 4.12109 1.99998 4.12109H4.59998M4.59998 6.62109H7.19998C7.42089 6.62109 7.59998 6.44201 7.59998 6.22109V4.52109C7.59998 4.30018 7.42089 4.12109 7.19998 4.12109H4.59998" stroke="#5D3C28" stroke-width="0.2"/>
<path d="M5.09998 1.72109V1.02109C5.09998 0.80018 5.27906 0.621094 5.49998 0.621094H6.69998C6.92089 0.621094 7.09998 0.80018 7.09998 1.02109V1.72109C7.09998 1.94201 6.92089 2.12109 6.69998 2.12109H5.49998C5.27906 2.12109 5.09998 1.94201 5.09998 1.72109Z" fill="#FFD100" stroke="#FFD100" stroke-width="0.2"/>
</svg>
