<svg width="8" height="10" viewBox="0 0 8 10" fill="none" xmlns="http://www.w3.org/2000/svg">
<path d="M3.26483 3.02002C3.49152 2.23453 3.16924 1.109 2.94633 0.483717C2.88579 0.313895 3.05598 0.144954 3.21956 0.220754C3.9635 0.56548 5.39515 1.3024 5.76483 2.02002C6.61094 3.66246 5.28852 5.21528 6.26483 5.02002C6.5563 4.96173 6.82369 4.67652 7.00849 4.42553C7.11392 4.28234 7.35034 4.30945 7.3933 4.482C7.60001 5.31232 7.92066 7.05968 7.26482 8.02002C6.47608 9.17495 4.07516 9.48426 3.79216 9.51698C3.77362 9.51913 3.75584 9.51841 3.73752 9.51486C3.47809 9.46457 1.44227 9.04125 0.764819 8.02002C0.214431 7.19033 0.110526 6.50364 0.264819 5.52002C0.329202 5.10958 0.558678 4.63698 0.781582 4.25427C0.888703 4.07035 1.19178 4.18553 1.23169 4.39459C1.2401 4.43866 1.25099 4.48083 1.26482 4.52002C1.49913 5.18391 1.76701 5.51784 2.26483 5.02002C2.76483 4.52002 2.99412 3.95805 3.26483 3.02002Z" fill="#FF120A" stroke="#412A1D" stroke-width="0.4"/>
<path d="M2.26484 8.02021C2.76484 8.52021 3.76484 8.52017 3.76484 8.52017C3.76484 8.52017 5.19556 8.58945 5.76484 8.02017C6.33413 7.45088 6.8341 5.45086 6.26484 6.02017C5.76484 6.52021 5.26484 6.52021 4.76484 6.52017C4.26484 6.52012 4.70146 4.58355 4.26483 5.02016C3.76483 5.52014 3.76483 6.52014 3.26483 7.02014C2.91128 7.37369 1.76483 7.02021 1.26484 6.52017C0.911279 6.16656 1.82822 7.58359 2.26484 8.02021Z" fill="#FFD100" stroke="#412A1D" stroke-width="0.4"/>
</svg>
