<svg width="12" height="7" viewBox="0 0 12 7" fill="none" xmlns="http://www.w3.org/2000/svg">
<path d="M11 0.200195H0.400012C0.289555 0.200195 0.200012 0.289738 0.200012 0.400195V6.0002C0.200012 6.11065 0.289555 6.2002 0.400012 6.2002H11C11.1105 6.2002 11.2 6.11065 11.2 6.0002V0.400195C11.2 0.289738 11.1105 0.200195 11 0.200195Z" fill="#CBBFB3" stroke="#5D3C28" stroke-width="0.4" stroke-linecap="round"/>
<path d="M6.88714 1.65675C6.9802 1.75705 7.03636 1.866 7.05561 1.98359C7.07486 2.09773 7.04117 2.19803 6.95453 2.2845C6.8711 2.36751 6.77483 2.39691 6.66573 2.3727C6.55983 2.34503 6.45875 2.28623 6.36249 2.1963C6.2598 2.10292 6.1523 2.03029 6.03999 1.97841C5.92768 1.92652 5.7913 1.90058 5.63086 1.90058C5.56026 1.90058 5.49287 1.9075 5.42869 1.92134C5.36452 1.93171 5.30836 1.95247 5.26023 1.98359C5.21209 2.01126 5.17359 2.05104 5.14471 2.10292C5.11583 2.15134 5.10139 2.21187 5.10139 2.2845C5.10139 2.35713 5.11422 2.41939 5.13989 2.47127C5.16877 2.51969 5.20568 2.56293 5.2506 2.60097C5.29873 2.63556 5.35168 2.66496 5.40944 2.68917C5.47041 2.71338 5.53459 2.73586 5.60198 2.75662L6.27103 2.95376C6.42185 2.99873 6.55502 3.05234 6.67054 3.11459C6.78606 3.17685 6.88233 3.25294 6.95934 3.34287C7.03957 3.42934 7.09893 3.5331 7.13744 3.65415C7.17915 3.77175 7.20001 3.9101 7.20001 4.0692C7.20001 4.23176 7.16632 4.38221 7.09893 4.52056C7.03154 4.65545 6.93528 4.77477 6.81013 4.87853C6.68498 4.97884 6.53256 5.05666 6.35286 5.112C6.17637 5.1708 5.97742 5.2002 5.756 5.2002C5.60839 5.2002 5.4656 5.18636 5.32761 5.15869C5.18963 5.13448 5.05967 5.09643 4.93773 5.04455C4.81579 4.99267 4.70348 4.93042 4.6008 4.85778C4.49811 4.78169 4.41147 4.69349 4.34087 4.59319C4.26065 4.48597 4.21412 4.37529 4.20129 4.26116C4.19166 4.14702 4.23658 4.05017 4.33606 3.97062C4.43875 3.89107 4.53983 3.86686 4.6393 3.89799C4.74199 3.92566 4.83986 3.99483 4.93292 4.10551C5.04523 4.23694 5.17679 4.33552 5.32761 4.40123C5.48164 4.46695 5.64048 4.49981 5.80414 4.49981C5.88115 4.49981 5.95496 4.49116 6.02555 4.47387C6.09936 4.45311 6.16353 4.42544 6.21809 4.39086C6.27585 4.35281 6.32077 4.30785 6.35286 4.25597C6.38816 4.20063 6.40581 4.13837 6.40581 4.0692C6.40581 3.9516 6.37853 3.86167 6.32398 3.79942C6.26943 3.7337 6.18279 3.68182 6.06406 3.64378L5.26985 3.41031C5.13829 3.37227 5.01474 3.32211 4.89922 3.25986C4.7837 3.19414 4.68262 3.11632 4.59598 3.0264C4.51255 2.93647 4.44677 2.83271 4.39863 2.71511C4.3505 2.59406 4.32643 2.45744 4.32643 2.30525C4.32643 2.11502 4.36173 1.95074 4.43233 1.81239C4.50292 1.67404 4.59759 1.5599 4.71632 1.46998C4.83825 1.37659 4.97945 1.30914 5.13989 1.26764C5.30034 1.22268 5.46881 1.2002 5.6453 1.2002C5.92126 1.2002 6.16353 1.23997 6.37211 1.31952C6.58069 1.39561 6.75237 1.50802 6.88714 1.65675Z" fill="#5D3C28"/>
<path d="M5.70001 0.700195V5.7002" stroke="#5D3C28" stroke-width="0.5" stroke-linecap="round"/>
</svg>
