<svg width="7" height="10" viewBox="0 0 7 10" fill="none" xmlns="http://www.w3.org/2000/svg">
<path d="M0.149994 0.349902V9.4499C0.149994 9.56036 0.239537 9.6499 0.349994 9.6499H5.94999C6.06045 9.6499 6.14999 9.56036 6.14999 9.4499V0.349902C6.14999 0.239445 6.06045 0.149902 5.94999 0.149902H0.349994C0.239537 0.149902 0.149994 0.239445 0.149994 0.349902Z" fill="#5D3C28" stroke="#412A1D" stroke-width="0.3"/>
<path d="M1.14999 3.9499V1.3499C1.14999 1.23945 1.23954 1.1499 1.34999 1.1499H4.94999C5.06045 1.1499 5.14999 1.23945 5.14999 1.3499V3.9499C5.14999 4.06036 5.06045 4.1499 4.94999 4.1499H1.34999C1.23954 4.1499 1.14999 4.06036 1.14999 3.9499Z" fill="#9F692D" stroke="#412A1D" stroke-width="0.3"/>
<path d="M1.14999 5.9499V5.3499C1.14999 5.23945 1.23954 5.1499 1.34999 5.1499H4.94999C5.06045 5.1499 5.14999 5.23945 5.14999 5.3499V5.9499C5.14999 6.06036 5.06045 6.1499 4.94999 6.1499H1.34999C1.23954 6.1499 1.14999 6.06036 1.14999 5.9499Z" fill="#9F692D" stroke="#412A1D" stroke-width="0.3"/>
<path d="M1.14999 7.9499V7.3499C1.14999 7.23945 1.23954 7.1499 1.34999 7.1499H4.94999C5.06045 7.1499 5.14999 7.23945 5.14999 7.3499V7.9499C5.14999 8.06036 5.06045 8.1499 4.94999 8.1499H1.34999C1.23954 8.1499 1.14999 8.06036 1.14999 7.9499Z" fill="#9F692D" stroke="#412A1D" stroke-width="0.3"/>
<circle cx="5.54999" cy="4.5499" r="0.25" fill="#FFD100" stroke="#412A1D" stroke-width="0.3"/>
</svg>
