<svg width="10" height="7" viewBox="0 0 10 7" fill="none" xmlns="http://www.w3.org/2000/svg">
<path d="M5.77139 0.200195C7.52086 0.200195 7.73998 1.73051 7.76743 2.11389C7.77097 2.1634 7.80744 2.20586 7.85582 2.21691C8.03288 2.25735 8.45287 2.38168 8.77139 2.7002C9.27139 3.2002 9.41683 3.90835 9.27139 4.70019C9.08434 5.71858 7.92988 6.14575 7.78606 6.19525C7.77634 6.1986 7.76612 6.20018 7.75584 6.20018H1.30344C1.28257 6.20018 1.2631 6.1943 1.24658 6.18156C1.06093 6.03844 -0.0950578 5.08126 0.271377 3.7002C0.593828 2.4849 1.37838 2.25422 1.6646 2.21044C1.72199 2.20166 1.76876 2.15106 1.77133 2.09306C1.7807 1.8811 1.85047 1.41058 2.27139 1.20015C2.9984 0.836677 3.46114 1.00172 3.6596 1.11892C3.71838 1.15363 3.80537 1.13869 3.84465 1.08287C4.03052 0.818719 4.59169 0.200195 5.77139 0.200195Z" fill="#FFD100" stroke="#5D3C28" stroke-width="0.4"/>
<path d="M7.66937 2.2002C6.55804 2.2002 5.99562 2.74911 5.77878 3.03357C5.72882 3.09911 5.61096 3.09841 5.56142 3.03255C5.36512 2.77161 4.9011 2.33433 4.16937 2.7002C3.66937 2.9502 3.66937 3.2002 3.66937 3.2002" stroke="#5D3C28" stroke-width="0.4" stroke-linecap="round"/>
</svg>
