<svg width="12" height="11" viewBox="0 0 12 11" fill="none" xmlns="http://www.w3.org/2000/svg">
<rect x="2.37223" y="0.300879" width="0.811111" height="1.92222" rx="0.183333" fill="#CBBFB3" stroke="#412A1D" stroke-width="0.3"/>
<path d="M9.55556 10.1509H1.55556C1.3101 10.1509 1.11111 9.95189 1.11111 9.70644V3.70643C1.11111 3.56654 1.17698 3.43481 1.28889 3.35088L5.28889 0.350879C5.44692 0.23236 5.6642 0.23236 5.82223 0.350879L9.82223 3.35088C9.93414 3.43481 10 3.56654 10 3.70643V9.70644C10 9.95189 9.80102 10.1509 9.55556 10.1509Z" fill="#FFD100" stroke="#412A1D" stroke-width="0.4"/>
<path d="M3.33334 6.03988V9.2621C3.33334 9.44619 3.48258 9.59543 3.66668 9.59543H5.45615C5.64025 9.59543 5.78948 9.44619 5.78948 9.2621V6.03988C5.78948 5.85578 5.64025 5.70654 5.45615 5.70654H3.66668C3.48258 5.70654 3.33334 5.85578 3.33334 6.03988Z" fill="#5D3C28"/>
<path d="M3.74271 7.26192V6.19759C3.74271 6.15238 3.77936 6.11572 3.82458 6.11572H5.29826C5.34348 6.11572 5.38013 6.15238 5.38013 6.19759V7.26192C5.38013 7.30714 5.34348 7.34379 5.29826 7.34379H3.82458C3.77936 7.34379 3.74271 7.30714 3.74271 7.26192Z" fill="#9F692D"/>
<path d="M3.74271 8.0809V7.83529C3.74271 7.79007 3.77936 7.75342 3.82458 7.75342H5.29826C5.34348 7.75342 5.38013 7.79007 5.38013 7.83529V8.0809C5.38013 8.12612 5.34348 8.16277 5.29826 8.16277H3.82458C3.77936 8.16277 3.74271 8.12612 3.74271 8.0809Z" fill="#9F692D"/>
<path d="M3.74271 8.89926V8.65365C3.74271 8.60843 3.77936 8.57178 3.82458 8.57178H5.29826C5.34348 8.57178 5.38013 8.60843 5.38013 8.65365V8.89926C5.38013 8.94448 5.34348 8.98113 5.29826 8.98113H3.82458C3.77936 8.98113 3.74271 8.94448 3.74271 8.89926Z" fill="#9F692D"/>
<circle cx="5.5439" cy="7.50798" r="0.163743" fill="#FFD100"/>
<mask id="path-8-inside-1_1281_13986" fill="white">
<rect x="6.66666" y="4.59521" width="2.22222" height="2.22222" rx="0.222222"/>
</mask>
<rect x="6.66666" y="4.59521" width="2.22222" height="2.22222" rx="0.222222" fill="#9F692D" stroke="#5D3C28" stroke-width="0.666667" mask="url(#path-8-inside-1_1281_13986)"/>
<path d="M1.59545 4.03977H0.555556C0.384335 4.03977 0.31486 3.81937 0.455129 3.72118L5.42812 0.240084C5.50463 0.186523 5.60648 0.186523 5.68299 0.240084L10.5336 3.63549C10.7116 3.76009 10.6234 4.03977 10.4061 4.03977H9.51566C9.46934 4.03977 9.42418 4.0253 9.38649 3.99838L5.68472 1.35425C5.60745 1.29906 5.50366 1.29906 5.42639 1.35425L1.72462 3.99838C1.68693 4.0253 1.64177 4.03977 1.59545 4.03977Z" fill="#9F692D" stroke="#412A1D" stroke-width="0.4"/>
</svg>
