<svg width="8" height="14" viewBox="0 0 8 14" fill="none" xmlns="http://www.w3.org/2000/svg">
<path d="M4.30537 0.277643L3.56997 2.43481C3.46538 2.74162 3.53856 3.0811 3.76025 3.31757C4.10671 3.68714 4.69334 3.68714 5.0398 3.31757C5.26149 3.0811 5.33467 2.74162 5.23008 2.43482L4.49468 0.277643C4.46389 0.187333 4.33616 0.187333 4.30537 0.277643Z" fill="#FF120A"/>
<path d="M4.37319 1.94228L4.04464 2.33654C3.85543 2.56359 3.88959 2.90176 4.12038 3.08639C4.31309 3.24056 4.58693 3.24056 4.77965 3.08639C5.01044 2.90176 5.04459 2.56359 4.85538 2.33654L4.52683 1.94228C4.48685 1.89431 4.41317 1.89431 4.37319 1.94228Z" fill="#FFD100"/>
<path d="M2.90002 4.1V11.9C2.90002 11.9552 2.9448 12 3.00002 12H5.80002C5.85525 12 5.90002 11.9552 5.90002 11.9V4.1C5.90002 4.04477 5.85525 4 5.80002 4H3.00002C2.9448 4 2.90002 4.04477 2.90002 4.1Z" fill="#CBBFB3" stroke="#5D3C28" stroke-width="0.4" stroke-linecap="round"/>
<path d="M7.00001 11.5H1.90001C1.78956 11.5 1.70001 11.5895 1.70001 11.7V12.8C1.70001 12.9105 1.78956 13 1.90001 13H7.00001C7.11047 13 7.20001 12.9105 7.20001 12.8V11.7C7.20001 11.5895 7.11047 11.5 7.00001 11.5Z" fill="#FFD100" stroke="#5D3C28" stroke-width="0.4"/>
<circle cx="1" cy="11" r="0.75" stroke="#5D3C28" stroke-width="0.5"/>
</svg>
