<svg width="49" height="66" viewBox="0 0 49 66" fill="none" xmlns="http://www.w3.org/2000/svg">
<path fill-rule="evenodd" clip-rule="evenodd" d="M17.3963 59.8978C16.9666 62.363 14.1692 64.0242 11.148 63.61C8.12691 63.1936 6.02496 60.8591 6.45465 58.3939C6.88434 55.9287 9.68176 54.2675 12.7029 54.6817C15.724 55.0959 17.826 57.4326 17.3963 59.8978Z" fill="#9F692D" stroke="#5D3820" stroke-width="1.10745" stroke-linecap="round" stroke-linejoin="round"/>
<path fill-rule="evenodd" clip-rule="evenodd" d="M34.5052 61.0758C34.0755 63.541 31.2781 65.2022 28.2569 64.788C25.2358 64.3716 23.1338 62.0371 23.5635 59.5719C23.9932 57.1067 26.7906 55.4455 29.8118 55.8597C32.8329 56.2761 34.9349 58.6106 34.5052 61.0758Z" fill="#9F692D" stroke="#5D3820" stroke-width="1.10745" stroke-linecap="round" stroke-linejoin="round"/>
<path fill-rule="evenodd" clip-rule="evenodd" d="M3.3629 40.2603C2.12476 42.555 1.34954 45.5562 2.51458 47.8885C3.45592 49.7711 5.43383 50.9029 5.43383 50.9029C5.43383 50.9029 4.47035 53.532 5.98977 55.8488C7.25448 57.7758 9.73961 58.4159 12.0055 58.8367C13.5492 59.1224 15.1816 59.3705 16.6545 58.8301C18.1275 58.2897 18.3357 57.0515 19.184 55.1688C18.1474 59.7847 25.1886 60.0416 29.357 60.066C31.3615 60.0771 34.3472 59.1402 35.6872 57.6495C38.1347 54.9274 37.1734 51.1842 37.1734 51.1842C37.1734 51.1842 38.1923 50.0436 38.5865 49.3946C39.7316 47.5141 40.2455 44.5838 39.8114 42.4243C39.1181 38.989 37.4082 35.5182 34.9164 33.053C32.0902 30.2578 27.7534 29.6686 23.7843 29.8813C19.2925 30.1205 15.4563 30.9334 11.3676 32.8182C7.83701 34.4462 5.18355 36.8804 3.3629 40.2581V40.2603Z" fill="#F8B62D" stroke="#5D3820" stroke-width="1.10745" stroke-linecap="round" stroke-linejoin="round"/>
<path d="M30.0171 40.9207C30.4889 41.9572 30.8654 43.0868 30.4889 43.8399" stroke="#5D3820" stroke-width="1.10745" stroke-linecap="round" stroke-linejoin="round"/>
<path d="M33.4481 43.3857C30.7016 43.5098 26.8012 45.0514 25.4014 47.4169C27.8555 48.4335 29.6717 49.8023 30.9586 52.1258C31.324 52.788 34.4337 52.2121 35.0052 52.0394C36.5888 51.5632 38.0042 50.4867 38.8303 49.047" stroke="#5D3820" stroke-width="1.10745" stroke-linecap="round" stroke-linejoin="round"/>
<path d="M9.57952 39.0356C9.10774 41.6736 9.29601 43.5563 9.89625 44.1853" stroke="#5D3820" stroke-width="1.10745" stroke-linecap="round" stroke-linejoin="round"/>
<path fill-rule="evenodd" clip-rule="evenodd" d="M21.9152 54.6994C21.944 54.8235 21.7026 55.0073 21.2662 55.1801C20.8299 55.344 20.1831 55.5145 19.4256 55.468C19.0491 55.4459 18.6925 55.3661 18.3846 55.2576C18.0768 55.1469 17.822 55.0051 17.6227 54.87C17.2262 54.5931 17.0513 54.3384 17.1133 54.2299C17.1819 54.1147 17.4765 54.1634 17.8974 54.2631C18.3204 54.3628 18.8653 54.4957 19.4832 54.5289C20.1012 54.5688 20.6948 54.5222 21.1422 54.5289C21.5896 54.5289 21.8864 54.5732 21.9174 54.7017L21.9152 54.6994Z" fill="#5D3820"/>
<path d="M10.7138 14.6981C14.6197 14.6981 17.786 11.5318 17.786 7.6259C17.786 3.72004 14.6197 0.553711 10.7138 0.553711C6.80793 0.553711 3.6416 3.72004 3.6416 7.6259C3.6416 11.5318 6.80793 14.6981 10.7138 14.6981Z" fill="#F8B62D" stroke="#5D3820" stroke-width="1.10745" stroke-linecap="round" stroke-linejoin="round"/>
<path d="M40.6113 19.6815C44.5171 19.6815 47.6834 16.5152 47.6834 12.6093C47.6834 8.70344 44.5171 5.53711 40.6113 5.53711C36.7054 5.53711 33.5391 8.70344 33.5391 12.6093C33.5391 16.5152 36.7054 19.6815 40.6113 19.6815Z" fill="#F8B62D" stroke="#5D3820" stroke-width="1.10745" stroke-linecap="round" stroke-linejoin="round"/>
<path fill-rule="evenodd" clip-rule="evenodd" d="M44.3313 24.078C45.0667 13.1984 36.0188 5.04313 24.2023 3.79171C12.3857 2.5425 1.96903 9.65014 0.671096 20.4766C-0.575896 30.8889 8.24829 37.5092 20.6651 38.8227C38.4109 40.7009 43.8418 31.2898 44.3291 24.078H44.3313Z" fill="#F8B62D" stroke="#5D3820" stroke-width="1.10745" stroke-linecap="round" stroke-linejoin="round"/>
<path fill-rule="evenodd" clip-rule="evenodd" d="M36.2422 25.6464C35.467 32.98 28.3483 36.4839 19.5086 35.5493C10.6689 34.6146 4.51147 29.7041 5.28004 22.4414C6.07076 14.9661 13.2028 10.6582 22.0425 11.5951C30.8821 12.5297 37.0484 18.0316 36.2422 25.6464Z" fill="#9F692D" stroke="#5D3820" stroke-width="1.10745" stroke-linecap="round" stroke-linejoin="round"/>
<path fill-rule="evenodd" clip-rule="evenodd" d="M13.5436 22.9333C13.4639 23.693 13.114 25.033 11.5325 24.765C10.0153 24.508 10.1726 23.3076 10.2545 22.5479L13.5436 22.9333Z" fill="#5D3820"/>
<path fill-rule="evenodd" clip-rule="evenodd" d="M29.4206 24.8844C29.3409 25.6441 28.9909 26.9841 27.4095 26.7161C25.8923 26.4592 26.0495 25.2587 26.1315 24.499L29.4206 24.8844Z" fill="#5D3820"/>
<path fill-rule="evenodd" clip-rule="evenodd" d="M25.1218 27.7749C24.7918 30.9045 21.939 32.2357 18.6299 31.8857C15.3208 31.5358 12.8246 29.5025 13.1414 26.5079C13.4515 23.5798 16.3242 22.0471 19.6333 22.3971C22.9423 22.747 25.4319 24.849 25.1218 27.7749Z" fill="#F2D6A1"/>
<path fill-rule="evenodd" clip-rule="evenodd" d="M19.8773 25.3695C19.7843 26.24 18.6769 26.6697 18.1519 26.6143C17.6824 26.5656 16.6325 25.9077 16.7233 25.0373C16.8141 24.1668 17.5318 24.1447 18.4022 24.2355C19.2727 24.3263 19.9681 24.4991 19.8773 25.3717V25.3695Z" fill="#5D3820"/>
<path d="M18.196 26.1777L18.0742 27.3295" stroke="#5D3820" stroke-width="0.664472" stroke-linecap="round" stroke-linejoin="round"/>
<path d="M16.562 27.868C16.562 27.868 18.0039 27.7174 19.7626 28.0519" stroke="#5D3820" stroke-width="0.664472" stroke-linecap="round" stroke-linejoin="round"/>
<path d="M16.2871 36.8982C16.6038 38.8717 15.9261 40.1054 15.7666 42.0988" stroke="#5D3820" stroke-width="1.10745" stroke-linecap="round" stroke-linejoin="round"/>
<path d="M19.0454 37.6931C19.3001 39.6001 18.8948 40.712 19.1473 42.6191" stroke="#5D3820" stroke-width="1.10745" stroke-linecap="round" stroke-linejoin="round"/>
<path d="M8.16492 51.4698C9.98513 51.4698 11.4607 49.8882 11.4607 47.9371C11.4607 45.986 9.98513 44.4043 8.16492 44.4043C6.34471 44.4043 4.86914 45.986 4.86914 47.9371C4.86914 49.8882 6.34471 51.4698 8.16492 51.4698Z" fill="#9F692D" stroke="#5D3820" stroke-width="1.10745" stroke-linecap="round" stroke-linejoin="round"/>
<path fill-rule="evenodd" clip-rule="evenodd" d="M30.1984 46.9827C32.2472 48.2674 32.7123 52.9519 30.3977 52.5953C29.0422 52.3871 28.3002 52.0925 26.2514 50.8079C24.2026 49.5232 22.9933 50.2276 24.2359 48.2452C25.4784 46.2629 28.1496 45.6981 30.1984 46.9827Z" fill="#9F692D" stroke="#5D3820" stroke-width="1.10745" stroke-linecap="round" stroke-linejoin="round"/>
<path fill-rule="evenodd" clip-rule="evenodd" d="M5.34133 53.069L5.24609 51.0911C6.9405 51.0911 9.41897 47.6027 9.93726 45.2681C10.0214 44.8938 10.1167 44.4619 10.4556 44.2847C10.6505 44.1828 10.883 44.1895 11.1023 44.2006C15.6229 44.4331 20.839 45.5539 25.3065 46.287C26.3696 50.4621 30.0154 53.1621 34.3477 53.1621L32.9413 55.6383" fill="#F8B62D"/>
<path fill-rule="evenodd" clip-rule="evenodd" d="M10.4051 43.811C9.89567 47.1223 7.00744 50.9408 5.31082 50.9408L5.18457 53.2332" fill="#F8B62D"/>
<path d="M10.4051 43.811C9.89567 47.1223 7.00744 50.9408 5.31082 50.9408L5.18457 53.2332" stroke="#5D3820" stroke-width="1.10745" stroke-linecap="round" stroke-linejoin="round"/>
<path d="M32.0517 52.4689C27.7193 52.4689 26.1955 50.0502 25.686 45.3391" stroke="#5D3820" stroke-width="1.10745" stroke-linecap="round" stroke-linejoin="round"/>
</svg>
