<svg width="61" height="66" viewBox="0 0 61 66" fill="none" xmlns="http://www.w3.org/2000/svg">
<path fill-rule="evenodd" clip-rule="evenodd" d="M37.2851 54.8239C36.8621 57.2506 34.2915 58.6329 31.3153 58.223C28.3414 57.8131 26.0891 55.7702 26.5121 53.3413C26.9351 50.9146 29.6888 49.2794 32.6628 49.6871C35.6367 50.0948 37.7059 52.395 37.2829 54.8217L37.2851 54.8239Z" fill="#9F692D" stroke="#5D3C28" stroke-width="1.09016" stroke-linecap="round" stroke-linejoin="round"/>
<path fill-rule="evenodd" clip-rule="evenodd" d="M51.1117 54.4756C50.6887 56.9023 47.9612 58.0425 44.961 58.1298C41.6949 58.2235 39.918 55.4218 40.3409 52.9951C40.7639 50.5684 43.5177 48.9332 46.4916 49.3409C49.4656 49.7508 51.5347 52.0489 51.1117 54.4756Z" fill="#9F692D" stroke="#5D3C28" stroke-width="1.09016" stroke-linecap="round" stroke-linejoin="round"/>
<path fill-rule="evenodd" clip-rule="evenodd" d="M52.1445 36.5229C50.5093 33.3789 49.1815 31.4275 49.1815 31.4275L43.4647 30.9696L40.0765 29.886L35.3473 30.9696L28.7977 31.5583C28.7977 31.5583 26.1202 32.8556 24.485 36.0018C22.9544 38.9452 22.2872 41.8516 24.8993 44.0733C25.0519 46.1795 24.3738 49.8969 25.8433 53.1304C25.8433 53.1304 32.4475 55.0163 37.3532 53.8848C38.5655 53.6057 37.3511 50.2458 38.5982 50.2458C39.926 50.2458 39.2021 53.3288 40.373 53.8848C44.3346 55.7707 51.5035 53.5076 51.5035 53.5076C53.3895 49.1687 52.2535 45.4513 51.8763 43.3756C53.0864 41.361 53.6751 39.4685 52.1445 36.5251V36.5229Z" fill="#F8B62D" stroke="#5D3C28" stroke-width="1.09016" stroke-linecap="round" stroke-linejoin="round"/>
<path d="M28.6689 37.1788C28.6689 37.1788 32.9816 37.048 34.1568 40.0525" stroke="#5D3C28" stroke-width="1.09016" stroke-linecap="round" stroke-linejoin="round"/>
<path d="M23.8626 14.728C27.7075 14.728 30.8244 11.6111 30.8244 7.7662C30.8244 3.92133 27.7075 0.804443 23.8626 0.804443C20.0178 0.804443 16.9009 3.92133 16.9009 7.7662C16.9009 11.6111 20.0178 14.728 23.8626 14.728Z" fill="#F8B62D" stroke="#5D3C28" stroke-width="1.09016" stroke-linecap="round" stroke-linejoin="round"/>
<path d="M52.6654 14.4687C56.5102 14.4687 59.6271 11.3518 59.6271 7.50692C59.6271 3.66205 56.5102 0.545166 52.6654 0.545166C48.8205 0.545166 45.7036 3.66205 45.7036 7.50692C45.7036 11.3518 48.8205 14.4687 52.6654 14.4687Z" fill="#F8B62D" stroke="#5D3C28" stroke-width="1.09016" stroke-linecap="round" stroke-linejoin="round"/>
<path fill-rule="evenodd" clip-rule="evenodd" d="M58.8996 18.7968C58.0798 8.09579 48.1136 1.42618 36.4271 1.87751C24.7384 2.32884 15.5942 10.7253 15.8602 21.4546C16.1152 31.774 25.6476 36.9785 37.9293 36.5032C55.4831 35.8273 59.4447 25.8915 58.9018 18.7968H58.8996Z" fill="#F8B62D" stroke="#5D3C28" stroke-width="1.09016" stroke-linecap="round" stroke-linejoin="round"/>
<path fill-rule="evenodd" clip-rule="evenodd" d="M52.7591 21.2427C53.0382 28.4966 46.5997 32.9161 37.8544 33.2519C29.1114 33.5898 22.42 29.6762 22.1431 22.492C21.8574 15.0986 28.1978 9.89415 36.9409 9.55838C45.684 9.22261 52.4691 13.7097 52.7591 21.2427Z" fill="#9F692D" stroke="#5D3C28" stroke-width="1.09016" stroke-linecap="round" stroke-linejoin="round"/>
<path d="M44.1513 22.0713C44.9039 22.0713 45.514 21.4612 45.514 20.7086C45.514 19.956 44.9039 19.3459 44.1513 19.3459C43.3987 19.3459 42.7886 19.956 42.7886 20.7086C42.7886 21.4612 43.3987 22.0713 44.1513 22.0713Z" fill="#5D3C28"/>
<path d="M30.6845 22.5906C31.4371 22.5906 32.0472 21.9805 32.0472 21.2279C32.0472 20.4753 31.4371 19.8652 30.6845 19.8652C29.9319 19.8652 29.3218 20.4753 29.3218 21.2279C29.3218 21.9805 29.9319 22.5906 30.6845 22.5906Z" fill="#5D3C28"/>
<path fill-rule="evenodd" clip-rule="evenodd" d="M43.4939 24.7055C43.6138 27.8016 41.0214 29.5022 37.7509 29.6265C34.4783 29.753 31.7594 28.1243 31.646 25.1612C31.5348 22.2658 34.1185 20.3645 37.389 20.2402C40.6617 20.1138 43.3827 21.8101 43.4939 24.7055Z" fill="#F2D6A1"/>
<path fill-rule="evenodd" clip-rule="evenodd" d="M39.0547 22.9545C39.0874 23.8157 38.0692 24.3913 37.5481 24.411C37.0837 24.4284 35.9674 23.9378 35.9347 23.0744C35.902 22.211 36.5953 22.0889 37.4587 22.0562C38.3222 22.0235 39.022 22.0933 39.0547 22.9545Z" fill="#5D3C28"/>
<path d="M36.4009 25.9805L37.6655 25.1628L38.8101 25.7929" stroke="#5D3C28" stroke-width="0.654096" stroke-linecap="round" stroke-linejoin="round"/>
<path d="M37.5337 23.9814L37.5773 25.1196" stroke="#5D3C28" stroke-width="0.654096" stroke-linecap="round" stroke-linejoin="round"/>
<path d="M20.1067 44.2762L20.1111 44.2347C20.1111 44.2347 20.1067 44.2435 20.1046 44.2478C19.9607 42.8197 15.6414 41.675 10.328 41.675C5.01458 41.675 0.699726 42.8197 0.551464 44.2456C0.551464 44.2413 0.547102 44.2391 0.544922 44.2347L0.549283 44.2762C0.549283 44.2914 0.544922 44.3067 0.544922 44.322C0.544922 44.3895 0.558004 44.455 0.575446 44.5204L2.17144 59.5449C2.17144 60.7637 5.82348 62.1439 10.328 62.1439C14.8326 62.1439 18.4846 60.7637 18.4846 59.5449L20.0806 44.5204C20.098 44.455 20.1111 44.3895 20.1111 44.322C20.1111 44.3067 20.1067 44.2914 20.1067 44.2762Z" fill="#CBBFB3" stroke="#5D3C28" stroke-width="1.09016" stroke-linecap="round" stroke-linejoin="round"/>
<path d="M51.8766 43.1051C50.5837 44.7403 49.2733 45.4969 47.5792 46.7135C47.069 47.0798 46.5109 47.4352 45.8851 47.4788C45.3357 47.5158 44.7971 47.3065 44.324 47.0274C42.6299 46.0289 39.5339 45.4729 39.6538 43.5084C39.7737 41.5439 45.1046 37.7109 46.9077 36.926" stroke="#5D3C28" stroke-width="1.09016" stroke-linecap="round" stroke-linejoin="round"/>
<path d="M41.5584 53.5378L31.1539 40.3861C30.5216 39.6405 30.6153 38.5154 31.3588 37.8831C32.1045 37.2508 33.2295 37.3446 33.8618 38.0881L45.1363 50.5006C45.7686 51.2463 45.2409 52.7398 44.4953 53.3721C43.7496 54.0044 42.1885 54.2791 41.5584 53.5356V53.5378Z" fill="#CBBFB3" stroke="#5D3C28" stroke-width="0.654096" stroke-linecap="round" stroke-linejoin="round"/>
<path d="M56.9707 54.5669C56.9707 54.5669 49.7299 51.1612 46.3635 51.7826C42.9993 52.404 42.2144 51.0457 42.2144 51.0457C42.2144 51.0457 42.8118 51.6583 42.5785 54.2464C42.2972 57.3533 45.4063 64.278 44.6323 64.4023C45.293 64.1188 45.2733 64.5767 45.4805 64.7119C46.0234 64.9975 45.7923 64.4481 46.3243 64.882C46.6426 65.1414 47.2313 64.4328 47.6368 64.8144C47.9573 65.1174 48.2996 64.6792 48.74 64.6857C48.9014 64.6879 49.0736 64.6857 49.2045 64.5963C49.3527 64.4939 49.4159 64.302 49.562 64.1952C49.8237 64.0033 50.227 64.169 50.5017 63.9946C50.7002 63.8681 50.7961 63.5869 51.025 63.5367C51.1689 63.5062 51.3106 63.5803 51.4567 63.5912C52.0171 63.6348 52.2438 62.8259 52.7649 62.6188C52.9546 62.5447 53.1835 62.549 53.3318 62.4095C53.5237 62.2285 53.4822 61.8993 53.6458 61.6943C53.8202 61.4785 54.1799 61.4523 54.2977 61.2016C54.3522 61.0838 54.3369 60.9465 54.3587 60.8178C54.4743 60.1943 55.4467 60.0177 55.5383 59.3897C55.5557 59.2698 55.5383 59.1412 55.5972 59.0343C55.6604 58.9188 55.7934 58.8643 55.9068 58.7945C56.2033 58.6114 56.3842 58.2582 56.3603 57.9093C56.3494 57.7392 56.2949 57.5626 56.3515 57.4035C56.3995 57.2705 56.4344 58.0968 56.5281 57.99C56.877 57.591 56.8683 56.9303 56.5107 56.5401C56.8116 56.346 57.0274 56.0277 57.0972 55.6766C57.191 55.1926 57.2367 55.4455 57.034 54.9964C57.1997 54.835 57.1931 54.5233 56.9664 54.5625L56.9707 54.5669Z" fill="white" stroke="#5D3C28" stroke-width="0.654096" stroke-linecap="round" stroke-linejoin="round"/>
<path d="M42.6472 55.0293C42.9111 54.1484 43.5281 53.4376 44.1124 52.9231C44.8995 52.2297 45.6103 51.907 46.4541 51.8504L44.3544 49.3735C43.8987 48.8372 42.6821 49.1184 41.6378 50.0036C40.5934 50.8888 40.1159 52.0422 40.5716 52.5808L42.6472 55.0293Z" fill="#CBBFB3" stroke="#5D3C28" stroke-width="0.654096" stroke-linecap="round" stroke-linejoin="round"/>
<path d="M32.285 39.5163C32.4595 39.4051 33.2313 40.565 35.5315 43.4714C36.9684 45.2854 37.8427 46.3647 38.3245 47.0166C38.8085 47.6685 38.9067 47.8887 38.8347 47.9519C38.7148 48.0588 37.8383 47.3066 35.15 43.9009C32.6273 40.6697 32.1389 39.6057 32.2872 39.5163H32.285Z" fill="white"/>
<path fill-rule="evenodd" clip-rule="evenodd" d="M47.3092 63.0966C47.2591 63.1293 46.9495 62.787 46.5418 62.1613C46.1341 61.5377 45.6413 60.6242 45.2379 59.558C44.8346 58.4896 44.5991 57.4801 44.4923 56.7432C44.3833 56.0041 44.3898 55.5418 44.4487 55.5331C44.586 55.5135 44.8738 57.3144 45.6697 59.3945C46.4502 61.4789 47.427 63.0203 47.3114 63.0966H47.3092Z" fill="#5D3C28"/>
<path fill-rule="evenodd" clip-rule="evenodd" d="M49.9391 59.9607C49.8497 60.0457 48.9448 59.2368 48.0226 58.0638C47.0981 56.893 46.5203 55.8246 46.625 55.757C46.734 55.6851 47.4731 56.6248 48.3845 57.7782C49.2937 58.9316 50.035 59.8713 49.9391 59.9607Z" fill="#5D3C28"/>
<path fill-rule="evenodd" clip-rule="evenodd" d="M53.6712 58.6983C53.5774 58.7943 52.1711 57.5297 50.2961 56.1561C48.4275 54.7738 46.8032 53.8057 46.8686 53.688C46.9231 53.5811 48.6717 54.3813 50.5708 55.7854C52.4764 57.183 53.7584 58.6155 53.6712 58.7005V58.6983Z" fill="#5D3C28"/>
<path fill-rule="evenodd" clip-rule="evenodd" d="M54.8128 55.5023C54.7649 55.62 53.5134 55.2188 52.0177 54.6062C50.522 53.9935 49.349 53.4005 49.3969 53.2827C49.4449 53.165 50.6964 53.5662 52.1921 54.1788C53.6878 54.7915 54.8608 55.3845 54.8128 55.5023Z" fill="#5D3C28"/>
<path fill-rule="evenodd" clip-rule="evenodd" d="M24.7867 34.8394C23.1558 36.3983 22.4014 38.8184 22.8571 41.0293C23.3128 43.2379 24.9611 45.1632 27.0738 45.9524C28.1553 46.3558 29.3196 46.4735 30.4686 46.5869C30.9046 46.6305 31.3473 46.6719 31.7768 46.5891C32.7993 46.3907 33.5581 45.5251 34.0792 44.6246C34.9448 43.1333 35.3569 41.1557 34.3801 39.7342C33.992 39.1695 33.4229 38.7508 32.8255 38.4151C31.4541 37.6432 29.8712 37.2464 28.297 37.2813" fill="#F8B62D"/>
<path d="M24.7867 34.8394C23.1558 36.3983 22.4014 38.8184 22.8571 41.0293C23.3128 43.2379 24.9611 45.1632 27.0738 45.9524C28.1553 46.3558 29.3196 46.4735 30.4686 46.5869C30.9046 46.6305 31.3473 46.6719 31.7768 46.5891C32.7993 46.3907 33.5581 45.5251 34.0792 44.6246C34.9448 43.1333 35.3569 41.1557 34.3801 39.7342C33.992 39.1695 33.4229 38.7508 32.8255 38.4151C31.4541 37.6432 29.8712 37.2464 28.297 37.2813" stroke="#5D3C28" stroke-width="1.09016" stroke-linecap="round" stroke-linejoin="round"/>
<path fill-rule="evenodd" clip-rule="evenodd" d="M36.4633 39.5552C37.5469 41.0727 37.0781 43.471 35.4189 44.9122C33.7597 46.3534 31.5379 46.2923 30.4543 44.7748C29.3707 43.2573 29.8395 40.859 31.4987 39.4178C33.1579 37.9766 35.3797 38.0377 36.4633 39.5552Z" fill="#9F692D" stroke="#5D3C28" stroke-width="1.09016" stroke-linecap="round" stroke-linejoin="round"/>
<path fill-rule="evenodd" clip-rule="evenodd" d="M39.1589 42.9675C38.0753 44.485 38.5441 46.8834 40.2033 48.3246C41.8625 49.7658 44.0842 49.7047 45.1679 48.1872C46.2515 46.6697 45.7827 44.2714 44.1235 42.8302C42.4643 41.389 40.2425 41.45 39.1589 42.9675Z" fill="#9F692D" stroke="#5D3C28" stroke-width="1.09016" stroke-linecap="round" stroke-linejoin="round"/>
<path d="M15.8715 42.3005C15.6055 41.8579 15.0757 41.2648 14.6135 41.4937C14.1513 41.7227 13.7981 42.3593 13.9899 42.839C13.3118 42.1762 12.1672 42.9546 12.2042 43.903C11.5741 43.5214 10.508 43.5193 9.79717 44.0665C9.41998 44.3565 9.19541 44.8863 9.08639 45.8173C9.19541 45.2156 9.24555 44.8711 8.86836 44.5593C8.49116 44.2475 8.01804 44.193 7.61468 44.4699C7.71933 44.2322 7.58851 43.9226 7.44679 43.6283C6.91261 43.0745 6.13206 43.286 5.92057 44.0273C5.9729 43.2903 5.1967 42.6777 4.45976 42.7322C3.72281 42.7867 2.61957 43.2467 2.3056 43.9139C1.78669 45.015 2.46913 46.4714 3.09924 47.5136C3.72935 48.5536 4.73666 49.3189 5.81591 49.8793C7.97661 50.9999 10.5603 51.3706 12.8976 50.6882C15.2349 50.0057 17.2691 48.2135 18.041 45.9045C18.2503 45.2788 19.0722 45.8478 19.3666 45.257C19.903 44.1821 20.4415 42.4356 18.6951 41.3607C17.485 40.6173 15.4093 41.1144 15.8737 42.3005H15.8715Z" fill="white" stroke="#5D3C28" stroke-width="0.654096" stroke-linecap="round" stroke-linejoin="round"/>
<path d="M0.594727 44.3127C1.44069 45.8302 4.97499 46.9575 10.3778 46.9575C15.7806 46.9575 19.4218 46.0025 20.1609 44.3127L18.5344 59.6229C18.5344 60.8417 14.8824 62.2219 10.3778 62.2219C5.87328 62.2219 2.22124 60.8417 2.22124 59.6229L0.594727 44.3127Z" fill="#F8B62D" stroke="#5D3C28" stroke-width="1.09016" stroke-linecap="round" stroke-linejoin="round"/>
<path d="M12.5151 39.6124C13.4049 39.6124 14.1263 38.891 14.1263 38.0012C14.1263 37.1113 13.4049 36.3899 12.5151 36.3899C11.6252 36.3899 10.9038 37.1113 10.9038 38.0012C10.9038 38.891 11.6252 39.6124 12.5151 39.6124Z" fill="white" stroke="#5D3C28" stroke-width="0.654096" stroke-linecap="round" stroke-linejoin="round"/>
<path d="M8.08196 42.9698C8.97183 42.9698 9.69321 42.2484 9.69321 41.3586C9.69321 40.4687 8.97183 39.7473 8.08196 39.7473C7.19209 39.7473 6.4707 40.4687 6.4707 41.3586C6.4707 42.2484 7.19209 42.9698 8.08196 42.9698Z" fill="white" stroke="#5D3C28" stroke-width="0.654096" stroke-linecap="round" stroke-linejoin="round"/>
<path d="M14.1264 44.1798C15.0163 44.1798 15.7376 43.4584 15.7376 42.5685C15.7376 41.6786 15.0163 40.9573 14.1264 40.9573C13.2365 40.9573 12.5151 41.6786 12.5151 42.5685C12.5151 43.4584 13.2365 44.1798 14.1264 44.1798Z" fill="white" stroke="#5D3C28" stroke-width="0.654096" stroke-linecap="round" stroke-linejoin="round"/>
<path d="M6.47014 36.6559C7.36001 36.6559 8.0814 35.9345 8.0814 35.0446C8.0814 34.1547 7.36001 33.4333 6.47014 33.4333C5.58027 33.4333 4.85889 34.1547 4.85889 35.0446C4.85889 35.9345 5.58027 36.6559 6.47014 36.6559Z" fill="white" stroke="#5D3C28" stroke-width="0.654096" stroke-linecap="round" stroke-linejoin="round"/>
</svg>
