<svg width="65" height="49" viewBox="0 0 65 49" fill="none" xmlns="http://www.w3.org/2000/svg">
<path fill-rule="evenodd" clip-rule="evenodd" d="M10.4055 46.6804C10.3165 46.8147 9.98717 46.7882 9.54617 46.5516C9.10894 46.3188 8.57709 45.8627 8.16258 45.2286C7.74807 44.5927 7.54365 43.9226 7.50769 43.4286C7.46984 42.9309 7.57583 42.6186 7.73482 42.5902C7.90138 42.5599 8.09065 42.8059 8.31778 43.175C8.54491 43.5479 8.82503 44.0438 9.16762 44.57C9.5121 45.0942 9.85468 45.5504 10.1026 45.9081C10.3506 46.2658 10.4982 46.5365 10.4036 46.6766L10.4055 46.6804Z" fill="#5D3C28"/>
<path fill-rule="evenodd" clip-rule="evenodd" d="M55.1868 22.2508C56.2051 22.864 57.1212 23.6722 58.236 24.0867C59.4946 24.5523 61.0543 24.558 61.8814 25.6142C62.4057 26.2842 62.4643 27.1946 62.4814 28.0444C62.5136 29.6684 62.4681 31.2942 62.3413 32.9144C62.1255 35.6911 61.4744 38.7819 59.1445 40.3093C57.7552 41.2197 55.9704 41.3863 54.3464 41.0399C50.4285 40.1996 47.4928 36.4254 47.1313 32.4337C46.7793 28.5479 49.9818 19.1183 55.1849 22.2527L55.1868 22.2508Z" fill="#ECDEC5" stroke="#5D3820" stroke-width="0.946366" stroke-linecap="round" stroke-linejoin="round"/>
<path fill-rule="evenodd" clip-rule="evenodd" d="M17.9622 15.2514C14.067 16.8148 10.3988 18.927 6.43546 20.3068C5.83925 20.515 5.21087 20.7232 4.78311 21.187C3.64936 22.4191 4.62223 24.3403 4.93074 25.985C5.31118 28.0103 4.55787 30.0998 4.8115 32.144C4.9686 33.4102 5.50424 34.5932 6.04177 35.7496C7.01653 37.8506 8.04429 39.9837 9.67771 41.6266C11.3111 43.2676 13.6865 44.354 15.9502 43.8657C17.2297 43.5893 18.3502 42.8493 19.5388 42.2985C22.3628 40.9906 25.5464 40.7597 28.5861 40.0972C31.6258 39.4348 34.7886 38.1496 36.4126 35.4941C37.8075 33.2153 37.8018 30.3743 37.6674 27.7074C37.5198 24.7983 37.2529 21.8324 36.0813 19.1655C32.7615 11.6173 24.3861 12.6753 17.9622 15.2532V15.2514Z" fill="#ECDEC5" stroke="#5D3820" stroke-width="0.946366" stroke-linecap="round" stroke-linejoin="round"/>
<path fill-rule="evenodd" clip-rule="evenodd" d="M10.6218 39.1188C10.5877 39.1472 10.0407 38.5548 9.34608 37.4551C9.2609 37.317 9.17195 37.1712 9.0792 37.0198C8.98835 36.8684 8.90507 36.7037 8.81233 36.5353C8.62305 36.2021 8.45271 35.8312 8.26911 35.4413C7.92085 34.6539 7.58962 33.7662 7.32464 32.8085C7.06723 31.8489 6.90445 30.9138 6.80414 30.0583C6.76628 29.6306 6.72464 29.2236 6.71897 28.8394C6.71329 28.6482 6.70193 28.4647 6.70382 28.2867C6.70761 28.1088 6.7095 27.9385 6.71329 27.7776C6.75493 26.4773 6.92717 25.6899 6.9707 25.6956C7.03695 25.7032 6.96502 26.4981 6.9972 27.7776C7.00288 27.9366 7.00855 28.105 7.01423 28.2792C7.01991 28.4533 7.03884 28.635 7.05209 28.8224C7.07101 29.1971 7.1259 29.5946 7.17322 30.0148C7.29057 30.8514 7.46092 31.7637 7.71265 32.7025C7.97195 33.6413 8.28615 34.5138 8.6098 35.2936C8.78204 35.6797 8.93725 36.0488 9.10949 36.3819C9.19466 36.5504 9.26848 36.7151 9.35176 36.8684C9.43504 37.0217 9.51453 37.1693 9.59213 37.3094C10.2129 38.428 10.6786 39.0772 10.6256 39.117L10.6218 39.1188Z" fill="#5D3C28"/>
<path fill-rule="evenodd" clip-rule="evenodd" d="M15.3785 19.1109C15.3672 19.2301 14.0915 19.1336 12.5868 19.4894C11.0782 19.8282 9.97289 20.4737 9.91043 20.3696C9.88204 20.326 10.1262 20.1065 10.5805 19.8396C11.0347 19.5746 11.7085 19.2794 12.4959 19.0976C13.2833 18.9178 14.0196 18.8876 14.5419 18.9273C15.0681 18.9671 15.3823 19.0579 15.3766 19.109L15.3785 19.1109Z" fill="#5D3C28"/>
<path d="M47.234 40.6751C48.5334 40.6751 49.5867 39.6217 49.5867 38.3224C49.5867 37.023 48.5334 35.9697 47.234 35.9697C45.9347 35.9697 44.8813 37.023 44.8813 38.3224C44.8813 39.6217 45.9347 40.6751 47.234 40.6751Z" fill="#F8B62D" stroke="#5D3820" stroke-width="0.946366" stroke-linecap="round" stroke-linejoin="round"/>
<path fill-rule="evenodd" clip-rule="evenodd" d="M46.7706 33.4961C45.3511 30.7668 42.7997 28.3914 42.7997 28.3914L37.8369 27.9939L34.8956 27.0532L30.7903 27.9939L25.1045 28.5049C25.1045 28.5049 22.7803 29.6311 21.3607 32.3623C20.032 34.9175 20.1134 37.3535 22.3809 39.2822C22.5134 41.1105 22.9203 43.0998 24.1941 45.9067C24.1941 45.9067 28.6193 44.7257 33.6105 44.7257C38.6016 44.7257 44.4312 45.9067 44.4312 45.9067C45.705 43.0998 44.823 42.2443 44.9536 40.4159C47.7321 39.1572 48.0974 36.0513 46.7687 33.4961H46.7706Z" fill="#F8B62D" stroke="#5D3820" stroke-width="0.946366" stroke-linecap="round" stroke-linejoin="round"/>
<path d="M24.7998 12.5601C28.1376 12.5601 30.8433 9.85437 30.8433 6.51664C30.8433 3.17891 28.1376 0.473145 24.7998 0.473145C21.4621 0.473145 18.7563 3.17891 18.7563 6.51664C18.7563 9.85437 21.4621 12.5601 24.7998 12.5601Z" fill="#F8B62D" stroke="#5D3820" stroke-width="0.946366" stroke-linecap="round" stroke-linejoin="round"/>
<path d="M49.604 15.744C52.9418 15.744 55.6475 13.0382 55.6475 9.70048C55.6475 6.36275 52.9418 3.65698 49.604 3.65698C46.2663 3.65698 43.5605 6.36275 43.5605 9.70048C43.5605 13.0382 46.2663 15.744 49.604 15.744Z" fill="#F8B62D" stroke="#5D3820" stroke-width="0.946366" stroke-linecap="round" stroke-linejoin="round"/>
<path fill-rule="evenodd" clip-rule="evenodd" d="M53.6305 20.1461C54.1908 10.8452 46.4097 3.93106 36.3044 2.93737C26.1991 1.94179 17.3412 8.08182 16.3002 17.3411C15.2989 26.2464 22.8812 31.8489 33.4994 32.8936C48.6753 34.387 53.2576 26.3126 53.6286 20.1461H53.6305Z" fill="#F8B62D" stroke="#5D3820" stroke-width="0.946366" stroke-linecap="round" stroke-linejoin="round"/>
<path fill-rule="evenodd" clip-rule="evenodd" d="M48.0591 21.5239C47.4421 27.7946 41.3816 30.8343 33.822 30.0904C26.2624 29.3466 20.9703 25.1902 21.5817 18.9782C22.2101 12.5865 28.2782 8.86156 35.8377 9.6054C43.3973 10.3492 48.7008 15.011 48.0591 21.5239Z" fill="#9F692D" stroke="#5D3820" stroke-width="0.946366" stroke-linecap="round" stroke-linejoin="round"/>
<path d="M42.2206 21.3366C42.8739 21.3366 43.4035 20.807 43.4035 20.1537C43.4035 19.5003 42.8739 18.9707 42.2206 18.9707C41.5672 18.9707 41.0376 19.5003 41.0376 20.1537C41.0376 20.807 41.5672 21.3366 42.2206 21.3366Z" fill="#5D3820"/>
<path d="M30.5809 20.1914C31.2342 20.1914 31.7639 19.6617 31.7639 19.0084C31.7639 18.3551 31.2342 17.8254 30.5809 17.8254C29.9276 17.8254 29.3979 18.3551 29.3979 19.0084C29.3979 19.6617 29.9276 20.1914 30.5809 20.1914Z" fill="#5D3820"/>
<path fill-rule="evenodd" clip-rule="evenodd" d="M41.1847 23.5153C40.9216 26.1917 38.4914 27.3481 35.6636 27.068C32.834 26.7898 30.6876 25.0674 30.9413 22.5065C31.1873 20.0024 33.6346 18.6737 36.4624 18.9539C39.292 19.2321 41.4327 21.0113 41.1847 23.5153Z" fill="#F2D6A1"/>
<path fill-rule="evenodd" clip-rule="evenodd" d="M37.5754 21.4844C37.5016 22.2302 36.5572 22.603 36.1086 22.5576C35.7054 22.5178 34.8045 21.9633 34.8783 21.2175C34.9521 20.4718 35.5635 20.4491 36.3092 20.5229C37.0549 20.5967 37.6493 20.7387 37.5754 21.4844Z" fill="#5D3820"/>
<path d="M34.936 23.7728L36.119 23.2183L37.0294 23.8959" stroke="#5D3820" stroke-width="0.56782" stroke-linecap="round" stroke-linejoin="round"/>
<path d="M36.1463 22.1868L36.0479 23.171" stroke="#5D3820" stroke-width="0.56782" stroke-linecap="round" stroke-linejoin="round"/>
<path fill-rule="evenodd" clip-rule="evenodd" d="M35.9347 34.5443C36.8224 35.6383 37.5208 36.9348 37.6571 38.3373C37.9088 40.9171 36.2167 43.3341 34.1461 44.8918C29.0243 48.7436 22.0269 48.5581 15.6276 48.2003C14.3273 48.1284 13.0251 48.0546 11.7248 47.9827C9.78662 47.8748 7.2125 47.0931 7.3677 45.1587C5.9368 46.3549 3.79233 45.4048 2.20244 44.4319C1.74629 44.1518 1.29014 43.8736 0.833994 43.5934C-0.0820886 42.2553 0.868062 40.2944 2.316 39.5676C3.76584 38.8408 5.47876 38.9941 7.09137 39.1625C6.88506 38.22 7.6024 37.2717 8.48442 36.8818C9.36643 36.4919 10.3715 36.526 11.3368 36.5676C10.9317 34.4932 12.3948 32.2314 14.4522 31.7487C14.1759 30.844 13.8957 29.9052 14.0225 28.9702C14.1494 28.0352 14.8042 27.0983 15.7393 26.9639C15.0673 27.0604 15.5102 25.02 15.7563 24.7229C16.7784 23.4907 17.4389 24.8648 18.4515 25.2472C20.4881 26.0175 22.432 27.2289 24.4875 28.0314C28.5796 29.6288 33.0559 30.9992 35.9328 34.5443H35.9347Z" fill="white" stroke="#5D3C28" stroke-width="0.946366" stroke-linecap="round" stroke-linejoin="round"/>
<path fill-rule="evenodd" clip-rule="evenodd" d="M22.2086 37.9303C22.184 38.0836 21.5878 38.1574 20.6546 37.9492C20.5392 37.9208 20.418 37.8906 20.2912 37.8584C20.1663 37.8243 20.0395 37.777 19.907 37.7316C19.6382 37.6464 19.3676 37.5196 19.078 37.3871C18.5121 37.1051 17.9177 36.7341 17.3518 36.2685C16.7916 35.7953 16.3203 35.2767 15.9417 34.7713C15.76 34.512 15.5878 34.266 15.4553 34.018C15.3872 33.895 15.3171 33.7796 15.2603 33.6622C15.2074 33.543 15.1544 33.4294 15.1051 33.3215C14.7342 32.4414 14.7001 31.8395 14.8458 31.7884C15.0105 31.7278 15.3228 32.2029 15.8433 32.8994C15.9077 32.9865 15.9758 33.0773 16.0477 33.172C16.1178 33.2666 16.201 33.3594 16.2786 33.4578C16.4319 33.6603 16.6174 33.8572 16.801 34.0729C17.1853 34.4893 17.6244 34.9265 18.1222 35.3467C18.6237 35.7612 19.1329 36.1152 19.6117 36.418C19.8559 36.56 20.083 36.7076 20.3102 36.8212C20.4218 36.8798 20.5278 36.9442 20.6338 36.9972C20.7398 37.0502 20.842 37.1013 20.9385 37.1486C21.7183 37.5347 22.2407 37.7581 22.2105 37.9303H22.2086Z" fill="#5D3C28"/>
<path fill-rule="evenodd" clip-rule="evenodd" d="M36.4669 37.48C36.5275 37.5368 36.4215 37.7545 36.1716 38.1046C36.1092 38.1917 36.0391 38.2882 35.9596 38.3904C35.8783 38.4907 35.7836 38.5948 35.6814 38.7084C35.477 38.9317 35.2461 39.1929 34.9603 39.4466C34.8183 39.5753 34.6707 39.7115 34.5174 39.8516C34.3622 39.9917 34.188 40.1223 34.012 40.2642C33.6657 40.5538 33.2644 40.8226 32.8461 41.1103C31.9944 41.6611 31.0101 42.1986 29.9256 42.6509C28.8373 43.0938 27.7603 43.4043 26.7685 43.6125C26.2689 43.7033 25.7957 43.7942 25.3452 43.832C25.1219 43.8547 24.9061 43.885 24.696 43.8945C24.4878 43.902 24.2872 43.9115 24.096 43.9191C23.7156 43.9399 23.3673 43.9153 23.0645 43.902C22.913 43.8926 22.773 43.8869 22.6424 43.8718C22.5137 43.8547 22.3944 43.8358 22.2903 43.8188C21.8664 43.7449 21.6392 43.6655 21.6411 43.5822C21.643 43.4989 21.8777 43.4213 22.2884 43.3513C22.3906 43.3342 22.5061 43.3172 22.631 43.3002C22.7559 43.2793 22.8903 43.2566 23.0361 43.232C23.3257 43.1828 23.655 43.1487 24.0146 43.0749C24.1944 43.0427 24.3837 43.0106 24.5805 42.9765C24.7774 42.9424 24.978 42.8913 25.1881 42.8497C25.6083 42.7721 26.0493 42.6491 26.5168 42.5355C27.4424 42.28 28.4455 41.9563 29.4695 41.5399C30.4896 41.114 31.4303 40.6371 32.2669 40.1677C32.6776 39.9197 33.077 39.6964 33.431 39.456C33.6089 39.3387 33.7887 39.2327 33.9515 39.1191C34.1142 39.0055 34.2713 38.8958 34.4227 38.7917C34.7294 38.591 34.9887 38.3828 35.229 38.2144C35.3502 38.1292 35.4619 38.0516 35.5641 37.9778C35.6644 37.9021 35.7571 37.8339 35.8423 37.7734C36.1849 37.533 36.4044 37.4251 36.465 37.4819L36.4669 37.48Z" fill="#5D3C28"/>
<path fill-rule="evenodd" clip-rule="evenodd" d="M33.3875 33.9138C33.2266 34.2128 31.8185 33.751 30.0923 33.3024C28.3699 32.8406 26.9182 32.5491 26.9238 32.2084C26.9314 32.0457 27.3175 31.9056 27.9535 31.8658C28.5857 31.8242 29.4639 31.8961 30.3989 32.1403C31.332 32.3863 32.1308 32.7573 32.6607 33.1056C33.1926 33.4538 33.4613 33.7662 33.3875 33.9119V33.9138Z" fill="#5D3C28"/>
<path fill-rule="evenodd" clip-rule="evenodd" d="M15.8112 43.4743C15.7961 43.5557 15.6598 43.603 15.4118 43.6163C15.3494 43.6201 15.2812 43.6201 15.2055 43.6182C15.1317 43.6144 15.0522 43.5993 14.967 43.5879C14.7967 43.5576 14.598 43.5292 14.3935 43.4516C14.2894 43.4157 14.1816 43.3778 14.068 43.3381C13.9563 43.2945 13.8465 43.2358 13.7311 43.1791C13.4945 43.0712 13.2674 42.916 13.0232 42.7532C12.5557 42.4087 12.0863 41.9601 11.6888 41.415C11.2989 40.8643 11.0245 40.2775 10.8485 39.7248C10.7727 39.4428 10.697 39.1778 10.6724 38.9185C10.6573 38.7898 10.6346 38.6687 10.6308 38.5476C10.6308 38.4283 10.627 38.3128 10.627 38.2031C10.6194 37.9854 10.6554 37.7867 10.6819 37.6163C10.697 37.5312 10.7084 37.4517 10.7292 37.3797C10.7519 37.3078 10.7746 37.2435 10.7973 37.1867C10.8882 36.9558 10.9772 36.8422 11.0585 36.8536C11.2365 36.8801 11.2857 37.3835 11.4712 38.1103C11.4939 38.2012 11.5204 38.2958 11.545 38.3942C11.5715 38.4927 11.6112 38.5911 11.6434 38.6952C11.7021 38.9053 11.8005 39.1173 11.8876 39.3425C12.0901 39.7854 12.3418 40.2548 12.6655 40.7128C12.9967 41.1652 13.3601 41.5551 13.7159 41.8882C13.9014 42.0434 14.0718 42.2043 14.2516 42.3273C14.3405 42.3917 14.42 42.4617 14.5052 42.5185C14.5904 42.5753 14.6718 42.6283 14.7513 42.6794C15.3815 43.0882 15.8434 43.2964 15.8112 43.4724V43.4743Z" fill="#5D3C28"/>
<path fill-rule="evenodd" clip-rule="evenodd" d="M45.2426 30.3893C47.0596 29.3805 49.0622 28.7105 51.1196 28.4209C52.8192 28.7862 57.0135 30.7509 58.2097 34.1881C58.5883 35.2764 67.6829 34.0953 62.7012 41.5678C59.493 46.381 53.459 44.812 52.3328 45.0542C51.2369 45.2889 50.1921 44.5508 49.3215 43.8486C48.6401 43.2997 47.9625 42.7451 47.2887 42.1867C45.9581 41.0852 44.6218 39.9401 43.7057 38.4751C42.0344 35.8063 42.3051 32.0209 45.2426 30.3893Z" fill="white" stroke="#5D3C28" stroke-width="0.946366" stroke-linecap="round" stroke-linejoin="round"/>
<path fill-rule="evenodd" clip-rule="evenodd" d="M41.3639 44.9465C41.856 46.9944 44.7462 47.6114 46.9758 47.0758C49.2055 46.5402 50.2749 44.672 49.7827 42.6241C49.2906 40.5762 47.2673 39.4311 44.8484 40.3017C42.6907 41.0777 40.8718 42.8985 41.3639 44.9465Z" fill="#9F692D" stroke="#5D3820" stroke-width="0.946366" stroke-linecap="round" stroke-linejoin="round"/>
<path fill-rule="evenodd" clip-rule="evenodd" d="M34.5068 47.4282C33.1384 45.8269 34.3365 43.126 36.0797 41.6345C37.8229 40.1449 39.9617 40.3777 41.3301 41.9771C42.6986 43.5784 42.4374 45.8894 40.3118 47.3354C38.4153 48.6263 35.8753 49.0275 34.5068 47.4263V47.4282Z" fill="#9F692D" stroke="#5D3820" stroke-width="0.946366" stroke-linecap="round" stroke-linejoin="round"/>
<path fill-rule="evenodd" clip-rule="evenodd" d="M53.0282 34.9174C53.1872 34.8947 53.3859 35.1577 53.49 35.6423C53.543 35.8827 53.5638 36.1779 53.5449 36.5016C53.5222 36.8252 53.4559 37.1811 53.3367 37.5369C53.2137 37.8927 53.0471 38.2126 52.8654 38.4833C52.6799 38.752 52.485 38.9716 52.2938 39.1287C51.9134 39.4467 51.5954 39.5337 51.4837 39.4183C51.3645 39.2972 51.4553 39.0076 51.6162 38.6177C51.779 38.2259 52.0004 37.7224 52.1992 37.1489C52.3941 36.5735 52.5285 36.0398 52.6402 35.6309C52.7537 35.224 52.8578 34.9401 53.0282 34.9174Z" fill="#5D3C28"/>
<path d="M50.0874 34.7522C48.5694 33.8304 46.6615 33.5919 44.8237 33.4632C44.3448 33.4292 43.8546 33.4027 43.3909 33.5181C40.6919 34.1957 43.5688 36.3307 44.5757 36.9515C45.7057 37.6481 46.5991 38.725 47.7972 39.3099C49.1694 39.9799 51.5069 40.3357 52.0331 38.6645C52.5025 37.1787 51.4255 35.5642 50.0855 34.7503L50.0874 34.7522Z" fill="white" stroke="#5D3C28" stroke-width="0.56782" stroke-linecap="round" stroke-linejoin="round"/>
<path d="M35.7167 33.7285C34.0832 34.1108 32.3079 35.1518 31.1665 36.3802C30.0233 37.6086 29.677 39.7208 30.8391 40.9303C31.8612 41.9959 33.5987 41.9732 34.9918 41.4811C35.8018 41.1953 36.5779 40.777 37.4315 40.6842C38.6939 40.5461 39.9185 41.1442 40.9709 41.8521C42.0232 42.5599 43.0056 43.406 44.1848 43.8773C45.3639 44.3486 46.8403 44.3618 47.7734 43.5006C48.591 42.7473 48.4926 41.4773 48.3999 40.3682C48.1803 37.7354 44.7374 34.8641 42.4188 33.6527C39.6649 32.2143 38.5936 33.0546 35.7167 33.7266V33.7285Z" fill="white" stroke="#5D3C28" stroke-width="0.56782" stroke-linecap="round" stroke-linejoin="round"/>
<path d="M27.2578 34.6558C27.2578 34.6558 28.4086 38.7138 30.5947 35.8482C30.5947 35.8482 32.1581 34.37 33.0723 35.9882" fill="white"/>
<path d="M27.2578 34.6558C27.2578 34.6558 28.4086 38.7138 30.5947 35.8482C30.5947 35.8482 32.1581 34.37 33.0723 35.9882" stroke="#5D3C28" stroke-width="0.189273" stroke-miterlimit="10"/>
<path d="M33.6418 36.4597C33.585 36.5278 33.5169 36.5865 33.4355 36.6319C33.0796 36.8325 32.6311 36.7076 32.4304 36.3518C32.3017 36.1227 32.1636 35.9959 32.0197 35.9751C31.7263 35.9316 31.308 36.2117 31.1396 36.3537C30.3825 37.3246 29.5876 37.7354 28.7756 37.5802C27.3125 37.3019 26.6633 35.2634 26.5478 34.8565C26.4362 34.4647 26.6652 34.0559 27.057 33.9442C27.4488 33.8325 27.8576 34.0597 27.9674 34.4515C28.151 35.0874 28.6412 36.0508 29.05 36.1284C29.2185 36.1606 29.5592 35.9865 30.0058 35.3997C30.0304 35.3675 30.0569 35.3392 30.0853 35.3108C30.1894 35.2123 31.1396 34.3474 32.2355 34.512C32.6595 34.5764 33.2576 34.8206 33.7118 35.6231C33.867 35.8975 33.8273 36.2268 33.6399 36.4559L33.6418 36.4597Z" fill="white" stroke="#5D3C28" stroke-width="0.56782" stroke-linecap="round" stroke-linejoin="round"/>
<path fill-rule="evenodd" clip-rule="evenodd" d="M37.2348 34.0068C38.1755 35.3241 37.7686 37.4061 36.3282 38.6572C34.8878 39.9083 32.9591 39.8553 32.0184 38.538C31.0778 37.2206 31.4847 35.1386 32.9251 33.8875C34.3654 32.6364 36.2941 32.6894 37.2348 34.0068Z" fill="#9F692D" stroke="#5D3820" stroke-width="0.946366" stroke-linecap="round" stroke-linejoin="round"/>
<path fill-rule="evenodd" clip-rule="evenodd" d="M48.0619 32.5644C47.1212 33.8817 47.5281 35.9637 48.9685 37.2148C50.4089 38.4659 52.3376 38.4129 53.2783 37.0956C54.219 35.7783 53.812 33.6962 52.3717 32.4452C50.9313 31.1941 49.0026 31.2471 48.0619 32.5644Z" fill="#9F692D" stroke="#5D3820" stroke-width="0.946366" stroke-linecap="round" stroke-linejoin="round"/>
<path fill-rule="evenodd" clip-rule="evenodd" d="M48.1108 33.5904C48.0578 33.4276 48.266 33.2118 48.5575 32.926C48.7051 32.7841 48.8717 32.6156 49.0496 32.432C49.2237 32.2428 49.4054 32.0327 49.5852 31.8018C49.7594 31.5671 49.9127 31.3362 50.049 31.1166C50.1796 30.897 50.2969 30.6907 50.3934 30.5109C50.5903 30.1532 50.7417 29.8958 50.9139 29.9015C51.0729 29.9071 51.2262 30.2043 51.2187 30.7115C51.2168 30.9633 51.1619 31.2604 51.0559 31.5765C50.9423 31.8888 50.7739 32.2201 50.543 32.5286C50.3083 32.8352 50.0357 33.0869 49.765 33.2781C49.4887 33.4655 49.218 33.598 48.9758 33.668C48.4893 33.8118 48.1619 33.7418 48.1146 33.5904H48.1108Z" fill="#5D3C28"/>
<path d="M39.7678 32.1122C39.7489 31.9551 39.6997 31.7942 39.5861 31.6825C39.4404 31.5406 39.3041 31.0693 39.0997 31.0636C38.0322 31.0314 37.4927 31.2737 36.2341 31.9002C35.9899 32.0213 35.3445 32.3488 35.3596 32.6213C35.3653 32.7311 36.0183 33.8686 36.0751 33.9614C36.8019 35.1197 37.6347 35.6497 38.6265 35.9696C38.6265 35.9696 40.0101 34.0939 39.7659 32.1141L39.7678 32.1122Z" fill="white" stroke="#5D3C28" stroke-width="0.56782" stroke-linecap="round" stroke-linejoin="round"/>
<path d="M46.3375 25.9226C47.6832 27.3327 47.6605 28.9264 47.6738 30.5522C46.593 30.6241 42.7129 30.52 43.205 29.0532C44.1457 26.2444 46.2164 25.7958 46.3375 25.9226Z" fill="white" stroke="#5D3C28" stroke-width="0.56782" stroke-linecap="round" stroke-linejoin="round"/>
<path d="M45.4669 28.0371C47.9161 28.4289 50.0681 30.4939 50.3407 32.9601C50.4751 34.1658 50.1741 35.4169 49.5079 36.4314C48.4063 38.1083 46.4189 39.0282 44.4354 39.3367C43.0045 39.5601 41.46 39.4862 40.2278 38.7254C38.9408 37.9323 38.1572 36.4522 38.0417 34.9456C37.7256 30.8213 41.3483 27.3803 45.4669 28.0371Z" fill="white" stroke="#5D3C28" stroke-width="0.56782" stroke-linecap="round" stroke-linejoin="round"/>
<path d="M42.5678 34.902C42.8731 34.902 43.1205 34.6545 43.1205 34.3493C43.1205 34.0441 42.8731 33.7966 42.5678 33.7966C42.2626 33.7966 42.0151 34.0441 42.0151 34.3493C42.0151 34.6545 42.2626 34.902 42.5678 34.902Z" fill="#5D3C28"/>
<path d="M46.291 33.3764C46.5962 33.3764 46.8436 33.1289 46.8436 32.8237C46.8436 32.5184 46.5962 32.271 46.291 32.271C45.9857 32.271 45.7383 32.5184 45.7383 32.8237C45.7383 33.1289 45.9857 33.3764 46.291 33.3764Z" fill="#5D3C28"/>
<path d="M44.9245 34.8083C45.2071 34.6987 45.3885 34.4866 45.3295 34.3345C45.2706 34.1825 44.9937 34.1481 44.711 34.2576C44.4284 34.3672 44.247 34.5793 44.3059 34.7314C44.3649 34.8834 44.6418 34.9178 44.9245 34.8083Z" fill="#5D3C28"/>
<path d="M45.2705 35.3867L44.981 34.6978" stroke="#5D3C28" stroke-width="0.378546" stroke-linecap="round" stroke-linejoin="round"/>
<path d="M45.1016 35.7838L45.2549 35.3655L45.7394 35.5112" stroke="#5D3C28" stroke-width="0.378546" stroke-linecap="round" stroke-linejoin="round"/>
<path d="M42.9189 37.8948C43.6892 37.5914 44.1422 36.9102 43.9307 36.3733C43.7192 35.8364 42.9233 35.6472 42.153 35.9506C41.3827 36.254 40.9297 36.9352 41.1412 37.4721C41.3527 38.009 42.1486 38.1982 42.9189 37.8948Z" fill="#F8B62D"/>
<path d="M48.558 35.0244C49.3283 34.721 49.7813 34.0398 49.5698 33.5029C49.3584 32.9661 48.5625 32.7768 47.7922 33.0802C47.0219 33.3837 46.5689 34.0649 46.7804 34.6017C46.9919 35.1386 47.7877 35.3278 48.558 35.0244Z" fill="#F8B62D"/>
<path d="M47.4658 33.6358L48.9592 32.5588" stroke="#5D3C28" stroke-width="0.378546" stroke-linecap="round" stroke-linejoin="round"/>
<path d="M47.688 34.3813L49.4123 34.1201" stroke="#5D3C28" stroke-width="0.378546" stroke-linecap="round" stroke-linejoin="round"/>
<path d="M42.801 35.8369L41.2622 36.4994" stroke="#5D3C28" stroke-width="0.378546" stroke-linecap="round" stroke-linejoin="round"/>
<path d="M43.21 36.3518L42.5854 37.6843" stroke="#5D3C28" stroke-width="0.378546" stroke-linecap="round" stroke-linejoin="round"/>
</svg>
