<svg width="54" height="63" viewBox="0 0 54 63" fill="none" xmlns="http://www.w3.org/2000/svg">
<path d="M41.5867 49.6483C43.1442 49.6483 44.4069 48.3857 44.4069 46.8282C44.4069 45.2707 43.1442 44.0081 41.5867 44.0081C40.0292 44.0081 38.7666 45.2707 38.7666 46.8282C38.7666 48.3857 40.0292 49.6483 41.5867 49.6483Z" fill="#F8B62D" stroke="#5D3C28" stroke-width="1.13441" stroke-linecap="round" stroke-linejoin="round"/>
<path fill-rule="evenodd" clip-rule="evenodd" d="M46.3599 44.3643C43.93 41.5918 36.275 34.9261 36.275 34.9261L30.3262 34.4496L26.8005 33.322L21.8794 34.4496L15.0639 35.0622C15.0639 35.0622 14.4718 34.4814 12.7702 37.753C11.1775 40.8159 8.53885 45.9525 10.1247 50.9779C10.2836 53.1696 12.094 56.6159 14.3561 56.2688C14.3561 56.2688 18.6895 56.7974 24.6724 56.7974C30.6552 56.7974 36.5745 56.2688 36.5745 56.2688C38.6913 55.2115 39.5898 53.7005 39.7486 51.5088C43.0792 50 50.8953 49.5395 46.3622 44.3666L46.3599 44.3643Z" fill="#F8B62D" stroke="#5D3C28" stroke-width="1.13441" stroke-linecap="round" stroke-linejoin="round"/>
<path fill-rule="evenodd" clip-rule="evenodd" d="M47.4014 44.9336C45.7112 43.983 43.2835 44.7339 41.9767 46.6102C40.6699 48.4865 40.9807 50.7803 42.671 51.7309C44.3612 52.6816 46.7889 51.9306 48.0957 50.0543C49.4025 48.178 49.0917 45.8842 47.4014 44.9336Z" fill="#9F692D" stroke="#5D3C28" stroke-width="1.13441" stroke-linecap="round" stroke-linejoin="round"/>
<path d="M16.091 15.0558C20.0919 15.0558 23.3353 11.8124 23.3353 7.81145C23.3353 3.81052 20.0919 0.567139 16.091 0.567139C12.0901 0.567139 8.84668 3.81052 8.84668 7.81145C8.84668 11.8124 12.0901 15.0558 16.091 15.0558Z" fill="#F8B62D" stroke="#5D3C28" stroke-width="1.13441" stroke-linecap="round" stroke-linejoin="round"/>
<path d="M45.424 21.2225C49.4249 21.2225 52.6683 17.9791 52.6683 13.9782C52.6683 9.97727 49.4249 6.73389 45.424 6.73389C41.4231 6.73389 38.1797 9.97727 38.1797 13.9782C38.1797 17.9791 41.4231 21.2225 45.424 21.2225Z" fill="#F8B62D" stroke="#5D3C28" stroke-width="1.13441" stroke-linecap="round" stroke-linejoin="round"/>
<path fill-rule="evenodd" clip-rule="evenodd" d="M49.2379 26.8446C50.7943 15.7842 42.1547 6.78154 30.1754 4.62844C18.1961 2.47534 7.02674 8.9664 4.90086 19.9316C2.85667 30.477 11.3806 37.8937 23.9702 40.1557C41.9619 43.3888 48.2079 34.1752 49.2379 26.8424V26.8446Z" fill="#F8B62D" stroke="#5D3C28" stroke-width="1.13441" stroke-linecap="round" stroke-linejoin="round"/>
<path fill-rule="evenodd" clip-rule="evenodd" d="M42.4527 27.9608C41.1164 35.3957 33.5862 38.4496 24.6221 36.8387C15.6603 35.2278 9.7342 29.7578 11.0569 22.3932C12.4182 14.8154 20.0233 10.9425 28.9851 12.5534C37.9469 14.1642 43.8389 20.2401 42.4527 27.9608Z" fill="#9F692D" stroke="#5D3C28" stroke-width="1.13441" stroke-linecap="round" stroke-linejoin="round"/>
<path d="M33.8199 26.9124C34.603 26.9124 35.2379 26.2776 35.2379 25.4944C35.2379 24.7113 34.603 24.0764 33.8199 24.0764C33.0367 24.0764 32.4019 24.7113 32.4019 25.4944C32.4019 26.2776 33.0367 26.9124 33.8199 26.9124Z" fill="#5D3C28"/>
<path d="M20.0191 24.4324C20.8022 24.4324 21.4371 23.7976 21.4371 23.0144C21.4371 22.2313 20.8022 21.5964 20.0191 21.5964C19.2359 21.5964 18.6011 22.2313 18.6011 23.0144C18.6011 23.7976 19.2359 24.4324 20.0191 24.4324Z" fill="#5D3C28"/>
<path fill-rule="evenodd" clip-rule="evenodd" d="M32.26 29.4106C31.6906 32.5824 28.6776 33.7327 25.322 33.1292C21.9687 32.5257 19.5683 30.2637 20.1128 27.228C20.646 24.2604 23.6953 22.9059 27.0508 23.5095C30.4041 24.113 32.7932 26.443 32.26 29.4106Z" fill="#F2D6A1"/>
<path fill-rule="evenodd" clip-rule="evenodd" d="M28.1391 26.6403C27.9803 27.5229 26.8164 27.8791 26.2832 27.7838C25.8068 27.6976 24.7835 26.9489 24.9424 26.0663C25.1012 25.1837 25.834 25.2132 26.7166 25.372C27.5991 25.5308 28.2979 25.7577 28.1391 26.6403Z" fill="#5D3C28"/>
<path d="M24.7681 29.1246L26.2337 28.5732L27.2569 29.4717" stroke="#5D3C28" stroke-width="0.680643" stroke-linecap="round" stroke-linejoin="round"/>
<path d="M26.3635 27.3435L26.1548 28.5097" stroke="#5D3C28" stroke-width="0.680643" stroke-linecap="round" stroke-linejoin="round"/>
<path fill-rule="evenodd" clip-rule="evenodd" d="M13.5634 38.016C11.1834 37.4874 10.8273 34.7534 8.46996 32.7818C8.19997 32.5572 7.91863 32.3235 7.58058 32.2282C6.79784 32.0059 6.02872 32.5663 5.4048 33.0904C4.6992 33.6848 1.82007 32.9633 1.3958 33.7846C-1.10443 38.6376 6.36905 44.2371 10.1239 45.1582" fill="#F8B62D"/>
<path d="M13.5634 38.016C11.1834 37.4874 10.8273 34.7534 8.46996 32.7818C8.19997 32.5572 7.91863 32.3235 7.58058 32.2282C6.79784 32.0059 6.02872 32.5663 5.4048 33.0904C4.6992 33.6848 1.82007 32.9633 1.3958 33.7846C-1.10443 38.6376 6.36905 44.2371 10.1239 45.1582" stroke="#5D3C28" stroke-width="1.13441" stroke-linecap="round" stroke-linejoin="round"/>
<path fill-rule="evenodd" clip-rule="evenodd" d="M7.42959 31.834C8.55719 33.4131 8.06939 35.9088 6.34282 37.4085C4.61626 38.9081 2.30434 38.8446 1.17674 37.2655C0.0491382 35.6864 0.536941 33.1907 2.26351 31.6911C3.99007 30.1914 6.30199 30.2549 7.42959 31.834Z" fill="#9F692D" stroke="#5D3C28" stroke-width="1.13441" stroke-linecap="round" stroke-linejoin="round"/>
<path d="M36.8394 43.5703C38.9562 45.9503 39.4848 47.8016 39.748 50.4471" stroke="#5D3C28" stroke-width="1.13441" stroke-linecap="round" stroke-linejoin="round"/>
<path d="M22.586 45.9505C22.3183 43.9812 22.9558 41.9053 24.2808 40.4237C24.5848 40.0834 24.9977 39.7476 25.4492 39.8293C25.9257 39.9132 26.1957 40.4124 26.3817 40.8593C27.026 42.4157 27.4912 44.0448 27.7634 45.7055" stroke="#5D3C28" stroke-width="1.13441" stroke-linecap="round" stroke-linejoin="round"/>
<path d="M17.5285 61.8206C21.473 61.8206 24.6707 59.0973 24.6707 55.738C24.6707 52.3786 21.473 49.6553 17.5285 49.6553C13.5839 49.6553 10.3862 52.3786 10.3862 55.738C10.3862 59.0973 13.5839 61.8206 17.5285 61.8206Z" fill="#F8B62D" stroke="#5D3C28" stroke-width="1.13441" stroke-linecap="round" stroke-linejoin="round"/>
<path d="M33.1354 62.3487C37.0799 62.3487 40.2776 59.6254 40.2776 56.266C40.2776 52.9067 37.0799 50.1833 33.1354 50.1833C29.1908 50.1833 25.9932 52.9067 25.9932 56.266C25.9932 59.6254 29.1908 62.3487 33.1354 62.3487Z" fill="#F8B62D" stroke="#5D3C28" stroke-width="1.13441" stroke-linecap="round" stroke-linejoin="round"/>
<path fill-rule="evenodd" clip-rule="evenodd" d="M23.0233 57.6484C22.5832 60.1736 19.7176 61.8752 16.623 61.4509C13.5283 61.0244 11.3752 58.6331 11.8154 56.1079C12.2555 53.5827 15.121 51.8811 18.2157 52.3053C21.3103 52.7319 23.4635 55.1232 23.0233 57.6484Z" fill="#9F692D" stroke="#5D3C28" stroke-width="1.13441" stroke-linecap="round" stroke-linejoin="round"/>
<path fill-rule="evenodd" clip-rule="evenodd" d="M37.8801 58.4646C37.0792 60.9603 33.9482 62.3533 30.8899 61.5774C27.8315 60.8015 26.0006 58.1492 26.8037 55.6513C27.6046 53.1556 30.7356 51.7625 33.7939 52.5385C36.8523 53.3144 38.6832 55.9666 37.8801 58.4646Z" fill="#9F692D" stroke="#5D3C28" stroke-width="1.13441" stroke-linecap="round" stroke-linejoin="round"/>
<path opacity="0.71" d="M16.3137 29.1525C17.3437 29.1525 18.1787 28.3977 18.1787 27.4667C18.1787 26.5357 17.3437 25.781 16.3137 25.781C15.2837 25.781 14.4487 26.5357 14.4487 27.4667C14.4487 28.3977 15.2837 29.1525 16.3137 29.1525Z" fill="#F8B62D"/>
<path opacity="0.71" d="M35.6648 32.7049C36.6947 32.7049 37.5297 31.9502 37.5297 31.0192C37.5297 30.0882 36.6947 29.3335 35.6648 29.3335C34.6348 29.3335 33.7998 30.0882 33.7998 31.0192C33.7998 31.9502 34.6348 32.7049 35.6648 32.7049Z" fill="#F8B62D"/>
</svg>
