<svg width="53" height="62" viewBox="0 0 53 62" fill="none" xmlns="http://www.w3.org/2000/svg">
<path d="M40.8292 52.727C42.5136 52.727 43.8791 51.3615 43.8791 49.6771C43.8791 47.9927 42.5136 46.6272 40.8292 46.6272C39.1448 46.6272 37.7793 47.9927 37.7793 49.6771C37.7793 51.3615 39.1448 52.727 40.8292 52.727Z" fill="#F8B62D" stroke="#5D3C28" stroke-width="1.22683" stroke-linecap="round" stroke-linejoin="round"/>
<path fill-rule="evenodd" clip-rule="evenodd" d="M40.2285 43.4199C38.3883 39.8817 35.0807 36.8024 35.0807 36.8024L28.6472 36.2871L24.8342 35.0676L19.5123 36.2871L12.1415 36.9496C12.1415 36.9496 9.12836 38.4095 7.28812 41.9502C5.56565 45.2626 5.67114 48.4205 8.61063 50.9207C8.78239 53.291 9.30993 55.8698 10.9612 59.5086C10.9612 59.5086 16.6979 57.9775 23.1682 57.9775C29.6385 57.9775 37.1958 59.5086 37.1958 59.5086C38.8471 55.8698 37.7037 54.7607 37.873 52.3905C41.475 50.7588 41.9486 46.7323 40.2261 43.4199H40.2285Z" fill="#F8B62D" stroke="#5D3C28" stroke-width="1.22683" stroke-linecap="round" stroke-linejoin="round"/>
<path fill-rule="evenodd" clip-rule="evenodd" d="M15.3772 56.9495C14.6288 60.0607 10.2368 60.998 6.84826 60.1834C3.45975 59.3688 1.83542 56.5299 2.58379 53.4187C3.33216 50.3074 6.4066 48.5653 10.0822 49.8903C13.3627 51.0705 16.1231 53.8382 15.3747 56.9495H15.3772Z" fill="#9F692D" stroke="#5D3C28" stroke-width="1.22683" stroke-linecap="round" stroke-linejoin="round"/>
<path fill-rule="evenodd" clip-rule="evenodd" d="M31.5528 56.9495C32.3012 60.0607 36.6932 60.998 40.0817 60.1834C43.4702 59.3688 45.0946 56.5299 44.3462 53.4187C43.5978 50.3074 40.5234 48.5653 36.8478 49.8903C33.5673 51.0705 30.8069 53.8382 31.5552 56.9495H31.5528Z" fill="#9F692D" stroke="#5D3C28" stroke-width="1.22683" stroke-linecap="round" stroke-linejoin="round"/>
<path d="M11.9976 43.2727C11.9976 43.2727 16.8509 43.1255 18.1734 46.5066" stroke="#5D3C28" stroke-width="1.22683" stroke-linecap="round" stroke-linejoin="round"/>
<path d="M26.9971 45.4786C26.9971 45.4786 31.556 43.2728 33.6146 43.8617" stroke="#5D3C28" stroke-width="1.22683" stroke-linecap="round" stroke-linejoin="round"/>
<path fill-rule="evenodd" clip-rule="evenodd" d="M20.7707 45.9469C21.9902 47.6547 21.4627 50.3537 19.5954 51.9756C17.7282 53.5974 15.2279 53.5287 14.0085 51.821C12.789 50.1132 13.3165 47.4142 15.1838 45.7923C17.051 44.1705 19.5513 44.2392 20.7707 45.9469Z" fill="#9F692D" stroke="#5D3C28" stroke-width="1.22683" stroke-linecap="round" stroke-linejoin="round"/>
<path fill-rule="evenodd" clip-rule="evenodd" d="M25.279 45.9469C24.0595 47.6547 24.587 50.3537 26.4543 51.9756C28.3215 53.5974 30.8218 53.5287 32.0413 51.821C33.2607 50.1132 32.7332 47.4142 30.866 45.7923C28.9987 44.1705 26.4984 44.2392 25.279 45.9469Z" fill="#9F692D" stroke="#5D3C28" stroke-width="1.22683" stroke-linecap="round" stroke-linejoin="round"/>
<path d="M11.7486 16.2826C16.0755 16.2826 19.5831 12.775 19.5831 8.44807C19.5831 4.12117 16.0755 0.613525 11.7486 0.613525C7.42171 0.613525 3.91406 4.12117 3.91406 8.44807C3.91406 12.775 7.42171 16.2826 11.7486 16.2826Z" fill="#F8B62D" stroke="#5D3C28" stroke-width="1.22683" stroke-linecap="round" stroke-linejoin="round"/>
<path d="M43.9019 20.4098C48.2288 20.4098 51.7365 16.9022 51.7365 12.5753C51.7365 8.24837 48.2288 4.74072 43.9019 4.74072C39.575 4.74072 36.0674 8.24837 36.0674 12.5753C36.0674 16.9022 39.575 20.4098 43.9019 20.4098Z" fill="#F8B62D" stroke="#5D3C28" stroke-width="1.22683" stroke-linecap="round" stroke-linejoin="round"/>
<path fill-rule="evenodd" clip-rule="evenodd" d="M49.1219 26.117C49.8482 14.0597 39.7612 5.09643 26.6611 3.80826C13.561 2.51764 2.07782 10.4773 0.728306 22.4806C-0.569681 34.0251 9.25969 41.288 23.0247 42.6424C42.6982 44.5783 48.6385 34.111 49.1194 26.117H49.1219Z" fill="#F8B62D" stroke="#5D3C28" stroke-width="1.22683" stroke-linecap="round" stroke-linejoin="round"/>
<path fill-rule="evenodd" clip-rule="evenodd" d="M41.8982 27.9035C41.0983 36.0325 33.2417 39.9731 23.4418 39.0088C13.6418 38.0445 6.78141 32.6563 7.57394 24.6034C8.38856 16.3173 16.255 11.4885 26.0549 12.4528C35.8549 13.4171 42.73 19.4605 41.8982 27.9035Z" fill="#9F692D" stroke="#5D3C28" stroke-width="1.22683" stroke-linecap="round" stroke-linejoin="round"/>
<path d="M32.3822 27.5204C33.2291 27.5204 33.9157 26.8339 33.9157 25.9869C33.9157 25.14 33.2291 24.4534 32.3822 24.4534C31.5352 24.4534 30.8486 25.14 30.8486 25.9869C30.8486 26.8339 31.5352 27.5204 32.3822 27.5204Z" fill="#5D3C28"/>
<path d="M17.2918 26.0336C18.1388 26.0336 18.8254 25.347 18.8254 24.5001C18.8254 23.6531 18.1388 22.9666 17.2918 22.9666C16.4449 22.9666 15.7583 23.6531 15.7583 24.5001C15.7583 25.347 16.4449 26.0336 17.2918 26.0336Z" fill="#5D3C28"/>
<path fill-rule="evenodd" clip-rule="evenodd" d="M31.0395 30.342C30.6984 33.8115 27.5479 35.3106 23.8822 34.9475C20.2139 34.5868 17.4315 32.354 17.7603 29.0342C18.0793 25.788 21.2518 24.0655 24.9176 24.4287C28.5858 24.7893 31.3609 27.0958 31.0395 30.342Z" fill="#F2D6A1"/>
<path fill-rule="evenodd" clip-rule="evenodd" d="M26.3614 27.7118C26.2657 28.6785 25.0413 29.1619 24.4598 29.103C23.9372 29.0515 22.7692 28.3325 22.8649 27.3658C22.9606 26.399 23.7531 26.3696 24.7199 26.4653C25.6866 26.561 26.4571 26.745 26.3614 27.7118Z" fill="#5D3C28"/>
<path d="M22.938 30.6779L24.4715 29.959L25.6517 30.8374" stroke="#5D3C28" stroke-width="0.736099" stroke-linecap="round" stroke-linejoin="round"/>
<path d="M24.505 28.6196L24.3774 29.8955" stroke="#5D3C28" stroke-width="0.736099" stroke-linecap="round" stroke-linejoin="round"/>
</svg>
