<svg width="40" height="40" viewBox="0 0 40 40" fill="none" xmlns="http://www.w3.org/2000/svg">
<rect width="40" height="40" rx="20" fill="#5D3C28"/>
<path d="M11.3442 16.3136C14.1999 16.3136 16.5149 14.0048 16.5149 11.1568C16.5149 8.30878 14.1999 6 11.3442 6C8.48848 6 6.17346 8.30878 6.17346 11.1568C6.17346 14.0048 8.48848 16.3136 11.3442 16.3136Z" fill="#FFD100" stroke="#5D3C28" stroke-width="1.00486" stroke-linecap="round" stroke-linejoin="round"/>
<path d="M28.6888 16.7406C31.5445 16.7406 33.8595 14.4318 33.8595 11.5838C33.8595 8.73578 31.5445 6.427 28.6888 6.427C25.8331 6.427 23.5181 8.73578 23.5181 11.5838C23.5181 14.4318 25.8331 16.7406 28.6888 16.7406Z" fill="#FFD100" stroke="#5D3C28" stroke-width="1.00486" stroke-linecap="round" stroke-linejoin="round"/>
<path fill-rule="evenodd" clip-rule="evenodd" d="M36.0215 22.0328C35.7187 14.0871 28.5144 8.8667 19.8261 8.8667C11.1378 8.8667 4.11074 14.822 4.00119 22.7718C3.89563 30.4176 10.8211 34.5414 19.9496 34.5414C32.9959 34.5414 36.2226 27.3009 36.0215 22.0348V22.0328Z" fill="#FFD100" stroke="#5D3C28" stroke-width="1.00486" stroke-linecap="round" stroke-linejoin="round"/>
<path fill-rule="evenodd" clip-rule="evenodd" d="M31.3947 23.6697C31.3947 29.047 26.4889 32.1339 19.9896 32.1339C13.4903 32.1339 8.63629 29.047 8.63629 23.7214C8.63629 18.3957 13.4903 14.5698 19.9896 14.5698C26.4889 14.5698 31.3947 18.0858 31.3947 23.6697Z" fill="#9F692D" stroke="#5D3C28" stroke-width="1.00486" stroke-linecap="round" stroke-linejoin="round"/>
<path d="M25.0194 24.037C25.5782 24.037 26.0312 23.5852 26.0312 23.0279C26.0312 22.4706 25.5782 22.0188 25.0194 22.0188C24.4606 22.0188 24.0076 22.4706 24.0076 23.0279C24.0076 23.5852 24.4606 24.037 25.0194 24.037Z" fill="#5D3C28"/>
<path d="M15.0105 24.037C15.5693 24.037 16.0223 23.5852 16.0223 23.0279C16.0223 22.4706 15.5693 22.0188 15.0105 22.0188C14.4517 22.0188 13.9987 22.4706 13.9987 23.0279C13.9987 23.5852 14.4517 24.037 15.0105 24.037Z" fill="#5D3C28"/>
<path fill-rule="evenodd" clip-rule="evenodd" d="M24.4196 25.9678C24.4196 28.2621 22.4477 29.446 20.0157 29.446C17.5837 29.446 15.6118 28.1628 15.6118 25.9678C15.6118 23.7727 17.5837 22.4895 20.0157 22.4895C22.4477 22.4895 24.4196 23.8224 24.4196 25.9678Z" fill="#F2D6A1"/>
<path fill-rule="evenodd" clip-rule="evenodd" d="M21.1747 24.5456C21.1747 25.1832 20.4019 25.5805 20.0155 25.5805C19.6689 25.5805 18.8563 25.1852 18.8563 24.5456C18.8563 23.906 19.3761 23.8364 20.0155 23.8364C20.6549 23.8364 21.1747 23.9079 21.1747 24.5456Z" fill="#5D3C28"/>
<path d="M19.1201 26.7107L20.0802 26.1406L20.9127 26.6392" stroke="#5D3C28" stroke-width="0.602916" stroke-linecap="round" stroke-linejoin="round"/>
<path d="M20.0159 25.2607V26.105" stroke="#5D3C28" stroke-width="0.602916" stroke-linecap="round" stroke-linejoin="round"/>
</svg>
