<svg width="140" height="133" viewBox="0 0 140 133" fill="none" xmlns="http://www.w3.org/2000/svg">
<path d="M0 116C0 111.582 3.58172 108 8 108H10.841C12.0751 108 13.2994 108.123 14.5188 108.373C15.7381 108.618 16.8291 109.055 17.7869 109.677C18.7446 110.3 19.5246 111.139 20.117 112.184C20.7094 113.233 21.0056 114.543 21.0056 116.122C21.0056 117.702 20.6255 119.002 19.8701 120.164C19.1148 121.331 18.0288 122.229 16.6119 122.867L19.1021 126.817C20.795 129.502 18.8651 133 15.6907 133C14.2085 133 12.8458 132.187 12.1419 130.883L8.46147 124.063H8.21464V128.893C8.21464 131.161 6.37573 133 4.10732 133C1.83891 133 0 131.161 0 128.893V116ZM8.14552 116.906C8.14552 117.82 8.88595 118.56 9.79931 118.56C10.0807 118.56 10.3917 118.536 10.7323 118.491C11.073 118.442 11.3889 118.344 11.6851 118.192C11.9764 118.04 12.2282 117.829 12.4256 117.555C12.628 117.285 12.7268 116.927 12.7268 116.476C12.7268 116.024 12.6428 115.676 12.4799 115.416C12.317 115.156 12.1047 114.965 11.8431 114.832C11.5864 114.705 11.3001 114.622 10.9989 114.587C10.6929 114.553 10.4115 114.533 10.1548 114.533C9.04509 114.533 8.14552 115.433 8.14552 116.542V116.906Z" fill="#FFFDF4"/>
<path d="M26 120.368C26 118.474 26.3431 116.765 27.0293 115.238C27.7155 113.71 28.659 112.415 29.8599 111.343C31.0607 110.275 32.4855 109.448 34.1295 108.868C35.7783 108.288 37.5605 108 39.4809 108C41.4013 108 43.1883 108.288 44.8323 108.868C46.4811 109.448 47.9107 110.27 49.1211 111.343C50.3315 112.41 51.2845 113.71 51.9707 115.238C52.6569 116.765 53 118.474 53 120.368C53 122.262 52.6569 123.989 51.9707 125.549C51.2845 127.109 50.3362 128.441 49.1211 129.541C47.9107 130.646 46.4811 131.496 44.8323 132.099C43.1836 132.703 41.4013 133 39.4809 133C37.5605 133 35.7736 132.698 34.1295 132.099C32.4808 131.496 31.0607 130.646 29.8599 129.541C28.659 128.436 27.7155 127.109 27.0293 125.549C26.3431 123.989 26 122.262 26 120.368ZM34.6823 120.368C34.6823 121.148 34.8014 121.863 35.0445 122.508C35.2827 123.153 35.6163 123.71 36.0404 124.179C36.4645 124.648 36.9744 125.01 37.5653 125.266C38.161 125.521 38.7995 125.651 39.4857 125.651C40.1719 125.651 40.8057 125.521 41.3918 125.266C41.9732 125.01 42.4831 124.648 42.9167 124.179C43.3503 123.71 43.6887 123.153 43.9269 122.508C44.1652 121.863 44.2891 121.148 44.2891 120.368C44.2891 119.588 44.17 118.915 43.9269 118.279C43.6887 117.643 43.3503 117.109 42.9167 116.672C42.4831 116.236 41.9732 115.897 41.3918 115.651C40.8104 115.405 40.1719 115.284 39.4857 115.284C38.7995 115.284 38.161 115.405 37.5653 115.651C36.9696 115.897 36.4598 116.236 36.0404 116.672C35.6163 117.109 35.2875 117.643 35.0445 118.279C34.8062 118.915 34.6823 119.611 34.6823 120.368Z" fill="#FFFDF4"/>
<path d="M56 120.368C56 118.474 56.3558 116.765 57.0674 115.238C57.779 113.71 58.7575 112.415 60.0028 111.343C61.2481 110.275 62.7257 109.448 64.4306 108.868C66.1405 108.288 67.9887 108 69.9802 108C71.9718 108 73.8249 108.288 75.5298 108.868C77.2397 109.448 78.7222 110.27 79.9774 111.343C81.2326 112.41 82.221 113.71 82.9326 115.238C83.6442 116.765 84 118.474 84 120.368C84 122.262 83.6442 123.989 82.9326 125.549C82.221 127.109 81.2376 128.441 79.9774 129.541C78.7222 130.646 77.2397 131.496 75.5298 132.099C73.82 132.703 71.9718 133 69.9802 133C67.9887 133 66.1355 132.698 64.4306 132.099C62.7208 131.496 61.2481 130.646 60.0028 129.541C58.7575 128.436 57.779 127.109 57.0674 125.549C56.3558 123.989 56 122.262 56 120.368ZM65.0039 120.368C65.0039 121.148 65.1274 121.863 65.3795 122.508C65.6265 123.153 65.9725 123.71 66.4123 124.179C66.8521 124.648 67.3809 125.01 67.9936 125.266C68.6114 125.521 69.2736 125.651 69.9852 125.651C70.6968 125.651 71.354 125.521 71.9619 125.266C72.5648 125.01 73.0935 124.648 73.5432 124.179C73.9929 123.71 74.3438 123.153 74.5909 122.508C74.838 121.863 74.9665 121.148 74.9665 120.368C74.9665 119.588 74.8429 118.915 74.5909 118.279C74.3438 117.643 73.9929 117.109 73.5432 116.672C73.0935 116.236 72.5648 115.897 71.9619 115.651C71.359 115.405 70.6968 115.284 69.9852 115.284C69.2736 115.284 68.6114 115.405 67.9936 115.651C67.3759 115.897 66.8472 116.236 66.4123 116.672C65.9725 117.109 65.6315 117.643 65.3795 118.279C65.1324 118.915 65.0039 119.611 65.0039 120.368Z" fill="#FFFDF4"/>
<path d="M95.4616 118.877C95.4589 118.877 95.4568 118.879 95.4568 118.882L95.7354 129.025C95.7951 131.203 94.0465 133 91.8684 133C89.7319 133 88 131.268 88 129.132V114.405C88 110.868 90.8675 108 94.4048 108C97.1542 108 99.5969 109.755 100.475 112.36L103.509 121.369C103.526 121.418 103.572 121.451 103.623 121.451C103.677 121.451 103.724 121.416 103.739 121.365L106.277 112.672C107.085 109.903 109.624 108 112.508 108C116.094 108 119 110.906 119 114.492V128.937C119 131.181 117.181 133 114.937 133C112.665 133 110.835 131.137 110.874 128.866L111.046 119.053C111.047 118.991 111.002 118.938 110.941 118.928C110.881 118.918 110.822 118.954 110.803 119.012L107.104 130.188C106.548 131.867 104.979 133 103.211 133C101.435 133 99.8612 131.857 99.3118 130.168L95.693 119.045C95.6604 118.945 95.567 118.877 95.4616 118.877Z" fill="#FFFDF4"/>
<path d="M122 116.697C122 111.894 125.894 108 130.697 108H135.898C137.829 108 139.395 109.565 139.395 111.496C139.395 113.428 137.829 114.993 135.898 114.993H131.077C130.482 114.993 130.001 115.475 130.001 116.069C130.001 116.664 130.482 117.146 131.077 117.146H135.554C137.357 117.146 138.82 118.608 138.82 120.412C138.82 122.215 137.357 123.678 135.554 123.678H131.165C130.522 123.678 130.001 124.199 130.001 124.842C130.001 125.486 130.522 126.007 131.165 126.007H136.504C138.435 126.007 140 127.572 140 129.504C140 131.435 138.435 133 136.504 133H131C126.029 133 122 128.971 122 124V116.697Z" fill="#FFFDF4"/>
<g clip-path="url(#clip0_315_4387)">
<path d="M53.1079 86.4189H53.0463H51.5048H41.8449L40.9714 92.0001H63.5796L62.6958 86.4189H53.1079Z" fill="#FFFDF4"/>
<path d="M120.028 43.8592C120.069 43.0589 119.802 42.2379 119.196 41.6247L72.0887 0.862804C70.9583 -0.28044 69.0982 -0.28044 67.9678 0.862804L20.8709 41.6247C20.2646 42.2379 19.9974 43.0589 20.0385 43.8592C20.0385 43.8592 20.0385 43.8592 20.0385 43.88V89.0589C20.0385 90.6803 21.3539 92.0002 22.9468 92.0002H37.231V86.4191H35.6587C34.8571 86.4191 34.1995 85.7539 34.1995 84.9433V76.9094L31.7434 74.3942C29.4928 72.0973 29.5237 68.3558 31.7948 66.0797C33.4801 64.396 35.9567 63.9803 38.0428 64.8117V62.7019C38.0428 53.5976 43.736 50.0639 49.3058 50.0639H55.2662C60.8257 50.0639 66.5291 53.5872 66.5291 62.7019V64.8117C68.6152 63.9699 71.0816 64.3856 72.7772 66.0797C75.0483 68.3558 75.0791 72.0869 72.8286 74.3942L70.3725 76.9094V84.9433C70.3725 85.7539 69.7148 86.4191 68.9133 86.4191H67.341V92.0002H89.8361V52.0178H82.3754C81.5635 52.0178 80.8956 51.3422 80.8956 50.5212L84.0196 34.2871C84.0196 33.4661 84.6876 32.7905 85.4994 32.7905H97.4201C98.2319 32.7905 98.8999 33.4661 98.8999 34.2871L102.024 50.5212C102.024 51.3422 101.356 52.0178 100.544 52.0178H93.0834V92.0002H117.13C118.733 92.0002 120.039 90.6699 120.039 89.0589V43.88C120.039 43.88 120.039 43.88 120.039 43.8696L120.028 43.8592Z" fill="#FFFDF4"/>
</g>
<defs>
<clipPath id="clip0_315_4387">
<rect width="100" height="92" fill="white" transform="translate(20.0281)"/>
</clipPath>
</defs>
</svg>
