<svg width="105" height="19" viewBox="0 0 105 19" fill="none" xmlns="http://www.w3.org/2000/svg">
<path d="M0 5C0 2.23858 2.23858 0 5 0H8.13071C9.05634 0 9.97456 0.0919659 10.8891 0.279576C11.8036 0.463508 12.6219 0.790906 13.3401 1.25809C14.0584 1.72528 14.6434 2.35433 15.0877 3.13788C15.532 3.9251 15.7542 4.9073 15.7542 6.09182C15.7542 7.27634 15.4691 8.25118 14.9026 9.12301C14.3361 9.99853 13.5216 10.6717 12.4589 11.1499L14.3266 14.1126C15.5962 16.1266 14.1488 18.75 11.768 18.75C10.6564 18.75 9.63435 18.1402 9.10639 17.162L6.3461 12.0475H6.16098V15.6695C6.16098 17.3708 4.7818 18.75 3.08049 18.75C1.37918 18.75 0 17.3708 0 15.6695V5ZM6.10914 6.67976C6.10914 7.36478 6.66446 7.9201 7.34948 7.9201C7.56053 7.9201 7.79379 7.90171 8.04926 7.8686C8.30473 7.83181 8.54169 7.75824 8.76384 7.6442C8.98229 7.53016 9.17112 7.37198 9.31922 7.16598C9.47102 6.96365 9.54507 6.69511 9.54507 6.35668C9.54507 6.01825 9.48213 5.75706 9.35995 5.56209C9.23776 5.36713 9.07856 5.22366 8.88232 5.12434C8.68979 5.02869 8.47505 4.96616 8.2492 4.94041C8.01964 4.91466 7.8086 4.89994 7.61606 4.89994C6.78381 4.89994 6.10914 5.57461 6.10914 6.40686V6.67976Z" fill="#5D3C28"/>
<path d="M19.5 9.27577C19.5 7.85515 19.7573 6.57382 20.272 5.42827C20.7866 4.28273 21.4943 3.31128 22.3949 2.50696C23.2955 1.70613 24.3641 1.08635 25.5972 0.651114C26.8337 0.215877 28.1704 0 29.6107 0C31.051 0 32.3912 0.215877 33.6243 0.651114C34.8608 1.08635 35.933 1.70265 36.8408 2.50696C37.7486 3.3078 38.4634 4.28273 38.978 5.42827C39.4927 6.57382 39.75 7.85515 39.75 9.27577C39.75 10.6964 39.4927 11.9916 38.978 13.1616C38.4634 14.3315 37.7522 15.3308 36.8408 16.156C35.933 16.9847 34.8608 17.6219 33.6243 18.0745C32.3877 18.5272 31.051 18.75 29.6107 18.75C28.1704 18.75 26.8302 18.5237 25.5972 18.0745C24.3606 17.6219 23.2955 16.9847 22.3949 16.156C21.4943 15.3273 20.7866 14.3315 20.272 13.1616C19.7573 11.9916 19.5 10.6964 19.5 9.27577ZM26.0117 9.27577C26.0117 9.86072 26.1011 10.3969 26.2834 10.8809C26.4621 11.3649 26.7122 11.7827 27.0303 12.1344C27.3484 12.4861 27.7308 12.7577 28.174 12.9492C28.6207 13.1407 29.0996 13.2382 29.6143 13.2382C30.1289 13.2382 30.6043 13.1407 31.0439 12.9492C31.4799 12.7577 31.8623 12.4861 32.1875 12.1344C32.5128 11.7827 32.7665 11.3649 32.9452 10.8809C33.1239 10.3969 33.2168 9.86072 33.2168 9.27577C33.2168 8.69081 33.1275 8.18593 32.9452 7.70891C32.7665 7.23189 32.5128 6.83148 32.1875 6.50418C31.8623 6.17688 31.4799 5.9227 31.0439 5.73816C30.6078 5.55362 30.1289 5.46309 29.6143 5.46309C29.0996 5.46309 28.6207 5.55362 28.174 5.73816C27.7272 5.9227 27.3448 6.17688 27.0303 6.50418C26.7122 6.83148 26.4656 7.23189 26.2834 7.70891C26.1047 8.18593 26.0117 8.70822 26.0117 9.27577Z" fill="#5D3C28"/>
<path d="M42 9.27577C42 7.85515 42.2669 6.57382 42.8006 5.42827C43.3343 4.28273 44.0681 3.31128 45.0021 2.50696C45.9361 1.70613 47.0443 1.08635 48.323 0.651114C49.6054 0.215877 50.9915 0 52.4852 0C53.9788 0 55.3687 0.215877 56.6474 0.651114C57.9298 1.08635 59.0416 1.70265 59.9831 2.50696C60.9245 3.3078 61.6657 4.28273 62.1994 5.42827C62.7331 6.57382 63 7.85515 63 9.27577C63 10.6964 62.7331 11.9916 62.1994 13.1616C61.6657 14.3315 60.9282 15.3308 59.9831 16.156C59.0416 16.9847 57.9298 17.6219 56.6474 18.0745C55.365 18.5272 53.9788 18.75 52.4852 18.75C50.9915 18.75 49.6017 18.5237 48.323 18.0745C47.0406 17.6219 45.9361 16.9847 45.0021 16.156C44.0681 15.3273 43.3343 14.3315 42.8006 13.1616C42.2669 11.9916 42 10.6964 42 9.27577ZM48.7529 9.27577C48.7529 9.86072 48.8456 10.3969 49.0346 10.8809C49.2199 11.3649 49.4793 11.7827 49.8092 12.1344C50.1391 12.4861 50.5356 12.7577 50.9952 12.9492C51.4585 13.1407 51.9552 13.2382 52.4889 13.2382C53.0226 13.2382 53.5155 13.1407 53.9714 12.9492C54.4236 12.7577 54.8202 12.4861 55.1574 12.1344C55.4947 11.7827 55.7579 11.3649 55.9432 10.8809C56.1285 10.3969 56.2248 9.86072 56.2248 9.27577C56.2248 8.69081 56.1322 8.18593 55.9432 7.70891C55.7579 7.23189 55.4947 6.83148 55.1574 6.50418C54.8202 6.17688 54.4236 5.9227 53.9714 5.73816C53.5192 5.55362 53.0226 5.46309 52.4889 5.46309C51.9552 5.46309 51.4585 5.55362 50.9952 5.73816C50.5319 5.9227 50.1354 6.17688 49.8092 6.50418C49.4793 6.83148 49.2236 7.23189 49.0346 7.70891C48.8493 8.18593 48.7529 8.70822 48.7529 9.27577Z" fill="#5D3C28"/>
<path d="M71.5962 8.15761C71.5942 8.15761 71.5926 8.15927 71.5926 8.16129L71.8015 15.7691C71.8464 17.402 70.5348 18.75 68.9013 18.75C67.299 18.75 66 17.451 66 15.8487V4.80363C66 2.15066 68.1507 0 70.8036 0C72.8657 0 74.6977 1.31606 75.3559 3.27023L77.6319 10.0271C77.6443 10.0638 77.6787 10.0885 77.7175 10.0885C77.7576 10.0885 77.7929 10.062 77.8041 10.0235L79.7074 3.50434C80.3137 1.42758 82.2177 0 84.3812 0C87.0701 0 89.25 2.17986 89.25 4.86885V15.7026C89.25 17.3856 87.8856 18.75 86.2026 18.75C84.4988 18.75 83.1259 17.353 83.1557 15.6494L83.2842 8.28988C83.285 8.24351 83.2517 8.20358 83.2059 8.19613C83.1606 8.18877 83.1167 8.21539 83.1023 8.25892L80.3278 16.6411C79.9111 17.9 78.7343 18.75 77.4083 18.75C76.0764 18.75 74.8959 17.8927 74.4839 16.6261L71.7697 8.28365C71.7453 8.20849 71.6752 8.15761 71.5962 8.15761Z" fill="#5D3C28"/>
<path d="M91.5 6.52308C91.5 2.92048 94.4205 0 98.0231 0H101.924C103.372 0 104.546 1.17407 104.546 2.62235C104.546 4.07064 103.372 5.2447 101.924 5.2447H98.3077C97.8619 5.2447 97.5004 5.60615 97.5004 6.05201C97.5004 6.49787 97.8619 6.85931 98.3077 6.85931H101.665C103.018 6.85931 104.115 7.95598 104.115 9.3088C104.115 10.6616 103.018 11.7583 101.665 11.7583H98.3739C97.8915 11.7583 97.5004 12.1494 97.5004 12.6318C97.5004 13.1142 97.8915 13.5053 98.3739 13.5053H102.378C103.826 13.5053 105 14.6794 105 16.1276C105 17.5759 103.826 18.75 102.378 18.75H98.25C94.5221 18.75 91.5 15.7279 91.5 12V6.52308Z" fill="#5D3C28"/>
</svg>
