<svg width="140" height="133" viewBox="0 0 140 133" fill="none" xmlns="http://www.w3.org/2000/svg">
<path d="M0 116C0 111.582 3.58172 108 8 108H10.841C12.0751 108 13.2994 108.123 14.5188 108.373C15.7381 108.618 16.8291 109.055 17.7869 109.677C18.7446 110.3 19.5246 111.139 20.117 112.184C20.7094 113.233 21.0056 114.543 21.0056 116.122C21.0056 117.702 20.6255 119.002 19.8701 120.164C19.1148 121.331 18.0288 122.229 16.6119 122.867L19.1021 126.817C20.795 129.502 18.8651 133 15.6907 133C14.2085 133 12.8458 132.187 12.1419 130.883L8.46147 124.063H8.21464V128.893C8.21464 131.161 6.37573 133 4.10732 133C1.83891 133 0 131.161 0 128.893V116ZM8.14552 116.906C8.14552 117.82 8.88595 118.56 9.79931 118.56C10.0807 118.56 10.3917 118.536 10.7323 118.491C11.073 118.442 11.3889 118.344 11.6851 118.192C11.9764 118.04 12.2282 117.829 12.4256 117.555C12.628 117.285 12.7268 116.927 12.7268 116.476C12.7268 116.024 12.6428 115.676 12.4799 115.416C12.317 115.156 12.1047 114.965 11.8431 114.832C11.5864 114.705 11.3001 114.622 10.9989 114.587C10.6929 114.553 10.4115 114.533 10.1548 114.533C9.04509 114.533 8.14552 115.433 8.14552 116.542V116.906Z" fill="#FFFDF4"/>
<path d="M26 120.368C26 118.474 26.3431 116.765 27.0293 115.238C27.7155 113.71 28.659 112.415 29.8599 111.343C31.0607 110.275 32.4855 109.448 34.1295 108.868C35.7783 108.288 37.5605 108 39.4809 108C41.4013 108 43.1883 108.288 44.8323 108.868C46.4811 109.448 47.9107 110.27 49.1211 111.343C50.3315 112.41 51.2845 113.71 51.9707 115.238C52.6569 116.765 53 118.474 53 120.368C53 122.262 52.6569 123.989 51.9707 125.549C51.2845 127.109 50.3362 128.441 49.1211 129.541C47.9107 130.646 46.4811 131.496 44.8323 132.099C43.1836 132.703 41.4013 133 39.4809 133C37.5605 133 35.7736 132.698 34.1295 132.099C32.4808 131.496 31.0607 130.646 29.8599 129.541C28.659 128.436 27.7155 127.109 27.0293 125.549C26.3431 123.989 26 122.262 26 120.368ZM34.6823 120.368C34.6823 121.148 34.8014 121.863 35.0445 122.508C35.2827 123.153 35.6163 123.71 36.0404 124.179C36.4645 124.648 36.9744 125.01 37.5653 125.266C38.161 125.521 38.7995 125.651 39.4857 125.651C40.1719 125.651 40.8057 125.521 41.3918 125.266C41.9732 125.01 42.4831 124.648 42.9167 124.179C43.3503 123.71 43.6887 123.153 43.9269 122.508C44.1652 121.863 44.2891 121.148 44.2891 120.368C44.2891 119.588 44.17 118.915 43.9269 118.279C43.6887 117.643 43.3503 117.109 42.9167 116.672C42.4831 116.236 41.9732 115.897 41.3918 115.651C40.8104 115.405 40.1719 115.284 39.4857 115.284C38.7995 115.284 38.161 115.405 37.5653 115.651C36.9696 115.897 36.4598 116.236 36.0404 116.672C35.6163 117.109 35.2875 117.643 35.0445 118.279C34.8062 118.915 34.6823 119.611 34.6823 120.368Z" fill="#FFFDF4"/>
<path d="M56 120.368C56 118.474 56.3558 116.765 57.0674 115.238C57.779 113.71 58.7575 112.415 60.0028 111.343C61.2481 110.275 62.7257 109.448 64.4306 108.868C66.1405 108.288 67.9887 108 69.9802 108C71.9718 108 73.8249 108.288 75.5298 108.868C77.2397 109.448 78.7222 110.27 79.9774 111.343C81.2326 112.41 82.221 113.71 82.9326 115.238C83.6442 116.765 84 118.474 84 120.368C84 122.262 83.6442 123.989 82.9326 125.549C82.221 127.109 81.2376 128.441 79.9774 129.541C78.7222 130.646 77.2397 131.496 75.5298 132.099C73.82 132.703 71.9718 133 69.9802 133C67.9887 133 66.1355 132.698 64.4306 132.099C62.7208 131.496 61.2481 130.646 60.0028 129.541C58.7575 128.436 57.779 127.109 57.0674 125.549C56.3558 123.989 56 122.262 56 120.368ZM65.0039 120.368C65.0039 121.148 65.1274 121.863 65.3795 122.508C65.6265 123.153 65.9725 123.71 66.4123 124.179C66.8521 124.648 67.3809 125.01 67.9936 125.266C68.6114 125.521 69.2736 125.651 69.9852 125.651C70.6968 125.651 71.354 125.521 71.9619 125.266C72.5648 125.01 73.0935 124.648 73.5432 124.179C73.9929 123.71 74.3438 123.153 74.5909 122.508C74.838 121.863 74.9665 121.148 74.9665 120.368C74.9665 119.588 74.8429 118.915 74.5909 118.279C74.3438 117.643 73.9929 117.109 73.5432 116.672C73.0935 116.236 72.5648 115.897 71.9619 115.651C71.359 115.405 70.6968 115.284 69.9852 115.284C69.2736 115.284 68.6114 115.405 67.9936 115.651C67.3759 115.897 66.8472 116.236 66.4123 116.672C65.9725 117.109 65.6315 117.643 65.3795 118.279C65.1324 118.915 65.0039 119.611 65.0039 120.368Z" fill="#FFFDF4"/>
<path d="M95.4616 118.877C95.4589 118.877 95.4568 118.879 95.4568 118.882L95.7354 129.025C95.7951 131.203 94.0465 133 91.8684 133C89.7319 133 88 131.268 88 129.132V114.405C88 110.868 90.8675 108 94.4048 108C97.1542 108 99.5969 109.755 100.475 112.36L103.509 121.369C103.526 121.418 103.572 121.451 103.623 121.451C103.677 121.451 103.724 121.416 103.739 121.365L106.277 112.672C107.085 109.903 109.624 108 112.508 108C116.094 108 119 110.906 119 114.492V128.937C119 131.181 117.181 133 114.937 133C112.665 133 110.835 131.137 110.874 128.866L111.046 119.053C111.047 118.991 111.002 118.938 110.941 118.928C110.881 118.918 110.822 118.954 110.803 119.012L107.104 130.188C106.548 131.867 104.979 133 103.211 133C101.435 133 99.8612 131.857 99.3118 130.168L95.693 119.045C95.6604 118.945 95.567 118.877 95.4616 118.877Z" fill="#FFD100"/>
<path d="M122 116.697C122 111.894 125.894 108 130.697 108H135.898C137.829 108 139.395 109.565 139.395 111.496C139.395 113.428 137.829 114.993 135.898 114.993H131.077C130.482 114.993 130.001 115.475 130.001 116.069C130.001 116.664 130.482 117.146 131.077 117.146H135.554C137.357 117.146 138.82 118.608 138.82 120.412C138.82 122.215 137.357 123.678 135.554 123.678H131.165C130.522 123.678 130.001 124.199 130.001 124.842C130.001 125.486 130.522 126.007 131.165 126.007H136.504C138.435 126.007 140 127.572 140 129.504C140 131.435 138.435 133 136.504 133H131C126.029 133 122 128.971 122 124V116.697Z" fill="#FFD100"/>
<g clip-path="url(#clip0_1285_5688)">
<path fill-rule="evenodd" clip-rule="evenodd" d="M105.785 52.3885C109.982 53.1628 113.17 56.9745 113.17 61.5605C113.17 65.187 111.18 68.327 108.273 69.8656V83.3193C108.273 86.2012 106.007 88.5604 103.237 88.5604H102.653V91.2935C102.653 92.3258 101.84 93.1696 100.848 93.1696H97.6664C96.6744 93.1696 95.8615 92.3258 95.8615 91.2935V88.5604H44.1378V91.2935C44.1378 92.3258 43.325 93.1696 42.3329 93.1696H39.1512C38.1592 93.1696 37.3464 92.3258 37.3464 91.2935V88.5604H36.7624C33.9921 88.5604 31.7261 86.2012 31.7261 83.3193V69.8656C28.8198 68.3237 26.8291 65.1837 26.8291 61.5605C26.8291 56.9712 30.0175 53.1628 34.2144 52.3885L34.9476 52.2661V25.6599C34.9476 19.896 39.483 15.1776 45.0236 15.1776H94.979C100.52 15.1776 105.055 19.8927 105.055 25.6599V52.2992C105.055 52.2992 105.32 52.3124 105.788 52.3885H105.785Z" fill="#FFFDF4"/>
<path fill-rule="evenodd" clip-rule="evenodd" d="M84.6409 51.3792L70.1257 60.1508L55.3551 51.3792C55.3551 51.3792 42.8206 55.3133 52.2629 76.0563L68.4237 74.6632L87.7363 76.0563C97.1786 55.3133 84.6442 51.3792 84.6442 51.3792H84.6409Z" fill="#FFD100" stroke="#5D3C28" stroke-width="1.6738" stroke-linecap="round" stroke-linejoin="round"/>
<path fill-rule="evenodd" clip-rule="evenodd" d="M93.7853 51.9948C91.297 47.2235 87.0867 44.55 87.0867 44.55L76.178 44.7419L71.0222 43.0974L63.826 44.7419L52.9172 44.55C52.9172 44.55 48.707 47.2235 46.2187 51.9948C42.8943 58.3742 44.3873 66.5106 57.8939 64.7834C57.8939 64.7834 68.0329 63.6253 70.0036 62.0205C71.9744 63.6253 82.1134 64.7834 82.1134 64.7834C95.62 66.5106 97.113 58.3709 93.7886 51.9948H93.7853Z" fill="#FFD100" stroke="#5D3C28" stroke-width="1.6738" stroke-linecap="round" stroke-linejoin="round"/>
<path d="M55.5553 18.0065C60.312 18.0065 64.1681 14.1608 64.1681 9.41682C64.1681 4.67288 60.312 0.827148 55.5553 0.827148C50.7985 0.827148 46.9424 4.67288 46.9424 9.41682C46.9424 14.1608 50.7985 18.0065 55.5553 18.0065Z" fill="#FFD100" stroke="#5D3C28" stroke-width="1.6738" stroke-linecap="round" stroke-linejoin="round"/>
<path d="M84.4469 18.7177C89.2036 18.7177 93.0597 14.8719 93.0597 10.128C93.0597 5.38406 89.2036 1.53833 84.4469 1.53833C79.6901 1.53833 75.834 5.38406 75.834 10.128C75.834 14.8719 79.6901 18.7177 84.4469 18.7177Z" fill="#FFD100" stroke="#5D3C28" stroke-width="1.6738" stroke-linecap="round" stroke-linejoin="round"/>
<path fill-rule="evenodd" clip-rule="evenodd" d="M96.6614 27.533C96.1571 14.2977 84.1568 5.60217 69.6847 5.60217C55.2127 5.60217 43.5077 15.522 43.3252 28.7639C43.1494 41.4995 54.6852 48.3686 69.8904 48.3686C91.6217 48.3686 96.9965 36.3079 96.6614 27.5363V27.533Z" fill="#FFD100" stroke="#5D3C28" stroke-width="1.6738" stroke-linecap="round" stroke-linejoin="round"/>
<path fill-rule="evenodd" clip-rule="evenodd" d="M88.9555 30.2593C88.9555 39.2163 80.7839 44.3582 69.9581 44.3582C59.1322 44.3582 51.0469 39.2163 51.0469 30.3454C51.0469 21.4745 59.1322 15.1017 69.9581 15.1017C80.7839 15.1017 88.9555 20.9583 88.9555 30.2593Z" fill="#9F692D" stroke="#5D3C28" stroke-width="1.6738" stroke-linecap="round" stroke-linejoin="round"/>
<path d="M78.3348 30.8713C79.2657 30.8713 80.0202 30.1187 80.0202 29.1904C80.0202 28.2621 79.2657 27.5095 78.3348 27.5095C77.404 27.5095 76.6494 28.2621 76.6494 29.1904C76.6494 30.1187 77.404 30.8713 78.3348 30.8713Z" fill="#5D3C28"/>
<path d="M61.663 30.8713C62.5938 30.8713 63.3484 30.1187 63.3484 29.1904C63.3484 28.2621 62.5938 27.5095 61.663 27.5095C60.7321 27.5095 59.9775 28.2621 59.9775 29.1904C59.9775 30.1187 60.7321 30.8713 61.663 30.8713Z" fill="#5D3C28"/>
<path fill-rule="evenodd" clip-rule="evenodd" d="M77.3361 34.0874C77.3361 37.9091 74.0516 39.8812 70.0006 39.8812C65.9496 39.8812 62.665 37.7437 62.665 34.0874C62.665 30.4312 65.9496 28.2937 70.0006 28.2937C74.0516 28.2937 77.3361 30.5139 77.3361 34.0874Z" fill="#F2D6A1"/>
<path fill-rule="evenodd" clip-rule="evenodd" d="M71.9312 31.7184C71.9312 32.7805 70.6439 33.4422 70.0003 33.4422C69.423 33.4422 68.0693 32.7838 68.0693 31.7184C68.0693 30.6529 68.9353 30.5371 70.0003 30.5371C71.0653 30.5371 71.9312 30.6562 71.9312 31.7184Z" fill="#5D3C28"/>
<path d="M68.5088 35.3251L70.1079 34.3755L71.4948 35.206" stroke="#5D3C28" stroke-width="1.00428" stroke-linecap="round" stroke-linejoin="round"/>
<path d="M70 32.9097V34.3159" stroke="#5D3C28" stroke-width="1.00428" stroke-linecap="round" stroke-linejoin="round"/>
<path d="M52.499 52.7893C56.4272 52.0779 60.0005 53.5007 60.2758 55.0492" stroke="#5D3C28" stroke-width="1.6738" stroke-linecap="round" stroke-linejoin="round"/>
<path d="M87.5014 52.7892C83.5732 52.0778 80 53.5006 79.7246 55.0491" stroke="#5D3C28" stroke-width="1.6738" stroke-linecap="round" stroke-linejoin="round"/>
<path fill-rule="evenodd" clip-rule="evenodd" d="M88.1683 73.4064C88.1683 77.6913 83.8353 81.1656 78.4904 81.1656C73.1455 81.1656 69.8643 77.8005 69.8643 73.5123C69.8643 69.2241 73.3214 65.4156 78.6662 65.4156C84.0111 65.4156 88.1683 69.1182 88.1683 73.4064Z" fill="#FFD100" stroke="#5D3C28" stroke-width="1.6738" stroke-linecap="round" stroke-linejoin="round"/>
<path fill-rule="evenodd" clip-rule="evenodd" d="M69.4786 73.2606C69.4786 77.5455 65.7992 81.1918 60.4543 81.1918C55.1094 81.1918 51.8281 77.8268 51.8281 73.5386C51.8281 69.2503 55.2852 65.4419 60.6301 65.4419C65.975 65.4419 69.4752 68.9757 69.4752 73.2606H69.4786Z" fill="#FFD100" stroke="#5D3C28" stroke-width="1.6738" stroke-linecap="round" stroke-linejoin="round"/>
<path d="M78.909 81.2145C82.6708 81.2145 85.7203 78.422 85.7203 74.9773C85.7203 71.5327 82.6708 68.7402 78.909 68.7402C75.1472 68.7402 72.0977 71.5327 72.0977 74.9773C72.0977 78.422 75.1472 81.2145 78.909 81.2145Z" fill="#9F692D" stroke="#5D3C28" stroke-width="1.6738" stroke-linecap="round" stroke-linejoin="round"/>
<path d="M61.0916 81.2145C64.8534 81.2145 67.903 78.422 67.903 74.9773C67.903 71.5327 64.8534 68.7402 61.0916 68.7402C57.3298 68.7402 54.2803 71.5327 54.2803 74.9773C54.2803 78.422 57.3298 81.2145 61.0916 81.2145Z" fill="#9F692D" stroke="#5D3C28" stroke-width="1.6738" stroke-linecap="round" stroke-linejoin="round"/>
<path d="M77.4551 61.729C80.0973 61.729 82.2393 59.6358 82.2393 57.0536C82.2393 54.4715 80.0973 52.3783 77.4551 52.3783C74.8129 52.3783 72.6709 54.4715 72.6709 57.0536C72.6709 59.6358 74.8129 61.729 77.4551 61.729Z" fill="#FFFDF4" stroke="#5D3C28" stroke-width="1.6738" stroke-linecap="round" stroke-linejoin="round"/>
<path fill-rule="evenodd" clip-rule="evenodd" d="M69.2496 46.5913C65.0825 46.5913 61.7051 48.2755 61.7051 50.3534V63.1684C61.7051 65.2464 65.0825 66.9306 69.2496 66.9306C73.4167 66.9306 76.7942 65.2464 76.7942 63.1684V50.3534C76.7942 48.2755 73.4167 46.5913 69.2496 46.5913Z" fill="#FFFDF4" stroke="#5D3C28" stroke-width="1.6738" stroke-linecap="round" stroke-linejoin="round"/>
<path d="M69.353 52.2924C71.9421 52.2924 74.041 51.6095 74.041 50.7671C74.041 49.9246 71.9421 49.2417 69.353 49.2417C66.7639 49.2417 64.665 49.9246 64.665 50.7671C64.665 51.6095 66.7639 52.2924 69.353 52.2924Z" fill="#5D3C28"/>
<path d="M58.3653 64.2114C61.0075 64.2114 63.1494 61.9463 63.1494 59.1522C63.1494 56.3581 61.0075 54.093 58.3653 54.093C55.723 54.093 53.5811 56.3581 53.5811 59.1522C53.5811 61.9463 55.723 64.2114 58.3653 64.2114Z" fill="#9F692D" stroke="#5D3C28" stroke-width="1.6738" stroke-linecap="round" stroke-linejoin="round"/>
<path d="M81.6319 64.2114C84.2741 64.2114 86.4161 61.9463 86.4161 59.1522C86.4161 56.3581 84.2741 54.093 81.6319 54.093C78.9896 54.093 76.8477 56.3581 76.8477 59.1522C76.8477 61.9463 78.9896 64.2114 81.6319 64.2114Z" fill="#9F692D" stroke="#5D3C28" stroke-width="1.6738" stroke-linecap="round" stroke-linejoin="round"/>
</g>
<defs>
<clipPath id="clip0_1285_5688">
<rect width="88" height="94" fill="white" transform="translate(26)"/>
</clipPath>
</defs>
</svg>
