<svg width="24" height="24" viewBox="0 0 24 24" fill="none" xmlns="http://www.w3.org/2000/svg">
<ellipse cx="9.77623" cy="10.9983" rx="8.96156" ry="7.73953" fill="#5D3C28"/>
<path d="M17.1434 2.04257L16.3948 1.9178C15.4135 1.75426 14.4687 2.36326 14.2123 3.32448C13.9962 4.13486 14.3281 4.99206 15.0336 5.44559L15.7816 5.92641C16.3566 6.29604 17.0775 6.35618 17.7058 6.08692C18.7329 5.64673 19.2213 4.46759 18.8063 3.43007L18.7774 3.35776C18.4999 2.66401 17.8804 2.16541 17.1434 2.04257Z" fill="#5D3C28"/>
<path d="M4.74888 5.53949L5.39682 5.14436C6.24617 4.62642 6.56279 3.5478 6.12815 2.65295C5.76172 1.89854 4.95007 1.46706 4.11974 1.58527L3.23947 1.71059C2.56274 1.80693 1.97796 2.23289 1.6787 2.84745C1.18949 3.85211 1.59103 5.0636 2.58347 5.57717L2.65263 5.61296C3.31624 5.95636 4.11095 5.92851 4.74888 5.53949Z" fill="#5D3C28"/>
<circle cx="6.51748" cy="9.77611" r="0.407343" fill="#FFFDF4" stroke="#FFFDF4" stroke-width="0.814687"/>
<circle cx="12.2203" cy="9.77611" r="0.407343" fill="#FFFDF4" stroke="#FFFDF4" stroke-width="0.814687"/>
<path d="M8.52171 12.5118L9.10734 12.9673C9.15988 13.0081 9.23199 13.0129 9.28948 12.9794L10.0703 12.5239C10.214 12.4401 10.1545 12.2202 9.98822 12.2202H8.62174C8.4666 12.2202 8.39925 12.4165 8.52171 12.5118Z" fill="#FFFDF4" stroke="#FFFDF4" stroke-width="1.62937"/>
<path d="M12.4536 18.5519C12.0389 16.4876 12.4709 13.6639 15.7376 12.5189C18.4438 11.5704 21.3024 12.8671 21.9625 16.1534C22.1983 17.3276 21.6603 18.5519 21.6603 18.5519L22.928 21.1702C22.9574 21.231 22.9043 21.2991 22.8382 21.2854L20.3672 20.7745C20.3672 20.7745 19.5446 21.5245 17.6239 21.9103C15.2231 22.3925 12.8308 20.43 12.4536 18.5519Z" fill="#5D3C28" stroke="white" stroke-width="1.22203"/>
</svg>
