<svg width="24" height="23" viewBox="0 0 24 23" fill="none" xmlns="http://www.w3.org/2000/svg">
<ellipse cx="12" cy="13.5" rx="11" ry="9.5" fill="#5D3C28"/>
<path d="M21.0429 2.50716L20.1241 2.35401C18.9196 2.15326 17.7598 2.90079 17.4452 4.08066C17.1799 5.07538 17.5873 6.12756 18.4533 6.68425L19.3713 7.27443C20.0771 7.72815 20.9621 7.80197 21.7333 7.47145C22.994 6.93115 23.5935 5.48378 23.0841 4.21026L23.0486 4.12151C22.708 3.26996 21.9476 2.65793 21.0429 2.50716Z" fill="#5D3C28"/>
<path d="M5.82911 6.79961L6.62443 6.31461C7.66697 5.67885 8.05561 4.35489 7.5221 3.25649C7.07232 2.33047 6.07605 1.80085 5.05686 1.94595L3.97636 2.09978C3.14569 2.21804 2.4279 2.74088 2.06057 3.49523C1.46007 4.72842 1.95296 6.21548 3.17114 6.84587L3.25603 6.8898C4.07058 7.31132 5.04607 7.27712 5.82911 6.79961Z" fill="#5D3C28"/>
<circle cx="8" cy="12" r="0.5" fill="#FFFDF4" stroke="#FFFDF4"/>
<circle cx="15" cy="12" r="0.5" fill="#FFFDF4" stroke="#FFFDF4"/>
<path d="M10.4601 15.3579L11.179 15.917C11.2435 15.9671 11.332 15.973 11.4025 15.9319L12.361 15.3728C12.5373 15.2699 12.4644 15 12.2602 15H10.5829C10.3925 15 10.3098 15.241 10.4601 15.3579Z" fill="#FFFDF4" stroke="#FFFDF4" stroke-width="2"/>
</svg>
